<svg width="60" height="60" viewBox="0 0 60 60" fill="none" xmlns="http://www.w3.org/2000/svg">
<mask id="path-1-inside-1_5350_5356" fill="white">
<path fill-rule="evenodd" clip-rule="evenodd" d="M59.835 32.6803C59.235 28.2935 57.0476 23.6569 53.6603 19.6323C49.2856 14.4208 43.6233 11.0714 38.4485 10.5839C38.161 9.88402 37.7736 9.22162 37.3111 8.60928L33.6738 3.83516C31.5114 0.998176 27.7991 -0.339071 23.2243 0.0733126C18.812 0.460741 14.0748 2.43541 9.88781 5.62227C5.71305 8.79667 2.5507 12.846 1.01329 16.9952C-0.586627 21.3069 -0.286643 25.2438 1.87575 28.0682L3.96319 30.8052C3.5507 31.3801 3.20072 31.9925 2.93823 32.6424L0.663378 38.1913C-0.686496 41.4907 0.0384036 45.365 2.71333 49.1144C5.28817 52.7262 9.38796 55.8008 14.2499 57.8004C17.7996 59.2502 21.4745 60 24.8868 60C26.1242 60 27.3492 59.9 28.5616 59.6876C33.0864 58.8877 36.3237 56.6256 37.6736 53.3387L39.811 48.1146C40.1859 48.2646 40.5734 48.4021 40.9484 48.5146C42.4608 49.0145 44.0358 49.2769 45.6231 49.2894C48.0855 49.2894 50.2604 48.5646 51.9728 47.1273L56.5725 43.2655C59.2974 41.0034 60.4599 37.2291 59.8349 32.6798L59.835 32.6803ZM31.3484 39.6666L34.4108 37.0921C35.7607 38.6043 37.2481 39.9665 38.8731 41.1789L35.8608 43.7159C34.2108 42.5412 32.6983 41.1789 31.3484 39.6666ZM30.061 38.1418C29.6485 37.6044 29.2485 37.067 28.8735 36.5047C28.836 36.4297 28.7861 36.3548 28.7361 36.2798L28.736 36.2797H28.7235C27.986 35.1674 27.3236 34.0051 26.7611 32.7928C27.6235 32.2679 28.461 31.6805 29.286 31.0556L29.286 31.0555C29.4985 30.8931 29.711 30.7306 29.9234 30.5557C30.8234 32.3303 31.8858 34.0051 33.1233 35.5548L30.061 38.1418ZM27.2611 39.2666C26.8486 40.2915 25.6736 40.7788 24.6488 40.3665L20.024 38.4792L21.2614 35.4548C22.5489 35.0048 23.8112 34.4549 25.0237 33.805C25.6487 35.1172 26.3736 36.3921 27.1861 37.5919C27.4486 38.1043 27.4861 38.7168 27.2611 39.2666ZM24.9862 43.2784C25.4112 44.2907 24.9363 45.4655 23.9113 45.8904C23.4238 46.0903 22.8739 46.1028 22.3864 45.9029L17.7616 44.0157L19.2739 40.3163L23.8987 42.2035C24.3862 42.4035 24.7738 42.791 24.9862 43.2784ZM10.7493 31.9054H11.0742L13.1491 34.63C10.5118 34.3925 8.41187 33.3677 7.09937 31.643L6.92438 31.418C8.1618 31.743 9.46178 31.9179 10.7493 31.9054ZM15.774 34.6174C15.7365 34.6174 15.699 34.6174 15.6615 34.6299L13.4366 31.7054C14.874 31.4929 16.2865 31.143 17.6614 30.6556L20.0238 33.755C18.6364 34.1925 17.224 34.4799 15.774 34.6174ZM24.8485 26.8813L27.2734 30.0557C25.6235 31.2305 23.8486 32.2303 21.9862 33.0177L19.5988 29.8808C21.4487 29.0684 23.1986 28.0686 24.8485 26.8813ZM28.8608 28.8559L26.4359 25.6815C28.0108 24.4068 29.4482 22.982 30.7232 21.4198L33.1106 24.5567C31.8606 26.1314 30.4358 27.5812 28.8608 28.8559ZM34.3355 22.8445L31.9731 19.7451C32.8105 18.5453 33.5229 17.283 34.1105 15.9458L36.3354 18.8703L36.2979 18.9828C35.7854 20.3325 35.1354 21.6323 34.3355 22.8445ZM37.0103 16.4457L34.9355 13.7211C35.3479 12.3839 35.5604 10.9841 35.5604 9.58439L35.7354 9.80936C37.0478 11.5465 37.4728 13.8461 37.0103 16.4457ZM2.88749 17.6955C4.29988 13.8962 7.22476 10.1718 11.1121 7.20985C14.9994 4.24786 19.3617 2.42316 23.4109 2.06082C23.8859 2.02333 24.3483 1.99833 24.7984 1.99833C28.0232 1.99833 30.5856 3.06065 32.098 5.04785C33.8229 7.30996 34.0229 10.5719 32.673 14.2087C31.2606 18.008 28.3357 21.7324 24.4484 24.6944C20.561 27.6564 16.1987 29.4811 12.1496 29.8434C8.27478 30.1809 5.1874 29.1186 3.46246 26.8564C1.72506 24.5943 1.52507 21.3324 2.88749 17.6955ZM5.49982 32.8425C7.39972 35.3421 10.5246 36.6793 14.3869 36.6793C14.8994 36.6793 15.4243 36.6543 15.9493 36.6044C16.9118 36.5169 17.8617 36.3669 18.7992 36.1419L15.8869 43.2531L14.037 42.4908L13.2745 44.3405L15.1245 45.1029L14.362 46.9526L16.212 47.7149L16.9994 45.8652L18.8494 46.6276L18.0869 48.4773L19.9369 49.2397L20.6994 47.3899L21.6243 47.7649C23.6743 48.6022 25.9991 47.6274 26.8365 45.5777C27.2365 44.5904 27.2365 43.4906 26.824 42.5158C26.7865 42.4408 26.749 42.3658 26.7115 42.2783C27.7615 41.9159 28.6239 41.1286 29.0613 40.1037C29.0863 40.1412 29.1238 40.1787 29.1488 40.2037L29.1488 40.2037C31.7362 43.2781 34.786 45.7277 37.9608 47.3149C36.8109 49.802 34.161 51.5266 30.4737 52.1765C26.4739 52.8889 21.7866 52.2515 17.2618 50.4019C12.737 48.5522 8.94975 45.7152 6.59981 42.4033C4.33741 39.2414 3.69996 36.0419 4.77488 33.4049C4.89988 33.0925 5.06236 32.78 5.23736 32.4926L5.49982 32.8425ZM15.5993 51.8643L14.0869 55.5636C12.237 54.7388 10.4871 53.7139 8.86216 52.5017L10.3496 48.8523C11.987 50.0396 13.7493 51.0395 15.5993 51.8643ZM17.4493 52.6142C19.3367 53.3265 21.2991 53.839 23.299 54.1514L21.8116 57.8008C19.7992 57.5258 17.8368 57.0259 15.9369 56.3135L17.4493 52.6142ZM2.51288 38.9663L2.62538 38.7038C2.98786 40.0536 3.55034 41.3534 4.30026 42.5406L3.00033 45.69C1.86289 43.3029 1.68797 40.9659 2.51288 38.9663ZM4.33782 47.9647C4.33036 47.9535 4.3229 47.9434 4.31577 47.9338C4.29901 47.9112 4.28409 47.891 4.27532 47.8647L5.66279 44.4653C6.57525 45.6026 7.60018 46.6399 8.71269 47.5772L7.2378 51.1766C6.15036 50.2143 5.17526 49.1395 4.33782 47.9647ZM23.8991 57.9879L25.374 54.3886C25.974 54.4386 26.5739 54.4511 27.1614 54.4511C28.0239 54.4511 28.8738 54.4011 29.7238 54.3011L28.3364 57.7005C28.3176 57.7067 28.2989 57.7099 28.2801 57.713C28.2614 57.7161 28.2426 57.7192 28.2239 57.7255C26.7865 57.9754 25.3365 58.0629 23.8991 57.9879ZM30.7613 57.0506L32.0612 53.8887C33.4236 53.5637 34.736 53.0388 35.936 52.3264L35.8235 52.5889C34.9985 54.601 33.2361 56.1382 30.7613 57.0506ZM37.611 44.8528L40.5858 42.3532C41.8232 43.1281 43.1231 43.778 44.4731 44.3028L41.6608 46.6649L41.5483 46.6274C40.1859 46.1775 38.8608 45.5901 37.611 44.8528ZM50.6857 45.6152C49.0233 47.0149 46.7484 47.5523 44.1236 47.2024L46.7359 45.0028C47.8733 45.2902 49.0358 45.4402 50.2107 45.4402C50.4482 45.4402 50.6731 45.4277 50.8981 45.4152L50.6857 45.6152ZM55.2855 41.7658C53.0981 43.6029 49.8607 43.9529 46.1609 42.7781C42.2986 41.5408 38.4363 38.8038 35.2865 35.067C33.7866 33.2924 32.5117 31.3302 31.4992 29.2306C34.5866 26.3936 36.9239 23.0817 38.1864 19.6948C39.1238 17.1828 39.4113 14.7957 39.0613 12.6836C43.4735 13.3835 48.3859 16.4579 52.1487 20.9322C55.2984 24.669 57.3234 28.9558 57.8734 32.9677C58.3859 36.8045 57.4734 39.929 55.286 41.7662L55.2855 41.7658ZM7.43727 24.8314C7.48727 24.8314 7.53727 24.8314 7.59977 24.8189L22.1864 22.5069C22.5239 22.4569 22.7989 22.2444 22.9364 21.932L29.0361 8.48409C29.2611 7.98418 29.0361 7.38429 28.5361 7.1593C28.3611 7.08431 28.1611 7.04682 27.9612 7.08431L13.3745 9.39636C13.037 9.44635 12.762 9.65881 12.6245 9.97125L6.52483 23.4191C6.29983 23.919 6.52483 24.5189 7.0248 24.7439C7.1498 24.7939 7.28729 24.8314 7.43727 24.8314ZM14.7369 19.5199L18.4117 21.0696L11.1996 22.2069L14.7369 19.5199ZM15.3619 16.5329L14.6619 11.2214L24.3614 9.68417L15.3619 16.5329ZM13.5245 17.9326L9.98718 20.6322L12.9995 13.9833L13.5245 17.9326ZM21.5116 20.2198L16.5744 18.1326L25.5739 11.2838L21.5116 20.2198ZM46.297 27.6935C46.972 26.0938 48.5969 25.1065 50.3343 25.2565L50.3343 25.2563C51.3842 25.3439 52.3717 25.8562 53.0466 26.6561C54.4715 28.3433 54.2466 30.8678 52.5592 32.2926C51.8468 32.8925 50.9342 33.2299 49.9968 33.2299C49.8843 33.2299 49.7593 33.2299 49.6468 33.2174C47.7594 33.0549 46.247 31.5802 46.022 29.693L43.9471 29.0931L43.4971 29.468C44.1221 30.7678 43.9846 32.3175 43.1471 33.5048C41.8598 35.3045 39.3724 35.7169 37.5725 34.4421C35.7725 33.1549 35.3601 30.6678 36.635 28.8681C37.9224 27.0685 40.4098 26.6561 42.2097 27.9308L42.6597 27.5559L42.4222 25.4063C41.0347 24.9939 39.9723 23.8691 39.6598 22.4569C39.1724 20.2948 40.5349 18.1576 42.6847 17.6702C44.8471 17.1829 46.9845 18.5451 47.472 20.6947C47.9594 22.8568 46.5969 24.994 44.4471 25.4814L44.6346 27.2061L46.297 27.6935ZM42.2723 20.0574C41.4223 20.7573 41.3098 22.0195 42.0223 22.8694C42.3597 23.2818 42.8472 23.5317 43.3722 23.5817C43.8971 23.6317 44.4346 23.4568 44.8346 23.1193C45.6845 22.4194 45.797 21.1572 45.0846 20.3074C44.3846 19.4575 43.1222 19.345 42.2723 20.0574ZM39.7099 33.18C40.8098 33.28 41.7723 32.4676 41.8723 31.3678L41.8723 31.3678C41.9723 30.268 41.1474 29.3056 40.0599 29.2056C39.9974 29.1931 39.9474 29.1931 39.885 29.1931C38.8475 29.1931 37.985 29.9805 37.8975 31.0179C37.7975 32.1177 38.6099 33.08 39.7099 33.18ZM51.2718 30.768C51.6718 30.418 51.9218 29.9306 51.9718 29.4057L51.9718 29.4057C52.0718 28.3059 51.2594 27.3436 50.1719 27.2561C50.1094 27.2436 50.0594 27.2436 49.9969 27.2436C49.5219 27.2436 49.072 27.4061 48.7095 27.706C47.8595 28.4059 47.747 29.6681 48.4595 30.518C49.1595 31.3678 50.4218 31.4803 51.2718 30.768Z"/>
</mask>
<path fill-rule="evenodd" clip-rule="evenodd" d="M59.835 32.6803C59.235 28.2935 57.0476 23.6569 53.6603 19.6323C49.2856 14.4208 43.6233 11.0714 38.4485 10.5839C38.161 9.88402 37.7736 9.22162 37.3111 8.60928L33.6738 3.83516C31.5114 0.998176 27.7991 -0.339071 23.2243 0.0733126C18.812 0.460741 14.0748 2.43541 9.88781 5.62227C5.71305 8.79667 2.5507 12.846 1.01329 16.9952C-0.586627 21.3069 -0.286643 25.2438 1.87575 28.0682L3.96319 30.8052C3.5507 31.3801 3.20072 31.9925 2.93823 32.6424L0.663378 38.1913C-0.686496 41.4907 0.0384036 45.365 2.71333 49.1144C5.28817 52.7262 9.38796 55.8008 14.2499 57.8004C17.7996 59.2502 21.4745 60 24.8868 60C26.1242 60 27.3492 59.9 28.5616 59.6876C33.0864 58.8877 36.3237 56.6256 37.6736 53.3387L39.811 48.1146C40.1859 48.2646 40.5734 48.4021 40.9484 48.5146C42.4608 49.0145 44.0358 49.2769 45.6231 49.2894C48.0855 49.2894 50.2604 48.5646 51.9728 47.1273L56.5725 43.2655C59.2974 41.0034 60.4599 37.2291 59.8349 32.6798L59.835 32.6803ZM31.3484 39.6666L34.4108 37.0921C35.7607 38.6043 37.2481 39.9665 38.8731 41.1789L35.8608 43.7159C34.2108 42.5412 32.6983 41.1789 31.3484 39.6666ZM30.061 38.1418C29.6485 37.6044 29.2485 37.067 28.8735 36.5047C28.836 36.4297 28.7861 36.3548 28.7361 36.2798L28.736 36.2797H28.7235C27.986 35.1674 27.3236 34.0051 26.7611 32.7928C27.6235 32.2679 28.461 31.6805 29.286 31.0556L29.286 31.0555C29.4985 30.8931 29.711 30.7306 29.9234 30.5557C30.8234 32.3303 31.8858 34.0051 33.1233 35.5548L30.061 38.1418ZM27.2611 39.2666C26.8486 40.2915 25.6736 40.7788 24.6488 40.3665L20.024 38.4792L21.2614 35.4548C22.5489 35.0048 23.8112 34.4549 25.0237 33.805C25.6487 35.1172 26.3736 36.3921 27.1861 37.5919C27.4486 38.1043 27.4861 38.7168 27.2611 39.2666ZM24.9862 43.2784C25.4112 44.2907 24.9363 45.4655 23.9113 45.8904C23.4238 46.0903 22.8739 46.1028 22.3864 45.9029L17.7616 44.0157L19.2739 40.3163L23.8987 42.2035C24.3862 42.4035 24.7738 42.791 24.9862 43.2784ZM10.7493 31.9054H11.0742L13.1491 34.63C10.5118 34.3925 8.41187 33.3677 7.09937 31.643L6.92438 31.418C8.1618 31.743 9.46178 31.9179 10.7493 31.9054ZM15.774 34.6174C15.7365 34.6174 15.699 34.6174 15.6615 34.6299L13.4366 31.7054C14.874 31.4929 16.2865 31.143 17.6614 30.6556L20.0238 33.755C18.6364 34.1925 17.224 34.4799 15.774 34.6174ZM24.8485 26.8813L27.2734 30.0557C25.6235 31.2305 23.8486 32.2303 21.9862 33.0177L19.5988 29.8808C21.4487 29.0684 23.1986 28.0686 24.8485 26.8813ZM28.8608 28.8559L26.4359 25.6815C28.0108 24.4068 29.4482 22.982 30.7232 21.4198L33.1106 24.5567C31.8606 26.1314 30.4358 27.5812 28.8608 28.8559ZM34.3355 22.8445L31.9731 19.7451C32.8105 18.5453 33.5229 17.283 34.1105 15.9458L36.3354 18.8703L36.2979 18.9828C35.7854 20.3325 35.1354 21.6323 34.3355 22.8445ZM37.0103 16.4457L34.9355 13.7211C35.3479 12.3839 35.5604 10.9841 35.5604 9.58439L35.7354 9.80936C37.0478 11.5465 37.4728 13.8461 37.0103 16.4457ZM2.88749 17.6955C4.29988 13.8962 7.22476 10.1718 11.1121 7.20985C14.9994 4.24786 19.3617 2.42316 23.4109 2.06082C23.8859 2.02333 24.3483 1.99833 24.7984 1.99833C28.0232 1.99833 30.5856 3.06065 32.098 5.04785C33.8229 7.30996 34.0229 10.5719 32.673 14.2087C31.2606 18.008 28.3357 21.7324 24.4484 24.6944C20.561 27.6564 16.1987 29.4811 12.1496 29.8434C8.27478 30.1809 5.1874 29.1186 3.46246 26.8564C1.72506 24.5943 1.52507 21.3324 2.88749 17.6955ZM5.49982 32.8425C7.39972 35.3421 10.5246 36.6793 14.3869 36.6793C14.8994 36.6793 15.4243 36.6543 15.9493 36.6044C16.9118 36.5169 17.8617 36.3669 18.7992 36.1419L15.8869 43.2531L14.037 42.4908L13.2745 44.3405L15.1245 45.1029L14.362 46.9526L16.212 47.7149L16.9994 45.8652L18.8494 46.6276L18.0869 48.4773L19.9369 49.2397L20.6994 47.3899L21.6243 47.7649C23.6743 48.6022 25.9991 47.6274 26.8365 45.5777C27.2365 44.5904 27.2365 43.4906 26.824 42.5158C26.7865 42.4408 26.749 42.3658 26.7115 42.2783C27.7615 41.9159 28.6239 41.1286 29.0613 40.1037C29.0863 40.1412 29.1238 40.1787 29.1488 40.2037L29.1488 40.2037C31.7362 43.2781 34.786 45.7277 37.9608 47.3149C36.8109 49.802 34.161 51.5266 30.4737 52.1765C26.4739 52.8889 21.7866 52.2515 17.2618 50.4019C12.737 48.5522 8.94975 45.7152 6.59981 42.4033C4.33741 39.2414 3.69996 36.0419 4.77488 33.4049C4.89988 33.0925 5.06236 32.78 5.23736 32.4926L5.49982 32.8425ZM15.5993 51.8643L14.0869 55.5636C12.237 54.7388 10.4871 53.7139 8.86216 52.5017L10.3496 48.8523C11.987 50.0396 13.7493 51.0395 15.5993 51.8643ZM17.4493 52.6142C19.3367 53.3265 21.2991 53.839 23.299 54.1514L21.8116 57.8008C19.7992 57.5258 17.8368 57.0259 15.9369 56.3135L17.4493 52.6142ZM2.51288 38.9663L2.62538 38.7038C2.98786 40.0536 3.55034 41.3534 4.30026 42.5406L3.00033 45.69C1.86289 43.3029 1.68797 40.9659 2.51288 38.9663ZM4.33782 47.9647C4.33036 47.9535 4.3229 47.9434 4.31577 47.9338C4.29901 47.9112 4.28409 47.891 4.27532 47.8647L5.66279 44.4653C6.57525 45.6026 7.60018 46.6399 8.71269 47.5772L7.2378 51.1766C6.15036 50.2143 5.17526 49.1395 4.33782 47.9647ZM23.8991 57.9879L25.374 54.3886C25.974 54.4386 26.5739 54.4511 27.1614 54.4511C28.0239 54.4511 28.8738 54.4011 29.7238 54.3011L28.3364 57.7005C28.3176 57.7067 28.2989 57.7099 28.2801 57.713C28.2614 57.7161 28.2426 57.7192 28.2239 57.7255C26.7865 57.9754 25.3365 58.0629 23.8991 57.9879ZM30.7613 57.0506L32.0612 53.8887C33.4236 53.5637 34.736 53.0388 35.936 52.3264L35.8235 52.5889C34.9985 54.601 33.2361 56.1382 30.7613 57.0506ZM37.611 44.8528L40.5858 42.3532C41.8232 43.1281 43.1231 43.778 44.4731 44.3028L41.6608 46.6649L41.5483 46.6274C40.1859 46.1775 38.8608 45.5901 37.611 44.8528ZM50.6857 45.6152C49.0233 47.0149 46.7484 47.5523 44.1236 47.2024L46.7359 45.0028C47.8733 45.2902 49.0358 45.4402 50.2107 45.4402C50.4482 45.4402 50.6731 45.4277 50.8981 45.4152L50.6857 45.6152ZM55.2855 41.7658C53.0981 43.6029 49.8607 43.9529 46.1609 42.7781C42.2986 41.5408 38.4363 38.8038 35.2865 35.067C33.7866 33.2924 32.5117 31.3302 31.4992 29.2306C34.5866 26.3936 36.9239 23.0817 38.1864 19.6948C39.1238 17.1828 39.4113 14.7957 39.0613 12.6836C43.4735 13.3835 48.3859 16.4579 52.1487 20.9322C55.2984 24.669 57.3234 28.9558 57.8734 32.9677C58.3859 36.8045 57.4734 39.929 55.286 41.7662L55.2855 41.7658ZM7.43727 24.8314C7.48727 24.8314 7.53727 24.8314 7.59977 24.8189L22.1864 22.5069C22.5239 22.4569 22.7989 22.2444 22.9364 21.932L29.0361 8.48409C29.2611 7.98418 29.0361 7.38429 28.5361 7.1593C28.3611 7.08431 28.1611 7.04682 27.9612 7.08431L13.3745 9.39636C13.037 9.44635 12.762 9.65881 12.6245 9.97125L6.52483 23.4191C6.29983 23.919 6.52483 24.5189 7.0248 24.7439C7.1498 24.7939 7.28729 24.8314 7.43727 24.8314ZM14.7369 19.5199L18.4117 21.0696L11.1996 22.2069L14.7369 19.5199ZM15.3619 16.5329L14.6619 11.2214L24.3614 9.68417L15.3619 16.5329ZM13.5245 17.9326L9.98718 20.6322L12.9995 13.9833L13.5245 17.9326ZM21.5116 20.2198L16.5744 18.1326L25.5739 11.2838L21.5116 20.2198ZM46.297 27.6935C46.972 26.0938 48.5969 25.1065 50.3343 25.2565L50.3343 25.2563C51.3842 25.3439 52.3717 25.8562 53.0466 26.6561C54.4715 28.3433 54.2466 30.8678 52.5592 32.2926C51.8468 32.8925 50.9342 33.2299 49.9968 33.2299C49.8843 33.2299 49.7593 33.2299 49.6468 33.2174C47.7594 33.0549 46.247 31.5802 46.022 29.693L43.9471 29.0931L43.4971 29.468C44.1221 30.7678 43.9846 32.3175 43.1471 33.5048C41.8598 35.3045 39.3724 35.7169 37.5725 34.4421C35.7725 33.1549 35.3601 30.6678 36.635 28.8681C37.9224 27.0685 40.4098 26.6561 42.2097 27.9308L42.6597 27.5559L42.4222 25.4063C41.0347 24.9939 39.9723 23.8691 39.6598 22.4569C39.1724 20.2948 40.5349 18.1576 42.6847 17.6702C44.8471 17.1829 46.9845 18.5451 47.472 20.6947C47.9594 22.8568 46.5969 24.994 44.4471 25.4814L44.6346 27.2061L46.297 27.6935ZM42.2723 20.0574C41.4223 20.7573 41.3098 22.0195 42.0223 22.8694C42.3597 23.2818 42.8472 23.5317 43.3722 23.5817C43.8971 23.6317 44.4346 23.4568 44.8346 23.1193C45.6845 22.4194 45.797 21.1572 45.0846 20.3074C44.3846 19.4575 43.1222 19.345 42.2723 20.0574ZM39.7099 33.18C40.8098 33.28 41.7723 32.4676 41.8723 31.3678L41.8723 31.3678C41.9723 30.268 41.1474 29.3056 40.0599 29.2056C39.9974 29.1931 39.9474 29.1931 39.885 29.1931C38.8475 29.1931 37.985 29.9805 37.8975 31.0179C37.7975 32.1177 38.6099 33.08 39.7099 33.18ZM51.2718 30.768C51.6718 30.418 51.9218 29.9306 51.9718 29.4057L51.9718 29.4057C52.0718 28.3059 51.2594 27.3436 50.1719 27.2561C50.1094 27.2436 50.0594 27.2436 49.9969 27.2436C49.5219 27.2436 49.072 27.4061 48.7095 27.706C47.8595 28.4059 47.747 29.6681 48.4595 30.518C49.1595 31.3678 50.4218 31.4803 51.2718 30.768Z" fill="url(#paint0_linear_5350_5356)"/>
<path d="M53.6603 19.6323L53.4305 19.8252L53.4308 19.8255L53.6603 19.6323ZM59.835 32.6803L59.5422 32.7459L60.1322 32.6396L59.835 32.6803ZM38.4485 10.5839L38.171 10.6979L38.2399 10.8656L38.4204 10.8826L38.4485 10.5839ZM37.3111 8.60928L37.5505 8.42847L37.5497 8.42747L37.3111 8.60928ZM33.6738 3.83516L33.9124 3.65335L33.9124 3.6533L33.6738 3.83516ZM23.2243 0.0733126L23.2505 0.372164L23.2512 0.372101L23.2243 0.0733126ZM9.88781 5.62227L10.0694 5.86107L10.0695 5.86098L9.88781 5.62227ZM1.01329 16.9952L1.29455 17.0996L1.2946 17.0994L1.01329 16.9952ZM1.87575 28.0682L2.11429 27.8863L2.11395 27.8858L1.87575 28.0682ZM3.96319 30.8052L4.20694 30.9801L4.33633 30.7998L4.20173 30.6233L3.96319 30.8052ZM2.93823 32.6424L3.21582 32.7562L3.2164 32.7547L2.93823 32.6424ZM0.663378 38.1913L0.385798 38.0775L0.385717 38.0777L0.663378 38.1913ZM2.71333 49.1144L2.95761 48.9403L2.95755 48.9402L2.71333 49.1144ZM14.2499 57.8004L14.1358 58.0778L14.1365 58.0781L14.2499 57.8004ZM28.5616 59.6876L28.6134 59.9831L28.6138 59.983L28.5616 59.6876ZM37.6736 53.3387L37.9511 53.4527L37.9513 53.4523L37.6736 53.3387ZM39.811 48.1146L39.9224 47.8361L39.646 47.7256L39.5333 48.001L39.811 48.1146ZM40.9484 48.5146L41.0426 48.2296L41.0346 48.2272L40.9484 48.5146ZM45.6231 49.2894L45.6208 49.5894H45.6231V49.2894ZM51.9728 47.1273L52.1656 47.3571L52.1657 47.3571L51.9728 47.1273ZM56.5725 43.2655L56.3809 43.0346L56.3796 43.0357L56.5725 43.2655ZM59.8349 32.6798L60.1276 32.6142L59.5377 32.7207L59.8349 32.6798ZM34.4108 37.0921L34.6346 36.8923L34.4407 36.6751L34.2177 36.8625L34.4108 37.0921ZM31.3484 39.6666L31.1554 39.437L30.9188 39.6358L31.1246 39.8664L31.3484 39.6666ZM38.8731 41.1789L39.0663 41.4084L39.3557 41.1647L39.0525 40.9385L38.8731 41.1789ZM35.8608 43.7159L35.6868 43.9603L35.8762 44.0952L36.054 43.9454L35.8608 43.7159ZM28.8735 36.5047L28.6052 36.6388L28.6135 36.6555L28.6239 36.6711L28.8735 36.5047ZM30.061 38.1418L29.823 38.3245L30.0144 38.5739L30.2546 38.371L30.061 38.1418ZM28.7361 36.2798L28.9857 36.1134L28.9843 36.1114L28.7361 36.2798ZM28.736 36.2797L28.9842 36.1112L28.895 35.9797H28.736V36.2797ZM28.7235 36.2797L28.4734 36.4455L28.5624 36.5797H28.7235V36.2797ZM26.7611 32.7928L26.6051 32.5365L26.3761 32.6759L26.4889 32.919L26.7611 32.7928ZM29.286 31.0556L29.4671 31.2947L29.4689 31.2934L29.286 31.0556ZM29.286 31.0555L29.1038 30.8172L29.1031 30.8177L29.286 31.0555ZM29.9234 30.5557L30.191 30.42L30.0217 30.0861L29.7327 30.3241L29.9234 30.5557ZM33.1233 35.5548L33.3169 35.784L33.5398 35.5956L33.3577 35.3676L33.1233 35.5548ZM24.6488 40.3665L24.5354 40.6442L24.5368 40.6448L24.6488 40.3665ZM27.2611 39.2666L26.9834 39.153L26.9828 39.1546L27.2611 39.2666ZM20.024 38.4792L19.7463 38.3656L19.6326 38.6436L19.9106 38.757L20.024 38.4792ZM21.2614 35.4548L21.1624 35.1716L21.0349 35.2161L20.9837 35.3412L21.2614 35.4548ZM25.0237 33.805L25.2946 33.676L25.1593 33.3919L24.882 33.5406L25.0237 33.805ZM27.1861 37.5919L27.4531 37.4551L27.4448 37.4388L27.4345 37.4236L27.1861 37.5919ZM23.9113 45.8904L24.0252 46.1679L24.0262 46.1675L23.9113 45.8904ZM24.9862 43.2784L25.2629 43.1623L25.2612 43.1585L24.9862 43.2784ZM22.3864 45.9029L22.5002 45.6253L22.4997 45.6251L22.3864 45.9029ZM17.7616 44.0157L17.4839 43.9021L17.3703 44.18L17.6482 44.2934L17.7616 44.0157ZM19.2739 40.3163L19.3873 40.0386L19.1097 39.9253L18.9963 40.2028L19.2739 40.3163ZM23.8987 42.2035L24.0126 41.926L24.0121 41.9258L23.8987 42.2035ZM11.0742 31.9054L11.3129 31.7237L11.2229 31.6054H11.0742V31.9054ZM10.7493 31.9054L10.7493 31.6054L10.7463 31.6055L10.7493 31.9054ZM13.1491 34.63L13.1222 34.9288L13.8002 34.9898L13.3878 34.4482L13.1491 34.63ZM7.09937 31.643L7.33812 31.4613L7.33617 31.4588L7.09937 31.643ZM6.92438 31.418L7.00058 31.1279L6.14357 30.9028L6.68758 31.6022L6.92438 31.418ZM15.6615 34.6299L15.4228 34.8116L15.5528 34.9824L15.7564 34.9145L15.6615 34.6299ZM15.774 34.6174V34.9174H15.7882L15.8023 34.9161L15.774 34.6174ZM13.4366 31.7054L13.3928 31.4086L12.8904 31.4829L13.1979 31.8871L13.4366 31.7054ZM17.6614 30.6556L17.9 30.4737L17.7674 30.2997L17.5612 30.3728L17.6614 30.6556ZM20.0238 33.755L20.114 34.0412L20.5213 33.9128L20.2624 33.5732L20.0238 33.755ZM27.2734 30.0557L27.4474 30.3001L27.7002 30.1202L27.5118 29.8736L27.2734 30.0557ZM24.8485 26.8813L25.0869 26.6992L24.91 26.4675L24.6733 26.6378L24.8485 26.8813ZM21.9862 33.0177L21.7474 33.1994L21.8885 33.3847L22.103 33.294L21.9862 33.0177ZM19.5988 29.8808L19.4781 29.6061L19.1293 29.7593L19.36 30.0625L19.5988 29.8808ZM26.4359 25.6815L26.2471 25.4483L26.0204 25.6319L26.1975 25.8636L26.4359 25.6815ZM28.8608 28.8559L28.6224 29.038L28.8097 29.2832L29.0495 29.0891L28.8608 28.8559ZM30.7232 21.4198L30.9619 21.2381L30.7314 20.9352L30.4908 21.2301L30.7232 21.4198ZM33.1106 24.5567L33.3456 24.7432L33.4906 24.5606L33.3494 24.375L33.1106 24.5567ZM31.9731 19.7451L31.7271 19.5734L31.6018 19.7529L31.7345 19.927L31.9731 19.7451ZM34.3355 22.8445L34.0969 23.0264L34.3531 23.3625L34.5859 23.0098L34.3355 22.8445ZM34.1105 15.9458L34.3492 15.7641L34.0407 15.3586L33.8358 15.8251L34.1105 15.9458ZM36.3354 18.8703L36.62 18.9652L36.6701 18.8148L36.5741 18.6886L36.3354 18.8703ZM36.2979 18.9828L36.5786 19.0893L36.5825 19.0776L36.2979 18.9828ZM34.9355 13.7211L34.6488 13.6327L34.6033 13.7802L34.6968 13.9029L34.9355 13.7211ZM37.0103 16.4457L36.7716 16.6274L37.1859 17.1714L37.3057 16.4982L37.0103 16.4457ZM35.5604 9.58439L35.7972 9.4002L35.2604 8.71007V9.58439H35.5604ZM35.7354 9.80936L35.9748 9.6285L35.9722 9.62517L35.7354 9.80936ZM11.1121 7.20985L11.2939 7.44847L11.2939 7.44847L11.1121 7.20985ZM2.88749 17.6955L3.16843 17.8008L3.16869 17.8001L2.88749 17.6955ZM23.4109 2.06082L23.3873 1.76173L23.3842 1.76201L23.4109 2.06082ZM32.098 5.04785L31.8593 5.22953L31.8594 5.22975L32.098 5.04785ZM32.673 14.2087L32.9542 14.3133L32.9542 14.3131L32.673 14.2087ZM24.4484 24.6944L24.2665 24.4558L24.2665 24.4558L24.4484 24.6944ZM12.1496 29.8434L12.1756 30.1423L12.1763 30.1422L12.1496 29.8434ZM3.46246 26.8564L3.70102 26.6745L3.70038 26.6737L3.46246 26.8564ZM5.49982 32.8425L5.25981 33.0225L5.26098 33.0241L5.49982 32.8425ZM15.9493 36.6044L15.9222 36.3056L15.9209 36.3057L15.9493 36.6044ZM18.7992 36.1419L19.0769 36.2556L19.2989 35.7135L18.7292 35.8502L18.7992 36.1419ZM15.8869 43.2531L15.7726 43.5305L16.0506 43.6451L16.1646 43.3668L15.8869 43.2531ZM14.037 42.4908L14.1513 42.2134L13.8739 42.0991L13.7596 42.3764L14.037 42.4908ZM13.2745 44.3405L12.9972 44.2262L12.8828 44.5035L13.1602 44.6179L13.2745 44.3405ZM15.1245 45.1029L15.4018 45.2172L15.5162 44.9398L15.2388 44.8255L15.1245 45.1029ZM14.362 46.9526L14.0847 46.8383L13.9703 47.1156L14.2477 47.23L14.362 46.9526ZM16.212 47.7149L16.0977 47.9923L16.3718 48.1053L16.488 47.8325L16.212 47.7149ZM16.9994 45.8652L17.1137 45.5878L16.8396 45.4749L16.7234 45.7477L16.9994 45.8652ZM18.8494 46.6276L19.1268 46.7419L19.2411 46.4645L18.9637 46.3502L18.8494 46.6276ZM18.0869 48.4773L17.8096 48.363L17.6952 48.6404L17.9726 48.7547L18.0869 48.4773ZM19.9369 49.2397L19.8226 49.517L20.0999 49.6313L20.2143 49.354L19.9369 49.2397ZM20.6994 47.3899L20.8121 47.1119L20.5357 46.9999L20.422 47.2756L20.6994 47.3899ZM21.6243 47.7649L21.7378 47.4871L21.737 47.4868L21.6243 47.7649ZM26.8365 45.5777L27.1142 45.6912L27.1146 45.6904L26.8365 45.5777ZM26.824 42.5158L27.1003 42.3988L27.0966 42.3901L27.0923 42.3816L26.824 42.5158ZM26.7115 42.2783L26.6136 41.9947L26.3087 42.1L26.4358 42.3965L26.7115 42.2783ZM29.0613 40.1037L29.3109 39.9373L29.0032 39.4757L28.7854 39.9859L29.0613 40.1037ZM29.1488 40.2037L29.3609 39.9915L29.3609 39.9915L29.1488 40.2037ZM29.1488 40.2037L29.3784 40.0105L29.3701 40.0007L29.361 39.9916L29.1488 40.2037ZM37.9608 47.3149L38.2331 47.4408L38.3552 47.1767L38.095 47.0466L37.9608 47.3149ZM30.4737 52.1765L30.4216 51.8811L30.4211 51.8812L30.4737 52.1765ZM17.2618 50.4019L17.1483 50.6796L17.1483 50.6796L17.2618 50.4019ZM6.59981 42.4033L6.84448 42.2297L6.84379 42.2287L6.59981 42.4033ZM4.77488 33.4049L5.05269 33.5182L5.05341 33.5163L4.77488 33.4049ZM5.23736 32.4926L5.47736 32.3126L5.21152 31.9581L4.98111 32.3366L5.23736 32.4926ZM14.0869 55.5636L13.9648 55.8376L14.2475 55.9637L14.3646 55.6772L14.0869 55.5636ZM15.5993 51.8643L15.877 51.9778L15.987 51.7087L15.7215 51.5903L15.5993 51.8643ZM8.86216 52.5017L8.58435 52.3884L8.49675 52.6033L8.68277 52.7421L8.86216 52.5017ZM10.3496 48.8523L10.5257 48.6094L10.2162 48.3849L10.0718 48.739L10.3496 48.8523ZM23.299 54.1514L23.5768 54.2646L23.7199 53.9135L23.3453 53.855L23.299 54.1514ZM17.4493 52.6142L17.5552 52.3335L17.2821 52.2304L17.1716 52.5006L17.4493 52.6142ZM21.8116 57.8008L21.7709 58.098L22.0015 58.1295L22.0894 57.914L21.8116 57.8008ZM15.9369 56.3135L15.6592 56.2L15.5423 56.4859L15.8315 56.5944L15.9369 56.3135ZM2.62538 38.7038L2.91511 38.626L2.69062 37.7901L2.34964 38.5857L2.62538 38.7038ZM2.51288 38.9663L2.23712 38.8481L2.23555 38.8519L2.51288 38.9663ZM4.30026 42.5406L4.57757 42.6551L4.63678 42.5116L4.5539 42.3804L4.30026 42.5406ZM3.00033 45.69L2.7295 45.8191L3.01999 46.4287L3.27764 45.8045L3.00033 45.69ZM4.31577 47.9338L4.55687 47.7553L4.55686 47.7553L4.31577 47.9338ZM4.33782 47.9647L4.08808 48.1312L4.09353 48.1388L4.33782 47.9647ZM4.27532 47.8647L3.99757 47.7513L3.95558 47.8542L3.99072 47.9596L4.27532 47.8647ZM5.66279 44.4653L5.89679 44.2776L5.57771 43.8799L5.38504 44.352L5.66279 44.4653ZM8.71269 47.5772L8.99029 47.691L9.07319 47.4887L8.90599 47.3478L8.71269 47.5772ZM7.2378 51.1766L7.03898 51.4012L7.35526 51.6811L7.5154 51.2903L7.2378 51.1766ZM25.374 54.3886L25.3989 54.0896L25.1798 54.0714L25.0964 54.2748L25.374 54.3886ZM23.8991 57.9879L23.6215 57.8742L23.4612 58.2655L23.8835 58.2875L23.8991 57.9879ZM29.7238 54.3011L30.0016 54.4145L30.1937 53.9438L29.6888 54.0032L29.7238 54.3011ZM28.3364 57.7005L28.4313 57.9851L28.562 57.9415L28.6141 57.8139L28.3364 57.7005ZM28.2801 57.713L28.2308 57.4171L28.2308 57.4171L28.2801 57.713ZM28.2239 57.7255L28.2753 58.0211L28.2974 58.0172L28.3187 58.0101L28.2239 57.7255ZM32.0612 53.8887L31.9916 53.5968L31.8421 53.6325L31.7837 53.7746L32.0612 53.8887ZM30.7613 57.0506L30.4838 56.9365L30.224 57.5684L30.865 57.3321L30.7613 57.0506ZM35.936 52.3264L36.2117 52.4446L36.5744 51.5985L35.7828 52.0685L35.936 52.3264ZM35.8235 52.5889L35.5477 52.4707L35.5459 52.4751L35.8235 52.5889ZM40.5858 42.3532L40.745 42.099L40.56 41.9831L40.3928 42.1235L40.5858 42.3532ZM37.611 44.8528L37.418 44.6231L37.0934 44.8958L37.4585 45.1112L37.611 44.8528ZM44.4731 44.3028L44.6661 44.5325L45.054 44.2068L44.5818 44.0232L44.4731 44.3028ZM41.6608 46.6649L41.566 46.9495L41.7252 47.0026L41.8538 46.8946L41.6608 46.6649ZM41.5483 46.6274L41.6432 46.3428L41.6424 46.3426L41.5483 46.6274ZM44.1236 47.2024L43.9303 46.9729L43.4111 47.4101L44.0839 47.4998L44.1236 47.2024ZM50.6857 45.6152L50.879 45.8446L50.8853 45.8393L50.8913 45.8336L50.6857 45.6152ZM46.7359 45.0028L46.8094 44.7119L46.6603 44.6743L46.5426 44.7733L46.7359 45.0028ZM50.8981 45.4152L51.1037 45.6337L51.7025 45.0701L50.8815 45.1157L50.8981 45.4152ZM46.1609 42.7781L46.0694 43.0638L46.0701 43.064L46.1609 42.7781ZM55.2855 41.7658L55.4752 41.5333L55.2827 41.3763L55.0926 41.5361L55.2855 41.7658ZM35.2865 35.067L35.5159 34.8737L35.5156 34.8734L35.2865 35.067ZM31.4992 29.2306L31.2962 29.0097L31.1322 29.1603L31.2289 29.3609L31.4992 29.2306ZM38.1864 19.6948L37.9053 19.5899L37.9053 19.59L38.1864 19.6948ZM39.0613 12.6836L39.1083 12.3873L38.6973 12.3221L38.7654 12.7326L39.0613 12.6836ZM52.1487 20.9322L51.9191 21.1253L51.9193 21.1255L52.1487 20.9322ZM57.8734 32.9677L58.1707 32.928L58.1706 32.927L57.8734 32.9677ZM55.286 41.7662L55.0963 41.9986L55.2887 42.1556L55.4789 41.9959L55.286 41.7662ZM7.59977 24.8189L7.55277 24.5224L7.54094 24.5247L7.59977 24.8189ZM7.43727 24.8314L7.43727 25.1314H7.43727V24.8314ZM22.1864 22.5069L22.1425 22.2101L22.1395 22.2106L22.1864 22.5069ZM22.9364 21.932L22.6632 21.808L22.6618 21.8111L22.9364 21.932ZM29.0361 8.48409L29.3093 8.60801L29.3097 8.60722L29.0361 8.48409ZM28.5361 7.1593L28.6593 6.88568L28.6543 6.88355L28.5361 7.1593ZM27.9612 7.08431L28.0081 7.38073L28.0164 7.37917L27.9612 7.08431ZM13.3745 9.39636L13.4184 9.69313L13.4214 9.69266L13.3745 9.39636ZM12.6245 9.97125L12.8977 10.0952L12.8991 10.0921L12.6245 9.97125ZM6.52483 23.4191L6.25162 23.2952L6.25126 23.296L6.52483 23.4191ZM7.0248 24.7439L6.90158 25.0178L6.9134 25.0225L7.0248 24.7439ZM18.4117 21.0696L18.4584 21.3659L19.4978 21.202L18.5283 20.7931L18.4117 21.0696ZM14.7369 19.5199L14.8535 19.2435L14.6936 19.1761L14.5554 19.281L14.7369 19.5199ZM11.1996 22.2069L11.0181 21.968L11.2463 22.5032L11.1996 22.2069ZM14.6619 11.2214L14.6149 10.9251L14.3263 10.9708L14.3645 11.2606L14.6619 11.2214ZM15.3619 16.5329L15.0644 16.5721L15.132 17.0848L15.5435 16.7716L15.3619 16.5329ZM24.3614 9.68417L24.5431 9.9229L24.3145 9.38787L24.3614 9.68417ZM9.98718 20.6322L9.71391 20.5084L10.1692 20.8706L9.98718 20.6322ZM13.5245 17.9326L13.7065 18.1711L13.8448 18.0656L13.8219 17.8931L13.5245 17.9326ZM12.9995 13.9833L13.2969 13.9438L13.1587 12.9048L12.7262 13.8595L12.9995 13.9833ZM16.5744 18.1326L16.3927 17.8939L15.9808 18.2074L16.4576 18.4089L16.5744 18.1326ZM21.5116 20.2198L21.3948 20.4961L21.6638 20.6098L21.7847 20.3439L21.5116 20.2198ZM25.5739 11.2838L25.847 11.4079L25.3922 11.045L25.5739 11.2838ZM50.3343 25.2565L50.3085 25.5554L50.5887 25.5795L50.6309 25.3015L50.3343 25.2565ZM46.297 27.6935L46.2126 27.9814L46.4694 28.0567L46.5734 27.8101L46.297 27.6935ZM50.3343 25.2563L50.3593 24.9574L50.0798 24.9341L50.0377 25.2113L50.3343 25.2563ZM53.0466 26.6561L52.8174 26.8495L52.8174 26.8496L53.0466 26.6561ZM52.5592 32.2926L52.7524 32.522L52.7527 32.5218L52.5592 32.2926ZM49.6468 33.2174L49.68 32.9191L49.6725 32.9185L49.6468 33.2174ZM46.022 29.693L46.3199 29.6575L46.2963 29.46L46.1053 29.4048L46.022 29.693ZM43.9471 29.0931L44.0304 28.8049L43.8774 28.7607L43.7551 28.8626L43.9471 29.0931ZM43.4971 29.468L43.3051 29.2375L43.1254 29.3872L43.2268 29.598L43.4971 29.468ZM43.1471 33.5048L43.3911 33.6793L43.3923 33.6777L43.1471 33.5048ZM37.5725 34.4421L37.3979 34.6861L37.3991 34.6869L37.5725 34.4421ZM36.635 28.8681L36.391 28.6936L36.3902 28.6947L36.635 28.8681ZM42.2097 27.9308L42.0363 28.1756L42.2245 28.3089L42.4017 28.1613L42.2097 27.9308ZM42.6597 27.5559L42.8517 27.7864L42.9756 27.6832L42.9579 27.5229L42.6597 27.5559ZM42.4222 25.4063L42.7204 25.3734L42.6985 25.1755L42.5077 25.1188L42.4222 25.4063ZM39.6598 22.4569L39.9527 22.3921L39.9525 22.3909L39.6598 22.4569ZM42.6847 17.6702L42.6187 17.3776L42.6184 17.3776L42.6847 17.6702ZM47.472 20.6947L47.7646 20.6287L47.7646 20.6284L47.472 20.6947ZM44.4471 25.4814L44.3808 25.1888L44.12 25.248L44.1489 25.5138L44.4471 25.4814ZM44.6346 27.2061L44.3364 27.2385L44.358 27.4376L44.5502 27.494L44.6346 27.2061ZM42.0223 22.8694L42.2545 22.6794L42.2522 22.6766L42.0223 22.8694ZM42.2723 20.0574L42.463 20.289L42.465 20.2873L42.2723 20.0574ZM43.3722 23.5817L43.4006 23.2831L43.4006 23.2831L43.3722 23.5817ZM44.8346 23.1193L44.6439 22.8877L44.6411 22.89L44.8346 23.1193ZM45.0846 20.3074L44.853 20.4981L44.8547 20.5001L45.0846 20.3074ZM41.8723 31.3678L41.5877 31.273L41.5767 31.306L41.5735 31.3407L41.8723 31.3678ZM39.7099 33.18L39.6827 33.4787L39.6827 33.4787L39.7099 33.18ZM41.8723 31.3678L42.1569 31.4626L42.1679 31.4296L42.1711 31.3949L41.8723 31.3678ZM40.0599 29.2056L40.0011 29.4998L40.0167 29.5029L40.0325 29.5044L40.0599 29.2056ZM37.8975 31.0179L38.1963 31.045L38.1965 31.0431L37.8975 31.0179ZM51.9718 29.4057L51.9568 29.1061L51.6977 29.119L51.6731 29.3772L51.9718 29.4057ZM51.2718 30.768L51.4646 30.9979L51.4693 30.9937L51.2718 30.768ZM51.9718 29.4057L51.9868 29.7053L52.247 29.6923L52.2706 29.4328L51.9718 29.4057ZM50.1719 27.2561L50.1131 27.5503L50.1303 27.5537L50.1479 27.5552L50.1719 27.2561ZM48.7095 27.706L48.9002 27.9376L48.9007 27.9372L48.7095 27.706ZM48.4595 30.518L48.6911 30.3273L48.6894 30.3253L48.4595 30.518ZM53.4308 19.8255C56.7882 23.8146 58.9468 28.3999 59.5377 32.721L60.1322 32.6396C59.5233 28.1872 57.307 23.4992 53.8898 19.4392L53.4308 19.8255ZM38.4204 10.8826C43.4955 11.3606 49.0909 14.6555 53.4305 19.8252L53.8901 19.4395C49.4803 14.1861 43.7512 10.7821 38.4767 10.2852L38.4204 10.8826ZM37.0717 8.79008C37.5201 9.38386 37.8942 10.024 38.171 10.6979L38.726 10.4699C38.4279 9.74404 38.027 9.05939 37.5505 8.42847L37.0717 8.79008ZM33.4352 4.01697L37.0725 8.79109L37.5497 8.42747L33.9124 3.65335L33.4352 4.01697ZM23.2512 0.372101C27.7568 -0.0340373 31.3533 1.28562 33.4352 4.01702L33.9124 3.6533C31.6695 0.710731 27.8415 -0.644105 23.1973 -0.225476L23.2512 0.372101ZM10.0695 5.86098C14.2202 2.70177 18.9048 0.75375 23.2505 0.372163L23.198 -0.225538C18.7193 0.167731 13.9294 2.16904 9.70611 5.38355L10.0695 5.86098ZM1.2946 17.0994C2.80876 13.013 5.93135 9.00756 10.0694 5.86107L9.70623 5.38346C5.49476 8.58578 2.29264 12.679 0.731981 16.891L1.2946 17.0994ZM2.11395 27.8858C0.0328346 25.1676 -0.281647 21.3473 1.29455 17.0996L0.73203 16.8908C-0.891607 21.2665 -0.60612 25.32 1.63755 28.2506L2.11395 27.8858ZM4.20173 30.6233L2.11429 27.8863L1.63721 28.2501L3.72465 30.9871L4.20173 30.6233ZM3.2164 32.7547C3.46873 32.13 3.80635 31.5384 4.20694 30.9801L3.71944 30.6303C3.29506 31.2218 2.93271 31.855 2.66007 32.53L3.2164 32.7547ZM0.940957 38.3051L3.21581 32.7562L2.66065 32.5286L0.385798 38.0775L0.940957 38.3051ZM2.95755 48.9402C0.322793 45.2471 -0.35855 41.4814 0.941039 38.3049L0.385717 38.0777C-1.01444 41.5 -0.245985 45.4829 2.46911 49.2886L2.95755 48.9402ZM14.364 57.5229C9.54388 55.5405 5.49366 52.4977 2.95761 48.9403L2.46905 49.2885C5.08268 52.9548 9.23205 56.061 14.1358 58.0778L14.364 57.5229ZM24.8868 59.7C21.5172 59.7 17.8807 58.9592 14.3633 57.5227L14.1365 58.0781C17.7186 59.5412 21.4319 60.3 24.8868 60.3V59.7ZM28.5098 59.3921C27.3156 59.6013 26.108 59.7 24.8868 59.7V60.3C26.1405 60.3 27.3828 60.1987 28.6134 59.9831L28.5098 59.3921ZM37.3961 53.2248C36.0965 56.3892 32.966 58.6043 28.5094 59.3921L28.6138 59.983C33.2068 59.1711 36.5509 56.862 37.9511 53.4527L37.3961 53.2248ZM39.5333 48.001L37.3959 53.2251L37.9513 53.4523L40.0886 48.2282L39.5333 48.001ZM41.0346 48.2272C40.6692 48.1176 40.2902 47.9832 39.9224 47.8361L39.6996 48.3932C40.0817 48.546 40.4776 48.6866 40.8622 48.8019L41.0346 48.2272ZM45.6255 48.9894C44.0697 48.9772 42.5257 48.72 41.0426 48.2297L40.8543 48.7994C42.3959 49.309 44.0019 49.5767 45.6208 49.5894L45.6255 48.9894ZM51.7799 46.8975C50.1287 48.2834 48.0249 48.9894 45.6231 48.9894V49.5894C48.1462 49.5894 50.3921 48.8457 52.1656 47.3571L51.7799 46.8975ZM56.3796 43.0357L51.7799 46.8975L52.1657 47.3571L56.7654 43.4952L56.3796 43.0357ZM59.5377 32.7207C60.1533 37.2018 59.0024 40.8584 56.3809 43.0347L56.7641 43.4963C59.5924 41.1484 60.7664 37.2563 60.1321 32.639L59.5377 32.7207ZM60.1277 32.6147L60.1276 32.6142L59.5421 32.7454L59.5422 32.7459L60.1277 32.6147ZM34.2177 36.8625L31.1554 39.437L31.5415 39.8962L34.6038 37.3217L34.2177 36.8625ZM39.0525 40.9385C37.4437 39.7381 35.9711 38.3895 34.6346 36.8923L34.187 37.2919C35.5503 38.8191 37.0526 40.195 38.6937 41.4194L39.0525 40.9385ZM36.054 43.9454L39.0663 41.4084L38.6798 40.9494L35.6675 43.4865L36.054 43.9454ZM31.1246 39.8664C32.489 41.3949 34.0181 42.7723 35.6868 43.9603L36.0348 43.4716C34.4035 42.3101 32.9076 40.9629 31.5722 39.4668L31.1246 39.8664ZM28.6239 36.6711C29.0044 37.2417 29.409 37.7851 29.823 38.3245L30.2989 37.9592C29.888 37.4237 29.4926 36.8924 29.1231 36.3382L28.6239 36.6711ZM28.4865 36.4463C28.5387 36.5246 28.5776 36.5837 28.6052 36.6388L29.1418 36.3705C29.0944 36.2758 29.0334 36.1849 28.9857 36.1134L28.4865 36.4463ZM28.4877 36.4481L28.4879 36.4483L28.9843 36.1114L28.9842 36.1112L28.4877 36.4481ZM28.7235 36.5797H28.736V35.9797H28.7235V36.5797ZM26.4889 32.919C27.0584 34.1465 27.7286 35.3219 28.4734 36.4455L28.9735 36.1139C28.2435 35.0128 27.5887 33.8637 27.0332 32.6665L26.4889 32.919ZM29.1048 30.8164C28.2854 31.4371 27.4565 32.0183 26.6051 32.5365L26.917 33.049C27.7905 32.5174 28.6366 31.9238 29.4671 31.2947L29.1048 30.8164ZM29.1031 30.8177L29.1031 30.8178L29.4689 31.2934L29.469 31.2933L29.1031 30.8177ZM29.7327 30.3241C29.5251 30.495 29.3169 30.6543 29.1038 30.8172L29.4683 31.2938C29.6801 31.1319 29.8968 30.9662 30.1141 30.7873L29.7327 30.3241ZM33.3577 35.3676C32.1338 33.8349 31.0823 32.1776 30.191 30.42L29.6559 30.6914C30.5645 32.4831 31.6378 34.1753 32.8888 35.742L33.3577 35.3676ZM30.2546 38.371L33.3169 35.784L32.9297 35.3256L29.8674 37.9127L30.2546 38.371ZM24.5368 40.6448C25.7122 41.1177 27.0638 40.5603 27.5394 39.3787L26.9828 39.1546C26.6334 40.0226 25.6351 40.4399 24.7608 40.0881L24.5368 40.6448ZM19.9106 38.757L24.5354 40.6442L24.7621 40.0887L20.1373 38.2015L19.9106 38.757ZM20.9837 35.3412L19.7463 38.3656L20.3016 38.5928L21.5391 35.5684L20.9837 35.3412ZM24.882 33.5406C23.6838 34.1829 22.4358 34.7266 21.1624 35.1716L21.3604 35.738C22.662 35.2831 23.9387 34.727 25.1655 34.0694L24.882 33.5406ZM27.4345 37.4236C26.6308 36.2368 25.9133 34.9751 25.2946 33.676L24.7529 33.934C25.3841 35.2593 26.1164 36.5473 26.9377 37.7601L27.4345 37.4236ZM27.5388 39.3803C27.798 38.7467 27.7542 38.0428 27.4531 37.4551L26.9191 37.7286C27.143 38.1657 27.1742 38.6869 26.9834 39.153L27.5388 39.3803ZM24.0262 46.1675C25.2056 45.6787 25.7518 44.327 25.2629 43.1623L24.7096 43.3945C25.0707 44.2545 24.6669 45.2524 23.7964 45.6132L24.0262 46.1675ZM22.2725 46.1804C22.8377 46.4123 23.4696 46.3958 24.0252 46.1679L23.7975 45.6128C23.378 45.7849 22.91 45.7934 22.5002 45.6253L22.2725 46.1804ZM17.6482 44.2934L22.273 46.1806L22.4997 45.6251L17.8749 43.7379L17.6482 44.2934ZM18.9963 40.2028L17.4839 43.9021L18.0393 44.1292L19.5516 40.4299L18.9963 40.2028ZM24.0121 41.9258L19.3873 40.0386L19.1606 40.5941L23.7854 42.4813L24.0121 41.9258ZM25.2612 43.1585C25.0187 42.6022 24.5748 42.1566 24.0126 41.926L23.7849 42.4811C24.1976 42.6504 24.5288 42.9798 24.7112 43.3983L25.2612 43.1585ZM11.0742 31.6054H10.7493V32.2054H11.0742V31.6054ZM13.3878 34.4482L11.3129 31.7237L10.8356 32.0872L12.9104 34.8117L13.3878 34.4482ZM6.86063 31.8247C8.23608 33.6321 10.4228 34.6857 13.1222 34.9288L13.176 34.3312C10.6008 34.0993 8.58766 33.1033 7.3381 31.4613L6.86063 31.8247ZM6.68758 31.6022L6.86257 31.8272L7.33617 31.4588L7.16118 31.2338L6.68758 31.6022ZM10.7463 31.6055C9.48754 31.6177 8.21417 31.4465 7.00058 31.1279L6.84819 31.7082C8.10944 32.0394 9.43603 32.2182 10.7522 32.2054L10.7463 31.6055ZM15.7564 34.9145C15.7464 34.9179 15.7404 34.9181 15.7427 34.9179C15.744 34.9178 15.7468 34.9177 15.7522 34.9176C15.7579 34.9174 15.7641 34.9174 15.774 34.9174V34.3174C15.7433 34.3174 15.6575 34.3151 15.5667 34.3453L15.7564 34.9145ZM13.1979 31.8871L15.4228 34.8116L15.9003 34.4483L13.6754 31.5238L13.1979 31.8871ZM17.5612 30.3728C16.2047 30.8537 14.8111 31.199 13.3928 31.4086L13.4805 32.0022C14.937 31.7869 16.3684 31.4323 17.7617 30.9384L17.5612 30.3728ZM20.2624 33.5732L17.9 30.4737L17.4228 30.8375L19.7852 33.9369L20.2624 33.5732ZM15.8023 34.9161C17.2735 34.7766 18.7066 34.4849 20.114 34.0412L19.9336 33.4689C18.5661 33.9 17.1745 34.1833 15.7457 34.3188L15.8023 34.9161ZM27.5118 29.8736L25.0869 26.6992L24.6101 27.0634L27.035 30.2378L27.5118 29.8736ZM22.103 33.294C23.9863 32.4978 25.7803 31.4871 27.4474 30.3001L27.0994 29.8113C25.4667 30.9738 23.7109 31.9628 21.8693 32.7414L22.103 33.294ZM19.36 30.0625L21.7474 33.1994L22.2249 32.836L19.8375 29.6991L19.36 30.0625ZM24.6733 26.6378C23.0403 27.8129 21.3087 28.8022 19.4781 29.6061L19.7194 30.1555C21.5887 29.3346 23.3568 28.3243 25.0238 27.1248L24.6733 26.6378ZM26.1975 25.8636L28.6224 29.038L29.0992 28.6738L26.6743 25.4994L26.1975 25.8636ZM30.4908 21.2301C29.2291 22.7759 27.8064 24.1862 26.2471 25.4483L26.6246 25.9147C28.2151 24.6273 29.6672 23.1881 30.9556 21.6095L30.4908 21.2301ZM33.3494 24.375L30.9619 21.2381L30.4845 21.6015L32.8719 24.7384L33.3494 24.375ZM29.0495 29.0891C30.6422 27.8001 32.0824 26.3345 33.3456 24.7432L32.8757 24.3702C31.6389 25.9282 30.2294 27.3623 28.6721 28.6227L29.0495 29.0891ZM31.7345 19.927L34.0969 23.0264L34.5741 22.6627L32.2117 19.5632L31.7345 19.927ZM33.8358 15.8251C33.2563 17.144 32.5536 18.3893 31.7271 19.5734L32.2191 19.9168C33.0675 18.7014 33.7896 17.422 34.3851 16.0664L33.8358 15.8251ZM36.5741 18.6886L34.3492 15.7641L33.8717 16.1274L36.0966 19.0519L36.5741 18.6886ZM36.5825 19.0776L36.62 18.9652L36.0508 18.7754L36.0133 18.8879L36.5825 19.0776ZM34.5859 23.0098C35.399 21.7776 36.0587 20.4578 36.5783 19.0893L36.0174 18.8763C35.5121 20.2071 34.8719 21.487 34.0851 22.6793L34.5859 23.0098ZM34.6968 13.9029L36.7716 16.6274L37.249 16.2639L35.1741 13.5394L34.6968 13.9029ZM35.2604 9.58439C35.2604 10.954 35.0525 12.3239 34.6488 13.6327L35.2221 13.8096C35.6434 12.4439 35.8604 11.0143 35.8604 9.58439H35.2604ZM35.9722 9.62517L35.7972 9.4002L35.3236 9.76858L35.4986 9.99355L35.9722 9.62517ZM37.3057 16.4982C37.779 13.838 37.3493 11.4479 35.9748 9.62852L35.496 9.9902C36.7463 11.6451 37.1666 13.8543 36.715 16.3931L37.3057 16.4982ZM10.9303 6.97122C7.00733 9.96034 4.04225 13.7282 2.60629 17.591L3.16869 17.8001C4.5575 14.0641 7.44218 10.3833 11.2939 7.44847L10.9303 6.97122ZM23.3842 1.76201C19.2683 2.13032 14.8535 3.98188 10.9303 6.97122L11.2939 7.44847C15.1454 4.51384 19.4552 2.71599 23.4376 2.35963L23.3842 1.76201ZM24.7984 1.69833C24.3376 1.69833 23.8667 1.72391 23.3873 1.76175L23.4345 2.35989C23.9051 2.32275 24.3591 2.29833 24.7984 2.29833V1.69833ZM32.3367 4.86616C30.7512 2.78282 28.086 1.69833 24.7984 1.69833V2.29833C27.9605 2.29833 30.4201 3.33847 31.8593 5.22953L32.3367 4.86616ZM32.9542 14.3131C34.3253 10.6194 34.1457 7.23852 32.3365 4.86594L31.8594 5.22975C33.5001 7.38139 33.7205 10.5244 32.3917 14.1043L32.9542 14.3131ZM24.6302 24.933C28.5531 21.9439 31.5182 18.176 32.9542 14.3133L32.3918 14.1042C31.003 17.8401 28.1183 21.5209 24.2665 24.4558L24.6302 24.933ZM12.1763 30.1422C16.2922 29.7739 20.7069 27.9224 24.6302 24.933L24.2665 24.4558C20.4151 27.3904 16.1053 29.1883 12.1228 29.5446L12.1763 30.1422ZM3.2239 27.0383C5.03286 29.4106 8.24 30.485 12.1756 30.1423L12.1235 29.5446C8.30957 29.8767 5.34194 28.8265 3.70101 26.6745L3.2239 27.0383ZM2.60656 17.5903C1.22265 21.2845 1.40198 24.6662 3.22453 27.0392L3.70038 26.6737C2.04814 24.5224 1.82749 21.3802 3.16843 17.8008L2.60656 17.5903ZM14.3869 36.3793C10.5931 36.3793 7.56811 35.0679 5.73865 32.661L5.26098 33.0241C7.23133 35.6163 10.4561 36.9793 14.3869 36.9793V36.3793ZM15.9209 36.3057C15.4052 36.3548 14.8897 36.3793 14.3869 36.3793V36.9793C14.909 36.9793 15.4435 36.9539 15.9778 36.903L15.9209 36.3057ZM18.7292 35.8502C17.807 36.0715 16.8715 36.2193 15.9222 36.3056L15.9765 36.9031C16.952 36.8144 17.9164 36.6623 18.8692 36.4336L18.7292 35.8502ZM16.1646 43.3668L19.0769 36.2556L18.5216 36.0282L15.6093 43.1394L16.1646 43.3668ZM13.9227 42.7681L15.7726 43.5305L16.0012 42.9758L14.1513 42.2134L13.9227 42.7681ZM13.5519 44.4548L14.3143 42.6051L13.7596 42.3764L12.9972 44.2262L13.5519 44.4548ZM15.2388 44.8255L13.3888 44.0631L13.1602 44.6179L15.0102 45.3802L15.2388 44.8255ZM14.6394 47.0669L15.4018 45.2172L14.8471 44.9885L14.0847 46.8383L14.6394 47.0669ZM16.3263 47.4376L14.4763 46.6752L14.2477 47.23L16.0977 47.9923L16.3263 47.4376ZM16.7234 45.7477L15.9359 47.5974L16.488 47.8325L17.2755 45.9827L16.7234 45.7477ZM18.9637 46.3502L17.1137 45.5878L16.8851 46.1426L18.7351 46.905L18.9637 46.3502ZM18.3643 48.5916L19.1268 46.7419L18.572 46.5133L17.8096 48.363L18.3643 48.5916ZM20.0512 48.9623L18.2012 48.1999L17.9726 48.7547L19.8226 49.517L20.0512 48.9623ZM20.422 47.2756L19.6595 49.1253L20.2143 49.354L20.9767 47.5043L20.422 47.2756ZM21.737 47.4868L20.8121 47.1119L20.5867 47.668L21.5116 48.0429L21.737 47.4868ZM26.5588 45.4643C25.7841 47.3604 23.6345 48.2619 21.7378 47.4871L21.5109 48.0426C23.714 48.9425 26.214 47.8944 27.1142 45.6912L26.5588 45.4643ZM26.5477 42.6327C26.9284 43.5323 26.9293 44.5496 26.5585 45.4651L27.1146 45.6904C27.5436 44.6312 27.5446 43.4488 27.1003 42.3988L26.5477 42.6327ZM26.4358 42.3965C26.4772 42.4932 26.5185 42.5755 26.5557 42.6499L27.0923 42.3816C27.0545 42.306 27.0208 42.2384 26.9872 42.1601L26.4358 42.3965ZM28.7854 39.9859C28.3821 40.9309 27.5856 41.6592 26.6136 41.9947L26.8094 42.5619C27.9374 42.1725 28.8657 41.3263 29.3372 40.2215L28.7854 39.9859ZM29.3609 39.9915C29.348 39.9786 29.3372 39.9677 29.327 39.9566C29.3222 39.9512 29.3183 39.9467 29.3153 39.943C29.3139 39.9412 29.3128 39.9398 29.312 39.9387C29.3112 39.9377 29.3109 39.9372 29.3109 39.9373L28.8117 40.2701C28.8561 40.3367 28.916 40.3951 28.9367 40.4158L29.3609 39.9915ZM29.361 39.9916L29.3609 39.9915L28.9367 40.4158L28.9367 40.4158L29.361 39.9916ZM38.095 47.0466C34.9607 45.4797 31.9424 43.0572 29.3784 40.0105L28.9193 40.3969C31.5301 43.4991 34.6114 45.9758 37.8267 47.5832L38.095 47.0466ZM30.5257 52.472C34.2716 51.8117 37.0281 50.0473 38.2331 47.4408L37.6885 47.189C36.5938 49.5567 34.0504 51.2415 30.4216 51.8811L30.5257 52.472ZM17.1483 50.6796C21.7143 52.5461 26.4596 53.1962 30.5263 52.4719L30.4211 51.8812C26.4881 52.5816 21.8588 51.957 17.3753 50.1242L17.1483 50.6796ZM6.35514 42.5769C8.74433 45.9441 12.5818 48.8129 17.1483 50.6796L17.3753 50.1242C12.8921 48.2916 9.15516 45.4863 6.84448 42.2297L6.35514 42.5769ZM4.49707 33.2917C3.37017 36.0562 4.05695 39.3649 6.35583 42.5779L6.84379 42.2287C4.61788 39.1178 4.02975 36.0276 5.05268 33.5182L4.49707 33.2917ZM4.98111 32.3366C4.79923 32.6353 4.62867 32.9627 4.49634 33.2935L5.05341 33.5163C5.17108 33.2222 5.32549 32.9247 5.4936 32.6486L4.98111 32.3366ZM5.73982 32.6625L5.47736 32.3126L4.99735 32.6726L5.25981 33.0225L5.73982 32.6625ZM14.3646 55.6772L15.877 51.9778L15.3216 51.7508L13.8092 55.4501L14.3646 55.6772ZM8.68277 52.7421C10.3255 53.9677 12.0946 55.0038 13.9648 55.8376L14.2091 55.2896C12.3793 54.4738 10.6487 53.4601 9.04154 52.2612L8.68277 52.7421ZM10.0718 48.739L8.58435 52.3884L9.13997 52.6149L10.6274 48.9655L10.0718 48.739ZM15.7215 51.5903C13.8891 50.7734 12.1451 49.7836 10.5257 48.6094L10.1735 49.0951C11.829 50.2955 13.6095 51.3057 15.4771 52.1383L15.7215 51.5903ZM23.3453 53.855C21.3652 53.5457 19.4229 53.0384 17.5552 52.3335L17.3433 52.8948C19.2506 53.6147 21.233 54.1323 23.2527 54.4478L23.3453 53.855ZM22.0894 57.914L23.5768 54.2646L23.0212 54.0381L21.5337 57.6875L22.0894 57.914ZM15.8315 56.5944C17.7519 57.3145 19.7361 57.82 21.7709 58.098L21.8522 57.5035C19.8623 57.2317 17.9216 56.7373 16.0422 56.0326L15.8315 56.5944ZM17.1716 52.5006L15.6592 56.2L16.2146 56.427L17.727 52.7277L17.1716 52.5006ZM2.34964 38.5857L2.23714 38.8481L2.78862 39.0845L2.90112 38.822L2.34964 38.5857ZM4.5539 42.3804C3.82053 41.2194 3.26999 39.9474 2.91511 38.626L2.33565 38.7817C2.70573 40.1597 3.28015 41.4874 4.04663 42.7009L4.5539 42.3804ZM3.27764 45.8045L4.57757 42.6551L4.02296 42.4262L2.72302 45.5756L3.27764 45.8045ZM2.23555 38.8519C1.37097 40.9477 1.56474 43.3746 2.7295 45.8191L3.27116 45.561C2.16105 43.2312 2.00496 40.9842 2.79021 39.0807L2.23555 38.8519ZM4.07466 48.1123C4.08223 48.1225 4.08543 48.127 4.0882 48.1311L4.58744 47.7983C4.57528 47.7801 4.56356 47.7643 4.55687 47.7553L4.07466 48.1123ZM3.99072 47.9596C4.01688 48.0381 4.06167 48.0948 4.07467 48.1123L4.55686 47.7553C4.55234 47.7492 4.55009 47.7461 4.54823 47.7435C4.5466 47.7412 4.54663 47.7411 4.54747 47.7425C4.54957 47.7459 4.55516 47.7556 4.55992 47.7698L3.99072 47.9596ZM5.38504 44.352L3.99757 47.7513L4.55308 47.9781L5.94055 44.5787L5.38504 44.352ZM8.90599 47.3478C7.80744 46.4222 6.79633 45.3988 5.89679 44.2776L5.4288 44.6531C6.35417 45.8064 7.39292 46.8576 8.5194 47.8066L8.90599 47.3478ZM7.5154 51.2903L8.99029 47.691L8.4351 47.4635L6.9602 51.0628L7.5154 51.2903ZM4.09353 48.1388C4.94467 49.3328 5.93518 50.4244 7.03898 51.4012L7.43661 50.9519C6.36553 50.0041 5.40585 48.9461 4.5821 47.7906L4.09353 48.1388ZM25.0964 54.2748L23.6215 57.8742L24.1767 58.1017L25.6516 54.5023L25.0964 54.2748ZM27.1614 54.1511C26.5777 54.1511 25.987 54.1386 25.3989 54.0896L25.3491 54.6875C25.9609 54.7385 26.5702 54.7511 27.1614 54.7511V54.1511ZM29.6888 54.0032C28.8504 54.1018 28.0122 54.1511 27.1614 54.1511V54.7511C28.0356 54.7511 28.8972 54.7004 29.7589 54.599L29.6888 54.0032ZM28.6141 57.8139L30.0016 54.4145L29.4461 54.1877L28.0586 57.5871L28.6141 57.8139ZM28.3294 58.0089C28.3449 58.0063 28.3866 58 28.4313 57.9851L28.2415 57.4159C28.2462 57.4143 28.2487 57.4139 28.2471 57.4142C28.2462 57.4144 28.2446 57.4147 28.2419 57.4152C28.2389 57.4157 28.2357 57.4162 28.2308 57.4171L28.3294 58.0089ZM28.3187 58.0101C28.314 58.0117 28.3115 58.0121 28.3132 58.0118C28.314 58.0116 28.3156 58.0113 28.3184 58.0108C28.3213 58.0103 28.3245 58.0097 28.3294 58.0089L28.2308 57.4171C28.2153 57.4197 28.1736 57.426 28.129 57.4409L28.3187 58.0101ZM23.8835 58.2875C25.3435 58.3637 26.8159 58.2748 28.2753 58.0211L28.1725 57.4299C26.757 57.6761 25.3295 57.7621 23.9147 57.6883L23.8835 58.2875ZM31.7837 53.7746L30.4838 56.9365L31.0387 57.1647L32.3387 54.0027L31.7837 53.7746ZM35.7828 52.0685C34.6097 52.7649 33.3256 53.2787 31.9916 53.5968L32.1308 54.1805C33.5217 53.8487 34.8624 53.3127 36.0891 52.5844L35.7828 52.0685ZM36.0992 52.7071L36.2117 52.4446L35.6602 52.2082L35.5477 52.4707L36.0992 52.7071ZM30.865 57.3321C33.3987 56.398 35.2369 54.8103 36.1011 52.7027L35.5459 52.4751C34.7601 54.3917 33.0735 55.8784 30.6575 56.7691L30.865 57.3321ZM40.3928 42.1235L37.418 44.6231L37.804 45.0825L40.7788 42.5829L40.3928 42.1235ZM44.5818 44.0232C43.2492 43.5051 41.9662 42.8637 40.745 42.099L40.4266 42.6075C41.6802 43.3925 42.9971 44.0509 44.3644 44.5824L44.5818 44.0232ZM41.8538 46.8946L44.6661 44.5325L44.2802 44.0731L41.4679 46.4352L41.8538 46.8946ZM41.4535 46.912L41.566 46.9495L41.7557 46.3803L41.6432 46.3428L41.4535 46.912ZM37.4585 45.1112C38.7283 45.8602 40.0731 46.4562 41.4543 46.9123L41.6424 46.3426C40.2987 45.8988 38.9934 45.32 37.7634 44.5944L37.4585 45.1112ZM44.0839 47.4998C46.7707 47.8579 49.1368 47.3115 50.879 45.8446L50.4925 45.3857C48.9098 46.7183 46.7262 47.2467 44.1632 46.905L44.0839 47.4998ZM46.5426 44.7733L43.9303 46.9729L44.3168 47.4319L46.9291 45.2323L46.5426 44.7733ZM50.2107 45.1402C49.0614 45.1402 47.9237 44.9935 46.8094 44.7119L46.6624 45.2937C47.823 45.587 49.0101 45.7402 50.2107 45.7402V45.1402ZM50.8815 45.1157C50.6554 45.1282 50.4386 45.1402 50.2107 45.1402V45.7402C50.4578 45.7402 50.6908 45.7272 50.9148 45.7148L50.8815 45.1157ZM50.8913 45.8336L51.1037 45.6337L50.6925 45.1968L50.4801 45.3967L50.8913 45.8336ZM46.0701 43.064C49.8277 44.2572 53.1847 43.922 55.4784 41.9955L55.0926 41.5361C53.0114 43.2839 49.8938 43.6487 46.2517 42.4922L46.0701 43.064ZM35.0571 35.2604C38.2358 39.0315 42.1433 41.8061 46.0694 43.0638L46.2525 42.4924C42.4539 41.2756 38.6368 38.5762 35.5159 34.8737L35.0571 35.2604ZM31.2289 29.3609C32.2525 31.4834 33.5412 33.4668 35.0574 35.2607L35.5156 34.8734C34.032 33.1179 32.7709 31.177 31.7694 29.1003L31.2289 29.3609ZM37.9053 19.59C36.6621 22.9252 34.3551 26.1989 31.2962 29.0097L31.7022 29.4515C34.818 26.5883 37.1857 23.2383 38.4675 19.7996L37.9053 19.59ZM38.7654 12.7326C39.1051 14.7827 38.8285 17.1162 37.9053 19.5899L38.4674 19.7997C39.4192 17.2494 39.7176 14.8087 39.3573 12.6345L38.7654 12.7326ZM52.3783 20.7391C48.5828 16.2259 43.6104 13.1014 39.1083 12.3873L39.0143 12.9799C43.3367 13.6655 48.189 16.6899 51.9191 21.1253L52.3783 20.7391ZM58.1706 32.927C57.6115 28.8489 55.5574 24.5108 52.378 20.7388L51.9193 21.1255C55.0394 24.8272 57.0352 29.0626 57.5762 33.0085L58.1706 32.927ZM55.4789 41.9959C57.7721 40.0699 58.6913 36.8256 58.1707 32.928L57.576 33.0075C58.0804 36.7835 57.1747 39.7881 55.093 41.5364L55.4789 41.9959ZM55.0958 41.9982L55.0963 41.9986L55.4756 41.5337L55.4752 41.5333L55.0958 41.9982ZM7.54094 24.5247C7.51037 24.5309 7.4868 24.5314 7.43727 24.5314V25.1314C7.48774 25.1314 7.56417 25.132 7.6586 25.1131L7.54094 24.5247ZM22.1395 22.2106L7.5528 24.5226L7.64673 25.1152L22.2334 22.8032L22.1395 22.2106ZM22.6618 21.8111C22.5652 22.0306 22.3764 22.1755 22.1425 22.2101L22.2304 22.8036C22.6714 22.7383 23.0326 22.4582 23.211 22.0528L22.6618 21.8111ZM28.7629 8.36017L22.6632 21.8081L23.2096 22.0559L29.3093 8.60801L28.7629 8.36017ZM28.413 7.43287C28.7607 7.58934 28.92 8.01097 28.7625 8.36097L29.3097 8.60722C29.6021 7.95739 29.3115 7.17923 28.6592 6.88572L28.413 7.43287ZM28.0164 7.37917C28.1447 7.35513 28.2837 7.3775 28.418 7.43505L28.6543 6.88355C28.4386 6.79113 28.1776 6.7385 27.9059 6.78945L28.0164 7.37917ZM13.4214 9.69266L28.0081 7.38061L27.9142 6.78801L13.3275 9.10006L13.4214 9.69266ZM12.8991 10.0921C12.9957 9.87261 13.1845 9.72777 13.4184 9.69312L13.3305 9.09959C12.8895 9.16492 12.5283 9.44502 12.3499 9.85041L12.8991 10.0921ZM6.79804 23.5431L12.8977 10.0952L12.3513 9.84733L6.25162 23.2952L6.79804 23.5431ZM7.14791 24.4704C6.80021 24.3139 6.64088 23.8923 6.7984 23.5423L6.25126 23.296C5.95879 23.9458 6.24944 24.724 6.90169 25.0175L7.14791 24.4704ZM7.43728 24.5314C7.33782 24.5314 7.23942 24.5067 7.1362 24.4654L6.9134 25.0225C7.06018 25.0812 7.23676 25.1314 7.43727 25.1314L7.43728 24.5314ZM18.5283 20.7931L14.8535 19.2435L14.6203 19.7963L18.2951 21.346L18.5283 20.7931ZM11.2463 22.5032L18.4584 21.3659L18.3649 20.7732L11.1529 21.9105L11.2463 22.5032ZM14.5554 19.281L11.0181 21.968L11.3811 22.4458L14.9184 19.7588L14.5554 19.281ZM14.3645 11.2606L15.0644 16.5721L15.6593 16.4937L14.9593 11.1822L14.3645 11.2606ZM24.3145 9.38787L14.6149 10.9251L14.7089 11.5177L24.4084 9.98047L24.3145 9.38787ZM15.5435 16.7716L24.5431 9.9229L24.1797 9.44544L15.1802 16.2942L15.5435 16.7716ZM10.1692 20.8706L13.7065 18.1711L13.3425 17.6942L9.80517 20.3937L10.1692 20.8706ZM12.7262 13.8595L9.71391 20.5084L10.2604 20.756L13.2727 14.1071L12.7262 13.8595ZM13.8219 17.8931L13.2969 13.9438L12.7021 14.0228L13.2271 17.9722L13.8219 17.8931ZM16.4576 18.4089L21.3948 20.4961L21.6284 19.9435L16.6912 17.8563L16.4576 18.4089ZM25.3922 11.045L16.3927 17.8939L16.7561 18.3713L25.7556 11.5225L25.3922 11.045ZM21.7847 20.3439L25.847 11.4079L25.3008 11.1596L21.2385 20.0956L21.7847 20.3439ZM50.3601 24.9576C48.4925 24.7964 46.7459 25.8579 46.0206 27.5769L46.5734 27.8101C47.198 26.3297 48.7013 25.4166 50.3085 25.5554L50.3601 24.9576ZM50.0377 25.2113L50.0377 25.2114L50.6309 25.3015L50.6309 25.3014L50.0377 25.2113ZM53.2759 26.4626C52.5497 25.602 51.4888 25.0515 50.3593 24.9574L50.3094 25.5553C51.2797 25.6362 52.1937 26.1104 52.8174 26.8495L53.2759 26.4626ZM52.7527 32.5218C54.5655 30.9912 54.8087 28.2776 53.2758 26.4625L52.8174 26.8496C54.1344 28.409 53.9277 30.7444 52.3656 32.0633L52.7527 32.5218ZM49.9968 33.5299C51.0057 33.5299 51.9864 33.167 52.7524 32.522L52.3659 32.0631C51.7071 32.6179 50.8628 32.9299 49.9968 32.9299V33.5299ZM49.6137 33.5156C49.7457 33.5302 49.8879 33.5299 49.9968 33.5299V32.9299C49.8807 32.9299 49.7729 32.9296 49.6799 32.9192L49.6137 33.5156ZM45.7241 29.7285C45.9657 31.7555 47.5905 33.3415 49.6211 33.5163L49.6725 32.9185C47.9282 32.7683 46.5282 31.4049 46.3199 29.6575L45.7241 29.7285ZM43.8638 29.3813L45.9386 29.9812L46.1053 29.4048L44.0304 28.8049L43.8638 29.3813ZM43.6892 29.6985L44.1391 29.3236L43.7551 28.8626L43.3051 29.2375L43.6892 29.6985ZM43.3923 33.6777C44.2914 32.403 44.4404 30.7375 43.7675 29.338L43.2268 29.598C43.8038 30.7981 43.6778 32.232 42.902 33.3319L43.3923 33.6777ZM37.3991 34.6869C39.3333 36.0568 42.0074 35.6137 43.3911 33.6793L42.9031 33.3303C41.7122 34.9952 39.4114 35.3769 37.7458 34.1973L37.3991 34.6869ZM36.3902 28.6947C35.0201 30.6288 35.4633 33.3026 37.3979 34.6861L37.747 34.1981C36.0818 33.0073 35.7001 30.7069 36.8798 29.0416L36.3902 28.6947ZM42.3831 27.686C40.4488 26.3161 37.7748 26.7592 36.391 28.6936L36.879 29.0427C38.07 27.3777 40.3707 26.996 42.0363 28.1756L42.3831 27.686ZM42.4676 27.3254L42.0177 27.7003L42.4017 28.1613L42.8517 27.7864L42.4676 27.3254ZM42.124 25.4393L42.3615 27.5888L42.9579 27.5229L42.7204 25.3734L42.124 25.4393ZM39.3669 22.5217C39.7033 24.0422 40.8465 25.251 42.3367 25.6939L42.5077 25.1188C41.2229 24.7369 40.2413 23.6961 39.9527 22.3921L39.3669 22.5217ZM42.6184 17.3776C40.308 17.9014 38.8431 20.1983 39.3672 22.5229L39.9525 22.3909C39.5017 20.3912 40.7617 18.4138 42.751 17.9628L42.6184 17.3776ZM47.7646 20.6284C47.2407 18.3183 44.9435 16.8536 42.6187 17.3776L42.7506 17.9629C44.7507 17.5121 46.7283 18.772 47.1794 20.7611L47.7646 20.6284ZM44.5134 25.774C46.8238 25.2502 48.2887 22.9533 47.7646 20.6287L47.1793 20.7607C47.6301 22.7604 46.3701 24.7378 44.3808 25.1888L44.5134 25.774ZM44.9328 27.1737L44.7454 25.449L44.1489 25.5138L44.3364 27.2385L44.9328 27.1737ZM46.3814 27.4056L44.719 26.9182L44.5502 27.494L46.2126 27.9814L46.3814 27.4056ZM42.2522 22.6766C41.6456 21.9531 41.7432 20.8817 42.463 20.289L42.0816 19.8258C41.1014 20.6329 40.974 22.086 41.7924 23.0621L42.2522 22.6766ZM43.4006 23.2831C42.952 23.2404 42.5391 23.0274 42.2545 22.6794L41.7901 23.0593C42.1802 23.5362 42.7423 23.8231 43.3437 23.8804L43.4006 23.2831ZM44.6411 22.89C44.3009 23.177 43.8429 23.3252 43.4006 23.2831L43.3437 23.8804C43.9514 23.9382 44.5683 23.7365 45.028 23.3486L44.6411 22.89ZM44.8547 20.5001C45.4613 21.2237 45.3637 22.295 44.6439 22.8877L45.0253 23.3509C46.0054 22.5438 46.1328 21.0908 45.3145 20.1146L44.8547 20.5001ZM42.465 20.2873C43.1887 19.6808 44.2602 19.7784 44.853 20.4981L45.3161 20.1166C44.509 19.1366 43.0558 19.0093 42.0796 19.8275L42.465 20.2873ZM41.5735 31.3407C41.4883 32.2776 40.6698 32.966 39.737 32.8812L39.6827 33.4787C40.9498 33.5939 42.0562 32.6576 42.171 31.395L41.5735 31.3407ZM41.5877 31.2729L41.5877 31.273L42.1569 31.4627L42.1569 31.4626L41.5877 31.2729ZM40.0325 29.5044C40.9589 29.5896 41.6582 30.4095 41.5735 31.3406L42.1711 31.3949C42.2864 30.1264 41.3359 29.0217 40.0874 28.9069L40.0325 29.5044ZM39.885 29.4931C39.9488 29.4931 39.9713 29.4939 40.0011 29.4998L40.1188 28.9115C40.0236 28.8924 39.9461 28.8931 39.885 28.8931V29.4931ZM38.1965 31.0431C38.2708 30.1619 39.0026 29.4931 39.885 29.4931V28.8931C38.6923 28.8931 37.6992 29.7992 37.5986 30.9926L38.1965 31.0431ZM39.737 32.8812C38.7999 32.796 38.1115 31.9776 38.1963 31.045L37.5987 30.9907C37.4835 32.2577 38.42 33.364 39.6827 33.4787L39.737 32.8812ZM51.6731 29.3772C51.6304 29.8255 51.4169 30.2424 51.0743 30.5422L51.4693 30.9937C51.9267 30.5936 52.2131 30.0357 52.2704 29.4341L51.6731 29.3772ZM51.9569 29.1061L51.9568 29.1061L51.9867 29.7053L51.9868 29.7053L51.9569 29.1061ZM50.1479 27.5552C51.0681 27.6292 51.758 28.4441 51.6731 29.3785L52.2706 29.4328C52.3856 28.1678 51.4507 27.058 50.196 26.9571L50.1479 27.5552ZM49.9969 27.5436C50.0608 27.5436 50.0833 27.5443 50.1131 27.5503L50.2308 26.9619C50.1356 26.9429 50.0581 26.9436 49.9969 26.9436V27.5436ZM48.9007 27.9372C49.2093 27.6818 49.5916 27.5436 49.9969 27.5436V26.9436C49.4523 26.9436 48.9346 27.1303 48.5182 27.4749L48.9007 27.9372ZM48.6894 30.3253C48.0828 29.6017 48.1804 28.5303 48.9002 27.9376L48.5188 27.4744C47.5386 28.2815 47.4113 29.7346 48.2296 30.7107L48.6894 30.3253ZM51.0791 30.538C50.3554 31.1446 49.2838 31.047 48.6911 30.3273L48.2279 30.7087C49.0351 31.6887 50.4883 31.8161 51.4645 30.9979L51.0791 30.538Z" fill="white" fill-opacity="0.701961" mask="url(#path-1-inside-1_5350_5356)"/>
<defs>
<linearGradient id="paint0_linear_5350_5356" x1="2.72762" y1="2.18182" x2="29.9943" y2="60.0027" gradientUnits="userSpaceOnUse">
<stop stop-color="white"/>
<stop offset="1" stop-color="white"/>
</linearGradient>
</defs>
</svg>
