<svg width="68" height="60" viewBox="0 0 68 60" fill="none" xmlns="http://www.w3.org/2000/svg">
<path d="M45.6996 40.2245L50.6498 43.1241L45.6996 45.9526V40.2245Z" fill="url(#paint0_linear_5350_5372)" stroke="white" stroke-width="0.2"/>
<path d="M36.725 29.25C36.725 30.893 35.3929 32.2252 33.7499 32.2252C32.1069 32.2252 30.7748 30.893 30.7748 29.25C30.7748 27.6071 32.1069 26.2749 33.7499 26.2749C35.3929 26.2749 36.725 27.6071 36.725 29.25Z" fill="url(#paint1_linear_5350_5372)" stroke="white" stroke-width="0.2"/>
<path d="M37.4999 36.4253H37.3999V36.5253V43.0323L27.9676 33.527C28.3928 33.1311 28.9408 32.8753 29.5501 32.8753H38.0251C39.2448 32.8753 40.25 33.8804 40.25 35.1001L40.2495 45.5998C40.2495 45.6577 40.2354 45.7187 40.2179 45.7809L38.0498 43.6832V36.5253V36.4253H37.9498H37.4999Z" fill="url(#paint2_linear_5350_5372)" stroke="white" stroke-width="0.2"/>
<path d="M9.57509 29.25C9.57509 30.893 8.24346 32.2252 6.60051 32.2252C4.95701 32.2252 3.62539 30.893 3.62539 29.25C3.62539 27.6071 4.95701 26.2749 6.60051 26.2749C8.24346 26.2749 9.57509 27.607 9.57509 29.25Z" fill="url(#paint3_linear_5350_5372)" stroke="white" stroke-width="0.2"/>
<path d="M2.40023 36.4249H2.30023V36.5249V45.6748C2.30023 46.2945 1.81976 46.7749 1.20011 46.7749C0.580479 46.7749 0.1 46.2945 0.1 45.6748V35.0998C0.1 33.8801 1.10516 32.8749 2.32485 32.8749H10.7346L10.7348 32.8752H10.8001C12.0178 32.8752 13.0264 33.8788 13.0998 35.103L13.1003 45.6751C13.1003 46.2947 12.6198 46.7752 12.0002 46.7752C11.3805 46.7752 10.9001 46.2947 10.9001 45.6751V36.5251V36.4251H10.8001H10.3501H10.2501V36.5251V46.8752L10.2496 58.2747C10.2496 59.1942 9.54468 59.8996 8.62477 59.8996C7.70533 59.8996 6.99991 59.1946 6.99991 58.2747L7.00044 46.8752L7.00044 46.7752H6.90044H6.37519H6.27519L6.27519 46.8752L6.27466 58.2747C6.27466 59.1942 5.56972 59.8996 4.64981 59.8996H4.575C3.65556 59.8996 2.95014 59.1946 2.95014 58.2747V36.5249V36.4249H2.85014H2.40023Z" fill="url(#paint4_linear_5350_5372)" stroke="white" stroke-width="0.2"/>
<path d="M63.9501 29.25C63.9501 30.893 62.6185 32.2252 60.9755 32.2252C59.332 32.2252 58.0004 30.893 58.0004 29.25C58.0004 27.6071 59.332 26.2749 60.9755 26.2749C62.6185 26.2749 63.9501 27.607 63.9501 29.25Z" fill="url(#paint5_linear_5350_5372)" stroke="white" stroke-width="0.2"/>
<path d="M56.7752 36.4249H56.6752V36.5249V45.6748C56.6752 46.2945 56.1948 46.7749 55.5751 46.7749C54.9555 46.7749 54.475 46.2945 54.475 45.6748V35.0998C54.475 33.8801 55.4802 32.8749 56.6999 32.8749H65.1087L65.1088 32.8752H65.175C66.3927 32.8752 67.4014 33.8788 67.4748 35.103L67.4753 45.6751C67.4753 46.2947 66.9948 46.7752 66.3752 46.7752C65.7555 46.7752 65.2751 46.2947 65.2751 45.6751V36.5251V36.4251H65.1751H64.7252H64.6252V36.5251V46.8752L64.6246 58.2747C64.6246 59.1942 63.9197 59.8996 62.9998 59.8996C62.0803 59.8996 61.3749 59.1946 61.3749 58.2747L61.3754 46.8752L61.3754 46.7752H61.2754H60.7502H60.6502L60.6502 46.8752L60.6497 58.2747C60.6497 59.1942 59.9447 59.8996 59.0248 59.8996H58.95C58.0306 59.8996 57.3251 59.1946 57.3251 58.2747V36.5249V36.4249H57.2251H56.7752Z" fill="url(#paint6_linear_5350_5372)" stroke="white" stroke-width="0.2"/>
<path d="M18.475 40.2233L23.4984 43.1241L18.475 45.9538V40.2233Z" fill="url(#paint7_linear_5350_5372)" stroke="white" stroke-width="0.2"/>
<path d="M33.7496 1.77531H33.6417L33.6417 1.77566C29.9929 1.78876 26.4904 2.46668 23.1362 3.88332L23.1347 3.88399C19.8997 5.31363 16.9645 7.27008 14.4802 9.75419C11.9452 12.2144 10.0006 15.1186 8.64752 18.318L7.10567 17.6474C8.52547 14.2483 10.6771 11.2138 13.2722 8.54479L13.2722 8.54479C15.8862 5.85589 19.0243 3.83772 22.4645 2.34214C26.0517 0.847598 29.8632 0.1 33.7501 0.1C37.6369 0.1 41.4491 0.847747 45.0365 2.34243L45.0368 2.34255C48.4735 3.76218 51.5377 5.85449 54.229 8.54579C55.8738 10.1906 57.3683 12.059 58.5637 14.0762L58.6903 14.2898L58.7471 14.048L60.4488 6.79697L62.0556 7.19859L59.6259 17.9484L49.0244 14.7089L49.4914 13.1751L57.1952 15.5458L57.4369 15.6202L57.3114 15.4006C56.1072 13.2934 54.6769 11.4114 53.0206 9.75507C50.5364 7.19536 47.5997 5.23766 44.3633 3.88304L44.3618 3.88245C40.9763 2.52842 37.4387 1.77531 33.7496 1.77531Z" fill="url(#paint8_linear_5350_5372)" stroke="white" stroke-width="0.2"/>
<path d="M27.2953 38.1792L17.9931 28.877L19.1975 27.7391L48.2327 56.701L47.0244 57.9092L37.5701 48.4548L37.3994 48.2841L37.3994 48.5255L37.3988 58.2751C37.3988 59.1945 36.6939 59.8999 35.774 59.8999C34.8545 59.8999 34.1491 59.195 34.1491 58.2751L34.1497 46.8756L34.1497 46.7755H34.0497H33.5244H33.4244L33.4244 46.8755L33.4239 58.2751C33.4239 59.1945 32.7189 59.8999 31.799 59.8999H31.7242C30.8048 59.8999 30.0994 59.195 30.0994 58.2751V41.0252V40.989L30.0762 40.9612L29.7016 40.5113L29.5248 40.2989V40.5753V45.675C29.5248 46.2946 29.0443 46.7751 28.4247 46.7751C27.805 46.7751 27.3246 46.2946 27.3246 45.675V38.2499V38.2085L27.2953 38.1792Z" fill="url(#paint9_linear_5350_5372)" stroke="white" stroke-width="0.2"/>
<defs>
<linearGradient id="paint0_linear_5350_5372" x1="46.0234" y1="40.5471" x2="49.2853" y2="45.4139" gradientUnits="userSpaceOnUse">
<stop stop-color="white"/>
<stop offset="1" stop-color="white"/>
</linearGradient>
<linearGradient id="paint1_linear_5350_5372" x1="31.1712" y1="26.6781" x2="34.2682" y2="32.0249" gradientUnits="userSpaceOnUse">
<stop stop-color="white"/>
<stop offset="1" stop-color="white"/>
</linearGradient>
<linearGradient id="paint2_linear_5350_5372" x1="28.8362" y1="33.8552" x2="35.6516" y2="45.0202" gradientUnits="userSpaceOnUse">
<stop stop-color="white"/>
<stop offset="1" stop-color="white"/>
</linearGradient>
<linearGradient id="paint3_linear_5350_5372" x1="4.02178" y1="26.6781" x2="7.11891" y2="32.0247" gradientUnits="userSpaceOnUse">
<stop stop-color="white"/>
<stop offset="1" stop-color="white"/>
</linearGradient>
<linearGradient id="paint4_linear_5350_5372" x1="1.06551" y1="35.0024" x2="16.6234" y2="48.0258" gradientUnits="userSpaceOnUse">
<stop stop-color="white"/>
<stop offset="1" stop-color="white"/>
</linearGradient>
<linearGradient id="paint5_linear_5350_5372" x1="58.3968" y1="26.6781" x2="61.4939" y2="32.0247" gradientUnits="userSpaceOnUse">
<stop stop-color="white"/>
<stop offset="1" stop-color="white"/>
</linearGradient>
<linearGradient id="paint6_linear_5350_5372" x1="55.4405" y1="35.0024" x2="70.9984" y2="48.0258" gradientUnits="userSpaceOnUse">
<stop stop-color="white"/>
<stop offset="1" stop-color="white"/>
</linearGradient>
<linearGradient id="paint7_linear_5350_5372" x1="18.8048" y1="40.5471" x2="22.0489" y2="45.4567" gradientUnits="userSpaceOnUse">
<stop stop-color="white"/>
<stop offset="1" stop-color="white"/>
</linearGradient>
<linearGradient id="paint8_linear_5350_5372" x1="11.4312" y1="1.50955" x2="15.4286" y2="22.1569" gradientUnits="userSpaceOnUse">
<stop stop-color="white"/>
<stop offset="1" stop-color="white"/>
</linearGradient>
<linearGradient id="paint9_linear_5350_5372" x1="20.3135" y1="30.2507" x2="37.0973" y2="57.5496" gradientUnits="userSpaceOnUse">
<stop stop-color="white"/>
<stop offset="1" stop-color="white"/>
</linearGradient>
</defs>
</svg>
