<svg width="60" height="60" viewBox="0 0 60 60" fill="none" xmlns="http://www.w3.org/2000/svg">
<mask id="path-1-inside-1_5350_5366" fill="white">
<path fill-rule="evenodd" clip-rule="evenodd" d="M38.8703 41.7552C40.2106 40.2056 40.7819 38.2605 40.5235 36.1296L40.5236 36.1296C40.2085 33.5346 38.8598 31.5007 36.5148 30.087C35.8077 29.6599 35.0233 29.2945 34.1356 28.9823L50.0469 13.0709C53.9152 17.6446 56.2501 23.5547 56.2501 30C56.2501 44.4746 44.4744 56.2503 29.9998 56.2503C23.5545 56.2503 17.6444 53.9155 13.0707 50.0472L21.4942 41.6237C23.0955 43.4501 25.4207 44.6798 28.1258 45.0783V47.1803C28.1258 48.2157 28.9652 49.055 30.0006 49.055C31.0359 49.055 31.8753 48.2157 31.8753 47.1803V45.1052C34.778 44.7453 37.326 43.5407 38.8703 41.7552ZM10.4861 47.5406C6.30002 42.8883 3.74949 36.7364 3.74949 30C3.74949 15.5254 15.5252 3.74972 29.9998 3.74972C36.7362 3.74972 42.888 6.30024 47.5404 10.4863L38.774 19.2527C37.0745 16.6958 34.4954 15.3525 31.8748 14.9356V12.8209C31.8748 11.7855 31.0355 10.9462 30.0001 10.9462C28.9647 10.9462 28.1253 11.7855 28.1253 12.8209V14.9518C27.9241 14.9857 27.7241 15.023 27.5277 15.0678C23.017 16.0908 20.1218 19.5618 20.3231 23.7055C20.448 26.2829 21.7634 29.4785 26.9249 31.1018L22.3019 35.7248C21.8828 35.4566 21.3583 35.3547 20.8373 35.4844C19.8322 35.7344 19.2209 36.7522 19.4714 37.7568C19.5239 37.9672 19.5831 38.1742 19.649 38.3777L10.4861 47.5406ZM24.143 38.9749C25.6316 40.8501 28.1963 41.5173 30.3095 41.4664C32.6988 41.4093 34.9454 40.5602 36.0335 39.3025C36.6804 38.5537 36.9318 37.6646 36.8008 36.5822C36.52 34.2697 34.7455 32.834 31.0997 32.0182L24.143 38.9749ZM30.0255 28.0012L36.0365 21.9902C34.7723 19.5211 32.3789 18.5188 30.0717 18.53C30.0605 18.5302 30.0493 18.531 30.0381 18.5319C30.0253 18.5329 30.0126 18.5339 29.9997 18.5339C29.986 18.5339 29.9729 18.5322 29.9597 18.5322C29.4139 18.5427 28.8742 18.6082 28.3565 18.726C26.1948 19.2164 23.9334 20.7344 24.0687 23.5244C24.1407 25.0112 24.8439 27.0775 30.0255 28.0012ZM30 60C46.5424 60 60 46.5424 60 30C60 13.4576 46.5424 0 30 0C13.4576 0 0 13.4576 0 30C0 46.5424 13.4576 60 30 60Z"/>
</mask>
<path fill-rule="evenodd" clip-rule="evenodd" d="M38.8703 41.7552C40.2106 40.2056 40.7819 38.2605 40.5235 36.1296L40.5236 36.1296C40.2085 33.5346 38.8598 31.5007 36.5148 30.087C35.8077 29.6599 35.0233 29.2945 34.1356 28.9823L50.0469 13.0709C53.9152 17.6446 56.2501 23.5547 56.2501 30C56.2501 44.4746 44.4744 56.2503 29.9998 56.2503C23.5545 56.2503 17.6444 53.9155 13.0707 50.0472L21.4942 41.6237C23.0955 43.4501 25.4207 44.6798 28.1258 45.0783V47.1803C28.1258 48.2157 28.9652 49.055 30.0006 49.055C31.0359 49.055 31.8753 48.2157 31.8753 47.1803V45.1052C34.778 44.7453 37.326 43.5407 38.8703 41.7552ZM10.4861 47.5406C6.30002 42.8883 3.74949 36.7364 3.74949 30C3.74949 15.5254 15.5252 3.74972 29.9998 3.74972C36.7362 3.74972 42.888 6.30024 47.5404 10.4863L38.774 19.2527C37.0745 16.6958 34.4954 15.3525 31.8748 14.9356V12.8209C31.8748 11.7855 31.0355 10.9462 30.0001 10.9462C28.9647 10.9462 28.1253 11.7855 28.1253 12.8209V14.9518C27.9241 14.9857 27.7241 15.023 27.5277 15.0678C23.017 16.0908 20.1218 19.5618 20.3231 23.7055C20.448 26.2829 21.7634 29.4785 26.9249 31.1018L22.3019 35.7248C21.8828 35.4566 21.3583 35.3547 20.8373 35.4844C19.8322 35.7344 19.2209 36.7522 19.4714 37.7568C19.5239 37.9672 19.5831 38.1742 19.649 38.3777L10.4861 47.5406ZM24.143 38.9749C25.6316 40.8501 28.1963 41.5173 30.3095 41.4664C32.6988 41.4093 34.9454 40.5602 36.0335 39.3025C36.6804 38.5537 36.9318 37.6646 36.8008 36.5822C36.52 34.2697 34.7455 32.834 31.0997 32.0182L24.143 38.9749ZM30.0255 28.0012L36.0365 21.9902C34.7723 19.5211 32.3789 18.5188 30.0717 18.53C30.0605 18.5302 30.0493 18.531 30.0381 18.5319C30.0253 18.5329 30.0126 18.5339 29.9997 18.5339C29.986 18.5339 29.9729 18.5322 29.9597 18.5322C29.4139 18.5427 28.8742 18.6082 28.3565 18.726C26.1948 19.2164 23.9334 20.7344 24.0687 23.5244C24.1407 25.0112 24.8439 27.0775 30.0255 28.0012ZM30 60C46.5424 60 60 46.5424 60 30C60 13.4576 46.5424 0 30 0C13.4576 0 0 13.4576 0 30C0 46.5424 13.4576 60 30 60Z" fill="url(#paint0_linear_5350_5366)"/>
<path d="M40.5235 36.1296L40.4084 35.4391L39.748 35.5492L39.8286 36.2139L40.5235 36.1296ZM38.8703 41.7552L38.3408 41.2973L38.3408 41.2973L38.8703 41.7552ZM40.5236 36.1296L40.6387 36.8201L41.2992 36.71L41.2185 36.0452L40.5236 36.1296ZM36.5148 30.087L36.1528 30.6861L36.1534 30.6864L36.5148 30.087ZM34.1356 28.9823L33.6406 28.4873L32.8542 29.2737L33.9033 29.6426L34.1356 28.9823ZM50.0469 13.0709L50.5814 12.6189L50.09 12.0379L49.552 12.576L50.0469 13.0709ZM13.0707 50.0472L12.5757 49.5522L12.0377 50.0902L12.6187 50.5816L13.0707 50.0472ZM21.4942 41.6237L22.0205 41.1622L21.5277 40.6002L20.9992 41.1287L21.4942 41.6237ZM28.1258 45.0783H28.8258V44.4739L28.2278 44.3858L28.1258 45.0783ZM31.8753 45.1052L31.7892 44.4105L31.1753 44.4866V45.1052H31.8753ZM10.4861 47.5406L9.96576 48.0088L10.4593 48.5573L10.9811 48.0356L10.4861 47.5406ZM47.5404 10.4863L48.0353 10.9813L48.5571 10.4596L48.0086 9.96599L47.5404 10.4863ZM38.774 19.2527L38.191 19.6402L38.6644 20.3523L39.269 19.7477L38.774 19.2527ZM31.8748 14.9356H31.1748V15.5331L31.7649 15.6269L31.8748 14.9356ZM28.1253 14.9518L28.2414 15.6421L28.8253 15.544V14.9518H28.1253ZM27.5277 15.0678L27.6825 15.7505L27.6834 15.7503L27.5277 15.0678ZM20.3231 23.7055L21.0223 23.6716L21.0223 23.6715L20.3231 23.7055ZM26.9249 31.1018L27.4199 31.5968L28.2362 30.7805L27.1349 30.4341L26.9249 31.1018ZM22.3019 35.7248L21.9246 36.3144L22.3988 36.6179L22.7969 36.2198L22.3019 35.7248ZM20.8373 35.4844L21.0063 36.1637L21.0064 36.1637L20.8373 35.4844ZM19.4714 37.7568L18.7922 37.9262L18.7922 37.9262L19.4714 37.7568ZM19.649 38.3777L20.144 38.8727L20.4469 38.5697L20.315 38.1621L19.649 38.3777ZM24.143 38.9749L23.648 38.4799L23.2066 38.9213L23.5947 39.4102L24.143 38.9749ZM30.3095 41.4664L30.2928 40.7666L30.2926 40.7666L30.3095 41.4664ZM36.0335 39.3025L36.5629 39.7605L36.5632 39.7601L36.0335 39.3025ZM36.8008 36.5822L37.4958 36.4981L37.4957 36.4978L36.8008 36.5822ZM31.0997 32.0182L31.2525 31.3351L30.8769 31.251L30.6047 31.5232L31.0997 32.0182ZM30.0255 28.0012L29.9027 28.6903L30.2622 28.7544L30.5205 28.4962L30.0255 28.0012ZM36.0365 21.9902L36.5315 22.4852L36.8919 22.1248L36.6596 21.6712L36.0365 21.9902ZM30.0717 18.53L30.0683 17.8299L30.059 17.8301L30.0717 18.53ZM30.0381 18.5319L29.9834 17.8341L29.9834 17.8341L30.0381 18.5319ZM29.9597 18.5322L29.9597 17.832L29.9462 17.8323L29.9597 18.5322ZM28.3565 18.726L28.5114 19.4086L28.5118 19.4085L28.3565 18.726ZM24.0687 23.5244L24.7679 23.4906L24.7679 23.4905L24.0687 23.5244ZM39.8286 36.2139C40.0645 38.1595 39.5452 39.9049 38.3408 41.2973L39.3997 42.2131C40.8761 40.5062 41.4993 38.3615 41.2184 36.0453L39.8286 36.2139ZM40.4085 35.4391L40.4084 35.4391L40.6386 36.8201L40.6387 36.8201L40.4085 35.4391ZM36.1534 30.6864C38.3239 31.995 39.5409 33.8442 39.8287 36.214L41.2185 36.0452C40.876 33.225 39.3957 31.0064 36.8762 29.4875L36.1534 30.6864ZM33.9033 29.6426C34.7512 29.9408 35.4914 30.2866 36.1528 30.6861L36.8767 29.4878C36.1241 29.0332 35.2955 28.6482 34.3678 28.3219L33.9033 29.6426ZM49.552 12.576L33.6406 28.4873L34.6306 29.4773L50.5419 13.5659L49.552 12.576ZM56.9501 30C56.9501 23.3826 54.5522 17.3138 50.5814 12.6189L49.5125 13.523C53.2782 17.9754 55.5501 23.7269 55.5501 30H56.9501ZM29.9998 56.9503C44.861 56.9503 56.9501 44.8612 56.9501 30H55.5501C55.5501 44.088 44.0878 55.5503 29.9998 55.5503V56.9503ZM12.6187 50.5816C17.3135 54.5524 23.3824 56.9503 29.9998 56.9503V55.5503C23.7266 55.5503 17.9752 53.2785 13.5228 49.5127L12.6187 50.5816ZM20.9992 41.1287L12.5757 49.5522L13.5657 50.5421L21.9891 42.1187L20.9992 41.1287ZM28.2278 44.3858C25.6702 44.009 23.5016 42.8514 22.0205 41.1622L20.9678 42.0852C22.6894 44.0487 25.1711 45.3506 28.0238 45.7708L28.2278 44.3858ZM28.8258 47.1803V45.0783H27.4258V47.1803H28.8258ZM30.0006 48.355C29.3518 48.355 28.8258 47.8291 28.8258 47.1803H27.4258C27.4258 48.6023 28.5786 49.755 30.0006 49.755V48.355ZM31.1753 47.1803C31.1753 47.8291 30.6493 48.355 30.0006 48.355V49.755C31.4225 49.755 32.5753 48.6023 32.5753 47.1803H31.1753ZM31.1753 45.1052V47.1803H32.5753V45.1052H31.1753ZM38.3408 41.2973C36.9377 42.9195 34.5674 44.066 31.7892 44.4105L31.9614 45.7999C34.9886 45.4245 37.7142 44.1619 39.3997 42.2131L38.3408 41.2973ZM3.04949 30C3.04949 36.9165 5.66889 43.2334 9.96576 48.0088L11.0065 47.0724C6.93115 42.5432 4.44949 36.5564 4.44949 30H3.04949ZM29.9998 3.04972C15.1386 3.04972 3.04949 15.1388 3.04949 30H4.44949C4.44949 15.912 15.9118 4.44972 29.9998 4.44972V3.04972ZM48.0086 9.96599C43.2331 5.66911 36.9162 3.04972 29.9998 3.04972V4.44972C36.5561 4.44972 42.5429 6.93137 47.0721 11.0067L48.0086 9.96599ZM39.269 19.7477L48.0353 10.9813L47.0454 9.99137L38.279 18.7577L39.269 19.7477ZM31.7649 15.6269C34.2263 16.0185 36.6176 17.2729 38.191 19.6402L39.357 18.8652C37.5315 16.1188 34.7645 14.6865 31.9848 14.2443L31.7649 15.6269ZM31.1748 12.8209V14.9356H32.5748V12.8209H31.1748ZM30.0001 11.6462C30.6489 11.6462 31.1748 12.1721 31.1748 12.8209H32.5748C32.5748 11.3989 31.4221 10.2462 30.0001 10.2462V11.6462ZM28.8253 12.8209C28.8253 12.1721 29.3513 11.6462 30.0001 11.6462V10.2462C28.5781 10.2462 27.4253 11.3989 27.4253 12.8209H28.8253ZM28.8253 14.9518V12.8209H27.4253V14.9518H28.8253ZM27.6834 15.7503C27.8622 15.7095 28.0479 15.6747 28.2414 15.6421L28.0093 14.2615C27.8002 14.2967 27.586 14.3365 27.3719 14.3854L27.6834 15.7503ZM21.0223 23.6715C20.8401 19.9211 23.4475 16.711 27.6825 15.7505L27.3728 14.3852C22.5865 15.4707 19.4035 19.2025 19.6239 23.7394L21.0223 23.6715ZM27.1349 30.4341C24.6667 29.6578 23.1819 28.5275 22.296 27.3423C21.4083 26.1547 21.0797 24.8553 21.0223 23.6716L19.6239 23.7394C19.6915 25.1331 20.083 26.7201 21.1746 28.1805C22.268 29.6433 24.0216 30.9225 26.7149 31.7696L27.1349 30.4341ZM22.7969 36.2198L27.4199 31.5968L26.4299 30.6069L21.8069 35.2298L22.7969 36.2198ZM21.0064 36.1637C21.3331 36.0824 21.6608 36.1456 21.9246 36.3144L22.6792 35.1352C22.1047 34.7675 21.3834 34.6271 20.6682 34.8051L21.0064 36.1637ZM20.1506 37.5875C19.9936 36.9578 20.3768 36.3203 21.0063 36.1637L20.6684 34.8051C19.2876 35.1485 18.4482 36.5466 18.7922 37.9262L20.1506 37.5875ZM20.315 38.1621C20.2541 37.9739 20.1992 37.7823 20.1506 37.5875L18.7922 37.9262C18.8485 38.1521 18.9122 38.3745 18.983 38.5933L20.315 38.1621ZM10.9811 48.0356L20.144 38.8727L19.154 37.8827L9.99115 47.0456L10.9811 48.0356ZM23.5947 39.4102C25.2732 41.5245 28.0968 42.2199 30.3264 42.1662L30.2926 40.7666C28.2958 40.8147 25.99 40.1757 24.6912 38.5397L23.5947 39.4102ZM30.3262 42.1662C32.8248 42.1065 35.2974 41.2232 36.5629 39.7605L35.5041 38.8445C34.5934 39.8973 32.5729 40.7121 30.2928 40.7666L30.3262 42.1662ZM36.5632 39.7601C37.3527 38.8462 37.6478 37.7545 37.4958 36.4981L36.1059 36.6663C36.2158 37.5746 36.0081 38.2611 35.5038 38.8449L36.5632 39.7601ZM37.4957 36.4978C37.3333 35.1602 36.7273 34.0574 35.6502 33.193C34.5976 32.3482 33.125 31.7541 31.2525 31.3351L30.9468 32.7013C32.7201 33.0981 33.9577 33.6297 34.774 34.2848C35.5658 34.9203 35.9875 35.6917 36.1059 36.6666L37.4957 36.4978ZM30.6047 31.5232L23.648 38.4799L24.6379 39.4699L31.5947 32.5132L30.6047 31.5232ZM30.5205 28.4962L36.5315 22.4852L35.5415 21.4952L29.5305 27.5062L30.5205 28.4962ZM36.6596 21.6712C35.2484 18.9151 32.5754 17.8178 30.0683 17.83L30.0751 19.23C32.1824 19.2197 34.2962 20.1271 35.4134 22.3092L36.6596 21.6712ZM30.059 17.8301C30.0233 17.8307 29.9913 17.8334 29.9834 17.8341L30.0927 19.2298C30.0957 19.2296 30.0972 19.2294 30.0985 19.2293C30.0996 19.2293 30.0996 19.2293 30.099 19.2293C30.0979 19.2294 30.0925 19.2297 30.0845 19.2298L30.059 17.8301ZM29.9834 17.8341C29.9799 17.8343 29.9784 17.8344 29.9773 17.8345C29.9763 17.8346 29.9767 17.8346 29.978 17.8345C29.9804 17.8344 29.9884 17.8339 29.9997 17.8339V19.2339C30.0444 19.2339 30.0843 19.2304 30.0928 19.2298L29.9834 17.8341ZM29.9997 17.8339C30.0111 17.8339 30.0197 17.8343 30.0239 17.8345C30.0274 17.8347 30.0298 17.8348 30.0257 17.8346C30.0235 17.8344 30.0144 17.8338 30.0045 17.8333C29.9938 17.8328 29.9782 17.8322 29.9597 17.8322V19.2322C29.9477 19.2322 29.9387 19.2318 29.9347 19.2316C29.9313 19.2314 29.9288 19.2312 29.9333 19.2315C29.9359 19.2317 29.945 19.2323 29.9552 19.2328C29.966 19.2333 29.9815 19.2339 29.9997 19.2339V17.8339ZM29.9462 17.8323C29.3536 17.8437 28.7665 17.9148 28.2012 18.0434L28.5118 19.4085C28.982 19.3016 29.4741 19.2417 29.9732 19.232L29.9462 17.8323ZM28.2016 18.0433C27.0311 18.3089 25.7986 18.8588 24.8653 19.759C23.9152 20.6752 23.2912 21.9431 23.3695 23.5584L24.7679 23.4905C24.7109 22.3157 25.1498 21.4296 25.8371 20.7667C26.5411 20.0878 27.5202 19.6335 28.5114 19.4086L28.2016 18.0433ZM23.3695 23.5583C23.4108 24.4113 23.6419 25.4923 24.6404 26.4733C25.6143 27.4301 27.2425 28.2161 29.9027 28.6903L30.1484 27.3121C27.6269 26.8626 26.3127 26.1536 25.6216 25.4746C24.9551 24.8199 24.7986 24.1243 24.7679 23.4906L23.3695 23.5583ZM59.3 30C59.3 46.1558 46.1558 59.3 30 59.3V60.7C46.929 60.7 60.7 46.929 60.7 30H59.3ZM30 0.7C46.1558 0.7 59.3 13.8442 59.3 30H60.7C60.7 13.071 46.929 -0.7 30 -0.7V0.7ZM0.7 30C0.7 13.8442 13.8442 0.7 30 0.7V-0.7C13.071 -0.7 -0.7 13.071 -0.7 30H0.7ZM30 59.3C13.8442 59.3 0.7 46.1558 0.7 30H-0.7C-0.7 46.929 13.071 60.7 30 60.7V59.3Z" fill="white" mask="url(#path-1-inside-1_5350_5366)"/>
<defs>
<linearGradient id="paint0_linear_5350_5366" x1="9.6" y1="4.8" x2="30" y2="60" gradientUnits="userSpaceOnUse">
<stop stop-color="white"/>
<stop offset="1" stop-color="white"/>
</linearGradient>
</defs>
</svg>
