<svg width="49" height="72" viewBox="0 0 49 72" fill="none" xmlns="http://www.w3.org/2000/svg">
<path d="M0.126953 36.3113C0.250624 36.3113 0.250624 36.3113 0.126953 36.3113C0.126953 36.426 0.126953 36.426 0.126953 36.3113Z" fill="white"/>
<path fill-rule="evenodd" clip-rule="evenodd" d="M24.2385 0.00012207V26.2751C24.2385 26.299 24.2329 26.3229 24.223 26.3457C24.2261 26.343 24.2292 26.3403 24.2323 26.3375C24.2349 26.3352 24.2375 26.3328 24.2401 26.3304L24.2432 26.3277V26.1616V0.337719V0.112183L47.9879 35.9725L47.9879 35.9725C48.1116 36.0852 48.2352 36.198 48.2352 36.3108C47.7406 36.0852 47.2459 35.8597 46.6275 35.6342C46.3184 35.5214 46.0092 35.3804 45.7 35.2395C45.3908 35.0985 45.0816 34.9575 44.7725 34.8448C44.6222 34.7991 44.4719 34.7349 44.3133 34.6672C44.1498 34.5974 43.9776 34.5238 43.7876 34.463C44.3307 34.6866 44.8719 34.9232 45.3866 35.184C45.7348 35.3201 46.083 35.4744 46.4393 35.6323C46.9687 35.8669 47.5159 36.1094 48.1073 36.3117C48.1073 36.2761 48.1073 36.2629 48.1112 36.2617C48.1135 36.2609 48.1171 36.2642 48.1228 36.2694C48.1382 36.2835 48.1692 36.3117 48.231 36.3117C46.8777 37.1343 45.4587 37.8969 44.0698 38.6433L44.0694 38.6435L44.0671 38.6447C43.5531 38.921 43.0431 39.1951 42.5421 39.4692C39.5125 41.1041 36.5138 42.7109 33.5151 44.3177L33.5137 44.3185L33.5129 44.3189C30.5143 45.9256 27.5157 47.5323 24.4862 49.1672C24.4252 49.1672 24.3943 49.1947 24.3638 49.2225V49.2788C24.2874 49.3484 24.2582 49.332 24.2178 49.3093C24.1929 49.2952 24.1637 49.2788 24.1165 49.2788C23.9701 49.1898 23.8238 49.1184 23.685 49.0507L23.685 49.0507C23.472 48.9467 23.2769 48.8515 23.1271 48.7149L0.495388 36.536C0.371717 36.4232 0.248047 36.4232 0.248047 36.4232C0.866389 36.1413 1.48473 35.8875 2.10307 35.6338L2.10333 35.6337C2.72161 35.38 3.33989 35.1263 3.95816 34.8444L8.78131 32.8146C9.06306 32.6861 9.3448 32.5635 9.62654 32.4441L6.55356 33.7178C5.44053 34.1689 4.32749 34.6199 3.09079 35.1838C2.65801 35.3529 2.19433 35.5502 1.73064 35.7475L1.73054 35.7476L1.73049 35.7476L1.73045 35.7476L1.73013 35.7477C1.26646 35.9451 0.802796 36.1424 0.370035 36.3115C0.322797 36.3115 0.293602 36.3279 0.268667 36.342C0.228321 36.3647 0.199127 36.3812 0.122694 36.3115H-0.000976562C0.184526 36.0296 0.370029 35.7758 0.555531 35.5221C0.74104 35.2684 0.926549 35.0146 1.11206 34.7327C2.10142 33.2104 3.1217 31.688 4.14197 30.1656L4.14202 30.1656C5.16229 28.6432 6.18256 27.1208 7.17192 25.5985C8.22312 23.9634 9.30524 22.3282 10.3874 20.6931C11.4695 19.0579 12.5516 17.4228 13.6028 15.7877L13.6028 15.7876C15.5815 12.7429 17.5603 9.69816 19.539 6.76621C19.9459 6.14773 20.3529 5.53773 20.7573 4.93156L20.7579 4.93063L20.7583 4.93012C21.8283 3.32631 22.8804 1.74928 23.8674 0.11289C24.0123 0.11289 24.0723 0.0741943 24.1221 0.0421376C24.1572 0.01947 24.1872 0.00012207 24.2385 0.00012207ZM21.6584 27.4602C22.2272 27.2377 22.796 27.0126 23.3648 26.7529C23.1587 26.8379 22.9566 26.923 22.7544 27.0081L22.7543 27.0082L22.7542 27.0082C22.3962 27.1588 22.0382 27.3095 21.6584 27.4602ZM37.2257 54.6351C40.8121 50.0398 44.3985 45.4446 47.9849 40.8211C48.1085 40.7084 48.1085 40.7084 48.1085 40.5956C48.1085 40.5956 47.9849 40.5956 47.9849 40.7084L29.0633 50.8575C27.4556 51.6469 25.8479 52.549 24.2403 53.4511L24.2402 53.4511L24.2402 53.4512L24.2401 53.4512V53.5878C24.2333 53.5123 24.2087 53.453 24.119 53.453C23.8099 53.2839 23.4697 53.1147 23.1296 52.9456C22.7896 52.7764 22.4495 52.6073 22.1403 52.4381C20.2234 51.3668 18.2756 50.3237 16.3278 49.2806C14.38 48.2375 12.4322 47.1944 10.5153 46.1231C8.84572 45.221 7.14525 44.3188 5.44477 43.4167C3.74431 42.5145 2.04384 41.6124 0.374294 40.7102C0.312459 40.7102 0.281541 40.6821 0.250624 40.6539C0.219706 40.6257 0.188788 40.5975 0.126953 40.5975C0.126953 40.6539 0.157871 40.6821 0.188789 40.7102C0.219707 40.7384 0.250624 40.7666 0.250624 40.823L2.10568 43.1911C3.59069 45.1867 5.1251 47.1371 6.64647 49.071C7.53237 50.1971 8.41385 51.3176 9.27857 52.4381L16.6988 61.9107C17.9356 63.4895 19.1414 65.0401 20.3472 66.5907C21.553 68.1412 22.7587 69.6917 23.9954 71.2704C24.0654 71.3343 24.0958 71.362 24.1315 71.374C24.1587 71.3832 24.1891 71.3832 24.2427 71.3832V71.3778C24.6129 70.8716 24.983 70.3935 25.3532 69.9153C25.7242 69.436 26.0952 68.9568 26.4662 68.4493C30.0527 63.8258 33.6392 59.2304 37.2257 54.6351Z" fill="white"/>
</svg>
