<svg width="73" height="73" viewBox="0 0 73 73" fill="none" xmlns="http://www.w3.org/2000/svg">
<path fill-rule="evenodd" clip-rule="evenodd" d="M72.3463 36.1738C72.3463 56.1519 56.1508 72.3474 36.1727 72.3474C16.1945 72.3474 -0.000976562 56.1519 -0.000976562 36.1738C-0.000976562 16.1956 16.1945 0.00012207 36.1727 0.00012207C56.1508 0.00012207 72.3463 16.1956 72.3463 36.1738ZM32.0596 23.5079V28.3055C22.0601 28.8394 14.6045 31.0915 14.6045 33.7769C14.6045 36.858 24.4182 39.3684 36.6282 39.3684C36.7527 39.3684 36.877 39.3682 37.0009 39.3677C36.8773 39.3688 36.7536 39.3695 36.6299 39.3695C35.0323 39.3695 33.5489 39.3695 32.0654 39.2553V56.2581H41.6509V39.2229C51.4212 38.6459 58.6519 36.4216 58.6519 33.7769C58.6519 31.1421 51.4746 28.9245 41.7592 28.3375V23.622H53.9692V15.4059H19.8496V23.5079H32.0596ZM16.4303 33.7769C17.1277 32.681 22.2615 29.9323 32.0596 29.2523V32.751H32.1795V35.4896C32.8378 35.4896 33.5489 35.516 34.2873 35.5434C35.0849 35.573 35.9145 35.6037 36.744 35.6037C38.4557 35.7179 40.1674 35.7179 41.765 35.6037V29.3005C51.1935 30.067 56.1423 32.8001 56.8261 33.7769C56.0273 34.9181 49.5229 36.6297 36.6282 36.6297C23.8476 36.6297 17.2291 34.9181 16.4303 33.7769Z" fill="#FEFEFF"/>
</svg>
