<svg width="73" height="73" viewBox="0 0 73 73" fill="none" xmlns="http://www.w3.org/2000/svg">
<path fill-rule="evenodd" clip-rule="evenodd" d="M-0.000976562 35.9936C-0.000976562 56.0696 16.2772 72.3474 36.1727 72.3474C56.0682 72.3474 72.1654 56.2505 72.3463 36.5362C72.3463 16.2794 56.249 0.182477 36.3535 0.00161494C16.2772 -0.179255 0.179893 16.0985 -0.000976562 35.9936ZM58.6338 25.3515C59.8221 26.5053 60.9622 27.6122 61.9464 28.5206C62.4516 28.9606 62.6885 29.6335 62.5716 30.2931C62.3449 30.7076 62.0802 31.0997 61.78 31.4642C59.4615 34.4237 36.5456 62.2139 36.5456 62.2139C36.5456 62.2139 35.2637 63.9075 34.963 63.9075H34.8364C34.2753 63.8599 33.9747 62.9284 33.8163 62.4375L33.8161 62.437L33.8156 62.4358C32.6122 59.1223 29.1599 50.858 25.4471 41.9703L25.4464 41.9687C21.0551 31.4563 16.2993 20.0716 14.4685 14.9737V14.8866V14.3248L14.508 14.2219C14.5938 13.9724 14.7344 13.7453 14.9195 13.5572L15.0699 13.4386C15.2079 13.3469 15.3647 13.2874 15.5288 13.2644C16.0836 13.197 43.0518 18.229 51.3716 19.7814L52.5773 20.0063C52.8954 20.1196 53.1923 20.2855 53.4556 20.4969L53.6139 20.6077C55.1761 21.9943 56.9465 23.7132 58.6217 25.3397L58.6338 25.3515ZM52.2054 23.6463L42.425 31.757L57.9422 28.9321L52.2054 23.6463ZM38.6267 31.2269L21.788 17.4266L49.0323 22.4514L38.6267 31.2269ZM57.3805 32.0656L40.146 34.8431L37.6772 55.8045L57.3805 32.0656ZM19.5011 18.8035L37.2182 33.8381L34.6544 55.8203L19.5011 18.8035Z" fill="white"/>
</svg>
