<svg width="70" height="70" viewBox="0 0 70 70" fill="none" xmlns="http://www.w3.org/2000/svg">
<path d="M34.8886 69.9995C15.4568 69.889 -0.110801 54.2968 -0.000392904 34.9448C-0.000392904 15.4823 15.788 -0.109876 35.1094 0.000706651C54.5413 0.111289 70.1088 15.814 69.9984 35.166C69.7776 54.518 54.0996 70.1101 34.8886 69.9995ZM66.5758 35.0554C66.5758 17.4728 52.4435 3.31819 34.8886 3.31819C17.4441 3.31819 3.31185 17.4728 3.31185 34.9448C3.31185 52.5275 17.4441 66.6821 34.999 66.6821C52.4435 66.6821 66.5758 52.5275 66.5758 35.0554Z" fill="white"/>
<path fill-rule="evenodd" clip-rule="evenodd" d="M34.7785 61.9275C49.5732 62.038 61.6077 49.9845 61.8285 35.0559C61.8285 20.2378 49.9044 8.18429 34.9993 8.07371C20.315 7.96312 8.28048 19.7955 8.05966 34.7241C7.83884 49.5422 19.7629 61.7063 34.7785 61.9275ZM50.9816 45.1177C50.9904 45.0814 50.9993 45.045 51.0085 45.0083L35.8741 44.7259C34.9956 44.7091 34.1154 44.6928 33.2327 44.6764V44.4528C33.301 44.1452 33.3704 43.8388 33.4409 43.5334C33.7496 42.3193 34.0432 41.1204 34.3368 39.9215C34.4338 39.5254 34.5308 39.1292 34.6284 38.7326C34.7657 38.2018 34.9042 37.6699 35.0434 37.1357C35.1754 36.6291 35.3079 36.1205 35.4404 35.6086C35.5508 35.3874 35.882 35.0557 36.1028 34.9451C36.8757 34.6134 37.6485 34.2816 38.4214 34.0604C40.1879 33.6181 41.1816 32.6229 41.4024 30.8535C41.469 30.3866 41.616 29.9196 41.7706 29.4283C41.8723 29.1053 41.9773 28.7717 42.0649 28.4207C42.0547 28.4243 42.0445 28.4279 42.0343 28.4315C42.0449 28.3914 42.0553 28.351 42.0654 28.3103C40.1993 29.0799 38.5515 29.7402 36.7964 30.3999C37.1881 28.8651 37.5685 27.3532 37.945 25.8567C38.7241 22.7601 39.4865 19.7295 40.2983 16.699H40.27C40.2796 16.6622 40.2892 16.6254 40.2989 16.5886H30.2517C29.7898 16.5886 29.5426 16.6961 29.3604 16.9862C29.2966 17.0681 29.2489 17.1699 29.2115 17.2945C29.19 17.3502 29.1688 17.4097 29.1476 17.4732L24.5105 34.7241C24.4001 35.0559 24.0689 35.3876 23.848 35.4982C23.3512 35.7194 22.8268 35.9129 22.3023 36.1064C21.7779 36.2999 21.2534 36.4935 20.7566 36.7146C20.7014 36.7423 20.6393 36.7699 20.5772 36.7976C20.3909 36.8805 20.2046 36.9634 20.2046 37.0464C20.1204 37.3205 20.0361 37.5986 19.9512 37.8808C19.5789 38.97 19.2543 40.0293 18.9369 41.1803C18.8821 41.3493 18.8263 41.5195 18.7693 41.6908C18.7802 41.6862 18.7911 41.6815 18.802 41.6768C18.7909 41.7181 18.7798 41.7596 18.7687 41.8012C20.3042 41.1421 21.6218 40.5921 23.1544 40.0429C22.1712 43.8704 21.1879 47.5908 20.2047 51.3112L20.2046 51.3115H20.2324C20.2229 51.3483 20.2135 51.3851 20.204 51.4219H48.6894C49.2414 51.4219 49.4622 51.3113 49.5726 50.7584C49.7515 49.8624 50.0029 49.0391 50.2681 48.1706C50.3302 47.9672 50.393 47.7614 50.4559 47.5515C50.4678 47.4678 50.4811 47.3841 50.4955 47.3002C50.5989 46.9155 50.6784 46.5291 50.761 46.1275C50.7749 46.0602 50.7888 45.9926 50.8029 45.9244C50.8261 45.8331 50.8497 45.7409 50.8736 45.6477C50.9178 45.4753 50.9628 45.2993 51.0079 45.1187C50.9991 45.1184 50.9904 45.1181 50.9816 45.1177Z" fill="white"/>
</svg>
