<svg width="70" height="70" viewBox="0 0 70 70" fill="none" xmlns="http://www.w3.org/2000/svg">
<path fill-rule="evenodd" clip-rule="evenodd" d="M34.999 70.0001C54.395 70.0001 69.999 54.3961 69.999 35.0001C69.999 15.6042 54.395 0.00012207 34.999 0.00012207C15.6031 0.00012207 -0.000976562 15.6042 -0.000976562 35.0001C-0.000976562 54.3961 15.6031 70.0001 34.999 70.0001ZM44.624 40.5417C44.624 35.4376 41.5615 33.6876 35.4365 32.9586C31.0615 32.3751 30.1865 31.2086 30.1865 29.1667C30.1865 27.1248 31.645 25.8126 34.5615 25.8126C37.1865 25.8126 38.645 26.6876 39.374 28.8751C39.52 29.3126 39.9575 29.6042 40.395 29.6042H42.7281C43.3115 29.6042 43.749 29.1667 43.749 28.5836V28.4376C43.1656 25.2292 40.5406 22.7501 37.1865 22.4586V18.9586C37.1865 18.3751 36.749 17.9376 36.02 17.7917H33.8325C33.249 17.7917 32.8115 18.2292 32.6656 18.9586V22.3126C28.2906 22.8961 25.52 25.8126 25.52 29.4586C25.52 34.2711 28.4365 36.1667 34.5615 36.8961C38.645 37.6251 39.9575 38.5001 39.9575 40.8336C39.9575 43.167 37.9156 44.7711 35.145 44.7711C31.3531 44.7711 30.0406 43.1667 29.6031 40.9792C29.4575 40.3961 29.02 40.1042 28.5825 40.1042H26.1031C25.52 40.1042 25.0825 40.5417 25.0825 41.1251V41.2711C25.6656 44.9167 27.999 47.5417 32.8115 48.2711V51.7711C32.8115 52.3542 33.249 52.7917 33.9781 52.9376H36.1656C36.749 52.9376 37.1865 52.5001 37.3325 51.7711V48.2711C41.7075 47.5417 44.624 44.4792 44.624 40.5417ZM27.5615 55.8542C16.1865 51.7711 10.3531 39.0836 14.5825 27.8542C16.77 21.7292 21.5825 17.0626 27.5615 14.8751C28.145 14.5836 28.4365 14.1461 28.4365 13.4167V11.3751C28.4365 10.7917 28.145 10.3542 27.5615 10.2086C27.4156 10.2086 27.124 10.2086 26.9781 10.3542C13.124 14.7292 5.54057 29.4586 9.91557 43.3126C12.5406 51.4792 18.8115 57.7501 26.9781 60.3751C27.5615 60.6668 28.145 60.3751 28.2906 59.7918C28.4365 59.646 28.4365 59.5001 28.4365 59.2085V57.1667C28.4365 56.7292 27.999 56.1461 27.5615 55.8542ZM43.02 10.3542C42.4365 10.0626 41.8531 10.3542 41.7075 10.9376C41.5615 11.0836 41.5615 11.2292 41.5615 11.5211V13.5626C41.5615 14.1461 41.999 14.7292 42.4365 15.0211C53.8115 19.1042 59.6449 31.7917 55.4156 43.0211C53.2281 49.1461 48.4156 53.8126 42.4365 56.0001C41.8531 56.2917 41.5615 56.7292 41.5615 57.4586V59.5001C41.5615 60.0835 41.8531 60.521 42.4365 60.6668C42.5825 60.6668 42.874 60.6668 43.02 60.521C56.874 56.1461 64.4574 41.4167 60.0824 27.5626C57.4575 19.2501 51.0406 12.9792 43.02 10.3542Z" fill="#FCFCFF"/>
</svg>
