<svg width="72" height="72" viewBox="0 0 72 72" fill="none" xmlns="http://www.w3.org/2000/svg">
<path fill-rule="evenodd" clip-rule="evenodd" d="M70.8159 26.7665C75.8189 45.4378 64.502 64.693 45.5389 69.7741C26.5759 74.8552 7.14757 63.8382 2.1446 45.1669C-2.85836 26.4956 8.45853 7.24042 27.4216 2.15929C46.3846 -2.92185 65.8129 8.09518 70.8159 26.7665ZM22.5359 21.1857C22.545 21.1857 22.5541 21.1857 22.5632 21.1857C22.4648 21.3065 22.4825 21.2765 22.5359 21.1857ZM22.8017 21.1843C22.7223 21.1852 22.6428 21.1856 22.5632 21.1857C22.6118 21.126 22.6888 21.0295 22.8037 20.8853C22.8028 20.9844 22.8022 21.0841 22.8017 21.1843ZM22.8017 21.1843C23.3499 21.1787 23.8936 21.1561 24.4374 21.1334C25.0688 21.1071 25.7003 21.0808 26.3388 21.0811C26.9774 21.0815 27.6089 21.0551 28.2403 21.0288C28.8718 21.0025 29.5032 20.9762 30.1418 20.9765C30.4954 20.9961 30.5751 20.8605 30.5977 20.5115C30.5714 19.5469 30.5523 18.609 30.5332 17.6712C30.514 16.7333 30.4949 15.7954 30.4686 14.8308C30.4912 14.4818 30.571 14.3462 30.9245 14.3658C32.0934 14.3955 33.1253 14.3476 34.2656 14.2706C34.6191 14.2902 34.6477 14.3969 34.5966 14.6392C34.6085 15.5504 34.6277 16.4883 34.6468 17.4262C34.6659 18.3641 34.685 19.302 34.697 20.2132C34.7256 20.3199 34.7542 20.4265 34.703 20.6688C35.1649 20.6594 35.6538 20.6427 36.1427 20.626C36.6316 20.6093 37.1205 20.5926 37.5823 20.5831C37.6545 20.5638 37.7014 20.4496 37.7482 20.3355C37.7716 20.2784 37.795 20.2213 37.8215 20.1761C37.775 18.7026 37.757 17.3358 37.8188 15.8333L37.8008 14.4664C37.7437 14.2531 37.8234 14.1175 38.0686 14.1661C38.7339 14.183 39.3899 14.1653 40.0672 14.1471C40.5799 14.1334 41.1047 14.1192 41.655 14.1195C41.7091 14.105 41.7433 14.1244 41.7776 14.1438C41.8118 14.1633 41.846 14.1827 41.9002 14.1681C41.9467 15.6412 41.9647 17.0077 41.9826 18.3742L41.9827 18.3753C42.0172 18.9376 42.0518 19.4999 41.978 20.0911C41.9555 20.4401 42.0924 20.5177 42.4459 20.5373L46.4489 21.1793C47.7035 21.5289 48.9069 22.1209 49.9509 22.9842C51.3544 24.3228 51.9199 26.0001 51.9439 27.8226C51.9333 29.0828 51.7858 30.2653 51.1479 31.3507C50.6694 32.1647 49.9172 32.8235 49.1364 33.3756C49.0916 33.3876 49.0516 33.418 49.0048 33.4535C48.9386 33.5037 48.8586 33.5643 48.7318 33.5983C48.9912 33.7003 49.2436 33.7755 49.4959 33.8508C49.7483 33.9261 50.0006 34.0013 50.2601 34.1033C51.8171 34.7148 52.9979 35.6558 53.8313 37.0327C54.3622 38.1478 54.5968 39.4566 54.5862 40.7168C54.553 42.326 54.3544 43.7509 53.6939 45.1852C52.8739 46.8909 51.5576 48.0437 49.8817 48.7214C47.6928 49.6508 45.4694 50.018 43.2174 50.2785C42.8638 50.2589 42.6758 50.4236 42.6532 50.7726C42.6652 51.6838 42.6843 52.6217 42.7034 53.5596C42.7226 54.4975 42.7417 55.4354 42.7537 56.3466C42.7539 56.3662 42.7542 56.3852 42.7545 56.4035C42.7609 56.8111 42.7624 56.9059 42.1895 56.8407C41.6735 56.8646 41.1233 56.8692 40.5731 56.8737C40.0229 56.8783 39.4727 56.8828 38.9567 56.9068C38.6032 56.8872 38.5746 56.7805 38.6257 56.5382C38.5732 54.6091 38.5207 52.68 38.605 50.8285C38.5891 50.769 38.5838 50.7155 38.5791 50.6682C38.5671 50.5463 38.5591 50.466 38.3824 50.431C37.4587 50.4498 36.5351 50.4687 35.5031 50.5166C35.5234 51.0256 35.5166 51.5418 35.5098 52.058C35.503 52.5742 35.4962 53.0904 35.5164 53.5993C35.5367 54.1082 35.5299 54.6244 35.5231 55.1406C35.5163 55.6568 35.5095 56.173 35.5298 56.682C35.5237 56.7108 35.5187 56.7377 35.5141 56.7627C35.48 56.9479 35.4651 57.0286 35.1537 57.0113C33.9849 56.9816 32.8446 57.0585 31.7043 57.1355L31.7042 57.1355C31.3507 57.1159 31.3221 57.0093 31.3733 56.7669L31.3733 56.7668C31.3208 54.8378 31.2682 52.9087 31.3526 51.0572C31.3407 51.0131 31.3475 50.9639 31.3554 50.9063C31.3666 50.8249 31.3801 50.7266 31.3466 50.6016L31.3464 50.6016C28.6838 50.6293 26.0212 50.6569 23.2502 50.7136C23.3014 50.4712 23.3326 50.2628 23.3638 50.0544C23.395 49.846 23.4263 49.6376 23.4774 49.3953C23.6535 48.3194 23.8296 47.2435 23.9259 46.3032C23.9485 45.9542 24.0568 45.9252 24.3818 45.8382C25.1971 45.8483 26.1208 45.8294 26.9075 45.7329C27.8312 45.714 28.3668 45.1133 28.2751 44.3377L28.2751 44.3377C28.2258 38.5213 28.1765 32.705 27.9903 26.8111C27.9783 25.8998 27.1795 25.0851 26.119 25.0264C25.2665 24.9792 24.4324 25.0009 23.6582 25.021C23.4693 25.0259 23.284 25.0307 23.1028 25.0344C22.8862 25.0925 22.7493 25.0149 22.8004 24.7725C22.8057 24.1424 22.8039 23.4857 22.802 22.8289C22.8005 22.2754 22.7989 21.7219 22.8017 21.1843ZM35.3634 46.0962C35.3634 46.0962 35.2265 46.0185 35.1182 46.0476C35.1202 45.3094 35.1074 44.5964 35.0949 43.8954C35.0783 42.9669 35.062 42.0594 35.0809 41.1425C35.0463 40.5802 35.046 40.0373 35.0457 39.4945C35.0453 38.9516 35.045 38.4088 35.0104 37.8465C35.0124 37.8156 35.014 37.7866 35.0155 37.7594C35.0309 37.4796 35.0357 37.3926 35.3579 37.4105C35.4249 37.4059 35.492 37.4014 35.5592 37.3968C37.7788 37.2465 40.0931 37.0897 42.2628 37.6178C43.2722 37.9188 44.2816 38.2199 45.0518 38.928C46.7005 40.3151 46.5484 43.2135 44.6619 44.4048C43.5847 45.1506 42.3933 45.4699 41.0649 45.7115C39.4878 46.0377 37.8294 46.0604 36.2404 46.0822C35.9454 46.0862 35.6527 46.0902 35.3634 46.0962ZM42.4362 32.199C42.0315 32.4218 41.5185 32.6735 41.3019 32.7316C40.0448 33.0684 38.9136 33.1911 37.7453 33.3178C37.3028 33.3658 36.8551 33.4143 36.3931 33.4753C36.1622 33.48 35.9584 33.4775 35.7545 33.475C35.5507 33.4724 35.3469 33.4699 35.116 33.4746C34.8708 33.426 34.7339 33.3484 34.785 33.1061C34.8348 30.6923 34.8049 28.4143 34.7463 26.0295C34.7689 25.6806 34.8487 25.5449 35.2022 25.5645C35.5474 25.5628 35.8873 25.558 36.2235 25.5532C37.5808 25.5341 38.8784 25.5157 40.2312 25.7029C41.3203 25.8683 42.4666 26.247 43.2654 27.0617C44.8343 28.5845 44.3798 31.221 42.4362 32.199Z" fill="white"/>
</svg>
