<svg width="73" height="73" viewBox="0 0 73 73" fill="none" xmlns="http://www.w3.org/2000/svg">
<path fill-rule="evenodd" clip-rule="evenodd" d="M72.3463 36.1738C72.3463 56.1519 56.1508 72.3474 36.1727 72.3474C16.1945 72.3474 -0.000976562 56.1519 -0.000976562 36.1738C-0.000976562 16.1956 16.1945 0.00012207 36.1727 0.00012207C56.1508 0.00012207 72.3463 16.1956 72.3463 36.1738ZM16.0889 46.8996V56.4851C16.4312 56.4851 16.6594 56.4851 17.0018 56.5992H39.4819C39.5763 56.5898 39.6715 56.5803 39.7674 56.5708C40.83 56.4654 41.9727 56.3521 43.0194 56.1427C49.6379 54.6593 53.5177 50.4371 55.3435 44.1609C56.7129 39.3682 56.7129 34.4614 55.5718 29.6687C54.8871 26.8159 53.6319 24.3054 51.8061 22.1372C49.752 19.6268 47.1274 17.9151 44.1605 16.774C42.6771 16.2034 41.0795 15.7469 39.4819 15.7469H16.0889V24.9901H21.6804V46.8996H16.0889ZM34.3469 46.925C33.9284 46.9123 33.51 46.8996 33.0916 46.8996V24.9901C33.5441 24.9901 34.0058 24.9717 34.4715 24.9533C35.6497 24.9065 36.8534 24.8588 37.9984 25.1042C39.0255 25.2183 39.9384 26.1312 40.623 26.93C41.7642 28.2993 42.6771 30.011 43.0194 31.8368C43.7041 34.9178 44.0464 37.9989 43.1335 41.0799C42.6771 42.4493 41.8783 43.7045 40.9654 44.8456C39.9384 46.215 38.4549 46.7855 36.8573 46.8996C36.0205 46.9757 35.1837 46.9504 34.3469 46.925Z" fill="white"/>
</svg>
