<svg width="92" height="92" viewBox="0 0 92 92" fill="none" xmlns="http://www.w3.org/2000/svg">
<path d="M44.2526 37.4428H47.1327V40.3411V40.6026L47.3919 40.6383C48.892 40.8444 50.0518 41.3279 50.8917 42.0704L50.8925 42.0711C51.9874 43.032 52.5949 44.2923 52.7127 45.8846L49.3359 46.0004C49.145 45.0811 48.7772 44.3713 48.203 43.9114C48.2029 43.9113 48.2028 43.9113 48.2027 43.9112L48.0152 44.1454C47.2997 43.57 44.475 43.0219 42.8898 44.1897L44.2526 37.4428ZM44.2526 37.4428V40.3265V40.589L43.9924 40.6238C42.2291 40.8598 40.5711 41.559 39.6102 43.0389C38.2507 45.1493 38.4874 47.9648 40.4751 49.3458C42.3897 50.6754 44.6197 51.2264 46.3274 51.6484C46.7619 51.7557 47.1625 51.8547 47.5155 51.956L47.5184 51.9569C49.2813 52.4822 50.0909 53.568 49.979 54.7136C49.8883 55.6431 49.1959 56.4886 48.1517 56.9537L48.563 57.1887H47.4333C44.9922 57.1887 43.5233 56.6668 42.6283 55.9022C41.8332 55.223 41.5309 54.3858 41.3764 53.672L38.1248 53.9947C38.3687 55.6712 38.9461 57.0058 39.8575 57.9903C40.8214 59.0315 42.1837 59.7082 43.9951 59.9645L44.2531 60.001V60.2616V63.1649H47.1333V60.3029V60.0332L47.4014 60.0046C49.0174 59.8318 50.4957 59.277 51.5645 58.344C52.626 57.4175 53.2996 56.1053 53.2996 54.3701C53.2996 52.2235 52.4389 50.5662 50.5393 49.559L44.2526 37.4428ZM69.2518 52.0367H68.9518V52.3367V76.0634C68.9518 79.2448 66.3538 81.8429 63.1714 81.8429H28.2159C25.0344 81.8429 22.4363 79.2448 22.4363 76.0634V52.3367V52.0367H22.1363H14.1761C10.1561 52.0367 6.87129 48.7519 6.87129 44.7319V17.4619C6.87129 13.4491 10.1627 10.1572 14.1761 10.1572H77.2121C81.232 10.1572 84.5169 13.442 84.5169 17.4619V44.7319C84.5169 48.7432 81.2234 52.0367 77.2121 52.0367H69.2518ZM65.9434 68.2594C65.3965 68.4789 64.7991 68.5991 64.1728 68.5991H27.2087C26.5163 68.5991 25.8559 68.4488 25.2611 68.1796L24.8374 67.9878V68.4529V69.9968C24.8374 71.6969 26.2241 73.0843 27.9248 73.0843H63.456C65.152 73.0843 66.5434 71.6929 66.5434 69.9968V68.4569H66.3118L66.2497 68.1569L66.2479 68.1569L65.9434 68.1524V68.2594ZM24.8379 63.524H24.8376V63.824C24.8376 65.1307 25.9031 66.1964 27.209 66.1964H64.1731C65.4748 66.1964 66.5455 65.1263 66.5455 63.824V34.4552V34.1552H66.2455H25.1379H24.8379V34.4552V63.524ZM66.2453 74.7693H66.1679L66.1001 74.8067C65.3155 75.2404 64.4143 75.4888 63.4578 75.4888H27.9266C26.9701 75.4888 26.0679 75.2404 25.2844 74.8068L24.8392 74.5604V75.0693V76.0636C24.8392 77.919 26.3585 79.4389 28.2144 79.4389H63.17C65.0263 79.4389 66.5463 77.9196 66.5463 76.0636V75.0693V74.7693H66.2463H66.2453ZM22.1326 39.584H16.8024V27.1131H74.5797V39.584H69.2495H68.9495V39.884V49.3313V49.6313H69.2495H77.2098C79.9097 49.6313 82.1113 47.4307 82.1113 44.7306V17.4607C82.1113 14.7688 79.9032 12.56 77.2098 12.56H14.1723C11.4734 12.56 9.27168 14.7617 9.27168 17.4607V44.7306C9.27168 47.4224 11.4798 49.6313 14.1723 49.6313H22.1326H22.4326V49.3313V39.884V39.584H22.1326ZM71.8845 29.5164L71.8845 29.5163H71.8756H19.5068H19.2068V29.8163V36.8801V37.1801H19.5068H22.1339H22.4339V36.8801V31.7501L68.9503 31.7491V36.8801V37.1801H69.2503H71.8764H72.1764V36.8801V29.8163V29.5251L71.8853 29.5165L71.8845 29.5164Z" fill="url(#paint0_linear_2659_21647)" stroke="#233239" stroke-width="0.6"/>
<defs>
<linearGradient id="paint0_linear_2659_21647" x1="16.0177" y1="16.8393" x2="71.4641" y2="81.3215" gradientUnits="userSpaceOnUse">
<stop stop-color="#52ADD7"/>
<stop offset="1" stop-color="#52ADD7"/>
</linearGradient>
</defs>
</svg>
