<svg width="92" height="92" viewBox="0 0 92 92" fill="none" xmlns="http://www.w3.org/2000/svg">
<mask id="path-1-inside-1_2659_21677" fill="white">
<path fill-rule="evenodd" clip-rule="evenodd" d="M46.3332 66.981C43.8715 66.9815 41.5104 66.0042 39.7694 64.2636C38.0283 62.5231 37.0499 60.162 37.0499 57.7004C37.0494 55.2387 38.0267 52.8777 39.7673 51.1366C41.5078 49.3961 43.8689 48.4177 46.3305 48.4172C48.7922 48.4172 51.1532 49.3945 52.8943 51.1351C54.6348 52.8761 55.6132 55.2367 55.6132 57.6983C55.611 60.1588 54.6326 62.5183 52.8927 64.2588C51.1532 65.9988 48.7938 66.9777 46.3333 66.981H46.3332ZM46.3332 46.0845C43.2526 46.0845 40.2984 47.3078 38.1205 49.4863C35.9424 51.6644 34.7186 54.6185 34.7186 57.699C34.7186 60.779 35.9425 63.7337 38.1205 65.9117C40.2986 68.0898 43.2526 69.3135 46.3332 69.3135C49.4137 69.3135 52.3679 68.0897 54.5458 65.9117C56.7239 63.7336 57.9477 60.779 57.9477 57.699C57.9444 54.6194 56.7195 51.667 54.542 49.4895C52.3644 47.3119 49.4126 46.0877 46.333 46.0843L46.3332 46.0845ZM55.5421 17.1667C55.5416 16.5246 56.0609 16.0026 56.7035 16.0004H74.2796C74.9238 16.0004 75.4458 16.5225 75.4458 17.1667C75.4458 17.8109 74.9238 18.3335 74.2796 18.3335H56.7035C56.0614 18.3303 55.5426 17.8088 55.5421 17.1667ZM31.5029 17.1667C31.5029 16.5225 32.025 16.0004 32.6692 16.0004C33.1412 16.0004 33.5663 16.2846 33.7472 16.7205C33.9275 17.1565 33.8279 17.6581 33.4942 17.9917C33.1606 18.3254 32.659 18.425 32.223 18.2447C31.7871 18.0639 31.5029 17.6387 31.5029 17.1667L31.5029 17.1667ZM27.9358 17.1667C27.9353 16.8572 28.058 16.5607 28.277 16.3416C28.4955 16.1231 28.7926 16.0004 29.102 16.0004C29.574 16.0004 29.9992 16.2846 30.1795 16.7205C30.3603 17.1565 30.2602 17.6581 29.9266 17.9917C29.5934 18.3254 29.0913 18.425 28.6559 18.2447C28.22 18.0638 27.9358 17.6387 27.9358 17.1667ZM24.3686 17.1667H24.3681C24.3681 16.5225 24.8901 16.0004 25.5343 16.0004C26.0063 16.0004 26.4315 16.2846 26.6123 16.7205C26.7926 17.1565 26.6931 17.6581 26.3594 17.9917C26.0257 18.3254 25.5241 18.425 25.0882 18.2447C24.6522 18.0639 24.3681 17.6387 24.3681 17.1667L24.3686 17.1667ZM20.8015 17.1667H20.8009C20.8004 16.8572 20.9231 16.5607 21.1422 16.3416C21.3612 16.1231 21.6577 16.0004 21.9672 16.0004C22.4392 16.0004 22.8644 16.2846 23.0446 16.7205C23.2255 17.1565 23.1254 17.6581 22.7922 17.9917C22.4586 18.3254 21.9564 18.425 21.521 18.2447C21.0851 18.0638 20.8009 17.6387 20.8009 17.1667H20.8015ZM17.2343 17.1667H17.2332C17.2332 16.5225 17.7558 16.0004 18.4 16.0004C18.8715 16.001 19.2961 16.2857 19.4764 16.7216C19.6562 17.1576 19.5561 17.6591 19.2224 17.9923C18.8887 18.3254 18.3871 18.425 17.9512 18.2447C17.5158 18.0639 17.2316 17.6387 17.2316 17.1667L17.2343 17.1667ZM77.3956 63.8176C78.4391 63.8166 79.4402 63.4016 80.1785 62.6632C80.9169 61.9254 81.3324 60.9243 81.3335 59.8803V24.3327H11.335V59.8803C11.3355 60.9244 11.7505 61.9254 12.4889 62.6632C13.2267 63.4016 14.2272 63.8166 15.2713 63.8176H28.6818C28.6081 63.6061 28.5381 63.3919 28.4719 63.1777L24.3488 63.1783C23.7348 63.1761 23.1465 62.9312 22.7128 62.4969C22.279 62.0626 22.0346 61.4744 22.0336 60.8603V54.5387C22.0352 53.9252 22.2801 53.3375 22.7138 52.9032C23.1476 52.4694 23.7353 52.225 24.3488 52.2229H28.4719C28.8196 51.0884 29.2754 49.99 29.8324 48.9426L26.9154 46.0273H26.916C26.4827 45.5924 26.24 45.0031 26.24 44.3895C26.24 43.7754 26.4827 43.1867 26.916 42.7512L31.3878 38.2811H31.3872C31.8216 37.8468 32.4103 37.603 33.0244 37.603C33.6385 37.603 34.2278 37.8468 34.6622 38.2811L37.5792 41.1981H37.5786C38.6254 40.64 39.7233 40.1847 40.8578 39.8375V35.7133C40.8578 35.0998 41.1022 34.511 41.5365 34.0767C41.9703 33.6424 42.5591 33.3986 43.1731 33.398H49.4964C50.1099 33.3991 50.6981 33.644 51.1313 34.0778C51.5651 34.5121 51.8089 35.0998 51.8095 35.7133V39.837C52.9429 40.1841 54.0407 40.6399 55.087 41.1975L58.0066 38.2853C58.4409 37.8515 59.0297 37.6077 59.6438 37.6077C60.2579 37.6077 60.8467 37.8515 61.281 38.2853L65.7528 42.7555C66.1855 43.1903 66.4288 43.7796 66.4288 44.3932C66.4288 45.0073 66.1855 45.5961 65.7528 46.0315L62.8358 48.9468C63.3928 49.9931 63.8482 51.0899 64.1964 52.2227H68.3189C68.9324 52.2249 69.5201 52.4692 69.9539 52.903C70.3876 53.3373 70.6325 53.925 70.6341 54.5385V60.8618C70.6325 61.4753 70.3882 62.0635 69.9544 62.4973C69.5206 62.9316 68.9324 63.176 68.3189 63.1781H64.1958C64.1296 63.3923 64.0591 63.606 63.9848 63.818L77.3956 63.8176ZM64.0872 71.0105L60.5604 67.48C60.1832 67.1022 60.11 66.5166 60.3828 66.0576C61.1891 64.7078 61.7939 63.2482 62.1793 61.7241C62.3112 61.2064 62.7772 60.8442 63.3117 60.8447H68.3018V54.5559H63.3117C62.7772 54.5559 62.3106 54.1937 62.1793 53.6755C61.7934 52.1518 61.1885 50.6923 60.3828 49.3426C60.11 48.8835 60.1832 48.2979 60.5604 47.9202L64.0872 44.3891L59.6408 39.9427L56.1108 43.4737V43.4732C55.7325 43.851 55.1469 43.9236 54.6879 43.6508C53.3397 42.8451 51.8812 42.2397 50.3587 41.8527C49.841 41.7213 49.4782 41.2553 49.4777 40.7214V35.733H43.1894V40.7231C43.1889 41.2569 42.8262 41.7225 42.3084 41.8527C40.7848 42.2402 39.3259 42.8457 37.9761 43.6508C37.5175 43.9237 36.932 43.851 36.5548 43.4732L33.0232 39.9449L28.5799 44.3893L32.1093 47.9203H32.1088C32.486 48.2982 32.5598 48.8837 32.2874 49.3427C31.4802 50.692 30.8736 52.1516 30.4878 53.6757C30.3565 54.1934 29.8904 54.5561 29.3565 54.5561H24.3653V60.8449H29.3565C29.8904 60.8444 30.3565 61.2066 30.4878 61.7243C30.8732 63.2484 31.4786 64.708 32.2848 66.0578C32.5572 66.5174 32.4834 67.1024 32.1067 67.4802L28.5799 71.0107L33.0259 75.4567L36.5575 71.9268C36.9343 71.5479 37.5209 71.4752 37.9783 71.7502C39.3275 72.5543 40.786 73.1587 42.3086 73.5445C42.8269 73.6758 43.1896 74.1424 43.1896 74.6768V79.667H49.4784L49.4778 74.6785C49.4773 74.1435 49.8406 73.6764 50.3588 73.5445C51.8825 73.1587 53.3414 72.5537 54.6912 71.7486C55.1492 71.4731 55.7364 71.5463 56.1131 71.9251L59.6441 75.4551L64.0906 71.0091L64.0872 71.0105ZM15.2705 12.3331C14.2269 12.3342 13.2259 12.7496 12.4881 13.4875C11.7502 14.2259 11.3353 15.2264 11.3342 16.2704V21.9946H81.3326V16.2704C81.3316 15.2264 80.9161 14.2253 80.1777 13.4875C79.4393 12.7491 78.4383 12.3342 77.3948 12.3331H15.2705ZM77.395 10H15.2705C13.6081 10.0022 12.0144 10.663 10.839 11.8385C9.66364 13.0144 9.0022 14.6081 9 16.2705V59.8793C9.00215 61.5417 9.66305 63.1359 10.8385 64.3118C12.0139 65.4872 13.6081 66.1487 15.2705 66.1509H29.6736C29.7241 66.2531 29.7774 66.3548 29.8312 66.4555L26.9143 69.3725V69.3719C26.4816 69.8073 26.2388 70.3961 26.2388 71.0097C26.2388 71.6237 26.4816 72.212 26.9143 72.6474L31.386 77.1181C31.8204 77.5519 32.4091 77.7951 33.0232 77.7951C33.6373 77.7951 34.2261 77.5519 34.6604 77.1181L37.5774 74.2022C38.6247 74.7587 39.7231 75.214 40.8577 75.5611V79.6826C40.8593 80.2966 41.1037 80.8849 41.5375 81.3186C41.9712 81.753 42.5595 81.9978 43.173 82H49.4966C50.1096 81.9968 50.6968 81.7519 51.13 81.3176C51.5632 80.8838 51.807 80.2961 51.8086 79.6826V75.5612C52.9421 75.214 54.0399 74.7587 55.0862 74.2022L58.0032 77.1181C58.438 77.5519 59.0268 77.7952 59.6409 77.7952C60.2544 77.7952 60.8432 77.5519 61.2781 77.1181L65.7499 72.6474H65.7494C66.1821 72.212 66.4253 71.6238 66.4253 71.0097C66.4253 70.3962 66.1821 69.8074 65.7494 69.3719L62.8324 66.455C62.8873 66.3543 62.9395 66.2526 62.9901 66.1503H77.3932V66.1509C79.0561 66.1493 80.6509 65.4884 81.8268 64.3124C83.0033 63.137 83.6647 61.5424 83.6668 59.8793V16.2705C83.6646 14.6081 83.0032 13.0139 81.8277 11.8385C80.6518 10.6631 79.0582 10.0017 77.3958 10L77.395 10Z"/>
</mask>
<path fill-rule="evenodd" clip-rule="evenodd" d="M46.3332 66.981C43.8715 66.9815 41.5104 66.0042 39.7694 64.2636C38.0283 62.5231 37.0499 60.162 37.0499 57.7004C37.0494 55.2387 38.0267 52.8777 39.7673 51.1366C41.5078 49.3961 43.8689 48.4177 46.3305 48.4172C48.7922 48.4172 51.1532 49.3945 52.8943 51.1351C54.6348 52.8761 55.6132 55.2367 55.6132 57.6983C55.611 60.1588 54.6326 62.5183 52.8927 64.2588C51.1532 65.9988 48.7938 66.9777 46.3333 66.981H46.3332ZM46.3332 46.0845C43.2526 46.0845 40.2984 47.3078 38.1205 49.4863C35.9424 51.6644 34.7186 54.6185 34.7186 57.699C34.7186 60.779 35.9425 63.7337 38.1205 65.9117C40.2986 68.0898 43.2526 69.3135 46.3332 69.3135C49.4137 69.3135 52.3679 68.0897 54.5458 65.9117C56.7239 63.7336 57.9477 60.779 57.9477 57.699C57.9444 54.6194 56.7195 51.667 54.542 49.4895C52.3644 47.3119 49.4126 46.0877 46.333 46.0843L46.3332 46.0845ZM55.5421 17.1667C55.5416 16.5246 56.0609 16.0026 56.7035 16.0004H74.2796C74.9238 16.0004 75.4458 16.5225 75.4458 17.1667C75.4458 17.8109 74.9238 18.3335 74.2796 18.3335H56.7035C56.0614 18.3303 55.5426 17.8088 55.5421 17.1667ZM31.5029 17.1667C31.5029 16.5225 32.025 16.0004 32.6692 16.0004C33.1412 16.0004 33.5663 16.2846 33.7472 16.7205C33.9275 17.1565 33.8279 17.6581 33.4942 17.9917C33.1606 18.3254 32.659 18.425 32.223 18.2447C31.7871 18.0639 31.5029 17.6387 31.5029 17.1667L31.5029 17.1667ZM27.9358 17.1667C27.9353 16.8572 28.058 16.5607 28.277 16.3416C28.4955 16.1231 28.7926 16.0004 29.102 16.0004C29.574 16.0004 29.9992 16.2846 30.1795 16.7205C30.3603 17.1565 30.2602 17.6581 29.9266 17.9917C29.5934 18.3254 29.0913 18.425 28.6559 18.2447C28.22 18.0638 27.9358 17.6387 27.9358 17.1667ZM24.3686 17.1667H24.3681C24.3681 16.5225 24.8901 16.0004 25.5343 16.0004C26.0063 16.0004 26.4315 16.2846 26.6123 16.7205C26.7926 17.1565 26.6931 17.6581 26.3594 17.9917C26.0257 18.3254 25.5241 18.425 25.0882 18.2447C24.6522 18.0639 24.3681 17.6387 24.3681 17.1667L24.3686 17.1667ZM20.8015 17.1667H20.8009C20.8004 16.8572 20.9231 16.5607 21.1422 16.3416C21.3612 16.1231 21.6577 16.0004 21.9672 16.0004C22.4392 16.0004 22.8644 16.2846 23.0446 16.7205C23.2255 17.1565 23.1254 17.6581 22.7922 17.9917C22.4586 18.3254 21.9564 18.425 21.521 18.2447C21.0851 18.0638 20.8009 17.6387 20.8009 17.1667H20.8015ZM17.2343 17.1667H17.2332C17.2332 16.5225 17.7558 16.0004 18.4 16.0004C18.8715 16.001 19.2961 16.2857 19.4764 16.7216C19.6562 17.1576 19.5561 17.6591 19.2224 17.9923C18.8887 18.3254 18.3871 18.425 17.9512 18.2447C17.5158 18.0639 17.2316 17.6387 17.2316 17.1667L17.2343 17.1667ZM77.3956 63.8176C78.4391 63.8166 79.4402 63.4016 80.1785 62.6632C80.9169 61.9254 81.3324 60.9243 81.3335 59.8803V24.3327H11.335V59.8803C11.3355 60.9244 11.7505 61.9254 12.4889 62.6632C13.2267 63.4016 14.2272 63.8166 15.2713 63.8176H28.6818C28.6081 63.6061 28.5381 63.3919 28.4719 63.1777L24.3488 63.1783C23.7348 63.1761 23.1465 62.9312 22.7128 62.4969C22.279 62.0626 22.0346 61.4744 22.0336 60.8603V54.5387C22.0352 53.9252 22.2801 53.3375 22.7138 52.9032C23.1476 52.4694 23.7353 52.225 24.3488 52.2229H28.4719C28.8196 51.0884 29.2754 49.99 29.8324 48.9426L26.9154 46.0273H26.916C26.4827 45.5924 26.24 45.0031 26.24 44.3895C26.24 43.7754 26.4827 43.1867 26.916 42.7512L31.3878 38.2811H31.3872C31.8216 37.8468 32.4103 37.603 33.0244 37.603C33.6385 37.603 34.2278 37.8468 34.6622 38.2811L37.5792 41.1981H37.5786C38.6254 40.64 39.7233 40.1847 40.8578 39.8375V35.7133C40.8578 35.0998 41.1022 34.511 41.5365 34.0767C41.9703 33.6424 42.5591 33.3986 43.1731 33.398H49.4964C50.1099 33.3991 50.6981 33.644 51.1313 34.0778C51.5651 34.5121 51.8089 35.0998 51.8095 35.7133V39.837C52.9429 40.1841 54.0407 40.6399 55.087 41.1975L58.0066 38.2853C58.4409 37.8515 59.0297 37.6077 59.6438 37.6077C60.2579 37.6077 60.8467 37.8515 61.281 38.2853L65.7528 42.7555C66.1855 43.1903 66.4288 43.7796 66.4288 44.3932C66.4288 45.0073 66.1855 45.5961 65.7528 46.0315L62.8358 48.9468C63.3928 49.9931 63.8482 51.0899 64.1964 52.2227H68.3189C68.9324 52.2249 69.5201 52.4692 69.9539 52.903C70.3876 53.3373 70.6325 53.925 70.6341 54.5385V60.8618C70.6325 61.4753 70.3882 62.0635 69.9544 62.4973C69.5206 62.9316 68.9324 63.176 68.3189 63.1781H64.1958C64.1296 63.3923 64.0591 63.606 63.9848 63.818L77.3956 63.8176ZM64.0872 71.0105L60.5604 67.48C60.1832 67.1022 60.11 66.5166 60.3828 66.0576C61.1891 64.7078 61.7939 63.2482 62.1793 61.7241C62.3112 61.2064 62.7772 60.8442 63.3117 60.8447H68.3018V54.5559H63.3117C62.7772 54.5559 62.3106 54.1937 62.1793 53.6755C61.7934 52.1518 61.1885 50.6923 60.3828 49.3426C60.11 48.8835 60.1832 48.2979 60.5604 47.9202L64.0872 44.3891L59.6408 39.9427L56.1108 43.4737V43.4732C55.7325 43.851 55.1469 43.9236 54.6879 43.6508C53.3397 42.8451 51.8812 42.2397 50.3587 41.8527C49.841 41.7213 49.4782 41.2553 49.4777 40.7214V35.733H43.1894V40.7231C43.1889 41.2569 42.8262 41.7225 42.3084 41.8527C40.7848 42.2402 39.3259 42.8457 37.9761 43.6508C37.5175 43.9237 36.932 43.851 36.5548 43.4732L33.0232 39.9449L28.5799 44.3893L32.1093 47.9203H32.1088C32.486 48.2982 32.5598 48.8837 32.2874 49.3427C31.4802 50.692 30.8736 52.1516 30.4878 53.6757C30.3565 54.1934 29.8904 54.5561 29.3565 54.5561H24.3653V60.8449H29.3565C29.8904 60.8444 30.3565 61.2066 30.4878 61.7243C30.8732 63.2484 31.4786 64.708 32.2848 66.0578C32.5572 66.5174 32.4834 67.1024 32.1067 67.4802L28.5799 71.0107L33.0259 75.4567L36.5575 71.9268C36.9343 71.5479 37.5209 71.4752 37.9783 71.7502C39.3275 72.5543 40.786 73.1587 42.3086 73.5445C42.8269 73.6758 43.1896 74.1424 43.1896 74.6768V79.667H49.4784L49.4778 74.6785C49.4773 74.1435 49.8406 73.6764 50.3588 73.5445C51.8825 73.1587 53.3414 72.5537 54.6912 71.7486C55.1492 71.4731 55.7364 71.5463 56.1131 71.9251L59.6441 75.4551L64.0906 71.0091L64.0872 71.0105ZM15.2705 12.3331C14.2269 12.3342 13.2259 12.7496 12.4881 13.4875C11.7502 14.2259 11.3353 15.2264 11.3342 16.2704V21.9946H81.3326V16.2704C81.3316 15.2264 80.9161 14.2253 80.1777 13.4875C79.4393 12.7491 78.4383 12.3342 77.3948 12.3331H15.2705ZM77.395 10H15.2705C13.6081 10.0022 12.0144 10.663 10.839 11.8385C9.66364 13.0144 9.0022 14.6081 9 16.2705V59.8793C9.00215 61.5417 9.66305 63.1359 10.8385 64.3118C12.0139 65.4872 13.6081 66.1487 15.2705 66.1509H29.6736C29.7241 66.2531 29.7774 66.3548 29.8312 66.4555L26.9143 69.3725V69.3719C26.4816 69.8073 26.2388 70.3961 26.2388 71.0097C26.2388 71.6237 26.4816 72.212 26.9143 72.6474L31.386 77.1181C31.8204 77.5519 32.4091 77.7951 33.0232 77.7951C33.6373 77.7951 34.2261 77.5519 34.6604 77.1181L37.5774 74.2022C38.6247 74.7587 39.7231 75.214 40.8577 75.5611V79.6826C40.8593 80.2966 41.1037 80.8849 41.5375 81.3186C41.9712 81.753 42.5595 81.9978 43.173 82H49.4966C50.1096 81.9968 50.6968 81.7519 51.13 81.3176C51.5632 80.8838 51.807 80.2961 51.8086 79.6826V75.5612C52.9421 75.214 54.0399 74.7587 55.0862 74.2022L58.0032 77.1181C58.438 77.5519 59.0268 77.7952 59.6409 77.7952C60.2544 77.7952 60.8432 77.5519 61.2781 77.1181L65.7499 72.6474H65.7494C66.1821 72.212 66.4253 71.6238 66.4253 71.0097C66.4253 70.3962 66.1821 69.8074 65.7494 69.3719L62.8324 66.455C62.8873 66.3543 62.9395 66.2526 62.9901 66.1503H77.3932V66.1509C79.0561 66.1493 80.6509 65.4884 81.8268 64.3124C83.0033 63.137 83.6647 61.5424 83.6668 59.8793V16.2705C83.6646 14.6081 83.0032 13.0139 81.8277 11.8385C80.6518 10.6631 79.0582 10.0017 77.3958 10L77.395 10Z" fill="url(#paint0_linear_2659_21677)" stroke="#233239" stroke-width="0.4" mask="url(#path-1-inside-1_2659_21677)"/>
<defs>
<linearGradient id="paint0_linear_2659_21677" x1="18" y1="15" x2="72" y2="77" gradientUnits="userSpaceOnUse">
<stop stop-color="#2BBCA5"/>
<stop offset="1" stop-color="#2BBCA5"/>
</linearGradient>
</defs>
</svg>
