<svg width="92" height="92" viewBox="0 0 92 92" fill="none" xmlns="http://www.w3.org/2000/svg">
<mask id="path-1-inside-1_2659_21628" fill="white">
<path fill-rule="evenodd" clip-rule="evenodd" d="M25.1888 13.1307L24.2151 15.3105L23.0488 15.0678C22.6721 14.9902 22.2889 14.9488 21.9042 14.9443L23.1259 12.2089C23.4305 11.5141 23.9297 10.9226 24.5635 10.5051C25.1968 10.0876 25.9375 9.86272 26.6964 9.85718C27.2344 9.85718 27.7658 9.97264 28.2555 10.196L52.3476 21.1535L42.3043 19.0675L27.3202 12.2528C27.1246 12.1631 26.9118 12.1162 26.6965 12.1162C26.0379 12.1283 25.448 12.5251 25.1888 13.1307ZM45.2869 38.6874V37.0215L46.5348 37.0214V38.6873H47.3753C48.3063 38.6873 48.8257 39.0155 49.2367 39.8553L49.9481 41.2962H48.6104L48.1725 40.415C47.9487 39.9645 47.8593 39.9069 47.3747 39.9045V39.9075H44.4478V39.9045C43.9625 39.9075 43.8737 39.9645 43.65 40.415L42.5984 42.5325C42.4412 42.8613 42.3446 43.0802 42.3446 43.4575C42.3446 43.7874 42.4464 43.9919 42.5846 44.2696L42.5984 44.2974L43.6254 46.4029C43.8533 46.8733 43.9781 46.932 44.4472 46.9374V46.935L44.4658 46.9344H47.3745V46.9368C47.8436 46.9314 47.9684 46.8726 48.1964 46.4023L48.6727 45.4257H50.02L49.2474 46.9986C48.8604 47.7898 48.3409 48.1545 47.4345 48.1545H46.5341V49.701H45.2869V48.1545H44.3865C43.48 48.1545 42.9606 47.7898 42.5736 46.9986L41.4615 44.7353C41.2557 44.3214 41.1351 43.9321 41.1351 43.4576C41.1351 42.9219 41.2317 42.5931 41.4735 42.1066L42.5856 39.8553C42.9965 39.0155 43.516 38.6874 44.447 38.6874H45.2869ZM19.1873 25.6699L20.2129 20.7874C20.3662 20.024 21.0303 19.4709 21.8083 19.4578C21.9162 19.4578 22.0236 19.4689 22.1295 19.491L51.878 25.6699H62.9863L22.5897 17.2789C22.333 17.2255 22.0713 17.1988 21.8091 17.1988C20.9131 17.2048 20.0458 17.5184 19.353 18.0872C18.6607 18.6555 18.1837 19.4452 18.0032 20.3224L16.8193 25.9587V25.9592C17.4168 25.7676 18.0405 25.6698 18.6682 25.6698L19.1873 25.6699ZM59.9638 51.6507H63.2681V51.6507C64.3309 48.8451 66.9842 48.0837 68.9996 48.0797V39.4079C66.9848 39.4044 64.3315 38.6429 63.2681 35.8369H59.9638C59.34 35.8369 58.8343 35.3317 58.8343 34.7074C58.8343 34.0837 59.34 33.5779 59.9638 33.5779H64.1055C64.6325 33.5779 65.0898 33.9425 65.2068 34.4568C65.9596 37.7646 69.7615 37.1021 69.9239 37.0728C70.2537 37.0118 70.5935 37.1006 70.8517 37.3154C71.1093 37.5297 71.2586 37.8478 71.2586 38.1832V49.3045C71.2586 49.6398 71.1093 49.958 70.8517 50.1728C70.5935 50.3871 70.2537 50.4758 69.9239 50.4153C69.5226 50.3452 65.9409 49.8093 65.2068 53.0313C65.0898 53.5451 64.6325 53.9097 64.1055 53.9097H59.9638C59.34 53.9097 58.8343 53.4039 58.8343 52.7802C58.8343 52.1565 59.34 51.6507 59.9638 51.6507ZM65.6548 71.3166L66.4747 70.9671H66.4742C66.8015 70.8386 67.0631 70.5839 67.1998 70.2597C67.3364 69.936 67.3364 69.5704 67.1998 69.2467L64.4835 63.2025C64.3842 62.9816 64.2258 62.7925 64.0256 62.6554L63.0933 58.1959C62.9834 57.6725 62.522 57.2979 61.9875 57.2974H40.721L39.3127 55.3929L40.8138 48.0765C40.9939 47.2132 40.8512 46.3137 40.4125 45.5487C39.9738 44.7838 39.2704 44.206 38.4344 43.9246C37.612 43.6543 36.719 43.6932 35.9228 44.033C35.1266 44.3724 34.4812 44.9906 34.1066 45.7711L29.5807 55.1691C29.4693 55.4005 29.44 55.6627 29.4975 55.9128L31.6345 65.2073C31.7076 65.525 31.9143 65.7953 32.2017 65.9496L42.5461 71.4976C42.4251 71.8072 42.4311 72.1526 42.5637 72.4576L45.28 78.5013C45.5095 79.0076 46.0167 79.3303 46.5729 79.3232C46.7676 79.3237 46.9597 79.2844 47.1392 79.2087L48.2369 78.7408L49.3155 81.4375C49.554 82.0098 50.2049 82.2887 50.7838 82.0668C51.3632 81.8348 51.645 81.1773 51.4131 80.5979L50.3159 77.8549L63.5753 72.203L67.9798 81.5015C68.2556 82.0562 68.9202 82.2932 69.4844 82.0385C70.0481 81.7713 70.2886 81.0981 70.0219 80.5339L65.6548 71.3166ZM31.7872 55.7917L36.1412 46.7508V46.7513C36.4215 46.1583 37.0982 45.8654 37.7219 46.0681C38.3658 46.2884 38.7435 46.956 38.6003 47.6216L36.9979 55.4317C36.9333 55.7458 37.0054 56.0731 37.1965 56.3307L39.2437 59.0984C39.4565 59.3863 39.7933 59.5562 40.1513 59.5562H61.0693L61.7606 62.8625L44.7474 70.1144L33.7208 64.2008L31.7872 55.7917ZM46.9971 76.8129L45.0352 72.4473L62.7661 64.8904L64.7275 69.256L46.9971 76.8129ZM53.6446 51.9269C51.5415 53.9277 48.7485 55.0425 45.8457 55.039L45.8455 55.0392C44.4774 55.0371 43.1211 54.785 41.8434 54.2959H41.8429L42.3027 52.0552C44.5778 53.0263 47.1519 53.0218 49.4235 52.0426C51.6955 51.0628 53.4659 49.1946 54.3216 46.8731C55.1772 44.5521 55.0431 41.9815 53.9504 39.7625C52.8584 37.5429 50.9034 35.8682 48.5421 35.1306C46.1808 34.3929 43.6203 34.6556 41.4586 35.8587C39.2965 37.0612 37.7229 39.0978 37.1047 41.4929C36.2595 41.5272 35.4316 41.745 34.6788 42.1302C35.0938 39.2572 36.5984 36.6539 38.8816 34.8608C41.1648 33.0678 44.0505 32.2227 46.9403 32.5005C49.8301 32.7783 52.502 34.1583 54.4015 36.3543C56.3004 38.5497 57.2817 41.392 57.1405 44.2919C56.9998 47.1916 55.7478 49.9256 53.6446 51.9269ZM73.0242 27.9302H18.6684C17.6292 27.9397 16.6364 28.3613 15.9082 29.1025C15.1806 29.8442 14.7767 30.8441 14.7858 31.8833V55.6037C14.7767 56.6429 15.1806 57.6434 15.9082 58.3846C16.6363 59.1258 17.6292 59.5478 18.6684 59.5574H28.0174L27.4981 57.2979H18.6685C17.7528 57.2773 17.0267 56.5194 17.0449 55.6037V31.8833C17.0267 30.9676 17.7528 30.2098 18.6685 30.1891H73.0243C73.9399 30.2098 74.6661 30.9676 74.6479 31.8833V55.6037C74.666 56.5194 73.9399 57.2773 73.0243 57.2979H65.1734C65.2268 57.4401 65.2707 57.5859 65.305 57.7341L65.6862 59.5574H73.0243C74.0636 59.5478 75.0564 59.1258 75.7845 58.3846C76.5121 57.6433 76.916 56.643 76.9069 55.6037V31.8833C76.916 30.8441 76.5121 29.8442 75.7845 29.1025C75.0564 28.3613 74.0636 27.9397 73.0243 27.9301L73.0242 27.9302ZM31.7275 35.8367H28.4232L28.4233 35.8367C27.3604 38.6428 24.7071 39.4037 22.6917 39.4082V48.0795C24.7071 48.083 27.3604 48.8445 28.4238 51.6505H28.7687L27.6805 53.9095H27.5858C27.0588 53.9095 26.6015 53.5449 26.4845 53.0311C25.7312 49.7233 21.9283 50.3853 21.7674 50.4151C21.4376 50.4756 21.0978 50.3868 20.8396 50.1725C20.582 49.9577 20.4327 49.6396 20.4327 49.3042V38.1829C20.4327 37.8476 20.582 37.5294 20.8396 37.3151C21.0978 37.1003 21.4376 37.0116 21.7674 37.0726C22.1703 37.1441 25.7504 37.6792 26.4845 34.4566C26.6015 33.9423 27.0588 33.5777 27.5858 33.5777H31.7275C32.3503 33.5792 32.8545 34.0845 32.8545 34.7072C32.8545 35.3304 32.3502 35.8357 31.7275 35.8367Z"/>
</mask>
<path fill-rule="evenodd" clip-rule="evenodd" d="M25.1888 13.1307L24.2151 15.3105L23.0488 15.0678C22.6721 14.9902 22.2889 14.9488 21.9042 14.9443L23.1259 12.2089C23.4305 11.5141 23.9297 10.9226 24.5635 10.5051C25.1968 10.0876 25.9375 9.86272 26.6964 9.85718C27.2344 9.85718 27.7658 9.97264 28.2555 10.196L52.3476 21.1535L42.3043 19.0675L27.3202 12.2528C27.1246 12.1631 26.9118 12.1162 26.6965 12.1162C26.0379 12.1283 25.448 12.5251 25.1888 13.1307ZM45.2869 38.6874V37.0215L46.5348 37.0214V38.6873H47.3753C48.3063 38.6873 48.8257 39.0155 49.2367 39.8553L49.9481 41.2962H48.6104L48.1725 40.415C47.9487 39.9645 47.8593 39.9069 47.3747 39.9045V39.9075H44.4478V39.9045C43.9625 39.9075 43.8737 39.9645 43.65 40.415L42.5984 42.5325C42.4412 42.8613 42.3446 43.0802 42.3446 43.4575C42.3446 43.7874 42.4464 43.9919 42.5846 44.2696L42.5984 44.2974L43.6254 46.4029C43.8533 46.8733 43.9781 46.932 44.4472 46.9374V46.935L44.4658 46.9344H47.3745V46.9368C47.8436 46.9314 47.9684 46.8726 48.1964 46.4023L48.6727 45.4257H50.02L49.2474 46.9986C48.8604 47.7898 48.3409 48.1545 47.4345 48.1545H46.5341V49.701H45.2869V48.1545H44.3865C43.48 48.1545 42.9606 47.7898 42.5736 46.9986L41.4615 44.7353C41.2557 44.3214 41.1351 43.9321 41.1351 43.4576C41.1351 42.9219 41.2317 42.5931 41.4735 42.1066L42.5856 39.8553C42.9965 39.0155 43.516 38.6874 44.447 38.6874H45.2869ZM19.1873 25.6699L20.2129 20.7874C20.3662 20.024 21.0303 19.4709 21.8083 19.4578C21.9162 19.4578 22.0236 19.4689 22.1295 19.491L51.878 25.6699H62.9863L22.5897 17.2789C22.333 17.2255 22.0713 17.1988 21.8091 17.1988C20.9131 17.2048 20.0458 17.5184 19.353 18.0872C18.6607 18.6555 18.1837 19.4452 18.0032 20.3224L16.8193 25.9587V25.9592C17.4168 25.7676 18.0405 25.6698 18.6682 25.6698L19.1873 25.6699ZM59.9638 51.6507H63.2681V51.6507C64.3309 48.8451 66.9842 48.0837 68.9996 48.0797V39.4079C66.9848 39.4044 64.3315 38.6429 63.2681 35.8369H59.9638C59.34 35.8369 58.8343 35.3317 58.8343 34.7074C58.8343 34.0837 59.34 33.5779 59.9638 33.5779H64.1055C64.6325 33.5779 65.0898 33.9425 65.2068 34.4568C65.9596 37.7646 69.7615 37.1021 69.9239 37.0728C70.2537 37.0118 70.5935 37.1006 70.8517 37.3154C71.1093 37.5297 71.2586 37.8478 71.2586 38.1832V49.3045C71.2586 49.6398 71.1093 49.958 70.8517 50.1728C70.5935 50.3871 70.2537 50.4758 69.9239 50.4153C69.5226 50.3452 65.9409 49.8093 65.2068 53.0313C65.0898 53.5451 64.6325 53.9097 64.1055 53.9097H59.9638C59.34 53.9097 58.8343 53.4039 58.8343 52.7802C58.8343 52.1565 59.34 51.6507 59.9638 51.6507ZM65.6548 71.3166L66.4747 70.9671H66.4742C66.8015 70.8386 67.0631 70.5839 67.1998 70.2597C67.3364 69.936 67.3364 69.5704 67.1998 69.2467L64.4835 63.2025C64.3842 62.9816 64.2258 62.7925 64.0256 62.6554L63.0933 58.1959C62.9834 57.6725 62.522 57.2979 61.9875 57.2974H40.721L39.3127 55.3929L40.8138 48.0765C40.9939 47.2132 40.8512 46.3137 40.4125 45.5487C39.9738 44.7838 39.2704 44.206 38.4344 43.9246C37.612 43.6543 36.719 43.6932 35.9228 44.033C35.1266 44.3724 34.4812 44.9906 34.1066 45.7711L29.5807 55.1691C29.4693 55.4005 29.44 55.6627 29.4975 55.9128L31.6345 65.2073C31.7076 65.525 31.9143 65.7953 32.2017 65.9496L42.5461 71.4976C42.4251 71.8072 42.4311 72.1526 42.5637 72.4576L45.28 78.5013C45.5095 79.0076 46.0167 79.3303 46.5729 79.3232C46.7676 79.3237 46.9597 79.2844 47.1392 79.2087L48.2369 78.7408L49.3155 81.4375C49.554 82.0098 50.2049 82.2887 50.7838 82.0668C51.3632 81.8348 51.645 81.1773 51.4131 80.5979L50.3159 77.8549L63.5753 72.203L67.9798 81.5015C68.2556 82.0562 68.9202 82.2932 69.4844 82.0385C70.0481 81.7713 70.2886 81.0981 70.0219 80.5339L65.6548 71.3166ZM31.7872 55.7917L36.1412 46.7508V46.7513C36.4215 46.1583 37.0982 45.8654 37.7219 46.0681C38.3658 46.2884 38.7435 46.956 38.6003 47.6216L36.9979 55.4317C36.9333 55.7458 37.0054 56.0731 37.1965 56.3307L39.2437 59.0984C39.4565 59.3863 39.7933 59.5562 40.1513 59.5562H61.0693L61.7606 62.8625L44.7474 70.1144L33.7208 64.2008L31.7872 55.7917ZM46.9971 76.8129L45.0352 72.4473L62.7661 64.8904L64.7275 69.256L46.9971 76.8129ZM53.6446 51.9269C51.5415 53.9277 48.7485 55.0425 45.8457 55.039L45.8455 55.0392C44.4774 55.0371 43.1211 54.785 41.8434 54.2959H41.8429L42.3027 52.0552C44.5778 53.0263 47.1519 53.0218 49.4235 52.0426C51.6955 51.0628 53.4659 49.1946 54.3216 46.8731C55.1772 44.5521 55.0431 41.9815 53.9504 39.7625C52.8584 37.5429 50.9034 35.8682 48.5421 35.1306C46.1808 34.3929 43.6203 34.6556 41.4586 35.8587C39.2965 37.0612 37.7229 39.0978 37.1047 41.4929C36.2595 41.5272 35.4316 41.745 34.6788 42.1302C35.0938 39.2572 36.5984 36.6539 38.8816 34.8608C41.1648 33.0678 44.0505 32.2227 46.9403 32.5005C49.8301 32.7783 52.502 34.1583 54.4015 36.3543C56.3004 38.5497 57.2817 41.392 57.1405 44.2919C56.9998 47.1916 55.7478 49.9256 53.6446 51.9269ZM73.0242 27.9302H18.6684C17.6292 27.9397 16.6364 28.3613 15.9082 29.1025C15.1806 29.8442 14.7767 30.8441 14.7858 31.8833V55.6037C14.7767 56.6429 15.1806 57.6434 15.9082 58.3846C16.6363 59.1258 17.6292 59.5478 18.6684 59.5574H28.0174L27.4981 57.2979H18.6685C17.7528 57.2773 17.0267 56.5194 17.0449 55.6037V31.8833C17.0267 30.9676 17.7528 30.2098 18.6685 30.1891H73.0243C73.9399 30.2098 74.6661 30.9676 74.6479 31.8833V55.6037C74.666 56.5194 73.9399 57.2773 73.0243 57.2979H65.1734C65.2268 57.4401 65.2707 57.5859 65.305 57.7341L65.6862 59.5574H73.0243C74.0636 59.5478 75.0564 59.1258 75.7845 58.3846C76.5121 57.6433 76.916 56.643 76.9069 55.6037V31.8833C76.916 30.8441 76.5121 29.8442 75.7845 29.1025C75.0564 28.3613 74.0636 27.9397 73.0243 27.9301L73.0242 27.9302ZM31.7275 35.8367H28.4232L28.4233 35.8367C27.3604 38.6428 24.7071 39.4037 22.6917 39.4082V48.0795C24.7071 48.083 27.3604 48.8445 28.4238 51.6505H28.7687L27.6805 53.9095H27.5858C27.0588 53.9095 26.6015 53.5449 26.4845 53.0311C25.7312 49.7233 21.9283 50.3853 21.7674 50.4151C21.4376 50.4756 21.0978 50.3868 20.8396 50.1725C20.582 49.9577 20.4327 49.6396 20.4327 49.3042V38.1829C20.4327 37.8476 20.582 37.5294 20.8396 37.3151C21.0978 37.1003 21.4376 37.0116 21.7674 37.0726C22.1703 37.1441 25.7504 37.6792 26.4845 34.4566C26.6015 33.9423 27.0588 33.5777 27.5858 33.5777H31.7275C32.3503 33.5792 32.8545 34.0845 32.8545 34.7072C32.8545 35.3304 32.3502 35.8357 31.7275 35.8367Z" fill="url(#paint0_linear_2659_21628)"/>
<path d="M24.2151 15.3105L24.1744 15.5063L24.3321 15.5392L24.3978 15.3921L24.2151 15.3105ZM25.1888 13.1307L25.3715 13.2123L25.3727 13.2094L25.1888 13.1307ZM23.0488 15.0678L23.0895 14.872L23.0892 14.8719L23.0488 15.0678ZM21.9042 14.9443L21.7216 14.8627L21.5974 15.1407L21.9018 15.1443L21.9042 14.9443ZM23.1259 12.2089L23.3086 12.2904L23.3091 12.2892L23.1259 12.2089ZM24.5635 10.5051L24.6736 10.6721L24.6736 10.6721L24.5635 10.5051ZM26.6964 9.85718V9.65717L26.6949 9.65718L26.6964 9.85718ZM28.2555 10.196L28.1724 10.378L28.1727 10.3781L28.2555 10.196ZM52.3476 21.1535L52.3069 21.3494L52.4304 20.9715L52.3476 21.1535ZM42.3043 19.0675L42.2215 19.2496L42.2418 19.2588L42.2636 19.2634L42.3043 19.0675ZM27.3202 12.2528L27.2369 12.4346L27.2374 12.4349L27.3202 12.2528ZM26.6965 12.1162V11.9162L26.6928 11.9162L26.6965 12.1162ZM45.2869 37.0215L45.2869 36.8215L45.0869 36.8215V37.0215H45.2869ZM45.2869 38.6874V38.8874H45.4869V38.6874H45.2869ZM46.5348 37.0214H46.7348V36.8214L46.5348 36.8214L46.5348 37.0214ZM46.5348 38.6873H46.3348V38.8873H46.5348V38.6873ZM49.2367 39.8553L49.057 39.9432L49.0573 39.9439L49.2367 39.8553ZM49.9481 41.2962V41.4962H50.2699L50.1274 41.2077L49.9481 41.2962ZM48.6104 41.2962L48.4313 41.3852L48.4865 41.4962H48.6104V41.2962ZM48.1725 40.415L47.9934 40.504L47.9934 40.504L48.1725 40.415ZM47.3747 39.9045L47.3756 39.7045L47.1747 39.7035V39.9045H47.3747ZM47.3747 39.9075V40.1075H47.5747V39.9075H47.3747ZM44.4478 39.9075H44.2478V40.1075H44.4478V39.9075ZM44.4478 39.9045H44.6478V39.7033L44.4466 39.7045L44.4478 39.9045ZM43.65 40.415L43.4708 40.326L43.4708 40.326L43.65 40.415ZM42.5984 42.5325L42.4192 42.4436L42.4179 42.4463L42.5984 42.5325ZM42.5846 44.2696L42.7636 44.1806L42.7636 44.1805L42.5846 44.2696ZM42.5984 44.2974L42.7781 44.2097L42.7774 44.2083L42.5984 44.2974ZM43.6254 46.4029L43.8053 46.3157L43.8051 46.3153L43.6254 46.4029ZM44.4472 46.9374L44.4449 47.1374L44.6472 47.1398V46.9374H44.4472ZM44.4472 46.935L44.4408 46.7351L44.2472 46.7414V46.935H44.4472ZM44.4658 46.9344V46.7343L44.4594 46.7345L44.4658 46.9344ZM47.3745 46.9344H47.5745V46.7344H47.3745V46.9344ZM47.3745 46.9368H47.1745V47.1392L47.3768 47.1368L47.3745 46.9368ZM48.1964 46.4023L48.0166 46.3147L48.0164 46.3151L48.1964 46.4023ZM48.6727 45.4257V45.2257H48.5477L48.4929 45.3381L48.6727 45.4257ZM50.02 45.4257L50.1995 45.5139L50.3411 45.2257H50.02V45.4257ZM49.2474 46.9986L49.0678 46.9104L49.0677 46.9107L49.2474 46.9986ZM46.5341 48.1545V47.9545H46.3341V48.1545H46.5341ZM46.5341 49.701V49.901H46.7341V49.701H46.5341ZM45.2869 49.701H45.0869V49.901H45.2869V49.701ZM45.2869 48.1545H45.4869V47.9545H45.2869V48.1545ZM42.5736 46.9986L42.7533 46.9107L42.7531 46.9104L42.5736 46.9986ZM41.4615 44.7353L41.641 44.6471L41.6406 44.6463L41.4615 44.7353ZM41.4735 42.1066L41.6526 42.1956L41.6528 42.1952L41.4735 42.1066ZM42.5856 39.8553L42.7649 39.9439L42.7653 39.9432L42.5856 39.8553ZM20.2129 20.7874L20.4087 20.8286L20.409 20.8268L20.2129 20.7874ZM19.1873 25.6699L19.1873 25.8699L19.3497 25.8699L19.383 25.711L19.1873 25.6699ZM21.8083 19.4578V19.2577L21.8049 19.2578L21.8083 19.4578ZM22.1295 19.491L22.0885 19.6868L22.0888 19.6869L22.1295 19.491ZM51.878 25.6699L51.8374 25.8657L51.8575 25.8699H51.878V25.6699ZM62.9863 25.6699V25.8699L63.027 25.4741L62.9863 25.6699ZM22.5897 17.2789L22.5489 17.4747L22.549 17.4748L22.5897 17.2789ZM21.8091 17.1988V16.9988L21.8077 16.9988L21.8091 17.1988ZM19.353 18.0872L19.4799 18.2418L19.4799 18.2418L19.353 18.0872ZM18.0032 20.3224L18.1989 20.3635L18.1991 20.3627L18.0032 20.3224ZM16.8193 25.9587L16.6235 25.9176L16.6193 25.9379V25.9587H16.8193ZM16.8193 25.9592H16.6193V26.2334L16.8803 26.1497L16.8193 25.9592ZM18.6682 25.6698L18.6683 25.4698H18.6682V25.6698ZM63.2681 51.6507V51.8507H63.4681V51.6507H63.2681ZM63.2681 51.6507L63.081 51.5798L63.0681 51.6141V51.6507H63.2681ZM68.9996 48.0797L69 48.2797L69.1996 48.2793V48.0797H68.9996ZM68.9996 39.4079H69.1996V39.2082L69 39.2079L68.9996 39.4079ZM63.2681 35.8369L63.4551 35.766L63.4061 35.6369H63.2681V35.8369ZM65.2068 34.4568L65.0118 34.5012L65.0118 34.5012L65.2068 34.4568ZM69.9239 37.0728L69.9593 37.2697L69.9603 37.2695L69.9239 37.0728ZM70.8517 37.3154L70.7237 37.4691L70.7238 37.4691L70.8517 37.3154ZM70.8517 50.1728L70.9794 50.3267L70.9797 50.3264L70.8517 50.1728ZM69.9239 50.4153L69.96 50.2186L69.9583 50.2183L69.9239 50.4153ZM65.2068 53.0313L65.0118 52.9869L65.0118 52.9869L65.2068 53.0313ZM66.4747 70.9671L66.5531 71.1511L66.4747 70.7671V70.9671ZM65.6548 71.3166L65.5764 71.1326L65.385 71.2142L65.4741 71.4022L65.6548 71.3166ZM66.4742 70.9671L66.4011 70.781L66.4742 71.1671V70.9671ZM67.1998 70.2597L67.0155 70.1819L67.0155 70.182L67.1998 70.2597ZM67.1998 69.2467L67.3841 69.1689L67.3822 69.1647L67.1998 69.2467ZM64.4835 63.2025L64.6659 63.1205L64.6659 63.1204L64.4835 63.2025ZM64.0256 62.6554L63.8299 62.6963L63.8463 62.775L63.9126 62.8204L64.0256 62.6554ZM63.0933 58.1959L63.2891 58.155L63.289 58.1548L63.0933 58.1959ZM61.9875 57.2974L61.9877 57.0974H61.9875V57.2974ZM40.721 57.2974L40.5602 57.4163L40.6202 57.4974H40.721V57.2974ZM39.3127 55.3929L39.1168 55.3527L39.0989 55.4401L39.1519 55.5118L39.3127 55.3929ZM40.8138 48.0765L40.6181 48.0356L40.6179 48.0363L40.8138 48.0765ZM40.4125 45.5487L40.239 45.6482H40.239L40.4125 45.5487ZM38.4344 43.9246L38.4982 43.7351L38.4968 43.7346L38.4344 43.9246ZM35.9228 44.033L36.0012 44.217L36.0013 44.217L35.9228 44.033ZM34.1066 45.7711L34.2868 45.8579L34.2869 45.8577L34.1066 45.7711ZM29.5807 55.1691L29.4005 55.0823L29.4005 55.0823L29.5807 55.1691ZM29.4975 55.9128L29.3026 55.9576L29.3026 55.9576L29.4975 55.9128ZM31.6345 65.2073L31.4396 65.2521L31.4396 65.2522L31.6345 65.2073ZM32.2017 65.9496L32.1071 66.1258L32.1072 66.1258L32.2017 65.9496ZM42.5461 71.4976L42.7324 71.5704L42.7969 71.4052L42.6406 71.3213L42.5461 71.4976ZM42.5637 72.4576L42.3803 72.5374L42.3813 72.5396L42.5637 72.4576ZM45.28 78.5013L45.0976 78.5833L45.0979 78.5839L45.28 78.5013ZM46.5729 79.3232L46.5735 79.1232L46.5704 79.1232L46.5729 79.3232ZM47.1392 79.2087L47.2169 79.3931L47.2176 79.3927L47.1392 79.2087ZM48.2369 78.7408L48.4226 78.6665L48.3466 78.4766L48.1585 78.5568L48.2369 78.7408ZM49.3155 81.4375L49.1297 81.5118L49.1309 81.5144L49.3155 81.4375ZM50.7838 82.0668L50.8554 82.2536L50.8581 82.2525L50.7838 82.0668ZM51.4131 80.5979L51.2274 80.6722L51.2274 80.6723L51.4131 80.5979ZM50.3159 77.8549L50.2374 77.6709L50.0575 77.7476L50.1302 77.9292L50.3159 77.8549ZM63.5753 72.203L63.7561 72.1174L63.6738 71.9436L63.4969 72.019L63.5753 72.203ZM67.9798 81.5015L67.799 81.5872L67.8007 81.5906L67.9798 81.5015ZM69.4844 82.0385L69.5667 82.2209L69.57 82.2193L69.4844 82.0385ZM70.0219 80.5339L70.2027 80.4485L70.2026 80.4483L70.0219 80.5339ZM36.1412 46.7508H36.3412L35.961 46.664L36.1412 46.7508ZM31.7872 55.7917L31.607 55.7049L31.5766 55.7681L31.5923 55.8365L31.7872 55.7917ZM36.1412 46.7513H35.9412L36.322 46.8368L36.1412 46.7513ZM37.7219 46.0681L37.7867 45.8788L37.7838 45.8779L37.7219 46.0681ZM38.6003 47.6216L38.4048 47.5795L38.4044 47.5814L38.6003 47.6216ZM36.9979 55.4317L37.1938 55.4719L37.1938 55.4719L36.9979 55.4317ZM37.1965 56.3307L37.3573 56.2118L37.3572 56.2116L37.1965 56.3307ZM39.2437 59.0984L39.4045 58.9795L39.4045 58.9795L39.2437 59.0984ZM61.0693 59.5562L61.265 59.5153L61.2318 59.3562H61.0693V59.5562ZM61.7606 62.8625L61.839 63.0464L61.9899 62.9821L61.9563 62.8215L61.7606 62.8625ZM44.7474 70.1144L44.6528 70.2906L44.7375 70.336L44.8258 70.2983L44.7474 70.1144ZM33.7208 64.2008L33.5259 64.2456L33.5462 64.3341L33.6263 64.377L33.7208 64.2008ZM45.0352 72.4473L44.9567 72.2634L44.7691 72.3433L44.8527 72.5293L45.0352 72.4473ZM46.9971 76.8129L46.8147 76.8949L46.8951 77.0738L47.0755 76.9969L46.9971 76.8129ZM62.7661 64.8904L62.9485 64.8084L62.8681 64.6295L62.6876 64.7064L62.7661 64.8904ZM64.7275 69.256L64.8059 69.44L64.9935 69.36L64.9099 69.174L64.7275 69.256ZM45.8457 55.039L45.8459 54.839L45.7716 54.8389L45.7153 54.8873L45.8457 55.039ZM53.6446 51.9269L53.7825 52.0718L53.7825 52.0718L53.6446 51.9269ZM45.8455 55.0392L45.8452 55.2392L45.9195 55.2393L45.9759 55.1908L45.8455 55.0392ZM41.8434 54.2959L41.9149 54.1091L41.8803 54.0959H41.8434V54.2959ZM41.8429 54.2959L41.6469 54.2557L41.5976 54.4959H41.8429V54.2959ZM42.3027 52.0552L42.3812 51.8712L42.156 51.7751L42.1068 52.015L42.3027 52.0552ZM49.4235 52.0426L49.5027 52.2262L49.5027 52.2262L49.4235 52.0426ZM54.3216 46.8731L54.1339 46.804L54.1339 46.804L54.3216 46.8731ZM53.9504 39.7625L53.771 39.8508L53.771 39.8508L53.9504 39.7625ZM48.5421 35.1306L48.4825 35.3215L48.5421 35.1306ZM41.4586 35.8587L41.5559 36.0334L41.5559 36.0334L41.4586 35.8587ZM37.1047 41.4929L37.1128 41.6927L37.2612 41.6867L37.2983 41.5429L37.1047 41.4929ZM34.6788 42.1302L34.4808 42.1017L34.4255 42.4845L34.7699 42.3083L34.6788 42.1302ZM38.8816 34.8608L38.7581 34.7035L38.7581 34.7035L38.8816 34.8608ZM46.9403 32.5005L46.9212 32.6996L46.9403 32.5005ZM54.4015 36.3543L54.5527 36.2234V36.2234L54.4015 36.3543ZM57.1405 44.2919L56.9407 44.2822V44.2822L57.1405 44.2919ZM18.6684 27.9302V27.7302L18.6666 27.7302L18.6684 27.9302ZM73.0242 27.9302V28.1302H73.0313L73.0384 28.1297L73.0242 27.9302ZM15.9082 29.1025L15.7655 28.9623L15.7654 28.9624L15.9082 29.1025ZM14.7858 31.8833H14.9858L14.9858 31.8816L14.7858 31.8833ZM14.7858 55.6037L14.9858 55.6055V55.6037H14.7858ZM15.9082 58.3846L15.7655 58.5247L15.7655 58.5247L15.9082 58.3846ZM18.6684 59.5574L18.6666 59.7574H18.6684V59.5574ZM28.0174 59.5574V59.7574H28.2686L28.2123 59.5126L28.0174 59.5574ZM27.4981 57.2979L27.693 57.2531L27.6573 57.0979H27.4981V57.2979ZM18.6685 57.2979L18.664 57.4979H18.6685V57.2979ZM17.0449 55.6037L17.2449 55.6077V55.6037H17.0449ZM17.0449 31.8833H17.2449L17.2448 31.8794L17.0449 31.8833ZM18.6685 30.1891V29.9891L18.664 29.9892L18.6685 30.1891ZM73.0243 30.1891L73.0288 29.9891H73.0243V30.1891ZM74.6479 31.8833L74.4479 31.8794V31.8833H74.6479ZM74.6479 55.6037H74.4478L74.4479 55.6077L74.6479 55.6037ZM73.0243 57.2979V57.498L73.0288 57.4979L73.0243 57.2979ZM65.1734 57.2979V57.0979H64.8846L64.9862 57.3683L65.1734 57.2979ZM65.305 57.7341L65.5008 57.6932L65.4999 57.689L65.305 57.7341ZM65.6862 59.5574L65.4904 59.5983L65.5237 59.7574H65.6862V59.5574ZM73.0243 59.5574V59.7574L73.0262 59.7574L73.0243 59.5574ZM75.7845 58.3846L75.9272 58.5247L75.9272 58.5247L75.7845 58.3846ZM76.9069 55.6037H76.7069L76.7069 55.6055L76.9069 55.6037ZM76.9069 31.8833L76.7069 31.8816V31.8833H76.9069ZM75.7845 29.1025L75.9273 28.9624L75.9272 28.9623L75.7845 29.1025ZM73.0243 27.9301L73.0262 27.7302L73.0181 27.7301L73.0101 27.7307L73.0243 27.9301ZM28.4232 35.8367V35.6367H28.1149L28.2406 35.9182L28.4232 35.8367ZM31.7275 35.8367V36.0367H31.7278L31.7275 35.8367ZM28.4233 35.8367L28.6103 35.9076L28.6395 35.8305L28.6059 35.7552L28.4233 35.8367ZM22.6917 39.4082L22.6913 39.2082L22.4917 39.2087V39.4082H22.6917ZM22.6917 48.0795H22.4917V48.2792L22.6914 48.2795L22.6917 48.0795ZM28.4238 51.6505L28.2368 51.7214L28.2857 51.8505H28.4238V51.6505ZM28.7687 51.6505L28.9489 51.7373L29.087 51.4505H28.7687V51.6505ZM27.6805 53.9095V54.1095H27.8062L27.8607 53.9963L27.6805 53.9095ZM26.4845 53.0311L26.6795 52.9867L26.6795 52.9867L26.4845 53.0311ZM21.7674 50.4151L21.8035 50.6118L21.8038 50.6117L21.7674 50.4151ZM20.8396 50.1725L20.7116 50.3262L20.7119 50.3264L20.8396 50.1725ZM20.8396 37.3151L20.9675 37.4689L20.9675 37.4689L20.8396 37.3151ZM21.7674 37.0726L21.731 37.2693L21.7325 37.2695L21.7674 37.0726ZM26.4845 34.4566L26.6795 34.501L26.6795 34.501L26.4845 34.4566ZM31.7275 33.5777L31.728 33.3777H31.7275V33.5777ZM24.3978 15.3921L25.3714 13.2123L25.0062 13.0491L24.0325 15.229L24.3978 15.3921ZM23.0081 15.2636L24.1744 15.5063L24.2559 15.1147L23.0895 14.872L23.0081 15.2636ZM21.9018 15.1443C22.2738 15.1487 22.6443 15.1886 23.0084 15.2637L23.0892 14.8719C22.7 14.7917 22.304 14.749 21.9065 14.7443L21.9018 15.1443ZM22.9433 12.1273L21.7216 14.8627L22.0868 15.0259L23.3086 12.2904L22.9433 12.1273ZM24.4535 10.3381C23.7875 10.7768 23.2629 11.3984 22.9428 12.1286L23.3091 12.2892C23.5982 11.6298 24.0719 11.0684 24.6736 10.6721L24.4535 10.3381ZM26.6949 9.65718C25.8975 9.66301 25.119 9.89934 24.4535 10.3381L24.6736 10.6721C25.2746 10.2759 25.9776 10.0624 26.6978 10.0572L26.6949 9.65718ZM28.3385 10.0141C27.8228 9.77879 27.263 9.65718 26.6964 9.65718V10.0572C27.2057 10.0572 27.7089 10.1665 28.1724 10.378L28.3385 10.0141ZM52.4304 20.9715L28.3383 10.014L28.1727 10.3781L52.2648 21.3356L52.4304 20.9715ZM42.2636 19.2634L52.3069 21.3494L52.3883 20.9577L42.3449 18.8717L42.2636 19.2634ZM27.2374 12.4349L42.2215 19.2496L42.3871 18.8855L27.403 12.0708L27.2374 12.4349ZM26.6965 12.3162C26.8828 12.3162 27.0671 12.3568 27.2369 12.4346L27.4036 12.0711C27.1821 11.9694 26.9409 11.9162 26.6965 11.9162V12.3162ZM25.3727 13.2094C25.6009 12.6762 26.1203 12.3268 26.7002 12.3162L26.6928 11.9162C25.9556 11.9298 25.2951 12.374 25.005 13.052L25.3727 13.2094ZM45.0869 37.0215V38.6874H45.4869V37.0215H45.0869ZM46.5348 36.8214L45.2869 36.8215L45.2869 37.2215L46.5348 37.2214L46.5348 36.8214ZM46.7348 38.6873V37.0214H46.3348V38.6873H46.7348ZM47.3753 38.4873H46.5348V38.8873H47.3753V38.4873ZM49.4163 39.7674C49.2011 39.3275 48.9472 39.0006 48.6074 38.787C48.2674 38.5734 47.8637 38.4873 47.3753 38.4873V38.8873C47.8178 38.8873 48.1394 38.9654 48.3946 39.1257C48.65 39.2862 48.8613 39.5433 49.057 39.9432L49.4163 39.7674ZM50.1274 41.2077L49.416 39.7668L49.0573 39.9439L49.7688 41.3848L50.1274 41.2077ZM48.6104 41.4962H49.9481V41.0962H48.6104V41.4962ZM47.9934 40.504L48.4313 41.3852L48.7895 41.2072L48.3516 40.326L47.9934 40.504ZM47.3737 40.1045C47.6218 40.1057 47.708 40.1245 47.7636 40.1601C47.8211 40.197 47.8783 40.2723 47.9934 40.504L48.3516 40.326C48.2429 40.1071 48.1435 39.9284 47.9793 39.8233C47.8131 39.7169 47.6122 39.7057 47.3756 39.7045L47.3737 40.1045ZM47.5747 39.9075V39.9045H47.1747V39.9075H47.5747ZM44.4478 40.1075H47.3747V39.7075H44.4478V40.1075ZM44.2478 39.9045V39.9075H44.6478V39.9045H44.2478ZM43.8291 40.504C43.9442 40.2723 44.0012 40.1971 44.0586 40.1604C44.1142 40.1248 44.2004 40.106 44.449 40.1045L44.4466 39.7045C44.2099 39.706 44.009 39.7172 43.843 39.8235C43.6788 39.9286 43.5795 40.1072 43.4708 40.326L43.8291 40.504ZM42.7775 42.6215L43.8291 40.5039L43.4708 40.326L42.4192 42.4436L42.7775 42.6215ZM42.5446 43.4575C42.5446 43.127 42.6244 42.9419 42.7788 42.6188L42.4179 42.4463C42.2581 42.7807 42.1446 43.0334 42.1446 43.4575H42.5446ZM42.7636 44.1805C42.6256 43.903 42.5446 43.736 42.5446 43.4575H42.1446C42.1446 43.8388 42.2672 44.0807 42.4055 44.3587L42.7636 44.1805ZM42.7774 44.2083L42.7636 44.1806L42.4055 44.3587L42.4193 44.3864L42.7774 44.2083ZM43.8051 46.3153L42.7781 44.2097L42.4186 44.385L43.4456 46.4906L43.8051 46.3153ZM44.4495 46.7375C44.2117 46.7347 44.1172 46.7159 44.0521 46.6751C43.9867 46.6341 43.9192 46.5505 43.8053 46.3157L43.4454 46.4902C43.5595 46.7257 43.6683 46.9066 43.8396 47.014C44.0112 47.1215 44.2136 47.1348 44.4449 47.1374L44.4495 46.7375ZM44.2472 46.935V46.9374H44.6472V46.935H44.2472ZM44.4594 46.7345L44.4408 46.7351L44.4536 47.1349L44.4722 47.1343L44.4594 46.7345ZM47.3745 46.7344H44.4658V47.1344H47.3745V46.7344ZM47.5745 46.9368V46.9344H47.1745V46.9368H47.5745ZM48.0164 46.3151C47.9026 46.5499 47.835 46.6335 47.7697 46.6745C47.7045 46.7153 47.6101 46.7341 47.3722 46.7369L47.3768 47.1368C47.6081 47.1342 47.8106 47.1209 47.9821 47.0134C48.1534 46.906 48.2622 46.7251 48.3763 46.4896L48.0164 46.3151ZM48.4929 45.3381L48.0166 46.3147L48.3761 46.49L48.8524 45.5134L48.4929 45.3381ZM50.02 45.2257H48.6727V45.6257H50.02V45.2257ZM49.4269 47.0868L50.1995 45.5139L49.8405 45.3376L49.0678 46.9104L49.4269 47.0868ZM47.4345 48.3545C47.915 48.3545 48.3125 48.2576 48.6449 48.0408C48.9764 47.8247 49.2236 47.5023 49.427 47.0865L49.0677 46.9107C48.8841 47.2861 48.6781 47.5417 48.4265 47.7057C48.1759 47.8691 47.8604 47.9545 47.4345 47.9545V48.3545ZM46.5341 48.3545H47.4345V47.9545H46.5341V48.3545ZM46.7341 49.701V48.1545H46.3341V49.701H46.7341ZM45.2869 49.901H46.5341V49.501H45.2869V49.901ZM45.0869 48.1545V49.701H45.4869V48.1545H45.0869ZM44.3865 48.3545H45.2869V47.9545H44.3865V48.3545ZM42.394 47.0864C42.5973 47.5023 42.8446 47.8247 43.176 48.0408C43.5085 48.2576 43.906 48.3545 44.3865 48.3545V47.9545C43.9606 47.9545 43.6451 47.8691 43.3945 47.7057C43.1428 47.5417 42.9369 47.2861 42.7533 46.9107L42.394 47.0864ZM41.282 44.8235L42.3941 47.0868L42.7531 46.9104L41.641 44.6471L41.282 44.8235ZM40.9351 43.4576C40.9351 43.9709 41.0669 44.3909 41.2824 44.8243L41.6406 44.6463C41.4445 44.2519 41.3351 43.8932 41.3351 43.4576H40.9351ZM41.2943 42.0176C41.0418 42.5259 40.9351 42.8851 40.9351 43.4576H41.3351C41.3351 42.9587 41.4216 42.6604 41.6526 42.1956L41.2943 42.0176ZM42.4063 39.7668L41.2941 42.0181L41.6528 42.1952L42.7649 39.9439L42.4063 39.7668ZM44.447 38.4874C43.9586 38.4874 43.5549 38.5734 43.2149 38.7871C42.8751 39.0006 42.6212 39.3276 42.406 39.7674L42.7653 39.9432C42.961 39.5433 43.1723 39.2863 43.4277 39.1258C43.6829 38.9654 44.0045 38.8874 44.447 38.8874V38.4874ZM45.2869 38.4874H44.447V38.8874H45.2869V38.4874ZM20.0172 20.7463L18.9916 25.6288L19.383 25.711L20.4087 20.8286L20.0172 20.7463ZM21.8049 19.2578C20.9329 19.2725 20.1886 19.8925 20.0168 20.7481L20.409 20.8268C20.5438 20.1556 21.1276 19.6693 21.8117 19.6577L21.8049 19.2578ZM22.1705 19.2953C22.0511 19.2703 21.9299 19.2578 21.8083 19.2578V19.6578C21.9024 19.6578 21.9961 19.6674 22.0885 19.6868L22.1705 19.2953ZM51.9187 25.4741L22.1701 19.2952L22.0888 19.6869L51.8374 25.8657L51.9187 25.4741ZM62.9863 25.4699H51.878V25.8699H62.9863V25.4699ZM22.549 17.4748L62.9457 25.8657L63.027 25.4741L22.6303 17.0831L22.549 17.4748ZM21.8091 17.3988C22.0577 17.3988 22.3057 17.4241 22.5489 17.4747L22.6304 17.0831C22.3602 17.0269 22.0849 16.9988 21.8091 16.9988V17.3988ZM19.4799 18.2418C20.1373 17.7021 20.9602 17.4045 21.8104 17.3988L21.8077 16.9988C20.8659 17.0051 19.9543 17.3348 19.2261 17.9326L19.4799 18.2418ZM18.1991 20.3627C18.3704 19.5304 18.823 18.781 19.4799 18.2418L19.2261 17.9326C18.4984 18.5299 17.9971 19.36 17.8073 20.2821L18.1991 20.3627ZM17.015 25.9998L18.1989 20.3635L17.8075 20.2813L16.6235 25.9176L17.015 25.9998ZM17.0193 25.9592V25.9587H16.6193V25.9592H17.0193ZM18.6682 25.4698C18.0197 25.4698 17.3754 25.5709 16.7582 25.7688L16.8803 26.1497C17.4582 25.9644 18.0613 25.8698 18.6682 25.8698V25.4698ZM19.1874 25.4699L18.6683 25.4698L18.6682 25.8698L19.1873 25.8699L19.1874 25.4699ZM63.2681 51.4507H59.9638V51.8507H63.2681V51.4507ZM63.0681 51.6507V51.6507H63.4681V51.6507H63.0681ZM68.9992 47.8797C66.9462 47.8838 64.1866 48.6615 63.081 51.5798L63.4551 51.7215C64.4752 49.0287 67.0223 48.2837 69 48.2797L68.9992 47.8797ZM68.7996 39.4079V48.0797H69.1996V39.4079H68.7996ZM63.081 35.9078C64.1872 38.8265 66.9467 39.6043 68.9993 39.6079L69 39.2079C67.0228 39.2045 64.4758 38.4593 63.4551 35.766L63.081 35.9078ZM59.9638 36.0369H63.2681V35.6369H59.9638V36.0369ZM58.6343 34.7074C58.6343 35.4422 59.2296 36.0369 59.9638 36.0369V35.6369C59.4504 35.6369 59.0343 35.2211 59.0343 34.7074H58.6343ZM59.9638 33.3779C59.2296 33.3779 58.6343 33.9732 58.6343 34.7074H59.0343C59.0343 34.1942 59.4505 33.7779 59.9638 33.7779V33.3779ZM64.1055 33.3779H59.9638V33.7779H64.1055V33.3779ZM65.4018 34.4125C65.2641 33.8071 64.7258 33.3779 64.1055 33.3779V33.7779C64.5392 33.7779 64.9155 34.078 65.0118 34.5012L65.4018 34.4125ZM69.8884 36.876C69.8151 36.8892 68.8563 37.0563 67.8315 36.8213C66.8179 36.5889 65.7564 35.9705 65.4018 34.4124L65.0118 34.5012C65.41 36.2509 66.6258 36.9552 67.7421 37.2112C68.847 37.4645 69.8703 37.2857 69.9593 37.2697L69.8884 36.876ZM70.9796 37.1616C70.6758 36.9088 70.2757 36.8043 69.8875 36.8762L69.9603 37.2695C70.2316 37.2193 70.5112 37.2923 70.7237 37.4691L70.9796 37.1616ZM71.4586 38.1832C71.4586 37.7884 71.2829 37.4139 70.9796 37.1616L70.7238 37.4691C70.9358 37.6454 71.0586 37.9073 71.0586 38.1832H71.4586ZM71.4586 49.3045V38.1832H71.0586V49.3045H71.4586ZM70.9797 50.3264C71.2829 50.0737 71.4586 49.6993 71.4586 49.3045H71.0586C71.0586 49.5803 70.9358 49.8423 70.7236 50.0191L70.9797 50.3264ZM69.8878 50.612C70.2758 50.6832 70.6757 50.5788 70.9794 50.3267L70.7239 50.0189C70.5114 50.1953 70.2315 50.2684 69.96 50.2186L69.8878 50.612ZM65.4018 53.0757C65.748 51.5561 66.7547 50.9294 67.7388 50.6828C68.7352 50.433 69.6978 50.5789 69.8895 50.6123L69.9583 50.2183C69.7486 50.1817 68.7197 50.0245 67.6415 50.2948C66.5509 50.5681 65.3997 51.2844 65.0118 52.9869L65.4018 53.0757ZM64.1055 54.1097C64.7257 54.1097 65.2641 53.6806 65.4018 53.0757L65.0118 52.9869C64.9155 53.4096 64.5392 53.7097 64.1055 53.7097V54.1097ZM59.9638 54.1097H64.1055V53.7097H59.9638V54.1097ZM58.6343 52.7802C58.6343 53.5144 59.2296 54.1097 59.9638 54.1097V53.7097C59.4505 53.7097 59.0343 53.2935 59.0343 52.7802H58.6343ZM59.9638 51.4507C59.2296 51.4507 58.6343 52.046 58.6343 52.7802H59.0343C59.0343 52.2669 59.4505 51.8507 59.9638 51.8507V51.4507ZM66.3963 70.7831L65.5764 71.1326L65.7332 71.5006L66.5531 71.1511L66.3963 70.7831ZM66.4742 71.1671H66.4747V70.7671H66.4742V71.1671ZM67.0155 70.182C66.8999 70.4564 66.6783 70.672 66.4011 70.781L66.5473 71.1533C66.9246 71.0051 67.2264 70.7114 67.3841 70.3374L67.0155 70.182ZM67.0155 69.3245C67.1312 69.5985 67.1312 69.9079 67.0155 70.1819L67.3841 70.3375C67.5417 69.964 67.5417 69.5424 67.3841 69.1689L67.0155 69.3245ZM64.3011 63.2845L67.0174 69.3287L67.3822 69.1647L64.6659 63.1205L64.3011 63.2845ZM63.9126 62.8204C64.0826 62.9369 64.2169 63.0973 64.3011 63.2845L64.6659 63.1204C64.5514 62.866 64.3691 62.6482 64.1387 62.4904L63.9126 62.8204ZM62.8975 58.2369L63.8299 62.6963L64.2214 62.6145L63.2891 58.155L62.8975 58.2369ZM61.9874 57.4974C62.4273 57.4978 62.8071 57.8062 62.8976 58.237L63.289 58.1548C63.1597 57.5389 62.6167 57.098 61.9877 57.0974L61.9874 57.4974ZM40.721 57.4974H61.9875V57.0974H40.721V57.4974ZM39.1519 55.5118L40.5602 57.4163L40.8818 57.1785L39.4735 55.274L39.1519 55.5118ZM40.6179 48.0363L39.1168 55.3527L39.5087 55.4331L41.0098 48.1167L40.6179 48.0363ZM40.239 45.6482C40.6533 46.3707 40.7881 47.2203 40.6181 48.0356L41.0096 48.1173C41.1996 47.2061 41.049 46.2567 40.586 45.4492L40.239 45.6482ZM38.3706 44.1142C39.1602 44.38 39.8246 44.9257 40.239 45.6482L40.586 45.4492C40.123 44.6419 39.3806 44.0321 38.4982 43.7351L38.3706 44.1142ZM36.0013 44.217C36.7529 43.8962 37.5958 43.8595 38.372 44.1146L38.4968 43.7346C37.6282 43.4491 36.6851 43.4902 35.8443 43.8491L36.0013 44.217ZM34.2869 45.8577C34.6406 45.1208 35.2498 44.5373 36.0012 44.217L35.8444 43.849C35.0034 44.2075 34.3219 44.8604 33.9263 45.6846L34.2869 45.8577ZM29.7609 55.2558L34.2868 45.8579L33.9264 45.6844L29.4005 55.0823L29.7609 55.2558ZM29.6924 55.868C29.6451 55.6621 29.6692 55.4463 29.7609 55.2558L29.4005 55.0823C29.2693 55.3547 29.2349 55.6633 29.3026 55.9576L29.6924 55.868ZM31.8294 65.1625L29.6924 55.868L29.3026 55.9576L31.4396 65.2521L31.8294 65.1625ZM32.2963 65.7733C32.0596 65.6463 31.8895 65.4238 31.8294 65.1625L31.4396 65.2522C31.5256 65.6262 31.769 65.9443 32.1071 66.1258L32.2963 65.7733ZM42.6406 71.3213L32.2963 65.7733L32.1072 66.1258L42.4516 71.6738L42.6406 71.3213ZM42.7472 72.3779C42.6357 72.1214 42.6305 71.8309 42.7324 71.5704L42.3598 71.4247C42.2196 71.7834 42.2266 72.1837 42.3803 72.5373L42.7472 72.3779ZM45.4625 78.4193L42.7462 72.3756L42.3813 72.5396L45.0976 78.5833L45.4625 78.4193ZM46.5704 79.1232C46.0936 79.1293 45.6588 78.8527 45.4622 78.4188L45.0979 78.5839C45.3601 79.1625 45.9398 79.5313 46.5755 79.5232L46.5704 79.1232ZM47.0615 79.0244C46.9063 79.0899 46.7407 79.1236 46.5735 79.1232L46.5724 79.5232C46.7944 79.5238 47.0131 79.4789 47.2169 79.3931L47.0615 79.0244ZM48.1585 78.5568L47.0608 79.0248L47.2176 79.3927L48.3153 78.9248L48.1585 78.5568ZM49.5012 81.3632L48.4226 78.6665L48.0512 78.8151L49.1298 81.5118L49.5012 81.3632ZM50.7122 81.88C50.2343 82.0632 49.6969 81.8329 49.5001 81.3606L49.1309 81.5144C49.411 82.1867 50.1755 82.5141 50.8554 82.2535L50.7122 81.88ZM51.2274 80.6723C51.4183 81.149 51.1864 81.6902 50.7094 81.8811L50.8581 82.2525C51.5399 81.9795 51.8718 81.2056 51.5987 80.5236L51.2274 80.6723ZM50.1302 77.9292L51.2274 80.6722L51.5988 80.5237L50.5016 77.7806L50.1302 77.9292ZM63.4969 72.019L50.2374 77.6709L50.3943 78.0389L63.6537 72.387L63.4969 72.019ZM68.1605 81.4159L63.7561 72.1174L63.3946 72.2886L67.799 81.5871L68.1605 81.4159ZM69.4021 81.8562C68.9359 82.0666 68.3868 81.8709 68.1589 81.4125L67.8007 81.5906C68.1244 82.2415 68.9044 82.5197 69.5666 82.2208L69.4021 81.8562ZM69.8411 80.6194C70.0606 81.0839 69.8627 81.6379 69.3987 81.8578L69.57 82.2193C70.2336 81.9047 70.5166 81.1124 70.2027 80.4485L69.8411 80.6194ZM65.4741 71.4022L69.8411 80.6196L70.2026 80.4483L65.8356 71.2309L65.4741 71.4022ZM35.961 46.664L31.607 55.7049L31.9674 55.8785L36.3214 46.8376L35.961 46.664ZM36.3412 46.7513V46.7508H35.9412V46.7513H36.3412ZM37.7838 45.8779C37.0641 45.644 36.2836 45.9821 35.9604 46.6658L36.322 46.8368C36.5594 46.3346 37.1323 46.0868 37.6601 46.2583L37.7838 45.8779ZM38.7958 47.6637C38.9604 46.899 38.5265 46.132 37.7867 45.8789L37.6572 46.2573C38.2052 46.4448 38.5267 47.0131 38.4048 47.5795L38.7958 47.6637ZM37.1938 55.4719L38.7962 47.6618L38.4044 47.5814L36.8019 55.3915L37.1938 55.4719ZM37.3572 56.2116C37.2 55.9997 37.1407 55.7305 37.1938 55.4719L36.802 55.3914C36.726 55.7612 36.8108 56.1464 37.0359 56.4499L37.3572 56.2116ZM39.4045 58.9795L37.3573 56.2118L37.0357 56.4496L39.0829 59.2173L39.4045 58.9795ZM40.1513 59.3562C39.8567 59.3562 39.5796 59.2164 39.4045 58.9795L39.0828 59.2173C39.3333 59.5562 39.7298 59.7562 40.1513 59.7562V59.3562ZM61.0693 59.3562H40.1513V59.7562H61.0693V59.3562ZM61.9563 62.8215L61.265 59.5153L60.8735 59.5972L61.5648 62.9034L61.9563 62.8215ZM44.8258 70.2983L61.839 63.0464L61.6821 62.6785L44.6689 69.9304L44.8258 70.2983ZM33.6263 64.377L44.6528 70.2906L44.8419 69.9381L33.8153 64.0245L33.6263 64.377ZM31.5923 55.8365L33.5259 64.2456L33.9157 64.156L31.9821 55.7469L31.5923 55.8365ZM44.8527 72.5293L46.8147 76.8949L47.1795 76.731L45.2176 72.3654L44.8527 72.5293ZM62.6876 64.7064L44.9567 72.2634L45.1136 72.6313L62.8445 65.0744L62.6876 64.7064ZM64.9099 69.174L62.9485 64.8084L62.5836 64.9724L64.5451 69.338L64.9099 69.174ZM47.0755 76.9969L64.8059 69.44L64.6491 69.072L46.9187 76.629L47.0755 76.9969ZM45.8454 55.239C48.7997 55.2426 51.6421 54.108 53.7825 52.0718L53.5068 51.782C51.4409 53.7473 48.6973 54.8424 45.8459 54.839L45.8454 55.239ZM45.9759 55.1908L45.9761 55.1906L45.7153 54.8873L45.7151 54.8875L45.9759 55.1908ZM41.7719 54.4827C43.0723 54.9805 44.4528 55.2371 45.8452 55.2392L45.8458 54.8392C44.5021 54.8372 43.1699 54.5896 41.9149 54.1091L41.7719 54.4827ZM41.8429 54.4959H41.8434V54.0959H41.8429V54.4959ZM42.1068 52.015L41.6469 54.2557L42.0388 54.3361L42.4986 52.0954L42.1068 52.015ZM49.3443 51.8589C47.123 52.8164 44.606 52.8209 42.3812 51.8712L42.2242 52.2391C44.5497 53.2318 47.1807 53.2271 49.5027 52.2262L49.3443 51.8589ZM54.1339 46.804C53.2972 49.074 51.566 50.9008 49.3443 51.8589L49.5027 52.2262C51.825 51.2248 53.6346 49.3152 54.5092 46.9423L54.1339 46.804ZM53.771 39.8508C54.8395 42.0207 54.9706 44.5343 54.1339 46.804L54.5092 46.9423C55.3838 44.5699 55.2467 41.9424 54.1299 39.6741L53.771 39.8508ZM48.4825 35.3215C50.7915 36.0427 52.7031 37.6803 53.771 39.8508L54.1299 39.6742C53.0137 37.4054 51.0154 35.6936 48.6017 34.9397L48.4825 35.3215ZM41.5559 36.0334C43.6696 34.857 46.1734 34.6001 48.4825 35.3215L48.6017 34.9397C46.1882 34.1857 43.5709 34.4541 41.3614 35.6839L41.5559 36.0334ZM37.2983 41.5429C37.9028 39.2008 39.4416 37.2094 41.5559 36.0334L41.3614 35.6839C39.1514 36.9131 37.5429 38.9947 36.911 41.4429L37.2983 41.5429ZM34.7699 42.3083C35.497 41.9362 36.2966 41.7258 37.1128 41.6927L37.0965 41.2931C36.2225 41.3285 35.3662 41.5538 34.5877 41.9522L34.7699 42.3083ZM38.7581 34.7035C36.4344 36.5284 34.9032 39.1778 34.4808 42.1017L34.8767 42.1588C35.2844 39.3367 36.7624 36.7794 39.0051 35.0181L38.7581 34.7035ZM46.9594 32.3014C44.0185 32.0187 41.0817 32.8787 38.7581 34.7035L39.0051 35.0181C41.2479 33.2568 44.0825 32.4267 46.9212 32.6996L46.9594 32.3014ZM54.5527 36.2234C52.6196 33.9886 49.9004 32.5841 46.9594 32.3014L46.9212 32.6996C49.7598 32.9724 52.3844 34.328 54.2502 36.4851L54.5527 36.2234ZM57.3402 44.3016C57.4839 41.3504 56.4853 38.4578 54.5527 36.2234L54.2502 36.4851C56.1156 38.6417 57.0794 41.4337 56.9407 44.2822L57.3402 44.3016ZM53.7825 52.0718C55.9229 50.0351 57.1971 47.2527 57.3402 44.3016L56.9407 44.2822C56.8025 47.1306 55.5727 49.8161 53.5068 51.782L53.7825 52.0718ZM18.6684 28.1302H73.0242V27.7302H18.6684V28.1302ZM16.0509 29.2427C16.7419 28.5393 17.684 28.1392 18.6703 28.1301L18.6666 27.7302C17.5744 27.7402 16.5309 28.1833 15.7655 28.9623L16.0509 29.2427ZM14.9858 31.8816C14.9772 30.8954 15.3605 29.9465 16.051 29.2425L15.7654 28.9624C15.0008 29.742 14.5763 30.7928 14.5858 31.8851L14.9858 31.8816ZM14.9858 55.6037V31.8833H14.5858V55.6037H14.9858ZM16.0509 58.2445C15.3605 57.5411 14.9772 56.5917 14.9858 55.6055L14.5858 55.602C14.5763 56.6942 15.0007 57.7456 15.7655 58.5247L16.0509 58.2445ZM18.6702 59.3574C17.684 59.3483 16.7419 58.9478 16.0509 58.2444L15.7655 58.5247C16.5308 59.3038 17.5743 59.7473 18.6666 59.7574L18.6702 59.3574ZM28.0174 59.3574H18.6684V59.7574H28.0174V59.3574ZM27.3031 57.3427L27.8225 59.6022L28.2123 59.5126L27.693 57.2531L27.3031 57.3427ZM18.6685 57.4979H27.4981V57.0979H18.6685V57.4979ZM16.8449 55.5997C16.8245 56.6256 17.638 57.4747 18.664 57.4979L18.673 57.098C17.8676 57.0798 17.2288 56.4132 17.2448 55.6077L16.8449 55.5997ZM16.8449 31.8833V55.6037H17.2449V31.8833H16.8449ZM18.664 29.9892C17.638 30.0123 16.8246 30.8614 16.8449 31.8873L17.2448 31.8794C17.2289 31.0738 17.8676 30.4072 18.673 30.3891L18.664 29.9892ZM73.0243 29.9891H18.6685V30.3891H73.0243V29.9891ZM74.8478 31.8873C74.8682 30.8614 74.0547 30.0123 73.0288 29.9892L73.0197 30.3891C73.8252 30.4072 74.4639 31.0739 74.4479 31.8794L74.8478 31.8873ZM74.8479 55.6037V31.8833H74.4479V55.6037H74.8479ZM73.0288 57.4979C74.0547 57.4747 74.8682 56.6256 74.8478 55.5997L74.4479 55.6077C74.4639 56.4132 73.8251 57.0798 73.0197 57.098L73.0288 57.4979ZM65.1734 57.4979H73.0243V57.0979H65.1734V57.4979ZM65.4999 57.689C65.4636 57.5323 65.4172 57.3782 65.3606 57.2276L64.9862 57.3683C65.0365 57.5021 65.0778 57.6394 65.1101 57.7792L65.4999 57.689ZM65.882 59.5165L65.5008 57.6932L65.1092 57.775L65.4904 59.5983L65.882 59.5165ZM73.0243 59.3574H65.6862V59.7574H73.0243V59.3574ZM75.6418 58.2444C74.9508 58.9478 74.0087 59.3483 73.0225 59.3574L73.0262 59.7574C74.1184 59.7473 75.1619 59.3037 75.9272 58.5247L75.6418 58.2444ZM76.7069 55.6055C76.7156 56.5917 76.3323 57.5411 75.6418 58.2445L75.9272 58.5247C76.692 57.7456 77.1165 56.6942 77.1069 55.602L76.7069 55.6055ZM76.7069 31.8833V55.6037H77.1069V31.8833H76.7069ZM75.6417 29.2425C76.3323 29.9465 76.7156 30.8954 76.7069 31.8816L77.1069 31.8851C77.1165 30.7928 76.692 29.7419 75.9273 28.9624L75.6417 29.2425ZM73.0225 28.1301C74.0088 28.1392 74.9509 28.5393 75.6418 29.2426L75.9272 28.9623C75.1619 28.1832 74.1184 27.7402 73.0262 27.7302L73.0225 28.1301ZM73.0384 28.1297L73.0386 28.1296L73.0101 27.7307L73.0099 27.7307L73.0384 28.1297ZM28.4232 36.0367H31.7275V35.6367H28.4232V36.0367ZM28.6059 35.7552L28.6059 35.7552L28.2406 35.9182L28.2406 35.9183L28.6059 35.7552ZM22.6922 39.6082C24.7451 39.6036 27.5047 38.8264 28.6103 35.9076L28.2362 35.7659C27.2161 38.4592 24.6691 39.2038 22.6913 39.2082L22.6922 39.6082ZM22.8917 48.0795V39.4082H22.4917V48.0795H22.8917ZM28.6108 51.5796C27.5047 48.6609 24.7451 47.8831 22.692 47.8795L22.6914 48.2795C24.669 48.283 27.2161 49.0281 28.2368 51.7214L28.6108 51.5796ZM28.7687 51.4505H28.4238V51.8505H28.7687V51.4505ZM27.8607 53.9963L28.9489 51.7373L28.5885 51.5637L27.5004 53.8227L27.8607 53.9963ZM27.5858 54.1095H27.6805V53.7095H27.5858V54.1095ZM26.2895 53.0755C26.4272 53.6804 26.9656 54.1095 27.5858 54.1095V53.7095C27.1521 53.7095 26.7758 53.4094 26.6795 52.9867L26.2895 53.0755ZM21.8038 50.6117C21.8752 50.5985 22.834 50.4314 23.8591 50.6664C24.8728 50.8989 25.9347 51.5174 26.2895 53.0755L26.6795 52.9867C26.281 51.2369 25.0648 50.5326 23.9485 50.2766C22.8435 50.0231 21.8205 50.2019 21.731 50.2184L21.8038 50.6117ZM20.7119 50.3264C21.0156 50.5786 21.4155 50.683 21.8035 50.6118L21.7313 50.2184C21.4598 50.2682 21.1799 50.1951 20.9674 50.0187L20.7119 50.3264ZM20.2327 49.3042C20.2327 49.699 20.4084 50.0734 20.7116 50.3262L20.9677 50.0189C20.7555 49.842 20.6327 49.5801 20.6327 49.3042H20.2327ZM20.2327 38.1829V49.3042H20.6327V38.1829H20.2327ZM20.7117 37.1614C20.4084 37.4137 20.2327 37.7882 20.2327 38.1829H20.6327C20.6327 37.907 20.7555 37.6452 20.9675 37.4689L20.7117 37.1614ZM21.8038 36.8759C21.4156 36.8041 21.0155 36.9086 20.7117 37.1614L20.9675 37.4689C21.1801 37.2921 21.4597 37.2191 21.731 37.2693L21.8038 36.8759ZM26.2895 34.4122C25.9432 35.9321 24.9369 36.5592 23.9531 36.8059C22.9568 37.0558 21.9942 36.9097 21.8024 36.8757L21.7325 37.2695C21.9435 37.307 22.9724 37.4643 24.0504 37.1939C25.1409 36.9204 26.2916 36.2037 26.6795 34.501L26.2895 34.4122ZM27.5858 33.3777C26.9655 33.3777 26.4272 33.8068 26.2895 34.4122L26.6795 34.501C26.7758 34.0777 27.1521 33.7777 27.5858 33.7777V33.3777ZM31.7275 33.3777H27.5858V33.7777H31.7275V33.3777ZM33.0545 34.7072C33.0545 33.9742 32.461 33.3795 31.728 33.3777L31.727 33.7777C32.2396 33.779 32.6545 34.1948 32.6545 34.7072H33.0545ZM31.7278 36.0367C32.461 36.0355 33.0545 35.4407 33.0545 34.7072H32.6545C32.6545 35.2202 32.2395 35.6359 31.7272 35.6367L31.7278 36.0367Z" fill="#26363E" mask="url(#path-1-inside-1_2659_21628)"/>
<defs>
<linearGradient id="paint0_linear_2659_21628" x1="24.2321" y1="28.75" x2="66.9464" y2="82.1429" gradientUnits="userSpaceOnUse">
<stop stop-color="#2BBCA5"/>
<stop offset="1" stop-color="#2BBCA5"/>
</linearGradient>
</defs>
</svg>
