<svg width="92" height="92" viewBox="0 0 92 92" fill="none" xmlns="http://www.w3.org/2000/svg">
<mask id="path-1-inside-1_2659_21654" fill="white">
<path fill-rule="evenodd" clip-rule="evenodd" d="M67.5653 74.5416V55.387L79.7964 55.3874C82.2243 55.3874 84.2013 53.4104 84.2013 50.9825V33.2891C84.2013 30.8612 82.2243 28.8842 79.7964 28.8842H67.5653V17.4574C67.5653 13.2794 64.1446 9.85718 59.964 9.85718H31.4226C27.2449 9.85718 23.8213 13.2799 23.8213 17.4574V74.5416C23.8213 78.7248 27.239 82.1429 31.4226 82.1429H59.964C64.1472 82.1429 67.5653 78.7252 67.5653 74.5416ZM26.3395 67.899H65.0469V56.2731L55.7968 60.8595C54.9301 61.2861 53.9342 60.6129 53.9876 59.6685L53.9861 55.3866H52.1472C49.7193 55.3866 47.7423 53.4095 47.7423 50.9816V33.2883C47.7423 30.8604 49.7193 28.8833 52.1472 28.8833H65.0475V23.2667H26.3395V67.899ZM26.3389 70.4177H65.0466V74.5417C65.0466 77.3337 62.7554 79.6249 59.9635 79.6249H31.4221C28.6301 79.6249 26.3389 77.3337 26.3389 74.5417V70.4177ZM65.0469 20.748H26.3392V17.4564C26.3392 14.6631 28.6288 12.3748 31.4223 12.3748H59.9638C62.7602 12.3748 65.0469 14.6615 65.0469 17.4564V20.748ZM52.1464 31.4018H79.7959L79.7964 31.4019C80.8326 31.4019 81.6832 32.2525 81.6832 33.2887V50.9821C81.6832 52.0182 80.8326 52.8689 79.7964 52.8689H66.5487C66.3137 52.8689 66.0949 52.9329 65.9063 53.0459L56.4938 57.7125L56.4923 54.1278C56.4923 53.4365 55.9301 52.8748 55.2388 52.8688H52.1464C51.1102 52.8688 50.2596 52.0182 50.2596 50.982V33.2886C50.2596 32.2525 51.1102 31.4018 52.1464 31.4018ZM65.7142 39.0177C65.7142 39.6972 66.2024 40.2499 66.8027 40.2499H77.7686C78.3688 40.2499 78.857 39.6972 78.857 39.0177C78.857 38.3382 78.3688 37.7856 77.7686 37.7856H66.8027C66.2024 37.7856 65.7142 38.3382 65.7142 39.0177ZM66.8027 46.8213C66.2024 46.8213 65.7142 46.2686 65.7142 45.5891C65.7142 44.9096 66.2024 44.357 66.8027 44.357H77.7686C78.3688 44.357 78.857 44.9096 78.857 45.5891C78.857 46.2686 78.3688 46.8213 77.7686 46.8213H66.8027ZM45.6936 77.0051C46.9426 77.0051 47.9551 75.9926 47.9551 74.7441C47.9551 73.4951 46.9425 72.4826 45.6936 72.4826C44.4451 72.4826 43.4326 73.4951 43.4326 74.7441C43.4326 75.9926 44.4451 77.0051 45.6936 77.0051Z"/>
</mask>
<path fill-rule="evenodd" clip-rule="evenodd" d="M67.5653 74.5416V55.387L79.7964 55.3874C82.2243 55.3874 84.2013 53.4104 84.2013 50.9825V33.2891C84.2013 30.8612 82.2243 28.8842 79.7964 28.8842H67.5653V17.4574C67.5653 13.2794 64.1446 9.85718 59.964 9.85718H31.4226C27.2449 9.85718 23.8213 13.2799 23.8213 17.4574V74.5416C23.8213 78.7248 27.239 82.1429 31.4226 82.1429H59.964C64.1472 82.1429 67.5653 78.7252 67.5653 74.5416ZM26.3395 67.899H65.0469V56.2731L55.7968 60.8595C54.9301 61.2861 53.9342 60.6129 53.9876 59.6685L53.9861 55.3866H52.1472C49.7193 55.3866 47.7423 53.4095 47.7423 50.9816V33.2883C47.7423 30.8604 49.7193 28.8833 52.1472 28.8833H65.0475V23.2667H26.3395V67.899ZM26.3389 70.4177H65.0466V74.5417C65.0466 77.3337 62.7554 79.6249 59.9635 79.6249H31.4221C28.6301 79.6249 26.3389 77.3337 26.3389 74.5417V70.4177ZM65.0469 20.748H26.3392V17.4564C26.3392 14.6631 28.6288 12.3748 31.4223 12.3748H59.9638C62.7602 12.3748 65.0469 14.6615 65.0469 17.4564V20.748ZM52.1464 31.4018H79.7959L79.7964 31.4019C80.8326 31.4019 81.6832 32.2525 81.6832 33.2887V50.9821C81.6832 52.0182 80.8326 52.8689 79.7964 52.8689H66.5487C66.3137 52.8689 66.0949 52.9329 65.9063 53.0459L56.4938 57.7125L56.4923 54.1278C56.4923 53.4365 55.9301 52.8748 55.2388 52.8688H52.1464C51.1102 52.8688 50.2596 52.0182 50.2596 50.982V33.2886C50.2596 32.2525 51.1102 31.4018 52.1464 31.4018ZM65.7142 39.0177C65.7142 39.6972 66.2024 40.2499 66.8027 40.2499H77.7686C78.3688 40.2499 78.857 39.6972 78.857 39.0177C78.857 38.3382 78.3688 37.7856 77.7686 37.7856H66.8027C66.2024 37.7856 65.7142 38.3382 65.7142 39.0177ZM66.8027 46.8213C66.2024 46.8213 65.7142 46.2686 65.7142 45.5891C65.7142 44.9096 66.2024 44.357 66.8027 44.357H77.7686C78.3688 44.357 78.857 44.9096 78.857 45.5891C78.857 46.2686 78.3688 46.8213 77.7686 46.8213H66.8027ZM45.6936 77.0051C46.9426 77.0051 47.9551 75.9926 47.9551 74.7441C47.9551 73.4951 46.9425 72.4826 45.6936 72.4826C44.4451 72.4826 43.4326 73.4951 43.4326 74.7441C43.4326 75.9926 44.4451 77.0051 45.6936 77.0051Z" fill="url(#paint0_linear_2659_21654)"/>
<path d="M67.5653 55.387L67.5653 55.087L67.2653 55.087V55.387H67.5653ZM79.7964 55.3874L79.7964 55.6874H79.7964V55.3874ZM67.5653 28.8842H67.2653V29.1842H67.5653V28.8842ZM65.0469 67.899V68.199H65.3469V67.899H65.0469ZM26.3395 67.899H26.0395V68.199H26.3395V67.899ZM65.0469 56.2731H65.3469V55.7895L64.9136 56.0043L65.0469 56.2731ZM55.7968 60.8595L55.9293 61.1287L55.9301 61.1283L55.7968 60.8595ZM53.9876 59.6685L54.2871 59.6855L54.2876 59.6769L54.2876 59.6684L53.9876 59.6685ZM53.9861 55.3866L54.2861 55.3865L54.286 55.0866H53.9861V55.3866ZM65.0475 28.8833V29.1833H65.3475V28.8833H65.0475ZM65.0475 23.2667H65.3475V22.9667H65.0475V23.2667ZM26.3395 23.2667V22.9667H26.0395V23.2667H26.3395ZM65.0466 70.4177H65.3466V70.1177H65.0466V70.4177ZM26.3389 70.4177V70.1177H26.0389V70.4177H26.3389ZM26.3392 20.748H26.0392V21.048H26.3392V20.748ZM65.0469 20.748V21.048H65.3469V20.748H65.0469ZM79.7959 31.4018L79.8515 31.107L79.8239 31.1018H79.7959V31.4018ZM79.7964 31.4019L79.7408 31.6967L79.7683 31.7019H79.7964V31.4019ZM65.9063 53.0459L66.0395 53.3146L66.0502 53.3093L66.0604 53.3032L65.9063 53.0459ZM56.4938 57.7125L56.1938 57.7126L56.194 58.1959L56.6271 57.9812L56.4938 57.7125ZM56.4923 54.1278H56.1923V54.128L56.4923 54.1278ZM55.2388 52.8688L55.2414 52.5688H55.2388V52.8688ZM67.2653 55.387V74.5416H67.8653V55.387H67.2653ZM79.7964 55.0874L67.5653 55.087L67.5653 55.687L79.7964 55.6874L79.7964 55.0874ZM83.9013 50.9825C83.9013 53.2447 82.0586 55.0874 79.7964 55.0874V55.6874C82.39 55.6874 84.5013 53.5761 84.5013 50.9825H83.9013ZM83.9013 33.2891V50.9825H84.5013V33.2891H83.9013ZM79.7964 29.1842C82.0586 29.1842 83.9013 31.0269 83.9013 33.2891H84.5013C84.5013 30.6955 82.39 28.5842 79.7964 28.5842V29.1842ZM67.5653 29.1842H79.7964V28.5842H67.5653V29.1842ZM67.2653 17.4574V28.8842H67.8653V17.4574H67.2653ZM59.964 10.1572C63.9789 10.1572 67.2653 13.4451 67.2653 17.4574H67.8653C67.8653 13.1137 64.3103 9.55718 59.964 9.55718V10.1572ZM31.4226 10.1572H59.964V9.55718H31.4226V10.1572ZM24.1213 17.4574C24.1213 13.4457 27.4106 10.1572 31.4226 10.1572V9.55718C27.0793 9.55718 23.5213 13.1142 23.5213 17.4574H24.1213ZM24.1213 74.5416V17.4574H23.5213V74.5416H24.1213ZM31.4226 81.8429C27.4047 81.8429 24.1213 78.5591 24.1213 74.5416H23.5213C23.5213 78.8904 27.0733 82.4429 31.4226 82.4429V81.8429ZM59.964 81.8429H31.4226V82.4429H59.964V81.8429ZM67.2653 74.5416C67.2653 78.5595 63.9815 81.8429 59.964 81.8429V82.4429C64.3129 82.4429 67.8653 78.8909 67.8653 74.5416H67.2653ZM65.0469 67.599H26.3395V68.199H65.0469V67.599ZM64.7469 56.2731V67.899H65.3469V56.2731H64.7469ZM55.9301 61.1283L65.1802 56.5418L64.9136 56.0043L55.6636 60.5907L55.9301 61.1283ZM53.6881 59.6516C53.6218 60.824 54.8554 61.6572 55.9293 61.1287L55.6644 60.5903C55.0048 60.915 54.2466 60.4018 54.2871 59.6855L53.6881 59.6516ZM53.6861 55.3867L53.6876 59.6686L54.2876 59.6684L54.2861 55.3865L53.6861 55.3867ZM52.1472 55.6866H53.9861V55.0866H52.1472V55.6866ZM47.4423 50.9816C47.4423 53.5752 49.5536 55.6866 52.1472 55.6866V55.0866C49.885 55.0866 48.0423 53.2439 48.0423 50.9816H47.4423ZM47.4423 33.2883V50.9816H48.0423V33.2883H47.4423ZM52.1472 28.5833C49.5536 28.5833 47.4423 30.6947 47.4423 33.2883H48.0423C48.0423 31.0261 49.885 29.1833 52.1472 29.1833V28.5833ZM65.0475 28.5833H52.1472V29.1833H65.0475V28.5833ZM64.7475 23.2667V28.8833H65.3475V23.2667H64.7475ZM26.3395 23.5667H65.0475V22.9667H26.3395V23.5667ZM26.6395 67.899V23.2667H26.0395V67.899H26.6395ZM65.0466 70.1177H26.3389V70.7177H65.0466V70.1177ZM65.3466 74.5417V70.4177H64.7466V74.5417H65.3466ZM59.9635 79.9249C62.9211 79.9249 65.3466 77.4993 65.3466 74.5417H64.7466C64.7466 77.168 62.5897 79.3249 59.9635 79.3249V79.9249ZM31.4221 79.9249H59.9635V79.3249H31.4221V79.9249ZM26.0389 74.5417C26.0389 77.4993 28.4644 79.9249 31.4221 79.9249V79.3249C28.7958 79.3249 26.6389 77.168 26.6389 74.5417H26.0389ZM26.0389 70.4177V74.5417H26.6389V70.4177H26.0389ZM26.3392 21.048H65.0469V20.448H26.3392V21.048ZM26.0392 17.4564V20.748H26.6392V17.4564H26.0392ZM31.4223 12.0748C28.4633 12.0748 26.0392 14.4973 26.0392 17.4564H26.6392C26.6392 14.8288 28.7944 12.6748 31.4223 12.6748V12.0748ZM59.9638 12.0748H31.4223V12.6748H59.9638V12.0748ZM65.3469 17.4564C65.3469 14.4958 62.9258 12.0748 59.9638 12.0748V12.6748C62.5946 12.6748 64.7469 14.8272 64.7469 17.4564H65.3469ZM65.3469 20.748V17.4564H64.7469V20.748H65.3469ZM79.7959 31.1018H52.1464V31.7018H79.7959V31.1018ZM79.8521 31.1071L79.8515 31.107L79.7402 31.6966L79.7408 31.6967L79.8521 31.1071ZM81.9832 33.2887C81.9832 32.0869 80.9983 31.1019 79.7964 31.1019V31.7019C80.6669 31.7019 81.3832 32.4182 81.3832 33.2887H81.9832ZM81.9832 50.9821V33.2887H81.3832V50.9821H81.9832ZM79.7964 53.1689C80.9983 53.1689 81.9832 52.1839 81.9832 50.9821H81.3832C81.3832 51.8526 80.6669 52.5689 79.7964 52.5689V53.1689ZM66.5487 53.1689H79.7964V52.5689H66.5487V53.1689ZM66.0604 53.3032C66.2035 53.2175 66.3692 53.1689 66.5487 53.1689V52.5689C66.2581 52.5689 65.9862 52.6483 65.7521 52.7885L66.0604 53.3032ZM56.6271 57.9812L66.0395 53.3146L65.773 52.7771L56.3606 57.4437L56.6271 57.9812ZM56.1923 54.128L56.1938 57.7126L56.7938 57.7123L56.7923 54.1277L56.1923 54.128ZM55.2362 53.1688C55.7645 53.1734 56.1923 53.6029 56.1923 54.1278H56.7923C56.7923 53.2702 56.0957 52.5763 55.2414 52.5688L55.2362 53.1688ZM52.1464 53.1688H55.2388V52.5688H52.1464V53.1688ZM49.9596 50.982C49.9596 52.1838 50.9445 53.1688 52.1464 53.1688V52.5688C51.2759 52.5688 50.5596 51.8525 50.5596 50.982H49.9596ZM49.9596 33.2886V50.982H50.5596V33.2886H49.9596ZM52.1464 31.1018C50.9445 31.1018 49.9596 32.0868 49.9596 33.2886H50.5596C50.5596 32.4181 51.2759 31.7018 52.1464 31.7018V31.1018ZM66.8027 39.9499C66.402 39.9499 66.0142 39.5676 66.0142 39.0177H65.4142C65.4142 39.8269 66.0028 40.5499 66.8027 40.5499V39.9499ZM77.7686 39.9499H66.8027V40.5499H77.7686V39.9499ZM78.557 39.0177C78.557 39.5676 78.1693 39.9499 77.7686 39.9499V40.5499C78.5684 40.5499 79.157 39.8269 79.157 39.0177H78.557ZM77.7686 38.0856C78.1693 38.0856 78.557 38.4679 78.557 39.0177H79.157C79.157 38.2086 78.5684 37.4856 77.7686 37.4856V38.0856ZM66.8027 38.0856H77.7686V37.4856H66.8027V38.0856ZM66.0142 39.0177C66.0142 38.4679 66.402 38.0856 66.8027 38.0856V37.4856C66.0028 37.4856 65.4142 38.2086 65.4142 39.0177H66.0142ZM65.4142 45.5891C65.4142 46.3983 66.0028 47.1213 66.8027 47.1213V46.5213C66.402 46.5213 66.0142 46.139 66.0142 45.5891H65.4142ZM66.8027 44.057C66.0028 44.057 65.4142 44.78 65.4142 45.5891H66.0142C66.0142 45.0393 66.402 44.657 66.8027 44.657V44.057ZM77.7686 44.057H66.8027V44.657H77.7686V44.057ZM79.157 45.5891C79.157 44.78 78.5684 44.057 77.7686 44.057V44.657C78.1693 44.657 78.557 45.0393 78.557 45.5891H79.157ZM77.7686 47.1213C78.5684 47.1213 79.157 46.3983 79.157 45.5891H78.557C78.557 46.139 78.1693 46.5213 77.7686 46.5213V47.1213ZM66.8027 47.1213H77.7686V46.5213H66.8027V47.1213ZM47.6551 74.7441C47.6551 75.8268 46.777 76.7051 45.6936 76.7051V77.3051C47.1082 77.3051 48.2551 76.1583 48.2551 74.7441H47.6551ZM45.6936 72.7826C46.7769 72.7826 47.6551 73.6608 47.6551 74.7441H48.2551C48.2551 73.3294 47.1082 72.1826 45.6936 72.1826V72.7826ZM43.7326 74.7441C43.7326 73.6608 44.6108 72.7826 45.6936 72.7826V72.1826C44.2793 72.1826 43.1326 73.3295 43.1326 74.7441H43.7326ZM45.6936 76.7051C44.6108 76.7051 43.7326 75.8269 43.7326 74.7441H43.1326C43.1326 76.1583 44.2794 77.3051 45.6936 77.3051V76.7051Z" fill="#283B44" mask="url(#path-1-inside-1_2659_21654)"/>
<path d="M60.3943 38.5606C60.2342 38.8175 59.8963 38.896 59.6397 38.7356C58.7646 38.1934 57.6709 38.1058 56.9052 38.5166L60.3943 38.5606ZM60.3943 38.5606C60.5542 38.3034 60.4761 37.965 60.2193 37.8047L60.3943 38.5606ZM59.5076 38.9479C59.8816 39.1813 60.3735 39.0666 60.6065 38.6928L60.6066 38.6926C60.8392 38.3186 60.7258 37.8262 60.3517 37.5926L60.3517 37.5926L60.3501 37.5916C59.8464 37.2823 59.2876 37.0752 58.7055 36.9813V35.8689C58.7055 35.4287 58.349 35.0713 57.9086 35.0713C57.4682 35.0713 57.1117 35.4287 57.1117 35.8689V37.033C56.8178 37.1009 56.5334 37.2062 56.2657 37.3469C55.8426 37.5597 55.4845 37.8832 55.2301 38.2833C54.9752 38.6839 54.8336 39.1462 54.8203 39.621C54.7914 40.5369 55.2 41.156 55.7666 41.5943C56.3016 42.0082 56.9868 42.268 57.566 42.4876C57.5833 42.4941 57.6005 42.5007 57.6176 42.5072L57.6176 42.5072C58.3488 42.7845 58.8241 42.9878 59.1118 43.2207C59.249 43.3317 59.3337 43.4425 59.3829 43.563C59.4325 43.6843 59.4536 43.8342 59.4345 44.0349L59.4345 44.0349L59.4342 44.039C59.4159 44.2721 59.3317 44.4951 59.1913 44.6813L59.1911 44.6815C59.0508 44.868 58.8601 45.0105 58.6416 45.0921L58.4456 45.1653C58.0688 45.2855 57.6313 45.314 57.2158 45.2685C56.7258 45.2149 56.3068 45.063 56.0755 44.8808L56.0752 44.8806C55.7285 44.6086 55.2272 44.6691 54.9555 45.016L54.9554 45.0161C54.6839 45.363 54.7446 45.8644 55.0909 46.1364L55.0906 46.1367L55.1015 46.1443C55.6957 46.5621 56.3906 46.8108 57.1118 46.8657V47.9165C57.1118 48.3567 57.4683 48.7141 57.9087 48.7141C58.3491 48.7141 58.7056 48.3567 58.7056 47.9165V46.7479C58.8908 46.7015 59.0726 46.6415 59.2491 46.5686C59.7398 46.375 60.1662 46.0471 60.4793 45.6227C60.7925 45.1982 60.9803 44.6939 61.0206 44.1678C61.1189 43.1506 60.725 42.4615 60.1342 41.9762C59.5661 41.5096 58.8149 41.231 58.1881 40.9986L58.1735 40.9932C57.5052 40.7448 57.0525 40.5506 56.769 40.3371C56.6319 40.2338 56.5451 40.1335 56.4926 40.0304C56.4409 39.9291 56.4148 39.8101 56.422 39.6565L56.422 39.6565L56.4222 39.652C56.4277 39.4605 56.4858 39.2744 56.5901 39.1139L56.5902 39.1137C56.6943 38.9534 56.8407 38.8248 57.0134 38.7419L57.0135 38.7422L57.0234 38.7369C57.6944 38.3769 58.692 38.4426 59.5076 38.9479Z" fill="url(#paint1_linear_2659_21654)" stroke="url(#paint2_linear_2659_21654)" stroke-width="0.5"/>
<defs>
<linearGradient id="paint0_linear_2659_21654" x1="43.7094" y1="72.7395" x2="45.9701" y2="77.2875" gradientUnits="userSpaceOnUse">
<stop stop-color="#C743F7"/>
<stop offset="1" stop-color="#C743F7"/>
</linearGradient>
<linearGradient id="paint1_linear_2659_21654" x1="56.0811" y1="38.4577" x2="63.2679" y2="42.4594" gradientUnits="userSpaceOnUse">
<stop stop-color="#C743F7"/>
<stop offset="1" stop-color="#C743F7"/>
</linearGradient>
<linearGradient id="paint2_linear_2659_21654" x1="56.6785" y1="35.732" x2="57.9106" y2="48.4641" gradientUnits="userSpaceOnUse">
<stop stop-color="#C743F7"/>
<stop offset="1" stop-color="#C743F7"/>
</linearGradient>
</defs>
</svg>
