<svg width="92" height="92" viewBox="0 0 92 92" fill="none" xmlns="http://www.w3.org/2000/svg">
<mask id="path-1-inside-1_2659_21663" fill="white">
<path fill-rule="evenodd" clip-rule="evenodd" d="M11.5 34.7177C11.8978 34.7177 12.2795 34.5597 12.5607 34.2784C12.842 33.9972 13 33.6155 13 33.2177V15H31.2177C32.0461 15 32.7177 14.3283 32.7177 13.5C32.7177 12.6717 32.0461 12 31.2177 12H11.5C10.6717 12 10 12.6717 10 13.5V33.2177C10 33.6155 10.158 33.9972 10.4393 34.2784C10.7205 34.5597 11.1022 34.7177 11.5 34.7177ZM39.04 48.7509C35.9047 49.3408 33.0782 51.0183 31.0585 53.4879C29.0387 55.9575 27.9559 59.0607 28.0002 62.2509V65.2509C28.0002 66.2453 28.3953 67.1995 29.0984 67.9027C29.8015 68.6059 30.7557 69.0009 31.7502 69.0009H60.2502C61.2446 69.0009 62.1988 68.6058 62.902 67.9027C63.6052 67.1996 64.0002 66.2453 64.0002 65.2509V62.2509C64.0444 59.0607 62.9616 55.9575 60.942 53.4879C58.9223 51.0183 56.0957 49.3409 52.9604 48.7509C55.7415 46.7707 57.5475 43.699 57.9258 40.3059C58.3049 36.9129 57.22 33.5191 54.9433 30.9744C52.6673 28.4297 49.4148 26.9753 46.0002 26.9753C42.5857 26.9753 39.3332 28.4298 37.0572 30.9744C34.7804 33.5191 33.6956 36.9129 34.0746 40.3059C34.453 43.699 36.259 46.7707 39.0401 48.7509H39.04ZM61 62.2509V65.2509C61 65.4497 60.921 65.6406 60.7804 65.7812C60.6398 65.9219 60.4489 66.0009 60.25 66.0009H31.75C31.3355 66.0009 31 65.6654 31 65.2509V62.2509C31 56.0861 35.8751 51.4361 42.3323 51.4361H49.6675C56.1249 51.406 60.9998 56.0559 60.9998 62.2509H61ZM46 30.0017C48.3873 30.0017 50.6761 30.9499 52.3643 32.6374C54.0518 34.3256 55 36.6144 55 39.0017C55 41.389 54.0518 43.6778 52.3643 45.366C50.6761 47.0535 48.3873 48.0017 46 48.0017C43.6127 48.0017 41.3239 47.0535 39.6357 45.366C37.9482 43.6778 37 41.389 37 39.0017C37 36.6144 37.9482 34.3256 39.6357 32.6374C41.3239 30.9499 43.6127 30.0017 46 30.0017ZM13 81H31.2177C32.0461 81 32.7177 81.6717 32.7177 82.5C32.7177 83.3283 32.0461 84 31.2177 84H11.5C11.1022 84 10.7205 83.842 10.4393 83.5607C10.158 83.2795 10 82.8978 10 82.5V62.7823C10 61.9539 10.6717 61.2823 11.5 61.2823C12.3283 61.2823 13 61.9539 13 62.7823V81ZM80.5 61.2823C79.6717 61.2823 79 61.9539 79 62.7823V81H60.7823C59.9539 81 59.2823 81.6717 59.2823 82.5C59.2823 83.3283 59.9539 84 60.7823 84H80.5C80.8978 84 81.2795 83.842 81.5607 83.5607C81.842 83.2795 82 82.8978 82 82.5V62.7823C82 62.3845 81.842 62.0028 81.5607 61.7216C81.2795 61.4403 80.8978 61.2823 80.5 61.2823ZM60.7823 12H80.5C80.8978 12 81.2795 12.158 81.5607 12.4393C81.842 12.7205 82 13.1022 82 13.5V33.2177C82 34.0461 81.3283 34.7177 80.5 34.7177C79.6717 34.7177 79 34.0461 79 33.2177V15H60.7823C59.9539 15 59.2823 14.3283 59.2823 13.5C59.2823 12.6717 59.9539 12 60.7823 12Z"/>
</mask>
<path fill-rule="evenodd" clip-rule="evenodd" d="M11.5 34.7177C11.8978 34.7177 12.2795 34.5597 12.5607 34.2784C12.842 33.9972 13 33.6155 13 33.2177V15H31.2177C32.0461 15 32.7177 14.3283 32.7177 13.5C32.7177 12.6717 32.0461 12 31.2177 12H11.5C10.6717 12 10 12.6717 10 13.5V33.2177C10 33.6155 10.158 33.9972 10.4393 34.2784C10.7205 34.5597 11.1022 34.7177 11.5 34.7177ZM39.04 48.7509C35.9047 49.3408 33.0782 51.0183 31.0585 53.4879C29.0387 55.9575 27.9559 59.0607 28.0002 62.2509V65.2509C28.0002 66.2453 28.3953 67.1995 29.0984 67.9027C29.8015 68.6059 30.7557 69.0009 31.7502 69.0009H60.2502C61.2446 69.0009 62.1988 68.6058 62.902 67.9027C63.6052 67.1996 64.0002 66.2453 64.0002 65.2509V62.2509C64.0444 59.0607 62.9616 55.9575 60.942 53.4879C58.9223 51.0183 56.0957 49.3409 52.9604 48.7509C55.7415 46.7707 57.5475 43.699 57.9258 40.3059C58.3049 36.9129 57.22 33.5191 54.9433 30.9744C52.6673 28.4297 49.4148 26.9753 46.0002 26.9753C42.5857 26.9753 39.3332 28.4298 37.0572 30.9744C34.7804 33.5191 33.6956 36.9129 34.0746 40.3059C34.453 43.699 36.259 46.7707 39.0401 48.7509H39.04ZM61 62.2509V65.2509C61 65.4497 60.921 65.6406 60.7804 65.7812C60.6398 65.9219 60.4489 66.0009 60.25 66.0009H31.75C31.3355 66.0009 31 65.6654 31 65.2509V62.2509C31 56.0861 35.8751 51.4361 42.3323 51.4361H49.6675C56.1249 51.406 60.9998 56.0559 60.9998 62.2509H61ZM46 30.0017C48.3873 30.0017 50.6761 30.9499 52.3643 32.6374C54.0518 34.3256 55 36.6144 55 39.0017C55 41.389 54.0518 43.6778 52.3643 45.366C50.6761 47.0535 48.3873 48.0017 46 48.0017C43.6127 48.0017 41.3239 47.0535 39.6357 45.366C37.9482 43.6778 37 41.389 37 39.0017C37 36.6144 37.9482 34.3256 39.6357 32.6374C41.3239 30.9499 43.6127 30.0017 46 30.0017ZM13 81H31.2177C32.0461 81 32.7177 81.6717 32.7177 82.5C32.7177 83.3283 32.0461 84 31.2177 84H11.5C11.1022 84 10.7205 83.842 10.4393 83.5607C10.158 83.2795 10 82.8978 10 82.5V62.7823C10 61.9539 10.6717 61.2823 11.5 61.2823C12.3283 61.2823 13 61.9539 13 62.7823V81ZM80.5 61.2823C79.6717 61.2823 79 61.9539 79 62.7823V81H60.7823C59.9539 81 59.2823 81.6717 59.2823 82.5C59.2823 83.3283 59.9539 84 60.7823 84H80.5C80.8978 84 81.2795 83.842 81.5607 83.5607C81.842 83.2795 82 82.8978 82 82.5V62.7823C82 62.3845 81.842 62.0028 81.5607 61.7216C81.2795 61.4403 80.8978 61.2823 80.5 61.2823ZM60.7823 12H80.5C80.8978 12 81.2795 12.158 81.5607 12.4393C81.842 12.7205 82 13.1022 82 13.5V33.2177C82 34.0461 81.3283 34.7177 80.5 34.7177C79.6717 34.7177 79 34.0461 79 33.2177V15H60.7823C59.9539 15 59.2823 14.3283 59.2823 13.5C59.2823 12.6717 59.9539 12 60.7823 12Z" fill="url(#paint0_linear_2659_21663)"/>
<path d="M12.5607 34.2784L12.3486 34.0663L12.3486 34.0663L12.5607 34.2784ZM13 15V14.7H12.7V15H13ZM10.4393 34.2784L10.6514 34.0663H10.6514L10.4393 34.2784ZM31.0585 53.4879L31.2907 53.6779L31.0585 53.4879ZM39.04 48.7509V48.4509H39.012L38.9845 48.456L39.04 48.7509ZM28.0002 62.2509H28.3002L28.3001 62.2467L28.0002 62.2509ZM29.0984 67.9027L29.3105 67.6906L29.0984 67.9027ZM64.0002 62.2509L63.7002 62.2467V62.2509H64.0002ZM52.9604 48.7509L52.7864 48.5065L52.2122 48.9153L52.9049 49.0457L52.9604 48.7509ZM57.9258 40.3059L57.6277 40.2726L57.6277 40.2727L57.9258 40.3059ZM54.9433 30.9744L54.7197 31.1744L54.7197 31.1744L54.9433 30.9744ZM37.0572 30.9744L37.2807 31.1744L37.2808 31.1744L37.0572 30.9744ZM34.0746 40.3059L34.3728 40.2727L34.3728 40.2726L34.0746 40.3059ZM39.0401 48.7509V49.0508H39.9786L39.2141 48.5065L39.0401 48.7509ZM61 62.2509H61.3V61.9509H61V62.2509ZM60.7804 65.7812L60.5682 65.5691V65.5691L60.7804 65.7812ZM49.6675 51.4361V51.7361L49.6689 51.7361L49.6675 51.4361ZM60.9998 62.2509H60.6998V62.5509H60.9998V62.2509ZM52.3643 32.6374L52.5765 32.4253L52.5764 32.4252L52.3643 32.6374ZM52.3643 45.366L52.5764 45.5782L52.5765 45.5781L52.3643 45.366ZM39.6357 45.366L39.4235 45.5781L39.4236 45.5782L39.6357 45.366ZM39.6357 32.6374L39.4236 32.4252L39.4235 32.4253L39.6357 32.6374ZM13 81H12.7V81.3H13V81ZM10.4393 83.5607L10.6514 83.3486H10.6514L10.4393 83.5607ZM79 81V81.3H79.3V81H79ZM81.5607 83.5607L81.3486 83.3486V83.3486L81.5607 83.5607ZM81.5607 12.4393L81.7728 12.2272V12.2272L81.5607 12.4393ZM79 15H79.3V14.7H79V15ZM12.3486 34.0663C12.1236 34.2913 11.8182 34.4177 11.5 34.4177V35.0177C11.9773 35.0177 12.4353 34.8281 12.7728 34.4906L12.3486 34.0663ZM12.7 33.2177C12.7 33.536 12.5735 33.8413 12.3486 34.0663L12.7728 34.4906C13.1104 34.153 13.3 33.695 13.3 33.2177H12.7ZM12.7 15V33.2177H13.3V15H12.7ZM31.2177 14.7H13V15.3H31.2177V14.7ZM32.4177 13.5C32.4177 14.1627 31.8804 14.7 31.2177 14.7V15.3C32.2117 15.3 33.0177 14.494 33.0177 13.5H32.4177ZM31.2177 12.3C31.8804 12.3 32.4177 12.8373 32.4177 13.5H33.0177C33.0177 12.506 32.2117 11.7 31.2177 11.7V12.3ZM11.5 12.3H31.2177V11.7H11.5V12.3ZM10.3 13.5C10.3 12.8373 10.8373 12.3 11.5 12.3V11.7C10.506 11.7 9.7 12.506 9.7 13.5H10.3ZM10.3 33.2177V13.5H9.7V33.2177H10.3ZM10.6514 34.0663C10.4265 33.8413 10.3 33.536 10.3 33.2177H9.7C9.7 33.695 9.88962 34.153 10.2272 34.4906L10.6514 34.0663ZM11.5 34.4177C11.1818 34.4177 10.8764 34.2913 10.6514 34.0663L10.2272 34.4906C10.5647 34.8281 11.0227 35.0177 11.5 35.0177V34.4177ZM31.2907 53.6779C33.2657 51.263 36.0296 49.6226 39.0955 49.0457L38.9845 48.456C35.7798 49.059 32.8907 50.7737 30.8262 53.298L31.2907 53.6779ZM28.3001 62.2467C28.2569 59.1272 29.3157 56.0927 31.2907 53.6779L30.8262 53.298C28.7617 55.8223 27.655 58.9943 27.7002 62.255L28.3001 62.2467ZM28.3002 65.2509V62.2509H27.7002V65.2509H28.3002ZM29.3105 67.6906C28.6637 67.0436 28.3002 66.1657 28.3002 65.2509H27.7002C27.7002 66.3248 28.1268 67.3553 28.8862 68.1148L29.3105 67.6906ZM31.7502 68.7009C30.8353 68.7009 29.9573 68.3374 29.3105 67.6906L28.8862 68.1148C29.6457 68.8743 30.6762 69.3009 31.7502 69.3009V68.7009ZM60.2502 68.7009H31.7502V69.3009H60.2502V68.7009ZM62.6899 67.6905C62.043 68.3374 61.1651 68.7009 60.2502 68.7009V69.3009C61.3242 69.3009 62.3547 68.8742 63.1142 68.1148L62.6899 67.6905ZM63.7002 65.2509C63.7002 66.1658 63.3368 67.0437 62.6899 67.6905L63.1142 68.1148C63.8737 67.3554 64.3002 66.3248 64.3002 65.2509H63.7002ZM63.7002 62.2509V65.2509H64.3002V62.2509H63.7002ZM60.7097 53.6779C62.6847 56.0927 63.7435 59.1272 63.7003 62.2467L64.3002 62.255C64.3454 58.9943 63.2386 55.8223 61.1742 53.298L60.7097 53.6779ZM52.9049 49.0457C55.9708 49.6227 58.7348 51.263 60.7097 53.6779L61.1742 53.298C59.1098 50.7737 56.2206 49.0591 53.0159 48.456L52.9049 49.0457ZM57.6277 40.2727C57.2588 43.5809 55.4979 46.5758 52.7864 48.5065L53.1344 48.9952C55.985 46.9655 57.8362 43.8171 58.224 40.3392L57.6277 40.2727ZM54.7197 31.1744C56.9395 33.6555 57.9972 36.9644 57.6277 40.2726L58.224 40.3392C58.6125 36.8613 57.5005 33.3827 55.1669 30.7744L54.7197 31.1744ZM46.0002 27.2753C49.3294 27.2753 52.5006 28.6933 54.7197 31.1744L55.1669 30.7744C52.834 28.1661 49.5001 26.6753 46.0002 26.6753V27.2753ZM37.2808 31.1744C39.4999 28.6934 42.6711 27.2753 46.0002 27.2753V26.6753C42.5004 26.6753 39.1665 28.1661 36.8336 30.7744L37.2808 31.1744ZM34.3728 40.2726C34.0032 36.9644 35.0609 33.6555 37.2807 31.1744L36.8336 30.7744C34.4999 33.3827 33.388 36.8613 33.7765 40.3392L34.3728 40.2726ZM39.2141 48.5065C36.5025 46.5758 34.7417 43.5809 34.3728 40.2727L33.7765 40.3392C34.1643 43.8171 36.0154 46.9655 38.8661 48.9952L39.2141 48.5065ZM39.04 49.0508H39.0401V48.4509H39.04V49.0508ZM61.3 65.2509V62.2509H60.7V65.2509H61.3ZM60.9925 65.9933C61.1894 65.7964 61.3 65.5293 61.3 65.2509H60.7C60.7 65.3702 60.6526 65.4847 60.5682 65.5691L60.9925 65.9933ZM60.25 66.3009C60.5284 66.3009 60.7956 66.1903 60.9925 65.9933L60.5682 65.5691C60.4839 65.6534 60.3694 65.7009 60.25 65.7009V66.3009ZM31.75 66.3009H60.25V65.7009H31.75V66.3009ZM30.7 65.2509C30.7 65.8311 31.1698 66.3009 31.75 66.3009V65.7009C31.5012 65.7009 31.3 65.4997 31.3 65.2509H30.7ZM30.7 62.2509V65.2509H31.3V62.2509H30.7ZM42.3323 51.1361C35.7228 51.1361 30.7 55.9073 30.7 62.2509H31.3C31.3 56.2649 36.0274 51.7361 42.3323 51.7361V51.1361ZM49.6675 51.1361H42.3323V51.7361H49.6675V51.1361ZM61.2998 62.2509C61.2998 55.8779 56.2777 51.1053 49.6661 51.1361L49.6689 51.7361C55.9722 51.7067 60.6998 56.234 60.6998 62.2509H61.2998ZM61 61.9509H60.9998V62.5509H61V61.9509ZM52.5764 32.4252C50.8319 30.6815 48.4669 29.7017 46 29.7017V30.3017C48.3077 30.3017 50.5202 31.2183 52.1522 32.8496L52.5764 32.4252ZM55.3 39.0017C55.3 36.5348 54.3202 34.1697 52.5765 32.4253L52.1521 32.8495C53.7834 34.4815 54.7 36.694 54.7 39.0017H55.3ZM52.5765 45.5781C54.3202 43.8336 55.3 41.4686 55.3 39.0017H54.7C54.7 41.3094 53.7834 43.5219 52.1521 45.1539L52.5765 45.5781ZM46 48.3017C48.4669 48.3017 50.832 47.3219 52.5764 45.5782L52.1522 45.1538C50.5203 46.7851 48.3077 47.7017 46 47.7017V48.3017ZM39.4236 45.5782C41.1681 47.3219 43.5331 48.3017 46 48.3017V47.7017C43.6923 47.7017 41.4798 46.7851 39.8478 45.1538L39.4236 45.5782ZM36.7 39.0017C36.7 41.4686 37.6798 43.8337 39.4235 45.5781L39.8479 45.1539C38.2166 43.522 37.3 41.3094 37.3 39.0017H36.7ZM39.4235 32.4253C37.6798 34.1698 36.7 36.5348 36.7 39.0017H37.3C37.3 36.694 38.2166 34.4815 39.8479 32.8495L39.4235 32.4253ZM46 29.7017C43.5331 29.7017 41.168 30.6815 39.4236 32.4252L39.8478 32.8496C41.4797 31.2183 43.6923 30.3017 46 30.3017V29.7017ZM31.2177 80.7H13V81.3H31.2177V80.7ZM33.0177 82.5C33.0177 81.506 32.2117 80.7 31.2177 80.7V81.3C31.8804 81.3 32.4177 81.8373 32.4177 82.5H33.0177ZM31.2177 84.3C32.2117 84.3 33.0177 83.494 33.0177 82.5H32.4177C32.4177 83.1627 31.8804 83.7 31.2177 83.7V84.3ZM11.5 84.3H31.2177V83.7H11.5V84.3ZM10.2272 83.7729C10.5647 84.1104 11.0227 84.3 11.5 84.3V83.7C11.1818 83.7 10.8764 83.5735 10.6514 83.3486L10.2272 83.7729ZM9.7 82.5C9.7 82.9773 9.88962 83.4353 10.2272 83.7729L10.6514 83.3486C10.4265 83.1236 10.3 82.8182 10.3 82.5H9.7ZM9.7 62.7823V82.5H10.3V62.7823H9.7ZM11.5 60.9823C10.506 60.9823 9.7 61.7883 9.7 62.7823H10.3C10.3 62.1196 10.8373 61.5823 11.5 61.5823V60.9823ZM13.3 62.7823C13.3 61.7883 12.494 60.9823 11.5 60.9823V61.5823C12.1627 61.5823 12.7 62.1196 12.7 62.7823H13.3ZM13.3 81V62.7823H12.7V81H13.3ZM79.3 62.7823C79.3 62.1196 79.8373 61.5823 80.5 61.5823V60.9823C79.506 60.9823 78.7 61.7883 78.7 62.7823H79.3ZM79.3 81V62.7823H78.7V81H79.3ZM60.7823 81.3H79V80.7H60.7823V81.3ZM59.5823 82.5C59.5823 81.8373 60.1196 81.3 60.7823 81.3V80.7C59.7883 80.7 58.9823 81.506 58.9823 82.5H59.5823ZM60.7823 83.7C60.1196 83.7 59.5823 83.1627 59.5823 82.5H58.9823C58.9823 83.494 59.7883 84.3 60.7823 84.3V83.7ZM80.5 83.7H60.7823V84.3H80.5V83.7ZM81.3486 83.3486C81.1236 83.5735 80.8182 83.7 80.5 83.7V84.3C80.9773 84.3 81.4353 84.1104 81.7729 83.7728L81.3486 83.3486ZM81.7 82.5C81.7 82.8182 81.5735 83.1236 81.3486 83.3486L81.7729 83.7729C82.1104 83.4353 82.3 82.9773 82.3 82.5H81.7ZM81.7 62.7823V82.5H82.3V62.7823H81.7ZM81.3486 61.9337C81.5735 62.1587 81.7 62.464 81.7 62.7823H82.3C82.3 62.305 82.1104 61.847 81.7728 61.5094L81.3486 61.9337ZM80.5 61.5823C80.8182 61.5823 81.1236 61.7087 81.3486 61.9337L81.7728 61.5094C81.4353 61.1719 80.9773 60.9823 80.5 60.9823V61.5823ZM80.5 11.7H60.7823V12.3H80.5V11.7ZM81.7728 12.2272C81.4353 11.8896 80.9773 11.7 80.5 11.7V12.3C80.8182 12.3 81.1236 12.4265 81.3486 12.6514L81.7728 12.2272ZM82.3 13.5C82.3 13.0227 82.1104 12.5647 81.7728 12.2272L81.3486 12.6514C81.5735 12.8764 81.7 13.1818 81.7 13.5H82.3ZM82.3 33.2177V13.5H81.7V33.2177H82.3ZM80.5 35.0177C81.494 35.0177 82.3 34.2117 82.3 33.2177H81.7C81.7 33.8804 81.1627 34.4177 80.5 34.4177V35.0177ZM78.7 33.2177C78.7 34.2117 79.506 35.0177 80.5 35.0177V34.4177C79.8373 34.4177 79.3 33.8804 79.3 33.2177H78.7ZM78.7 15V33.2177H79.3V15H78.7ZM60.7823 15.3H79V14.7H60.7823V15.3ZM58.9823 13.5C58.9823 14.494 59.7883 15.3 60.7823 15.3V14.7C60.1196 14.7 59.5823 14.1627 59.5823 13.5H58.9823ZM60.7823 11.7C59.7883 11.7 58.9823 12.506 58.9823 13.5H59.5823C59.5823 12.8373 60.1196 12.3 60.7823 12.3V11.7Z" fill="#26363E" mask="url(#path-1-inside-1_2659_21663)"/>
<defs>
<linearGradient id="paint0_linear_2659_21663" x1="10" y1="18" x2="68" y2="84" gradientUnits="userSpaceOnUse">
<stop stop-color="#C743F7"/>
<stop offset="1" stop-color="#C743F7"/>
</linearGradient>
</defs>
</svg>
