<svg width="92" height="92" viewBox="0 0 92 92" fill="none" xmlns="http://www.w3.org/2000/svg">
<mask id="path-1-outside-1_2659_21683" maskUnits="userSpaceOnUse" x="7" y="9" width="77" height="74" fill="black">
<rect fill="white" x="7" y="9" width="77" height="74"/>
<path fill-rule="evenodd" clip-rule="evenodd" d="M8.00136 10.7997L8.00193 26.7434C8.00065 26.762 8 26.7807 8 26.7996L8.00058 76.4001C8.00058 79.4876 10.5129 81.9999 13.6004 81.9999H77.5994C80.687 81.9999 83.1999 79.4876 83.1987 76.4001V26.8485C83.1993 26.8376 83.1998 26.8266 83.2 26.8156L83.2001 26.7994V10.7997C83.2001 10.3581 82.8426 10 82.4003 10H8.80108C8.35944 10 8.00136 10.3575 8.00136 10.7997ZM9.60084 76.3988V27.5991H81.6012L81.6006 76.3988C81.6006 78.6047 79.8061 80.3986 77.6007 80.3986H13.6007C11.3953 80.3986 9.60084 78.6053 9.60084 76.3988ZM9.60098 25.999H81.6016V11.5992H9.60098V25.999ZM16.8019 17.9998H13.6019V19.5999H16.8019V17.9998ZM20.0008 17.9998H23.2009V19.5999H20.0008V17.9998ZM29.6014 17.9998H26.4013V19.5999H29.6014V17.9998ZM34.4018 17.9998H76.0018V19.5999H34.4018V17.9998ZM70.5427 64.6951C70.6373 64.7061 70.7325 64.7107 70.8271 64.7107L70.8268 64.7112C71.5093 64.7112 72.1744 64.4582 72.6857 63.9968C73.2678 63.4722 73.6015 62.7206 73.6015 61.936V46.0641C73.6015 45.28 73.2678 44.5285 72.6863 44.0027C72.1036 43.478 71.3235 43.2157 70.5424 43.3045L55.4386 44.8685C54.0208 45.0153 52.9512 46.2033 52.9512 47.6281V48.4605H22.3578C22.1228 48.4605 21.8993 48.5632 21.7478 48.7431L17.7898 53.4121C17.542 53.7046 17.5361 54.1312 17.7758 54.4295L21.6299 59.2389C21.782 59.4281 22.0112 59.5389 22.2544 59.5389H26.5246C26.726 59.5389 26.9198 59.4623 27.0684 59.3265L29.3655 57.1984L31.9493 59.3533C32.0932 59.4734 32.2743 59.539 32.4617 59.539H36.3158C36.559 59.539 36.7888 59.4281 36.9409 59.2389L38.4863 57.3063L40.6673 59.3266C40.8159 59.4624 41.0097 59.539 41.2111 59.539H44.1274C44.3845 59.539 44.6271 59.416 44.7769 59.2065L46.1407 57.311L48.4999 59.3451C48.6455 59.4704 48.8312 59.5389 49.0228 59.5389H52.9512V60.3715C52.9512 61.7979 54.0209 62.9842 55.4404 63.1293L70.5427 64.6951ZM70.7069 44.8962C70.7487 44.8927 70.7905 44.8898 70.8317 44.8898L70.8317 44.8894C71.1213 44.8894 71.3958 44.9939 71.614 45.193C71.8642 45.4175 72.0017 45.7269 72.0017 46.0647V61.9365C72.0017 62.2737 71.8642 62.583 71.6152 62.8082C71.3656 63.0334 71.0418 63.1431 70.7081 63.1054L55.6043 61.5396H55.6026C55.0031 61.4769 54.551 60.9755 54.551 60.3725V47.6291C54.551 47.0261 55.0043 46.5229 55.6032 46.4602L70.7069 44.8962ZM49.3199 57.9388H52.9507V50.0605H22.7298L19.4386 53.9431L22.6405 57.9384H26.2132L28.7952 55.5461C29.0912 55.2745 29.5421 55.26 29.8515 55.5194L32.7532 57.9383H35.9329L37.7749 55.6336C37.9142 55.4601 38.1185 55.3522 38.3408 55.3353C38.5602 55.3226 38.7807 55.3963 38.9438 55.546L41.5258 57.9383H43.719L45.3545 55.6662C45.4856 55.4834 45.6864 55.3644 45.9099 55.3395C46.1287 55.3035 46.3562 55.3818 46.5262 55.5269L49.3199 57.9388ZM65.6014 54.8007C65.6014 55.2423 65.9589 55.6004 66.4012 55.6004C66.8434 55.6004 67.2009 55.2424 67.2009 54.8007V53.2006C67.2009 52.7589 66.8434 52.4009 66.4012 52.4009C65.9595 52.4009 65.6014 52.7583 65.6014 53.2006V54.8007Z"/>
</mask>
<path fill-rule="evenodd" clip-rule="evenodd" d="M8.00136 10.7997L8.00193 26.7434C8.00065 26.762 8 26.7807 8 26.7996L8.00058 76.4001C8.00058 79.4876 10.5129 81.9999 13.6004 81.9999H77.5994C80.687 81.9999 83.1999 79.4876 83.1987 76.4001V26.8485C83.1993 26.8376 83.1998 26.8266 83.2 26.8156L83.2001 26.7994V10.7997C83.2001 10.3581 82.8426 10 82.4003 10H8.80108C8.35944 10 8.00136 10.3575 8.00136 10.7997ZM9.60084 76.3988V27.5991H81.6012L81.6006 76.3988C81.6006 78.6047 79.8061 80.3986 77.6007 80.3986H13.6007C11.3953 80.3986 9.60084 78.6053 9.60084 76.3988ZM9.60098 25.999H81.6016V11.5992H9.60098V25.999ZM16.8019 17.9998H13.6019V19.5999H16.8019V17.9998ZM20.0008 17.9998H23.2009V19.5999H20.0008V17.9998ZM29.6014 17.9998H26.4013V19.5999H29.6014V17.9998ZM34.4018 17.9998H76.0018V19.5999H34.4018V17.9998ZM70.5427 64.6951C70.6373 64.7061 70.7325 64.7107 70.8271 64.7107L70.8268 64.7112C71.5093 64.7112 72.1744 64.4582 72.6857 63.9968C73.2678 63.4722 73.6015 62.7206 73.6015 61.936V46.0641C73.6015 45.28 73.2678 44.5285 72.6863 44.0027C72.1036 43.478 71.3235 43.2157 70.5424 43.3045L55.4386 44.8685C54.0208 45.0153 52.9512 46.2033 52.9512 47.6281V48.4605H22.3578C22.1228 48.4605 21.8993 48.5632 21.7478 48.7431L17.7898 53.4121C17.542 53.7046 17.5361 54.1312 17.7758 54.4295L21.6299 59.2389C21.782 59.4281 22.0112 59.5389 22.2544 59.5389H26.5246C26.726 59.5389 26.9198 59.4623 27.0684 59.3265L29.3655 57.1984L31.9493 59.3533C32.0932 59.4734 32.2743 59.539 32.4617 59.539H36.3158C36.559 59.539 36.7888 59.4281 36.9409 59.2389L38.4863 57.3063L40.6673 59.3266C40.8159 59.4624 41.0097 59.539 41.2111 59.539H44.1274C44.3845 59.539 44.6271 59.416 44.7769 59.2065L46.1407 57.311L48.4999 59.3451C48.6455 59.4704 48.8312 59.5389 49.0228 59.5389H52.9512V60.3715C52.9512 61.7979 54.0209 62.9842 55.4404 63.1293L70.5427 64.6951ZM70.7069 44.8962C70.7487 44.8927 70.7905 44.8898 70.8317 44.8898L70.8317 44.8894C71.1213 44.8894 71.3958 44.9939 71.614 45.193C71.8642 45.4175 72.0017 45.7269 72.0017 46.0647V61.9365C72.0017 62.2737 71.8642 62.583 71.6152 62.8082C71.3656 63.0334 71.0418 63.1431 70.7081 63.1054L55.6043 61.5396H55.6026C55.0031 61.4769 54.551 60.9755 54.551 60.3725V47.6291C54.551 47.0261 55.0043 46.5229 55.6032 46.4602L70.7069 44.8962ZM49.3199 57.9388H52.9507V50.0605H22.7298L19.4386 53.9431L22.6405 57.9384H26.2132L28.7952 55.5461C29.0912 55.2745 29.5421 55.26 29.8515 55.5194L32.7532 57.9383H35.9329L37.7749 55.6336C37.9142 55.4601 38.1185 55.3522 38.3408 55.3353C38.5602 55.3226 38.7807 55.3963 38.9438 55.546L41.5258 57.9383H43.719L45.3545 55.6662C45.4856 55.4834 45.6864 55.3644 45.9099 55.3395C46.1287 55.3035 46.3562 55.3818 46.5262 55.5269L49.3199 57.9388ZM65.6014 54.8007C65.6014 55.2423 65.9589 55.6004 66.4012 55.6004C66.8434 55.6004 67.2009 55.2424 67.2009 54.8007V53.2006C67.2009 52.7589 66.8434 52.4009 66.4012 52.4009C65.9595 52.4009 65.6014 52.7583 65.6014 53.2006V54.8007Z" fill="url(#paint0_linear_2659_21683)"/>
<path d="M8.00193 26.7434L8.20193 26.7573L8.20193 26.7434L8.00193 26.7434ZM8.00136 10.7997H7.80136V10.7997L8.00136 10.7997ZM8 26.7996H7.8V26.7996L8 26.7996ZM8.00058 76.4001H8.20058H8.00058ZM83.1987 76.4001H82.9987V76.4002L83.1987 76.4001ZM83.1987 26.8485L82.9987 26.837V26.8485H83.1987ZM83.2 26.8156L83.3999 26.8191L83.4 26.817L83.2 26.8156ZM83.2001 26.7994L83.4001 26.8008V26.7994H83.2001ZM9.60084 27.5991V27.3991H9.40084V27.5991H9.60084ZM81.6012 27.5991L81.8012 27.5991L81.8012 27.3991H81.6012V27.5991ZM81.6006 76.3988H81.4006H81.6006ZM81.6016 25.999V26.199H81.8016V25.999H81.6016ZM9.60098 25.999H9.40098V26.199H9.60098V25.999ZM81.6016 11.5992H81.8016V11.3992H81.6016V11.5992ZM9.60098 11.5992V11.3992H9.40098V11.5992H9.60098ZM13.6019 17.9998V17.7998H13.4019V17.9998H13.6019ZM16.8019 17.9998H17.0019V17.7998H16.8019V17.9998ZM13.6019 19.5999H13.4019V19.7999H13.6019V19.5999ZM16.8019 19.5999V19.7999H17.0019V19.5999H16.8019ZM23.2009 17.9998H23.4009V17.7998H23.2009V17.9998ZM20.0008 17.9998V17.7998H19.8008V17.9998H20.0008ZM23.2009 19.5999V19.7999H23.4009V19.5999H23.2009ZM20.0008 19.5999H19.8008V19.7999H20.0008V19.5999ZM26.4013 17.9998V17.7998H26.2013V17.9998H26.4013ZM29.6014 17.9998H29.8014V17.7998H29.6014V17.9998ZM26.4013 19.5999H26.2013V19.7999H26.4013V19.5999ZM29.6014 19.5999V19.7999H29.8014V19.5999H29.6014ZM76.0018 17.9998H76.2018V17.7998H76.0018V17.9998ZM34.4018 17.9998V17.7998H34.2018V17.9998H34.4018ZM76.0018 19.5999V19.7999H76.2018V19.5999H76.0018ZM34.4018 19.5999H34.2018V19.7999H34.4018V19.5999ZM70.8271 64.7107L70.9997 64.8117L71.1757 64.5107H70.8271V64.7107ZM70.5427 64.6951L70.5658 64.4964L70.5633 64.4961L70.5427 64.6951ZM70.8268 64.7112L70.6541 64.6103L70.4782 64.9112H70.8268V64.7112ZM72.6857 63.9968L72.5518 63.8482L72.5517 63.8483L72.6857 63.9968ZM72.6863 44.0027L72.8204 43.8543L72.8201 43.854L72.6863 44.0027ZM70.5424 43.3045L70.563 43.5034L70.565 43.5032L70.5424 43.3045ZM55.4386 44.8685L55.4592 45.0674H55.4592L55.4386 44.8685ZM52.9512 48.4605V48.6605H53.1512V48.4605H52.9512ZM21.7478 48.7431L21.9004 48.8725L21.9008 48.8719L21.7478 48.7431ZM17.7898 53.4121L17.6372 53.2828L17.6372 53.2828L17.7898 53.4121ZM17.7758 54.4295L17.9319 54.3044L17.9317 54.3042L17.7758 54.4295ZM21.6299 59.2389L21.4739 59.364L21.474 59.3642L21.6299 59.2389ZM27.0684 59.3265L27.2034 59.4742L27.2043 59.4732L27.0684 59.3265ZM29.3655 57.1984L29.4936 57.0448L29.3585 56.9322L29.2296 57.0517L29.3655 57.1984ZM31.9493 59.3533L32.0774 59.1997L32.0774 59.1997L31.9493 59.3533ZM36.9409 59.2389L37.0968 59.3642L37.0971 59.3639L36.9409 59.2389ZM38.4863 57.3063L38.6222 57.1596L38.4644 57.0135L38.3301 57.1814L38.4863 57.3063ZM40.6673 59.3266L40.5314 59.4733L40.5324 59.4742L40.6673 59.3266ZM44.7769 59.2065L44.6145 59.0897L44.6141 59.0902L44.7769 59.2065ZM46.1407 57.311L46.2713 57.1595L46.1059 57.0169L45.9784 57.1942L46.1407 57.311ZM48.4999 59.3451L48.3693 59.4966L48.3694 59.4967L48.4999 59.3451ZM52.9512 59.5389H53.1512V59.3389H52.9512V59.5389ZM55.4404 63.1293L55.461 62.9303L55.4607 62.9303L55.4404 63.1293ZM70.8317 44.8898V45.0898H71.0225L71.0315 44.8993L70.8317 44.8898ZM70.7069 44.8962L70.6903 44.6969L70.6863 44.6973L70.7069 44.8962ZM70.8317 44.8894V44.6894H70.6409L70.6319 44.88L70.8317 44.8894ZM71.614 45.193L71.4792 45.3407L71.4804 45.3418L71.614 45.193ZM71.6152 62.8082L71.7492 62.9567L71.7493 62.9566L71.6152 62.8082ZM70.7081 63.1054L70.7306 62.9066L70.7287 62.9064L70.7081 63.1054ZM55.6043 61.5396L55.625 61.3406L55.6147 61.3396H55.6043V61.5396ZM55.6026 61.5396L55.5818 61.7385L55.5922 61.7396H55.6026V61.5396ZM55.6032 46.4602L55.5826 46.2613L55.5824 46.2613L55.6032 46.4602ZM52.9507 57.9388V58.1388H53.1507V57.9388H52.9507ZM49.3199 57.9388L49.1892 58.0902L49.2455 58.1388H49.3199V57.9388ZM52.9507 50.0605H53.1507V49.8605H52.9507V50.0605ZM22.7298 50.0605V49.8605H22.6371L22.5772 49.9312L22.7298 50.0605ZM19.4386 53.9431L19.2861 53.8138L19.1795 53.9396L19.2826 54.0682L19.4386 53.9431ZM22.6405 57.9384L22.4844 58.0634L22.5445 58.1384H22.6405V57.9384ZM26.2132 57.9384V58.1384H26.2916L26.3491 58.0851L26.2132 57.9384ZM28.7952 55.5461L28.66 55.3987L28.6593 55.3994L28.7952 55.5461ZM29.8515 55.5194L29.723 55.6726L29.7234 55.673L29.8515 55.5194ZM32.7532 57.9383L32.6252 58.0919L32.6808 58.1383H32.7532V57.9383ZM35.9329 57.9383V58.1383H36.0291L36.0892 58.0631L35.9329 57.9383ZM37.7749 55.6336L37.619 55.5084L37.6187 55.5088L37.7749 55.6336ZM38.3408 55.3353L38.3292 55.1356L38.3257 55.1359L38.3408 55.3353ZM38.9438 55.546L39.0797 55.3993L39.079 55.3987L38.9438 55.546ZM41.5258 57.9383L41.3899 58.085L41.4474 58.1383H41.5258V57.9383ZM43.719 57.9383V58.1383H43.8215L43.8813 58.0551L43.719 57.9383ZM45.3545 55.6662L45.5168 55.783L45.517 55.7828L45.3545 55.6662ZM45.9099 55.3395L45.9321 55.5385L45.9423 55.5368L45.9099 55.3395ZM46.5262 55.5269L46.6569 55.3755L46.656 55.3748L46.5262 55.5269ZM8.20193 26.7434L8.20136 10.7997L7.80136 10.7997L7.80193 26.7435L8.20193 26.7434ZM8.2 26.7996C8.2 26.7853 8.20049 26.7712 8.20146 26.7572L7.80241 26.7296C7.80081 26.7528 7.8 26.7761 7.8 26.7996H8.2ZM8.20058 76.4001L8.2 26.7996L7.8 26.7996L7.80058 76.4001H8.20058ZM13.6004 81.7999C10.6234 81.7999 8.20058 79.3771 8.20058 76.4001H7.80058C7.80058 79.598 10.4025 82.1999 13.6004 82.1999V81.7999ZM77.5994 81.7999H13.6004V82.1999H77.5994V81.7999ZM82.9987 76.4002C82.9998 79.3771 80.5766 81.7999 77.5994 81.7999V82.1999C80.7974 82.1999 83.3999 79.598 83.3987 76.4L82.9987 76.4002ZM82.9987 26.8485V76.4001H83.3987V26.8485H82.9987ZM83 26.812C82.9998 26.8204 82.9995 26.8288 82.999 26.837L83.3984 26.8601C83.3992 26.8464 83.3997 26.8328 83.3999 26.8191L83 26.812ZM83.0001 26.798L83 26.8141L83.4 26.817L83.4001 26.8008L83.0001 26.798ZM83.0001 10.7997V26.7994H83.4001V10.7997H83.0001ZM82.4003 10.2C82.732 10.2 83.0001 10.4684 83.0001 10.7997H83.4001C83.4001 10.2477 82.9531 9.8 82.4003 9.8V10.2ZM8.80108 10.2H82.4003V9.8H8.80108V10.2ZM8.20136 10.7997C8.20136 10.468 8.4698 10.2 8.80108 10.2V9.8C8.24908 9.8 7.80136 10.2469 7.80136 10.7997H8.20136ZM9.40084 27.5991V76.3988H9.80084V27.5991H9.40084ZM81.6012 27.3991H9.60084V27.7991H81.6012V27.3991ZM81.8006 76.3988L81.8012 27.5991L81.4012 27.5991L81.4006 76.3988H81.8006ZM77.6007 80.5986C79.9166 80.5986 81.8006 78.7152 81.8006 76.3988H81.4006C81.4006 78.4943 79.6957 80.1986 77.6007 80.1986V80.5986ZM13.6007 80.5986H77.6007V80.1986H13.6007V80.5986ZM9.40084 76.3988C9.40084 78.7158 11.2849 80.5986 13.6007 80.5986V80.1986C11.5057 80.1986 9.80084 78.4948 9.80084 76.3988H9.40084ZM81.6016 25.799H9.60098V26.199H81.6016V25.799ZM81.4016 11.5992V25.999H81.8016V11.5992H81.4016ZM9.60098 11.7992H81.6016V11.3992H9.60098V11.7992ZM9.80098 25.999V11.5992H9.40098V25.999H9.80098ZM13.6019 18.1998H16.8019V17.7998H13.6019V18.1998ZM13.8019 19.5999V17.9998H13.4019V19.5999H13.8019ZM16.8019 19.3999H13.6019V19.7999H16.8019V19.3999ZM16.6019 17.9998V19.5999H17.0019V17.9998H16.6019ZM23.2009 17.7998H20.0008V18.1998H23.2009V17.7998ZM23.4009 19.5999V17.9998H23.0009V19.5999H23.4009ZM20.0008 19.7999H23.2009V19.3999H20.0008V19.7999ZM19.8008 17.9998V19.5999H20.2008V17.9998H19.8008ZM26.4013 18.1998H29.6014V17.7998H26.4013V18.1998ZM26.6013 19.5999V17.9998H26.2013V19.5999H26.6013ZM29.6014 19.3999H26.4013V19.7999H29.6014V19.3999ZM29.4014 17.9998V19.5999H29.8014V17.9998H29.4014ZM76.0018 17.7998H34.4018V18.1998H76.0018V17.7998ZM76.2018 19.5999V17.9998H75.8018V19.5999H76.2018ZM34.4018 19.7999H76.0018V19.3999H34.4018V19.7999ZM34.2018 17.9998V19.5999H34.6019V17.9998H34.2018ZM70.8271 64.5107C70.7389 64.5107 70.6516 64.5064 70.5658 64.4964L70.5195 64.8937C70.623 64.9058 70.726 64.9107 70.8271 64.9107V64.5107ZM70.9994 64.8122L70.9997 64.8117L70.6544 64.6098L70.6541 64.6103L70.9994 64.8122ZM72.5517 63.8483C72.0774 64.2763 71.4601 64.5112 70.8268 64.5112V64.9112C71.5585 64.9112 72.2714 64.64 72.8197 64.1453L72.5517 63.8483ZM73.4015 61.936C73.4015 62.6641 73.0917 63.3617 72.5518 63.8482L72.8196 64.1454C73.4439 63.5827 73.8015 62.7771 73.8015 61.936H73.4015ZM73.4015 46.0641V61.936H73.8015V46.0641H73.4015ZM72.5521 44.151C73.0917 44.6389 73.4015 45.3366 73.4015 46.0641H73.8015C73.8015 45.2235 73.4439 44.418 72.8204 43.8543L72.5521 44.151ZM70.565 43.5032C71.2871 43.4211 72.0107 43.6635 72.5525 44.1513L72.8201 43.854C72.1965 43.2926 71.36 43.0103 70.5198 43.1058L70.565 43.5032ZM55.4592 45.0674L70.563 43.5034L70.5218 43.1056L55.418 44.6696L55.4592 45.0674ZM53.1512 47.6281C53.1512 46.3056 54.1435 45.2037 55.4592 45.0674L55.418 44.6696C53.8982 44.8269 52.7512 46.101 52.7512 47.6281H53.1512ZM53.1512 48.4605V47.6281H52.7512V48.4605H53.1512ZM22.3578 48.6605H52.9512V48.2605H22.3578V48.6605ZM21.9008 48.8719C22.0139 48.7377 22.1811 48.6605 22.3578 48.6605V48.2605C22.0645 48.2605 21.7848 48.3887 21.5949 48.6143L21.9008 48.8719ZM17.9423 53.5415L21.9004 48.8725L21.5953 48.6138L17.6372 53.2828L17.9423 53.5415ZM17.9317 54.3042C17.7522 54.0808 17.7563 53.761 17.9424 53.5414L17.6372 53.2828C17.3276 53.6483 17.3201 54.1816 17.6199 54.5548L17.9317 54.3042ZM21.786 59.1138L17.9319 54.3044L17.6198 54.5546L21.4739 59.364L21.786 59.1138ZM22.2544 59.3389C22.0723 59.3389 21.9002 59.256 21.7858 59.1136L21.474 59.3642C21.6637 59.6002 21.9501 59.7389 22.2544 59.7389V59.3389ZM26.5246 59.3389H22.2544V59.7389H26.5246V59.3389ZM26.9335 59.1789C26.8211 59.2816 26.6752 59.3389 26.5246 59.3389V59.7389C26.7768 59.7389 27.0186 59.643 27.2034 59.4742L26.9335 59.1789ZM29.2296 57.0517L26.9325 59.1798L27.2043 59.4732L29.5014 57.3451L29.2296 57.0517ZM32.0774 59.1997L29.4936 57.0448L29.2374 57.352L31.8212 59.5069L32.0774 59.1997ZM32.4617 59.339C32.3211 59.339 32.1854 59.2898 32.0774 59.1997L31.8211 59.5068C32.001 59.657 32.2275 59.739 32.4617 59.739V59.339ZM36.3158 59.339H32.4617V59.739H36.3158V59.339ZM36.785 59.1137C36.6707 59.2559 36.4981 59.339 36.3158 59.339V59.739C36.6199 59.739 36.907 59.6004 37.0968 59.3642L36.785 59.1137ZM38.3301 57.1814L36.7847 59.114L37.0971 59.3639L38.6425 57.4312L38.3301 57.1814ZM40.8032 59.1799L38.6222 57.1596L38.3504 57.4531L40.5314 59.4733L40.8032 59.1799ZM41.2111 59.339C41.0606 59.339 40.9146 59.2817 40.8023 59.179L40.5324 59.4742C40.7172 59.6431 40.9589 59.739 41.2111 59.739V59.339ZM44.1274 59.339H41.2111V59.739H44.1274V59.339ZM44.6141 59.0902C44.5025 59.2464 44.3209 59.339 44.1274 59.339V59.739C44.4482 59.739 44.7518 59.5855 44.9396 59.3228L44.6141 59.0902ZM45.9784 57.1942L44.6145 59.0897L44.9392 59.3233L46.303 57.4278L45.9784 57.1942ZM48.6305 59.1936L46.2713 57.1595L46.0101 57.4625L48.3693 59.4966L48.6305 59.1936ZM49.0228 59.3389C48.8789 59.3389 48.7395 59.2875 48.6303 59.1935L48.3694 59.4967C48.5515 59.6534 48.7836 59.7389 49.0228 59.7389V59.3389ZM52.9512 59.3389H49.0228V59.7389H52.9512V59.3389ZM53.1512 60.3715V59.5389H52.7512V60.3715H53.1512ZM55.4607 62.9303C54.1434 62.7957 53.1512 61.6955 53.1512 60.3715H52.7512C52.7512 61.9004 53.8983 63.1727 55.4201 63.3282L55.4607 62.9303ZM70.5633 64.4961L55.461 62.9303L55.4198 63.3282L70.5221 64.894L70.5633 64.4961ZM70.8317 44.6898C70.7818 44.6898 70.7332 44.6933 70.6903 44.6969L70.7235 45.0955C70.7642 45.0921 70.7992 45.0898 70.8317 45.0898V44.6898ZM70.6319 44.88L70.6319 44.8804L71.0315 44.8993L71.0315 44.8988L70.6319 44.88ZM71.7488 45.0452C71.4935 44.8123 71.1708 44.6894 70.8317 44.6894V45.0894C71.0718 45.0894 71.2982 45.1755 71.4793 45.3407L71.7488 45.0452ZM72.2017 46.0647C72.2017 45.6704 72.0403 45.3069 71.7477 45.0441L71.4804 45.3418C71.6881 45.5282 71.8017 45.7833 71.8017 46.0647H72.2017ZM72.2017 61.9365V46.0647H71.8017V61.9365H72.2017ZM71.7493 62.9566C72.0403 62.6934 72.2017 62.3302 72.2017 61.9365H71.8017C71.8017 62.2172 71.6881 62.4727 71.481 62.6599L71.7493 62.9566ZM70.6856 63.3041C71.0787 63.3485 71.4589 63.2186 71.7492 62.9567L71.4812 62.6597C71.2724 62.8482 71.0049 62.9376 70.7306 62.9066L70.6856 63.3041ZM55.5837 61.7385L70.6875 63.3043L70.7287 62.9064L55.625 61.3406L55.5837 61.7385ZM55.6026 61.7396H55.6043V61.3396H55.6026V61.7396ZM54.351 60.3725C54.351 61.0779 54.8805 61.6652 55.5818 61.7385L55.6234 61.3407C55.1257 61.2886 54.751 60.873 54.751 60.3725H54.351ZM54.351 47.6291V60.3725H54.751V47.6291H54.351ZM55.5824 46.2613C54.8815 46.3347 54.351 46.9238 54.351 47.6291H54.751C54.751 47.1284 55.127 46.7112 55.624 46.6591L55.5824 46.2613ZM70.6863 44.6973L55.5826 46.2613L55.6238 46.6592L70.7275 45.0951L70.6863 44.6973ZM52.9507 57.7388H49.3199V58.1388H52.9507V57.7388ZM52.7507 50.0605V57.9388H53.1507V50.0605H52.7507ZM22.7298 50.2605H52.9507V49.8605H22.7298V50.2605ZM19.5912 54.0725L22.8824 50.1898L22.5772 49.9312L19.2861 53.8138L19.5912 54.0725ZM22.7966 57.8133L19.5947 53.8181L19.2826 54.0682L22.4844 58.0634L22.7966 57.8133ZM26.2132 57.7384H22.6405V58.1384H26.2132V57.7384ZM28.6593 55.3994L26.0773 57.7917L26.3491 58.0851L28.9311 55.6928L28.6593 55.3994ZM29.98 55.3661C29.5924 55.0411 29.0286 55.0604 28.66 55.3987L28.9304 55.6934C29.1538 55.4885 29.4919 55.4789 29.723 55.6726L29.98 55.3661ZM32.8813 57.7846L29.9795 55.3658L29.7234 55.673L32.6252 58.0919L32.8813 57.7846ZM35.9329 57.7383H32.7532V58.1383H35.9329V57.7383ZM37.6187 55.5088L35.7767 57.8134L36.0892 58.0631L37.9312 55.7585L37.6187 55.5088ZM38.3257 55.1359C38.0481 55.1569 37.7928 55.2918 37.619 55.5084L37.9309 55.7588C38.0356 55.6284 38.1889 55.5474 38.3559 55.5348L38.3257 55.1359ZM39.079 55.3987C38.874 55.2104 38.5997 55.1199 38.3292 55.1357L38.3524 55.535C38.5206 55.5252 38.6874 55.5821 38.8085 55.6933L39.079 55.3987ZM41.6617 57.7916L39.0797 55.3993L38.8078 55.6927L41.3899 58.085L41.6617 57.7916ZM43.719 57.7383H41.5258V58.1383H43.719V57.7383ZM45.1922 55.5494L43.5567 57.8215L43.8813 58.0551L45.5168 55.783L45.1922 55.5494ZM45.8877 55.1407C45.6072 55.172 45.3557 55.3214 45.192 55.5496L45.517 55.7828C45.6156 55.6453 45.7657 55.5568 45.9321 55.5382L45.8877 55.1407ZM46.656 55.3748C46.4489 55.1981 46.1637 55.095 45.8774 55.1421L45.9423 55.5368C46.0937 55.5119 46.2634 55.5656 46.3964 55.6791L46.656 55.3748ZM49.4506 57.7874L46.6569 55.3755L46.3955 55.6783L49.1892 58.0902L49.4506 57.7874ZM66.4012 55.4004C66.0695 55.4004 65.8014 55.132 65.8014 54.8007H65.4014C65.4014 55.3527 65.8484 55.8004 66.4012 55.8004V55.4004ZM67.0009 54.8007C67.0009 55.132 66.7328 55.4004 66.4012 55.4004V55.8004C66.9539 55.8004 67.4009 55.3527 67.4009 54.8007H67.0009ZM67.0009 53.2006V54.8007H67.4009V53.2006H67.0009ZM66.4012 52.6009C66.7328 52.6009 67.0009 52.8693 67.0009 53.2006H67.4009C67.4009 52.6486 66.954 52.2009 66.4012 52.2009V52.6009ZM65.8014 53.2006C65.8014 52.8689 66.0699 52.6009 66.4012 52.6009V52.2009C65.8492 52.2009 65.4014 52.6478 65.4014 53.2006H65.8014ZM65.8014 54.8007V53.2006H65.4014V54.8007H65.8014Z" fill="url(#paint1_linear_2659_21683)" mask="url(#path-1-outside-1_2659_21683)"/>
<defs>
<linearGradient id="paint0_linear_2659_21683" x1="45.6" y1="10" x2="45.6" y2="82" gradientUnits="userSpaceOnUse">
<stop stop-color="#52ADD7"/>
<stop offset="1" stop-color="#52ADD7"/>
</linearGradient>
<linearGradient id="paint1_linear_2659_21683" x1="10" y1="11.5" x2="79" y2="80" gradientUnits="userSpaceOnUse">
<stop stop-color="#52ADD7"/>
<stop offset="1" stop-color="#52ADD7"/>
</linearGradient>
</defs>
</svg>
