<svg width="92" height="92" viewBox="0 0 92 92" fill="none" xmlns="http://www.w3.org/2000/svg">
<path d="M18.5763 29.2079C16.9897 30.7946 16.1157 32.9037 16.1157 35.148C16.1157 37.3914 16.9897 39.5013 18.5763 41.088C20.163 42.6746 22.2721 43.5486 24.5164 43.5486C26.7605 43.5486 28.8697 42.6746 30.4564 41.088C32.043 39.5013 32.917 37.3922 32.917 35.148C32.917 32.9039 32.043 30.794 30.4564 29.2079C28.8697 27.6213 26.7606 26.7473 24.5164 26.7473C22.2729 26.7473 20.163 27.6207 18.5763 29.2079ZM32.0573 35.148C32.0573 37.1617 31.2727 39.0549 29.8486 40.4797C28.4245 41.9038 26.5307 42.6885 24.5162 42.6885C22.5019 42.6885 20.6087 41.9038 19.1839 40.4797C17.7598 39.0556 16.9751 37.1618 16.9751 35.148C16.9751 33.1336 17.7597 31.2398 19.1839 29.8156C20.608 28.3915 22.5017 27.6068 24.5162 27.6068C26.5306 27.6068 28.4238 28.3915 29.8486 29.8156C31.2727 31.2397 32.0573 33.1334 32.0573 35.148Z" fill="url(#paint0_linear_2659_21586)"/>
<path d="M71.2089 39.9944C70.9942 39.8702 70.714 39.8072 70.3691 39.8072H70.2785V38.0784H68.5587V39.8072H68.1658V38.0784H66.4459V39.8072H66.206C65.8611 39.8072 65.5773 39.8696 65.356 39.9944C65.134 40.1186 65.023 40.2794 65.023 40.4755V42.3837C65.023 42.6447 65.1814 42.8828 65.4981 43.0994L70.062 46.2409V48.4857H66.491V46.1683H65.0225V48.5577C65.0225 48.7544 65.1334 48.9152 65.3554 49.0394C65.5773 49.1636 65.8605 49.2259 66.2054 49.2259H66.446V50.6968H68.1658V49.2259H68.5587V50.6968H70.2785V49.2259H70.3691C70.714 49.2259 70.9942 49.1635 71.2089 49.0394C71.4237 48.9152 71.5317 48.7544 71.5317 48.5577V46.3789C71.5317 46.1179 71.3799 45.8833 71.0776 45.6746L66.4922 42.5331V40.5468H70.0632V42.665H71.5324V40.4742C71.5312 40.2786 71.4238 40.1184 71.209 39.9943L71.2089 39.9944Z" fill="url(#paint1_linear_2659_21586)"/>
<path d="M73.9625 38.5803C72.3758 36.9936 70.2667 36.1196 68.0225 36.1196C65.7782 36.1196 63.6685 36.9936 62.0825 38.5803C58.8072 41.8556 58.8072 47.1848 62.0825 50.4601C63.6691 52.0468 65.7782 52.9203 68.0225 52.9203C70.2659 52.9203 72.3758 52.0463 73.9625 50.4601C77.2378 47.1854 77.2378 41.8556 73.9625 38.5803ZM73.3548 49.8525C71.9307 51.2766 70.037 52.0606 68.0231 52.0606C66.0087 52.0606 64.1149 51.276 62.6907 49.8525C59.7507 46.9124 59.7507 42.1284 62.6907 39.1885C64.1148 37.7644 66.0086 36.9798 68.0231 36.9798C70.0368 36.9798 71.93 37.7644 73.3548 39.1885C76.2949 42.1286 76.2949 46.9126 73.3548 49.8525Z" fill="url(#paint2_linear_2659_21586)"/>
<path d="M79.8363 60.5083V54.6163H74.1423C74.9425 54.1292 75.6965 53.5551 76.3756 52.8755C80.982 48.269 80.982 40.7735 76.3756 36.1672C74.4968 34.2885 72.0943 33.1312 69.4993 32.8086V29.4559L76.0967 30.7924L77.1933 25.3803L49.8919 19.8494V17.2255H42.9946V18.4523L16.7897 13.1428L15.6925 18.5549L23.3614 20.1085V23.3904C20.6422 23.6526 18.119 24.8379 16.1623 26.7947C13.9308 29.0262 12.7016 31.9933 12.7016 35.1491C12.7016 38.305 13.9308 41.2721 16.1623 43.5029C17.1917 44.5323 18.383 45.3379 19.6721 45.9181H12.7015V54.3638H9.03564L12.9834 64.0361H36.0893L39.319 54.3638H36.3298V45.9181H29.3592C30.6483 45.3374 31.8396 44.5324 32.869 43.5029C35.1005 41.2721 36.3296 38.305 36.3296 35.1491C36.3296 31.9933 35.1005 29.0262 32.869 26.7947C30.7718 24.6976 28.022 23.5002 25.0795 23.3617L25.0801 20.4571L42.9923 24.087V78.8571L49.8897 78.8565V25.4839L67.7773 29.1084V32.7197C64.7125 32.7815 61.8397 33.9944 59.6658 36.1684C55.0594 40.7748 55.0594 48.2703 59.6658 52.8766C60.3449 53.5557 61.0989 54.1298 61.8992 54.6175L56.2052 54.6163V63.1117H52.8345L56.7823 72.7846H79.8882L83.1179 63.1117H79.8335L79.8363 60.5083ZM36.9324 56.0837L34.8514 62.3158L14.1381 62.3164L11.5941 56.0836H12.7002V56.1352H36.3298V56.0836L36.9324 56.0837ZM14.4208 54.3638V51.9637H34.6104V54.3638H14.4208ZM34.6104 50.0897H14.4208V47.6374H34.6104V50.0897ZM34.6104 35.1486C34.6104 37.8451 33.56 40.3801 31.6536 42.2865C29.7466 44.1929 27.2115 45.2433 24.5158 45.2433C21.8193 45.2433 19.2843 44.1929 17.3779 42.2865C15.4715 40.3801 14.4211 37.845 14.4211 35.1486C14.4211 32.4523 15.4715 29.9172 17.3779 28.0108C19.2849 26.1044 21.82 25.054 24.5158 25.054C27.2123 25.054 29.7472 26.1043 31.6536 28.0108C33.5606 29.9172 34.6104 32.4523 34.6104 35.1486ZM17.7194 17.2103L18.1328 15.1696L42.9939 20.2067V22.3309L17.7194 17.2103ZM48.172 77.1372H44.7143V18.9456H48.172V77.1372ZM49.8918 21.6054L75.1661 26.726L74.7528 28.7662L49.8916 23.7296L49.8918 21.6054ZM60.8839 51.6603C56.9481 47.7245 56.9481 41.3196 60.8839 37.3838C62.7909 35.4774 65.326 34.427 68.0218 34.427C70.7183 34.427 73.2526 35.4774 75.1596 37.3838C79.0954 41.3196 79.0954 47.7245 75.1596 51.6603C73.2526 53.5667 70.7181 54.6171 68.0218 54.6171C65.3259 54.6165 62.7909 53.5667 60.8839 51.6603ZM57.9277 56.3369H78.1158V58.7886H57.9277V56.3369ZM57.9277 60.662H78.1158V63.1119H57.9277V60.662ZM80.7326 64.8317L78.6516 71.0644H57.9399L55.3965 64.8317H56.2069V64.8341H79.8364V64.8317H80.7326Z" fill="url(#paint3_linear_2659_21586)"/>
<path d="M23.9296 28.8072V30.4731H23.0897C22.1587 30.4731 21.6392 30.8012 21.2283 31.641L20.1162 33.8923C19.8744 34.3788 19.7778 34.7076 19.7778 35.2433C19.7778 35.7178 19.8984 36.1071 20.1042 36.521L21.2163 38.7843C21.6033 39.5755 22.1227 39.9402 23.0292 39.9402H23.9296V41.4867H25.1768V39.9402H26.0772C26.9836 39.9402 27.5031 39.5755 27.8901 38.7843L28.6627 37.2114H27.3154L26.8391 38.188C26.6111 38.6583 26.4863 38.7171 26.0172 38.7225V38.7201H23.1085L23.0899 38.7207V38.7231C22.6208 38.7177 22.496 38.6589 22.2681 38.1886L21.2411 36.0831C21.0959 35.7909 20.9873 35.584 20.9873 35.2432C20.9873 34.8659 21.0839 34.647 21.2411 34.3182L22.2927 32.2007C22.5164 31.7502 22.6052 31.6932 23.0905 31.6902V31.6932H26.0174V31.6902C26.502 31.6926 26.5914 31.7502 26.8152 32.2007L27.2531 33.0819H28.5908L27.8794 31.641C27.4685 30.8012 26.949 30.473 26.018 30.473H25.1775V28.8071L23.9296 28.8072Z" fill="url(#paint4_linear_2659_21586)"/>
<defs>
<linearGradient id="paint0_linear_2659_21586" x1="17.9787" y1="30.5276" x2="28.3954" y2="43.5215" gradientUnits="userSpaceOnUse">
<stop stop-color="#52ADD7"/>
<stop offset="1" stop-color="#52ADD7"/>
</linearGradient>
<linearGradient id="paint1_linear_2659_21586" x1="65.7443" y1="40.9175" x2="73.0394" y2="45.6122" gradientUnits="userSpaceOnUse">
<stop stop-color="#52ADD7"/>
<stop offset="1" stop-color="#52ADD7"/>
</linearGradient>
<linearGradient id="paint2_linear_2659_21586" x1="61.488" y1="39.8998" x2="71.9054" y2="52.8886" gradientUnits="userSpaceOnUse">
<stop stop-color="#52ADD7"/>
<stop offset="1" stop-color="#52ADD7"/>
</linearGradient>
<linearGradient id="paint3_linear_2659_21586" x1="17.2499" y1="27.9285" x2="56.6785" y2="83.375" gradientUnits="userSpaceOnUse">
<stop stop-color="#52ADD7"/>
<stop offset="1" stop-color="#52ADD7"/>
</linearGradient>
<linearGradient id="paint4_linear_2659_21586" x1="20.763" y1="31.66" x2="28.7448" y2="38.6368" gradientUnits="userSpaceOnUse">
<stop stop-color="#52ADD7"/>
<stop offset="1" stop-color="#52ADD7"/>
</linearGradient>
</defs>
</svg>
