<svg width="92" height="92" viewBox="0 0 92 92" fill="none" xmlns="http://www.w3.org/2000/svg">
<mask id="path-1-inside-1_2659_21614" fill="white">
<path fill-rule="evenodd" clip-rule="evenodd" d="M44.6089 11.2481C44.6089 10.4804 45.2313 9.85797 45.999 9.85797L45.9998 9.85718C55.5859 9.85718 64.7789 13.6651 71.5568 20.443C78.3347 27.2219 82.1426 36.414 82.1426 46C82.1426 55.5861 78.3347 64.7791 71.5568 71.5571C64.7779 78.335 55.5859 82.1429 45.9998 82.1429C36.4137 82.1429 27.2207 78.335 20.4428 71.5571C13.6648 64.7782 9.85693 55.5855 9.85693 46C9.85693 45.2324 10.4794 44.6099 11.247 44.6099C12.0147 44.6099 12.6371 45.2324 12.6371 46C12.6371 54.8478 16.1521 63.3336 22.4087 69.5903C28.6649 75.847 37.1512 79.3619 45.999 79.3619C54.8468 79.3619 63.3326 75.847 69.5892 69.5903C75.8459 63.3341 79.3609 54.8478 79.3609 46C79.3609 37.1522 75.8459 28.6665 69.5892 22.4098C63.333 16.1531 54.8471 12.6382 45.999 12.6382C45.2313 12.6382 44.6089 12.0157 44.6089 11.2481ZM63.6921 63.6938C58.9994 68.3859 52.6354 71.0222 45.999 71.0222C39.3628 71.0222 32.9987 68.3859 28.3059 63.6938C23.6137 59.0011 20.9775 52.6369 20.9775 46.0007C20.9775 39.3645 23.6137 33.0004 28.3059 28.3076C32.9985 23.6154 39.3628 20.9792 45.999 20.9792C52.6352 20.9792 58.9993 23.6154 63.6921 28.3076C68.3842 33.0002 71.0205 39.3645 71.0205 46.0007C71.0205 52.6369 68.3842 59.001 63.6921 63.6938ZM61.7262 30.2733C57.5547 26.1024 51.8976 23.7591 45.999 23.7591C40.1004 23.7591 34.4433 26.1024 30.2717 30.2733C26.1008 34.4448 23.7575 40.1019 23.7575 46.0005C23.7575 51.8991 26.1008 57.5562 30.2717 61.7278C34.4433 65.8987 40.1004 68.242 45.999 68.242C51.8976 68.242 57.5547 65.8987 61.7262 61.7278C65.8971 57.5562 68.2404 51.8991 68.2404 46.0005C68.2404 40.1019 65.8971 34.4448 61.7262 30.2733ZM30.9034 16.1137C31.1125 16.115 31.3198 16.0672 31.5078 15.9747C32.1446 15.6663 32.448 14.9291 32.2128 14.262C31.9782 13.5949 31.2801 13.2107 30.5906 13.369C29.9012 13.5272 29.4407 14.1782 29.5207 14.8813C29.6008 15.5838 30.1959 16.1144 30.9034 16.1138L30.9034 16.1137ZM38.5491 13.4723C38.4485 13.494 38.3455 13.5052 38.2431 13.507C37.5052 13.5089 36.8946 12.9336 36.8524 12.197C36.8096 11.4604 37.3501 10.8193 38.083 10.7355C38.8159 10.6524 39.4867 11.1563 39.6102 11.8836C39.7343 12.6109 39.2683 13.3085 38.5491 13.4723ZM24.3199 20.2274C24.6358 20.2274 24.9424 20.1194 25.1888 19.9221C25.7175 19.4976 25.8633 18.7548 25.5338 18.1622C25.2049 17.5701 24.4968 17.3014 23.8576 17.5261C23.2184 17.7513 22.8343 18.4042 22.9491 19.0726C23.0633 19.7403 23.6423 20.2281 24.3199 20.2274L24.3199 20.2274ZM14.6796 32.3146C14.4698 32.3171 14.2626 32.2693 14.0745 32.1756L14.0745 32.1756C13.3838 31.8417 13.0946 31.0108 13.4285 30.32C13.7624 29.6293 14.5933 29.3402 15.284 29.6734C15.8674 29.9558 16.1776 30.6036 16.0331 31.2348C15.8885 31.8665 15.3275 32.314 14.6796 32.3146ZM11.8028 39.6205C11.9064 39.6341 12.0119 39.6341 12.1156 39.6205C12.7604 39.618 13.3189 39.1718 13.4641 38.5432C13.5907 37.9952 13.3747 37.4242 12.9161 37.0978C12.4575 36.7714 11.8475 36.7534 11.3709 37.0525C10.8937 37.3516 10.6448 37.9089 10.7391 38.4637C10.8341 39.0185 11.2536 39.4616 11.8028 39.5857V39.6205ZM18.8229 25.7332C18.507 25.7326 18.2004 25.6252 17.9541 25.4273L17.9541 25.4272C17.3534 24.9476 17.2554 24.0713 17.7351 23.4706C18.2147 22.8699 19.091 22.7718 19.6917 23.2515C20.1577 23.6195 20.339 24.242 20.1429 24.8024C19.9461 25.3628 19.4162 25.7363 18.8229 25.7332Z"/>
</mask>
<path fill-rule="evenodd" clip-rule="evenodd" d="M44.6089 11.2481C44.6089 10.4804 45.2313 9.85797 45.999 9.85797L45.9998 9.85718C55.5859 9.85718 64.7789 13.6651 71.5568 20.443C78.3347 27.2219 82.1426 36.414 82.1426 46C82.1426 55.5861 78.3347 64.7791 71.5568 71.5571C64.7779 78.335 55.5859 82.1429 45.9998 82.1429C36.4137 82.1429 27.2207 78.335 20.4428 71.5571C13.6648 64.7782 9.85693 55.5855 9.85693 46C9.85693 45.2324 10.4794 44.6099 11.247 44.6099C12.0147 44.6099 12.6371 45.2324 12.6371 46C12.6371 54.8478 16.1521 63.3336 22.4087 69.5903C28.6649 75.847 37.1512 79.3619 45.999 79.3619C54.8468 79.3619 63.3326 75.847 69.5892 69.5903C75.8459 63.3341 79.3609 54.8478 79.3609 46C79.3609 37.1522 75.8459 28.6665 69.5892 22.4098C63.333 16.1531 54.8471 12.6382 45.999 12.6382C45.2313 12.6382 44.6089 12.0157 44.6089 11.2481ZM63.6921 63.6938C58.9994 68.3859 52.6354 71.0222 45.999 71.0222C39.3628 71.0222 32.9987 68.3859 28.3059 63.6938C23.6137 59.0011 20.9775 52.6369 20.9775 46.0007C20.9775 39.3645 23.6137 33.0004 28.3059 28.3076C32.9985 23.6154 39.3628 20.9792 45.999 20.9792C52.6352 20.9792 58.9993 23.6154 63.6921 28.3076C68.3842 33.0002 71.0205 39.3645 71.0205 46.0007C71.0205 52.6369 68.3842 59.001 63.6921 63.6938ZM61.7262 30.2733C57.5547 26.1024 51.8976 23.7591 45.999 23.7591C40.1004 23.7591 34.4433 26.1024 30.2717 30.2733C26.1008 34.4448 23.7575 40.1019 23.7575 46.0005C23.7575 51.8991 26.1008 57.5562 30.2717 61.7278C34.4433 65.8987 40.1004 68.242 45.999 68.242C51.8976 68.242 57.5547 65.8987 61.7262 61.7278C65.8971 57.5562 68.2404 51.8991 68.2404 46.0005C68.2404 40.1019 65.8971 34.4448 61.7262 30.2733ZM30.9034 16.1137C31.1125 16.115 31.3198 16.0672 31.5078 15.9747C32.1446 15.6663 32.448 14.9291 32.2128 14.262C31.9782 13.5949 31.2801 13.2107 30.5906 13.369C29.9012 13.5272 29.4407 14.1782 29.5207 14.8813C29.6008 15.5838 30.1959 16.1144 30.9034 16.1138L30.9034 16.1137ZM38.5491 13.4723C38.4485 13.494 38.3455 13.5052 38.2431 13.507C37.5052 13.5089 36.8946 12.9336 36.8524 12.197C36.8096 11.4604 37.3501 10.8193 38.083 10.7355C38.8159 10.6524 39.4867 11.1563 39.6102 11.8836C39.7343 12.6109 39.2683 13.3085 38.5491 13.4723ZM24.3199 20.2274C24.6358 20.2274 24.9424 20.1194 25.1888 19.9221C25.7175 19.4976 25.8633 18.7548 25.5338 18.1622C25.2049 17.5701 24.4968 17.3014 23.8576 17.5261C23.2184 17.7513 22.8343 18.4042 22.9491 19.0726C23.0633 19.7403 23.6423 20.2281 24.3199 20.2274L24.3199 20.2274ZM14.6796 32.3146C14.4698 32.3171 14.2626 32.2693 14.0745 32.1756L14.0745 32.1756C13.3838 31.8417 13.0946 31.0108 13.4285 30.32C13.7624 29.6293 14.5933 29.3402 15.284 29.6734C15.8674 29.9558 16.1776 30.6036 16.0331 31.2348C15.8885 31.8665 15.3275 32.314 14.6796 32.3146ZM11.8028 39.6205C11.9064 39.6341 12.0119 39.6341 12.1156 39.6205C12.7604 39.618 13.3189 39.1718 13.4641 38.5432C13.5907 37.9952 13.3747 37.4242 12.9161 37.0978C12.4575 36.7714 11.8475 36.7534 11.3709 37.0525C10.8937 37.3516 10.6448 37.9089 10.7391 38.4637C10.8341 39.0185 11.2536 39.4616 11.8028 39.5857V39.6205ZM18.8229 25.7332C18.507 25.7326 18.2004 25.6252 17.9541 25.4273L17.9541 25.4272C17.3534 24.9476 17.2554 24.0713 17.7351 23.4706C18.2147 22.8699 19.091 22.7718 19.6917 23.2515C20.1577 23.6195 20.339 24.242 20.1429 24.8024C19.9461 25.3628 19.4162 25.7363 18.8229 25.7332Z" fill="url(#paint0_linear_2659_21614)"/>
<path d="M45.999 9.85797V10.158H46.123L46.2108 10.0705L45.999 9.85797ZM45.9998 9.85718V9.55718H45.8758L45.788 9.64468L45.9998 9.85718ZM71.5568 20.443L71.769 20.2309L71.7689 20.2309L71.5568 20.443ZM71.5568 71.5571L71.7689 71.7692L71.7689 71.7692L71.5568 71.5571ZM20.4428 71.5571L20.2306 71.7692L20.2306 71.7692L20.4428 71.5571ZM22.4087 69.5903L22.6209 69.3782L22.6209 69.3782L22.4087 69.5903ZM69.5892 69.5903L69.3771 69.3781L69.3771 69.3782L69.5892 69.5903ZM69.5892 22.4098L69.3771 22.6219L69.3771 22.6219L69.5892 22.4098ZM63.6921 63.6938L63.9042 63.9059L63.9042 63.9059L63.6921 63.6938ZM28.3059 63.6938L28.0937 63.9059L28.0938 63.9059L28.3059 63.6938ZM28.3059 28.3076L28.0938 28.0955L28.0937 28.0955L28.3059 28.3076ZM63.6921 28.3076L63.9042 28.0955L63.9042 28.0955L63.6921 28.3076ZM61.7262 30.2733L61.9384 30.0612L61.9384 30.0611L61.7262 30.2733ZM30.2717 30.2733L30.0596 30.0611L30.0596 30.0612L30.2717 30.2733ZM30.2717 61.7278L30.0596 61.9399L30.0596 61.9399L30.2717 61.7278ZM61.7262 61.7278L61.9384 61.9399L61.9384 61.9399L61.7262 61.7278ZM31.5078 15.9747L31.3771 15.7047L31.3755 15.7055L31.5078 15.9747ZM30.9034 16.1137L30.9052 15.8138L30.716 15.8126L30.6335 15.9829L30.9034 16.1137ZM32.2128 14.262L31.9298 14.3615L31.9299 14.3617L32.2128 14.262ZM30.5906 13.369L30.5235 13.0766V13.0766L30.5906 13.369ZM29.5207 14.8813L29.2227 14.9153L29.2227 14.9153L29.5207 14.8813ZM30.9034 16.1138L30.9036 16.4138L31.0914 16.4136L31.1733 16.2447L30.9034 16.1138ZM38.2431 13.507L38.2439 13.8071L38.2486 13.807L38.2431 13.507ZM38.5491 13.4723L38.6124 13.7655L38.6157 13.7648L38.5491 13.4723ZM36.8524 12.197L37.1519 12.1798L37.1519 12.1796L36.8524 12.197ZM38.083 10.7355L38.0492 10.4374L38.0489 10.4375L38.083 10.7355ZM39.6102 11.8836L39.3145 11.9338L39.3145 11.9341L39.6102 11.8836ZM25.1888 19.9221L25.3763 20.1562L25.3766 20.156L25.1888 19.9221ZM24.3199 20.2274V19.9274H24.2434L24.1763 19.9641L24.3199 20.2274ZM25.5338 18.1622L25.2716 18.3079L25.2716 18.308L25.5338 18.1622ZM23.8576 17.5261L23.7581 17.243L23.7579 17.2431L23.8576 17.5261ZM22.9491 19.0726L23.2448 19.022L23.2447 19.0218L22.9491 19.0726ZM24.3199 20.2274L24.3202 20.5274L24.3965 20.5274L24.4636 20.4908L24.3199 20.2274ZM14.0745 32.1756L14.2083 31.9071L14.0131 31.8098L13.8603 31.9655L14.0745 32.1756ZM14.6796 32.3146L14.6793 32.0146L14.676 32.0146L14.6796 32.3146ZM14.0745 32.1756L13.9439 32.4457L14.1378 32.5395L14.2887 32.3857L14.0745 32.1756ZM13.4285 30.32L13.1584 30.1895L13.1584 30.1895L13.4285 30.32ZM15.284 29.6734L15.4147 29.4034L15.4144 29.4032L15.284 29.6734ZM16.0331 31.2348L15.7406 31.1678L15.7406 31.1678L16.0331 31.2348ZM12.1156 39.6205L12.1144 39.3205L12.0953 39.3205L12.0764 39.323L12.1156 39.6205ZM11.8028 39.6205H11.5028V39.8835L11.7636 39.9179L11.8028 39.6205ZM13.4641 38.5432L13.1718 38.4756L13.1718 38.4756L13.4641 38.5432ZM12.9161 37.0978L12.7422 37.3422L12.9161 37.0978ZM11.3709 37.0525L11.5302 37.3067L11.5304 37.3066L11.3709 37.0525ZM10.7391 38.4637L10.4434 38.514L10.4434 38.5143L10.7391 38.4637ZM11.8028 39.5857H12.1028V39.3459L11.8689 39.2931L11.8028 39.5857ZM17.9541 25.4273L17.7687 25.1914L17.4718 25.4247L17.7662 25.6611L17.9541 25.4273ZM18.8229 25.7332L18.8245 25.4332L18.8235 25.4332L18.8229 25.7332ZM17.9541 25.4272L18.1395 25.6631L18.4373 25.4291L18.1413 25.1928L17.9541 25.4272ZM17.7351 23.4706L17.9695 23.6578L17.9695 23.6578L17.7351 23.4706ZM19.6917 23.2515L19.5045 23.486L19.5058 23.487L19.6917 23.2515ZM20.1429 24.8024L20.4259 24.9017L20.426 24.9015L20.1429 24.8024ZM45.999 9.55797C45.0657 9.55797 44.3089 10.3147 44.3089 11.2481H44.9089C44.9089 10.6461 45.397 10.158 45.999 10.158V9.55797ZM45.788 9.64468L45.7872 9.64547L46.2108 10.0705L46.2116 10.0697L45.788 9.64468ZM71.7689 20.2309C64.9348 13.3967 55.6654 9.55718 45.9998 9.55718V10.1572C55.5063 10.1572 64.623 13.9335 71.3447 20.6551L71.7689 20.2309ZM82.4426 46C82.4426 36.3344 78.6031 27.066 71.769 20.2309L71.3447 20.6551C78.0664 27.3778 81.8426 36.4935 81.8426 46H82.4426ZM71.7689 71.7692C78.6031 64.935 82.4426 55.6657 82.4426 46H81.8426C81.8426 55.5065 78.0664 64.6233 71.3447 71.3449L71.7689 71.7692ZM45.9998 82.4429C55.6654 82.4429 64.9338 78.6034 71.7689 71.7692L71.3447 71.3449C64.6221 78.0666 55.5063 81.8429 45.9998 81.8429V82.4429ZM20.2306 71.7692C27.0648 78.6034 36.3342 82.4429 45.9998 82.4429V81.8429C36.4933 81.8429 27.3766 78.0666 20.6549 71.3449L20.2306 71.7692ZM9.55693 46C9.55693 55.665 13.3964 64.9341 20.2306 71.7692L20.6549 71.3449C13.9332 64.6223 10.1569 55.5059 10.1569 46H9.55693ZM11.247 44.3099C10.3137 44.3099 9.55693 45.0667 9.55693 46H10.1569C10.1569 45.3981 10.6451 44.9099 11.247 44.9099V44.3099ZM12.9371 46C12.9371 45.0667 12.1804 44.3099 11.247 44.3099V44.9099C11.849 44.9099 12.3371 45.3981 12.3371 46H12.9371ZM22.6209 69.3782C16.4205 63.1777 12.9371 54.7683 12.9371 46H12.3371C12.3371 54.9274 15.8837 63.4895 22.1966 69.8024L22.6209 69.3782ZM45.999 79.0619C37.2307 79.0619 28.8208 75.5786 22.6209 69.3782L22.1966 69.8024C28.5091 76.1154 37.0716 79.6619 45.999 79.6619V79.0619ZM69.3771 69.3782C63.1767 75.5786 54.7672 79.0619 45.999 79.0619V79.6619C54.9264 79.6619 63.4884 76.1154 69.8014 69.8024L69.3771 69.3782ZM79.0609 46C79.0609 54.7683 75.5775 63.1782 69.3771 69.3781L69.8014 69.8024C76.1143 63.49 79.6609 54.9274 79.6609 46H79.0609ZM69.3771 22.6219C75.5775 28.8223 79.0609 37.2318 79.0609 46H79.6609C79.6609 37.0726 76.1143 28.5106 69.8014 22.1977L69.3771 22.6219ZM45.999 12.9382C54.7676 12.9382 63.1772 16.4215 69.3771 22.6219L69.8014 22.1977C63.4889 15.8847 54.9267 12.3382 45.999 12.3382V12.9382ZM44.3089 11.2481C44.3089 12.1814 45.0657 12.9382 45.999 12.9382V12.3382C45.397 12.3382 44.9089 11.85 44.9089 11.2481H44.3089ZM45.999 71.3222C52.7149 71.3222 59.1553 68.6543 63.9042 63.9059L63.4799 63.4816C58.8436 68.1175 52.5558 70.7222 45.999 70.7222V71.3222ZM28.0938 63.9059C32.8428 68.6543 39.2832 71.3222 45.999 71.3222V70.7222C39.4423 70.7222 33.1545 68.1175 28.518 63.4816L28.0938 63.9059ZM20.6775 46.0007C20.6775 52.7165 23.3453 59.157 28.0937 63.9059L28.518 63.4817C23.8821 58.8453 21.2775 52.5573 21.2775 46.0007H20.6775ZM28.0937 28.0955C23.3453 32.8445 20.6775 39.2849 20.6775 46.0007H21.2775C21.2775 39.444 23.8821 33.1563 28.518 28.5197L28.0937 28.0955ZM45.999 20.6792C39.2832 20.6792 32.8427 23.3471 28.0938 28.0955L28.518 28.5197C33.1544 23.8838 39.4423 21.2792 45.999 21.2792V20.6792ZM63.9042 28.0955C59.1551 23.3471 52.7148 20.6792 45.999 20.6792V21.2792C52.5556 21.2792 58.8434 23.8838 63.4799 28.5198L63.9042 28.0955ZM71.3205 46.0007C71.3205 39.2849 68.6526 32.8444 63.9042 28.0955L63.4799 28.5197C68.1158 33.1561 70.7205 39.444 70.7205 46.0007H71.3205ZM63.9042 63.9059C68.6526 59.1569 71.3205 52.7165 71.3205 46.0007H70.7205C70.7205 52.5573 68.1158 58.8451 63.4799 63.4817L63.9042 63.9059ZM45.999 24.0591C51.818 24.0591 57.3988 26.3708 61.5141 30.4854L61.9384 30.0611C57.7106 25.834 51.9771 23.4591 45.999 23.4591V24.0591ZM30.4838 30.4854C34.5991 26.3708 40.18 24.0591 45.999 24.0591V23.4591C40.0208 23.4591 34.2874 25.834 30.0596 30.0611L30.4838 30.4854ZM24.0575 46.0005C24.0575 40.1815 26.3692 34.6007 30.4839 30.4854L30.0596 30.0612C25.8324 34.289 23.4575 40.0224 23.4575 46.0005H24.0575ZM30.4839 61.5157C26.3692 57.4004 24.0575 51.8196 24.0575 46.0005H23.4575C23.4575 51.9787 25.8324 57.7121 30.0596 61.9399L30.4839 61.5157ZM45.999 67.942C40.18 67.942 34.5991 65.6303 30.4838 61.5156L30.0596 61.9399C34.2874 66.1671 40.0208 68.542 45.999 68.542V67.942ZM61.5141 61.5156C57.3988 65.6303 51.818 67.942 45.999 67.942V68.542C51.9771 68.542 57.7106 66.1671 61.9384 61.9399L61.5141 61.5156ZM67.9404 46.0005C67.9404 51.8196 65.6288 57.4004 61.5141 61.5157L61.9384 61.9399C66.1655 57.7121 68.5404 51.9787 68.5404 46.0005H67.9404ZM61.5141 30.4854C65.6288 34.6007 67.9404 40.1815 67.9404 46.0005H68.5404C68.5404 40.0224 66.1655 34.289 61.9384 30.0612L61.5141 30.4854ZM31.3755 15.7055C31.2289 15.7776 31.0675 15.8147 30.9052 15.8138L30.9016 16.4137C31.1575 16.4153 31.4107 16.3568 31.6402 16.2439L31.3755 15.7055ZM31.9299 14.3617C32.1143 14.8848 31.8764 15.4629 31.3771 15.7047L31.6386 16.2447C32.4127 15.8698 32.7817 14.9734 32.4957 14.1622L31.9299 14.3617ZM30.6577 13.6614C31.1986 13.5372 31.7459 13.8386 31.9298 14.3615L32.4958 14.1625C32.2105 13.3512 31.3616 12.8842 30.5235 13.0766L30.6577 13.6614ZM29.8188 14.8474C29.756 14.2959 30.1172 13.7854 30.6577 13.6614L30.5235 13.0766C29.6851 13.269 29.1254 14.0606 29.2227 14.9153L29.8188 14.8474ZM30.9031 15.8138C30.3482 15.8143 29.8816 15.3981 29.8188 14.8473L29.2227 14.9153C29.32 15.7695 30.0436 16.4145 30.9036 16.4138L30.9031 15.8138ZM30.6335 15.9829L30.6334 15.9829L31.1733 16.2447L31.1733 16.2446L30.6335 15.9829ZM38.2486 13.807C38.3689 13.8048 38.4914 13.7917 38.6124 13.7655L38.4857 13.179C38.4056 13.1964 38.3221 13.2055 38.2376 13.2071L38.2486 13.807ZM36.5529 12.2141C36.6042 13.1098 37.3467 13.8093 38.2439 13.807L38.2424 13.207C37.6638 13.2085 37.185 12.7574 37.1519 12.1798L36.5529 12.2141ZM38.0489 10.4375C37.1582 10.5393 36.5008 11.3185 36.5529 12.2144L37.1519 12.1796C37.1183 11.6022 37.542 11.0993 38.1171 11.0336L38.0489 10.4375ZM39.906 11.8334C39.7558 10.9489 38.9401 10.3364 38.0492 10.4374L38.1168 11.0336C38.6917 10.9684 39.2177 11.3637 39.3145 11.9338L39.906 11.8334ZM38.6157 13.7648C39.4902 13.5656 40.0569 12.7175 39.906 11.8331L39.3145 11.9341C39.4118 12.5044 39.0464 13.0513 38.4824 13.1798L38.6157 13.7648ZM25.0012 19.688C24.8079 19.8428 24.5674 19.9274 24.3199 19.9274V20.5274C24.7042 20.5274 25.0769 20.3961 25.3763 20.1562L25.0012 19.688ZM25.2716 18.308C25.53 18.7727 25.4158 19.3551 25.001 19.6882L25.3766 20.156C26.0192 19.6401 26.1966 18.7369 25.796 18.0164L25.2716 18.308ZM23.9571 17.8091C24.4585 17.6329 25.0137 17.8437 25.2716 18.3079L25.7961 18.0165C25.3961 17.2966 24.5352 16.9699 23.7581 17.243L23.9571 17.8091ZM23.2447 19.0218C23.1547 18.4978 23.4558 17.9858 23.9573 17.809L23.7579 17.2431C22.981 17.5169 22.5138 18.3106 22.6534 19.1233L23.2447 19.0218ZM24.3196 19.9274C23.7882 19.9279 23.3343 19.5455 23.2448 19.022L22.6534 19.1231C22.7922 19.9351 23.4963 20.5282 24.3202 20.5274L24.3196 19.9274ZM24.1763 19.9641L24.1763 19.9641L24.4636 20.4908L24.4636 20.4908L24.1763 19.9641ZM13.9407 32.4441C14.1711 32.5589 14.4254 32.6176 14.6831 32.6146L14.676 32.0146C14.5142 32.0165 14.354 31.9797 14.2083 31.9071L13.9407 32.4441ZM14.2887 32.3857L14.2887 32.3856L13.8603 31.9655L13.8603 31.9656L14.2887 32.3857ZM13.1584 30.1895C12.7524 31.0293 13.104 32.0397 13.9439 32.4457L14.205 31.9055C13.6636 31.6437 13.4368 30.9922 13.6986 30.4506L13.1584 30.1895ZM15.4144 29.4032C14.5747 28.9981 13.5644 29.3496 13.1584 30.1895L13.6985 30.4506C13.9603 29.9091 14.612 29.6822 15.1537 29.9436L15.4144 29.4032ZM16.3255 31.3018C16.5013 30.5345 16.1241 29.7467 15.4147 29.4034L15.1533 29.9434C15.6107 30.1648 15.854 30.6728 15.7406 31.1678L16.3255 31.3018ZM14.6799 32.6146C15.4675 32.6138 16.1497 32.0697 16.3255 31.3017L15.7406 31.1678C15.6272 31.6633 15.1874 32.0141 14.6793 32.0146L14.6799 32.6146ZM12.0764 39.323C11.9988 39.3333 11.9196 39.3333 11.842 39.323L11.7636 39.9179C11.8933 39.935 12.0251 39.935 12.1548 39.9179L12.0764 39.323ZM13.1718 38.4756C13.0579 38.9687 12.6198 39.3185 12.1144 39.3205L12.1167 39.9205C12.9009 39.9174 13.5799 39.3749 13.7564 38.6107L13.1718 38.4756ZM12.7422 37.3422C13.1016 37.5981 13.2711 38.0458 13.1718 38.4756L13.7564 38.6107C13.9103 37.9446 13.6478 37.2504 13.0901 36.8534L12.7422 37.3422ZM11.5304 37.3066C11.904 37.0721 12.3824 37.0861 12.7422 37.3422L13.0901 36.8534C12.5327 36.4567 11.791 36.4347 11.2114 36.7984L11.5304 37.3066ZM11.0349 38.4134C10.9609 37.9781 11.1562 37.5412 11.5302 37.3067L11.2116 36.7983C10.6312 37.1621 10.3287 37.8397 10.4434 38.514L11.0349 38.4134ZM11.8689 39.2931C11.4384 39.1958 11.1093 38.8484 11.0348 38.4131L10.4434 38.5143C10.5588 39.1886 11.0688 39.7274 11.7367 39.8783L11.8689 39.2931ZM12.1028 39.6205V39.5857H11.5028V39.6205H12.1028ZM17.7662 25.6611C18.0661 25.9021 18.4388 26.0325 18.8223 26.0332L18.8235 25.4332C18.5752 25.4327 18.3348 25.3484 18.142 25.1934L17.7662 25.6611ZM17.7688 25.1913L17.7687 25.1914L18.1394 25.6632L18.1395 25.6631L17.7688 25.1913ZM17.5007 23.2834C16.9176 24.0135 17.0367 25.0786 17.767 25.6617L18.1413 25.1928C17.6701 24.8166 17.5932 24.1291 17.9695 23.6578L17.5007 23.2834ZM19.8789 23.0171C19.1488 22.4341 18.0837 22.5532 17.5006 23.2834L17.9695 23.6578C18.3457 23.1866 19.0332 23.1096 19.5045 23.486L19.8789 23.0171ZM20.426 24.9015C20.6645 24.2201 20.444 23.4634 19.8776 23.0161L19.5058 23.487C19.8715 23.7757 20.0135 24.2639 19.8597 24.7033L20.426 24.9015ZM18.8213 26.0332C19.5426 26.037 20.1868 25.5828 20.4259 24.9017L19.8598 24.703C19.7054 25.1427 19.2897 25.4357 18.8245 25.4332L18.8213 26.0332Z" fill="#2A3D45" mask="url(#path-1-inside-1_2659_21614)"/>
<path d="M44.9714 32.8572V36.4187H43.1855C41.2058 36.4187 40.1012 37.1202 39.2274 38.9157L36.8625 43.7287C36.3484 44.7687 36.1431 45.4715 36.1431 46.6168C36.1431 47.6312 36.3995 48.4635 36.837 49.3484L39.2019 54.187C40.0247 55.8785 41.1293 56.6583 43.0568 56.6583H44.9715V59.9643H47.6234V56.6583H49.5381C51.4655 56.6583 52.5702 55.8785 53.393 54.187L55.0359 50.8245H52.171L51.1582 52.9123C50.6734 53.9177 50.4081 54.0434 49.4106 54.055V54.0498H43.2254L43.1859 54.0511V54.0563C42.1884 54.0447 41.9231 53.919 41.4383 52.9136L39.2545 48.4121C38.9458 47.7876 38.715 47.3451 38.715 46.6167C38.715 45.81 38.9203 45.3419 39.2545 44.6392L41.4906 40.1121C41.9664 39.149 42.1552 39.0272 43.1872 39.0208V39.0272H49.4109V39.0208C50.4415 39.0259 50.6316 39.149 51.1074 40.1121L52.0386 41.9961H54.8831L53.3703 38.9156C52.4965 37.1202 51.3918 36.4187 49.4122 36.4187H47.6251V32.8572L44.9714 32.8572Z" fill="url(#paint1_linear_2659_21614)"/>
<defs>
<linearGradient id="paint0_linear_2659_21614" x1="17.9381" y1="23.6119" x2="65.3034" y2="78.8572" gradientUnits="userSpaceOnUse">
<stop stop-color="#2BBCA5"/>
<stop offset="1" stop-color="#2BBCA5"/>
</linearGradient>
<linearGradient id="paint1_linear_2659_21614" x1="38.2379" y1="38.9563" x2="55.2894" y2="53.7809" gradientUnits="userSpaceOnUse">
<stop stop-color="#2BBCA5"/>
<stop offset="1" stop-color="#2BBCA5"/>
</linearGradient>
</defs>
</svg>
