<svg width="92" height="92" viewBox="0 0 92 92" fill="none" xmlns="http://www.w3.org/2000/svg">
<mask id="path-1-inside-1_2659_21600" fill="white">
<path fill-rule="evenodd" clip-rule="evenodd" d="M23.9129 33.9523L33.2293 40.94C33.623 41.2347 34.1565 41.2605 34.5771 41.005C34.9977 40.7496 35.2204 40.2639 35.1403 39.7788L34.17 33.9524H37.5664C39.1633 33.9503 40.6946 33.3151 41.824 32.1862C42.9529 31.0567 43.5881 29.5255 43.5903 27.9286V15.881C43.5881 14.2841 42.9529 12.7529 41.824 11.6234C40.6945 10.4945 39.1633 9.85938 37.5664 9.85718H15.8807C14.2838 9.85933 12.7526 10.4945 11.6232 11.6234C10.4943 12.7529 9.85914 14.2841 9.85693 15.881V27.9286C9.85908 29.5255 10.4943 31.0567 11.6232 32.1862C12.7526 33.3151 14.2838 33.9502 15.8807 33.9524L23.9129 33.9523ZM12.2665 27.9285V15.8809C12.2665 14.9225 12.6472 14.0027 13.3249 13.3252C14.0026 12.6476 14.9224 12.2667 15.8807 12.2667H37.5664C38.5248 12.2667 39.4446 12.6475 40.1221 13.3252C40.7997 14.0029 41.1806 14.9226 41.1806 15.8809V27.9285C41.1806 28.887 40.7998 29.8067 40.1221 30.4843C39.4444 31.1618 38.5247 31.5428 37.5664 31.5428H32.7473C32.3934 31.5428 32.0573 31.6987 31.8287 31.9687C31.5996 32.2387 31.5012 32.5959 31.5592 32.9449L32.2654 37.2051L25.0369 31.7836C24.8282 31.6271 24.5749 31.5427 24.314 31.5427H15.8807C14.9222 31.5427 14.0025 31.1619 13.3249 30.4842C12.6474 29.8065 12.2665 28.8868 12.2665 27.9285ZM65.2755 61.41V46.0001C65.2685 42.0625 64.0573 38.2219 61.8038 34.9927C59.5502 31.7641 56.3624 29.3024 52.6691 27.9384L56.7389 18.7822H56.7384C56.8831 18.4568 56.8761 18.0847 56.7201 17.7646C56.5636 17.4452 56.2742 17.2107 55.929 17.1246L53.3329 16.4738C51.6199 16.0479 49.8111 16.2469 48.232 17.0353C47.5382 17.3796 46.7739 17.5597 45.9994 17.5608V19.9703C47.1477 19.9676 48.2798 19.7003 49.3076 19.1883C50.372 18.6569 51.5913 18.5225 52.746 18.8097L53.9508 19.1119L50.3365 27.2355V27.236C48.915 26.9009 47.4596 26.7288 45.9994 26.724V29.1335C50.471 29.1383 54.7586 30.917 57.9206 34.0789C61.0826 37.2409 62.8612 41.5285 62.866 46.0002V60.9392C59.8095 60.6073 56.7249 61.2221 54.0293 62.7006L53.7243 62.8668H44.7946C43.2936 62.8668 41.8784 63.5665 40.9668 64.7584C40.0552 65.9508 39.7508 67.4997 40.1444 68.9487L30.422 64.4911C30.0116 64.312 29.577 64.1948 29.1327 64.1415V45.9999C29.1301 44.4805 29.3328 42.9676 29.7351 41.5025L27.4122 40.8592C26.9524 42.534 26.7206 44.2632 26.7232 45.9999V64.4582C25.6045 64.9283 24.722 65.8275 24.2728 66.9543C23.863 67.9708 23.8302 69.1003 24.1803 70.1383C24.5299 71.1769 25.2399 72.0558 26.181 72.6167L40.0489 80.9382C41.3585 81.7251 42.8574 82.1419 44.386 82.143H82.1412V79.7335H71.2983V66.4811H82.1412V64.0716H70.5044C68.9523 62.8507 67.1752 61.946 65.2745 61.4104L65.2755 61.41ZM41.2891 78.8797L27.4212 70.5545C26.9716 70.2872 26.6322 69.8671 26.465 69.3707C26.2982 68.8748 26.3144 68.3354 26.5107 67.8502C26.6715 67.4484 26.949 67.1042 27.3067 66.8617C27.6649 66.6191 28.0876 66.4895 28.52 66.4884C28.8304 66.4895 29.1375 66.5567 29.4199 66.6863L41.8843 72.3955C42.0413 72.4681 42.2123 72.5052 42.3855 72.5052H54.4331C55.0984 72.5052 55.6379 71.9658 55.6379 71.3005C55.6379 70.6352 55.0984 70.0957 54.4331 70.0957H44.795C43.934 70.0957 43.1385 69.6364 42.7083 68.891C42.278 68.1455 42.278 67.2269 42.7083 66.4814C43.1385 65.736 43.934 65.2767 44.795 65.2767H54.0319C54.2336 65.2767 54.4321 65.2261 54.609 65.1298L55.1824 64.8168V64.8163C57.3213 63.639 59.7567 63.1097 62.1915 63.2947C64.6258 63.4792 66.9535 64.3693 68.8902 65.856V79.7334H44.3874C43.2956 79.7329 42.2248 79.436 41.2889 78.8745L41.2891 78.8797ZM73.7088 74.9143H76.1183V77.3238H73.7088V74.9143ZM44.7946 38.7715V36.362H47.2041V38.7715H50.8184V41.1811H44.1583C43.3354 41.18 42.6201 41.7458 42.4308 42.5466C42.2414 43.3474 42.6281 44.1736 43.3644 44.5409L49.711 47.7131C50.8436 48.2788 51.659 49.3271 51.929 50.5642C52.1985 51.8011 51.8935 53.0941 51.0991 54.08C50.3042 55.0658 49.1064 55.6386 47.8403 55.6381H47.2041V58.0476H44.7945V55.6381H41.1803V53.2285H47.8403C48.6632 53.2296 49.3786 52.6638 49.5679 51.863C49.7572 51.0622 49.3705 50.2361 48.6342 49.8687L42.2877 46.6965C41.155 46.1308 40.3396 45.0825 40.0697 43.8455C39.8002 42.6085 40.1052 41.3155 40.8995 40.3296C41.6944 39.3438 42.8922 38.771 44.1583 38.7715H44.7946ZM31.8947 15.0287L19.847 27.0763L21.5509 28.7802L33.5985 16.7326L31.8947 15.0287ZM20.6993 21.9048C21.6578 21.9048 22.5775 21.524 23.2551 20.8463C23.9326 20.1686 24.3136 19.2488 24.3136 18.2905C24.3136 17.3322 23.9328 16.4124 23.2551 15.7348C22.5774 15.0572 21.6576 14.6763 20.6993 14.6763C19.741 14.6763 18.8212 15.0571 18.1436 15.7348C17.466 16.4125 17.0851 17.3322 17.0851 18.2905C17.0851 19.2488 17.4659 20.1687 18.1436 20.8463C18.8213 21.5238 19.741 21.9048 20.6993 21.9048ZM20.6993 17.0857C21.1866 17.0857 21.626 17.3794 21.8121 17.8295C21.9988 18.2797 21.896 18.7976 21.5513 19.1424C21.2065 19.4872 20.6886 19.5899 20.2384 19.4033C19.7882 19.2172 19.4946 18.7777 19.4946 18.2905C19.4946 17.6252 20.034 17.0857 20.6993 17.0857ZM30.1911 28.0748C29.5134 27.3972 29.1326 26.4775 29.1326 25.519C29.1326 24.5607 29.5135 23.641 30.1911 22.9633C30.8686 22.2856 31.7885 21.9048 32.7468 21.9048C33.7051 21.9048 34.6249 22.2857 35.3026 22.9633C35.9803 23.6408 36.361 24.5607 36.361 25.519C36.361 26.4773 35.9801 27.3971 35.3026 28.0748C34.625 28.7525 33.7051 29.1332 32.7468 29.1332C31.7885 29.1332 30.8688 28.7523 30.1911 28.0748ZM33.2078 26.6318C33.658 26.4457 33.9517 26.0063 33.9517 25.519C33.9517 25.1996 33.8247 24.893 33.5988 24.6671C33.3729 24.4412 33.0664 24.3143 32.7469 24.3143C32.2596 24.3143 31.8202 24.6079 31.6341 25.0581C31.4475 25.5083 31.5502 26.0262 31.895 26.371C32.2397 26.7157 32.7577 26.8185 33.2078 26.6318Z"/>
</mask>
<path fill-rule="evenodd" clip-rule="evenodd" d="M23.9129 33.9523L33.2293 40.94C33.623 41.2347 34.1565 41.2605 34.5771 41.005C34.9977 40.7496 35.2204 40.2639 35.1403 39.7788L34.17 33.9524H37.5664C39.1633 33.9503 40.6946 33.3151 41.824 32.1862C42.9529 31.0567 43.5881 29.5255 43.5903 27.9286V15.881C43.5881 14.2841 42.9529 12.7529 41.824 11.6234C40.6945 10.4945 39.1633 9.85938 37.5664 9.85718H15.8807C14.2838 9.85933 12.7526 10.4945 11.6232 11.6234C10.4943 12.7529 9.85914 14.2841 9.85693 15.881V27.9286C9.85908 29.5255 10.4943 31.0567 11.6232 32.1862C12.7526 33.3151 14.2838 33.9502 15.8807 33.9524L23.9129 33.9523ZM12.2665 27.9285V15.8809C12.2665 14.9225 12.6472 14.0027 13.3249 13.3252C14.0026 12.6476 14.9224 12.2667 15.8807 12.2667H37.5664C38.5248 12.2667 39.4446 12.6475 40.1221 13.3252C40.7997 14.0029 41.1806 14.9226 41.1806 15.8809V27.9285C41.1806 28.887 40.7998 29.8067 40.1221 30.4843C39.4444 31.1618 38.5247 31.5428 37.5664 31.5428H32.7473C32.3934 31.5428 32.0573 31.6987 31.8287 31.9687C31.5996 32.2387 31.5012 32.5959 31.5592 32.9449L32.2654 37.2051L25.0369 31.7836C24.8282 31.6271 24.5749 31.5427 24.314 31.5427H15.8807C14.9222 31.5427 14.0025 31.1619 13.3249 30.4842C12.6474 29.8065 12.2665 28.8868 12.2665 27.9285ZM65.2755 61.41V46.0001C65.2685 42.0625 64.0573 38.2219 61.8038 34.9927C59.5502 31.7641 56.3624 29.3024 52.6691 27.9384L56.7389 18.7822H56.7384C56.8831 18.4568 56.8761 18.0847 56.7201 17.7646C56.5636 17.4452 56.2742 17.2107 55.929 17.1246L53.3329 16.4738C51.6199 16.0479 49.8111 16.2469 48.232 17.0353C47.5382 17.3796 46.7739 17.5597 45.9994 17.5608V19.9703C47.1477 19.9676 48.2798 19.7003 49.3076 19.1883C50.372 18.6569 51.5913 18.5225 52.746 18.8097L53.9508 19.1119L50.3365 27.2355V27.236C48.915 26.9009 47.4596 26.7288 45.9994 26.724V29.1335C50.471 29.1383 54.7586 30.917 57.9206 34.0789C61.0826 37.2409 62.8612 41.5285 62.866 46.0002V60.9392C59.8095 60.6073 56.7249 61.2221 54.0293 62.7006L53.7243 62.8668H44.7946C43.2936 62.8668 41.8784 63.5665 40.9668 64.7584C40.0552 65.9508 39.7508 67.4997 40.1444 68.9487L30.422 64.4911C30.0116 64.312 29.577 64.1948 29.1327 64.1415V45.9999C29.1301 44.4805 29.3328 42.9676 29.7351 41.5025L27.4122 40.8592C26.9524 42.534 26.7206 44.2632 26.7232 45.9999V64.4582C25.6045 64.9283 24.722 65.8275 24.2728 66.9543C23.863 67.9708 23.8302 69.1003 24.1803 70.1383C24.5299 71.1769 25.2399 72.0558 26.181 72.6167L40.0489 80.9382C41.3585 81.7251 42.8574 82.1419 44.386 82.143H82.1412V79.7335H71.2983V66.4811H82.1412V64.0716H70.5044C68.9523 62.8507 67.1752 61.946 65.2745 61.4104L65.2755 61.41ZM41.2891 78.8797L27.4212 70.5545C26.9716 70.2872 26.6322 69.8671 26.465 69.3707C26.2982 68.8748 26.3144 68.3354 26.5107 67.8502C26.6715 67.4484 26.949 67.1042 27.3067 66.8617C27.6649 66.6191 28.0876 66.4895 28.52 66.4884C28.8304 66.4895 29.1375 66.5567 29.4199 66.6863L41.8843 72.3955C42.0413 72.4681 42.2123 72.5052 42.3855 72.5052H54.4331C55.0984 72.5052 55.6379 71.9658 55.6379 71.3005C55.6379 70.6352 55.0984 70.0957 54.4331 70.0957H44.795C43.934 70.0957 43.1385 69.6364 42.7083 68.891C42.278 68.1455 42.278 67.2269 42.7083 66.4814C43.1385 65.736 43.934 65.2767 44.795 65.2767H54.0319C54.2336 65.2767 54.4321 65.2261 54.609 65.1298L55.1824 64.8168V64.8163C57.3213 63.639 59.7567 63.1097 62.1915 63.2947C64.6258 63.4792 66.9535 64.3693 68.8902 65.856V79.7334H44.3874C43.2956 79.7329 42.2248 79.436 41.2889 78.8745L41.2891 78.8797ZM73.7088 74.9143H76.1183V77.3238H73.7088V74.9143ZM44.7946 38.7715V36.362H47.2041V38.7715H50.8184V41.1811H44.1583C43.3354 41.18 42.6201 41.7458 42.4308 42.5466C42.2414 43.3474 42.6281 44.1736 43.3644 44.5409L49.711 47.7131C50.8436 48.2788 51.659 49.3271 51.929 50.5642C52.1985 51.8011 51.8935 53.0941 51.0991 54.08C50.3042 55.0658 49.1064 55.6386 47.8403 55.6381H47.2041V58.0476H44.7945V55.6381H41.1803V53.2285H47.8403C48.6632 53.2296 49.3786 52.6638 49.5679 51.863C49.7572 51.0622 49.3705 50.2361 48.6342 49.8687L42.2877 46.6965C41.155 46.1308 40.3396 45.0825 40.0697 43.8455C39.8002 42.6085 40.1052 41.3155 40.8995 40.3296C41.6944 39.3438 42.8922 38.771 44.1583 38.7715H44.7946ZM31.8947 15.0287L19.847 27.0763L21.5509 28.7802L33.5985 16.7326L31.8947 15.0287ZM20.6993 21.9048C21.6578 21.9048 22.5775 21.524 23.2551 20.8463C23.9326 20.1686 24.3136 19.2488 24.3136 18.2905C24.3136 17.3322 23.9328 16.4124 23.2551 15.7348C22.5774 15.0572 21.6576 14.6763 20.6993 14.6763C19.741 14.6763 18.8212 15.0571 18.1436 15.7348C17.466 16.4125 17.0851 17.3322 17.0851 18.2905C17.0851 19.2488 17.4659 20.1687 18.1436 20.8463C18.8213 21.5238 19.741 21.9048 20.6993 21.9048ZM20.6993 17.0857C21.1866 17.0857 21.626 17.3794 21.8121 17.8295C21.9988 18.2797 21.896 18.7976 21.5513 19.1424C21.2065 19.4872 20.6886 19.5899 20.2384 19.4033C19.7882 19.2172 19.4946 18.7777 19.4946 18.2905C19.4946 17.6252 20.034 17.0857 20.6993 17.0857ZM30.1911 28.0748C29.5134 27.3972 29.1326 26.4775 29.1326 25.519C29.1326 24.5607 29.5135 23.641 30.1911 22.9633C30.8686 22.2856 31.7885 21.9048 32.7468 21.9048C33.7051 21.9048 34.6249 22.2857 35.3026 22.9633C35.9803 23.6408 36.361 24.5607 36.361 25.519C36.361 26.4773 35.9801 27.3971 35.3026 28.0748C34.625 28.7525 33.7051 29.1332 32.7468 29.1332C31.7885 29.1332 30.8688 28.7523 30.1911 28.0748ZM33.2078 26.6318C33.658 26.4457 33.9517 26.0063 33.9517 25.519C33.9517 25.1996 33.8247 24.893 33.5988 24.6671C33.3729 24.4412 33.0664 24.3143 32.7469 24.3143C32.2596 24.3143 31.8202 24.6079 31.6341 25.0581C31.4475 25.5083 31.5502 26.0262 31.895 26.371C32.2397 26.7157 32.7577 26.8185 33.2078 26.6318Z" fill="url(#paint0_linear_2659_21600)"/>
<path d="M33.2293 40.94L33.0493 41.18L33.0495 41.1801L33.2293 40.94ZM23.9129 33.9523L24.0929 33.7123L24.0129 33.6523L23.9128 33.6523L23.9129 33.9523ZM34.5771 41.005L34.7329 41.2614L34.7329 41.2614L34.5771 41.005ZM35.1403 39.7788L35.4362 39.7299L35.4362 39.7295L35.1403 39.7788ZM34.17 33.9524V33.6524H33.8159L33.8741 34.0017L34.17 33.9524ZM37.5664 33.9524V34.2524L37.5669 34.2524L37.5664 33.9524ZM41.824 32.1862L42.0361 32.3983L42.0362 32.3982L41.824 32.1862ZM43.5903 27.9286L43.8903 27.929V27.9286H43.5903ZM43.5903 15.881H43.8903V15.8806L43.5903 15.881ZM41.824 11.6234L42.0362 11.4113L42.0361 11.4112L41.824 11.6234ZM37.5664 9.85718L37.5669 9.55718H37.5664V9.85718ZM15.8807 9.85718V9.55718L15.8803 9.55718L15.8807 9.85718ZM11.6232 11.6234L11.4111 11.4112L11.411 11.4113L11.6232 11.6234ZM9.85693 15.881L9.55693 15.8806V15.881H9.85693ZM9.85693 27.9286H9.55693L9.55693 27.929L9.85693 27.9286ZM11.6232 32.1862L11.411 32.3982L11.4111 32.3983L11.6232 32.1862ZM15.8807 33.9524L15.8803 34.2524H15.8807L15.8807 33.9524ZM13.3249 13.3252L13.537 13.5373L13.3249 13.3252ZM40.1221 13.3252L39.91 13.5373L39.91 13.5373L40.1221 13.3252ZM40.1221 30.4843L40.3342 30.6964L40.1221 30.4843ZM31.8287 31.9687L32.0574 32.1628L32.0577 32.1626L31.8287 31.9687ZM31.5592 32.9449L31.8552 32.8958L31.8552 32.8957L31.5592 32.9449ZM32.2654 37.2051L32.0854 37.4451L32.6837 37.8938L32.5614 37.156L32.2654 37.2051ZM25.0369 31.7836L25.2169 31.5436L25.2169 31.5436L25.0369 31.7836ZM13.3249 30.4842L13.5371 30.2721H13.5371L13.3249 30.4842ZM65.2755 46.0001H65.5755V45.9995L65.2755 46.0001ZM65.2755 61.41L65.3752 61.693L65.5755 61.6224V61.41H65.2755ZM61.8038 34.9927L62.0498 34.821L62.0498 34.821L61.8038 34.9927ZM52.6691 27.9384L52.3949 27.8166L52.2649 28.109L52.5651 28.2198L52.6691 27.9384ZM56.7389 18.7822L57.0131 18.9041L57.2006 18.4822H56.7389V18.7822ZM56.7384 18.7822L56.4643 18.6604L56.2767 19.0822H56.7384V18.7822ZM56.7201 17.7646L56.9898 17.6332L56.9895 17.6327L56.7201 17.7646ZM55.929 17.1246L55.856 17.4156L55.8564 17.4157L55.929 17.1246ZM53.3329 16.4738L53.4058 16.1828L53.4053 16.1827L53.3329 16.4738ZM48.232 17.0353L48.3653 17.3041L48.366 17.3037L48.232 17.0353ZM45.9994 17.5608L45.999 17.2608L45.6994 17.2612V17.5608H45.9994ZM45.9994 19.9703H45.6994V20.271L46.0001 20.2703L45.9994 19.9703ZM49.3076 19.1883L49.4414 19.4568L49.4416 19.4567L49.3076 19.1883ZM52.746 18.8097L52.819 18.5187L52.8185 18.5185L52.746 18.8097ZM53.9508 19.1119L54.2249 19.2339L54.37 18.9078L54.0238 18.8209L53.9508 19.1119ZM50.3365 27.2355L50.0624 27.1135L50.0365 27.1717V27.2355H50.3365ZM50.3365 27.236L50.2677 27.528L50.6365 27.6149V27.236H50.3365ZM45.9994 26.724L46.0004 26.424L45.6994 26.423V26.724H45.9994ZM45.9994 29.1335H45.6994V29.4332L45.9991 29.4335L45.9994 29.1335ZM57.9206 34.0789L57.7085 34.2911L57.9206 34.0789ZM62.866 46.0002H63.166V45.9998L62.866 46.0002ZM62.866 60.9392L62.8337 61.2374L63.166 61.2735V60.9392H62.866ZM54.0293 62.7006L54.1728 62.964L54.1736 62.9637L54.0293 62.7006ZM53.7243 62.8668V63.1668H53.8008L53.8679 63.1302L53.7243 62.8668ZM40.9668 64.7584L40.7285 64.5761L40.7285 64.5761L40.9668 64.7584ZM40.1444 68.9487L40.0194 69.2214L40.602 69.4885L40.434 68.8701L40.1444 68.9487ZM30.422 64.4911L30.547 64.2184L30.542 64.2161L30.422 64.4911ZM29.1327 64.1415H28.8327V64.4077L29.097 64.4394L29.1327 64.1415ZM29.1327 45.9999H29.4327L29.4327 45.9993L29.1327 45.9999ZM29.7351 41.5025L30.0244 41.5819L30.1037 41.2932L29.8152 41.2133L29.7351 41.5025ZM27.4122 40.8592L27.4923 40.5701L27.2025 40.4898L27.1229 40.7798L27.4122 40.8592ZM26.7232 45.9999H27.0232L27.0232 45.9994L26.7232 45.9999ZM26.7232 64.4582L26.8395 64.7348L27.0232 64.6575V64.4582H26.7232ZM24.2728 66.9543L24.5511 67.0665L24.5515 67.0654L24.2728 66.9543ZM24.1803 70.1383L24.4646 70.0426L24.4646 70.0425L24.1803 70.1383ZM26.181 72.6167L26.3354 72.3595L26.3346 72.359L26.181 72.6167ZM40.0489 80.9382L40.2034 80.6811L40.2032 80.681L40.0489 80.9382ZM44.386 82.143L44.3858 82.443H44.386V82.143ZM82.1412 82.143V82.443H82.4412V82.143H82.1412ZM82.1412 79.7335H82.4412V79.4335H82.1412V79.7335ZM71.2983 79.7335H70.9983V80.0335H71.2983V79.7335ZM71.2983 66.4811V66.1811H70.9983V66.4811H71.2983ZM82.1412 66.4811V66.7811H82.4412V66.4811H82.1412ZM82.1412 64.0716H82.4412V63.7716H82.1412V64.0716ZM70.5044 64.0716L70.319 64.3074L70.4006 64.3716H70.5044V64.0716ZM65.2745 61.4104L65.1749 61.1274L64.281 61.4421L65.1931 61.6991L65.2745 61.4104ZM27.4212 70.5545L27.5757 70.2973L27.5746 70.2966L27.4212 70.5545ZM41.2891 78.8797L41.1347 79.1369L41.6077 79.4209L41.5889 78.8695L41.2891 78.8797ZM26.465 69.3707L26.1806 69.4663L26.1807 69.4665L26.465 69.3707ZM26.5107 67.8502L26.7888 67.9628L26.7892 67.9617L26.5107 67.8502ZM27.3067 66.8617L27.1385 66.6133L27.1383 66.6134L27.3067 66.8617ZM28.52 66.4884L28.5211 66.1884L28.5193 66.1884L28.52 66.4884ZM29.4199 66.6863L29.2947 66.959L29.2949 66.9591L29.4199 66.6863ZM41.8843 72.3955L42.0102 72.1232L42.0092 72.1228L41.8843 72.3955ZM42.7083 68.891L42.4484 69.0409H42.4484L42.7083 68.891ZM42.7083 66.4814L42.4484 66.3315L42.7083 66.4814ZM54.609 65.1298L54.7524 65.3934L54.7528 65.3932L54.609 65.1298ZM55.1824 64.8168L55.3261 65.0801L55.4824 64.9948V64.8168H55.1824ZM55.1824 64.8163L55.0377 64.5535L54.8824 64.639V64.8163H55.1824ZM62.1915 63.2947L62.1687 63.5938L62.1688 63.5939L62.1915 63.2947ZM68.8902 65.856H69.1902V65.7081L69.0729 65.618L68.8902 65.856ZM68.8902 79.7334V80.0334H69.1902V79.7334H68.8902ZM44.3874 79.7334L44.3873 80.0334H44.3874V79.7334ZM41.2889 78.8745L41.4433 78.6173L40.9703 78.3335L40.9891 78.8847L41.2889 78.8745ZM76.1183 74.9143H76.4183V74.6143H76.1183V74.9143ZM73.7088 74.9143V74.6143H73.4088V74.9143H73.7088ZM76.1183 77.3238V77.6238H76.4183V77.3238H76.1183ZM73.7088 77.3238H73.4088V77.6238H73.7088V77.3238ZM44.7946 36.362V36.062H44.4946V36.362H44.7946ZM44.7946 38.7715V39.0715H45.0946V38.7715H44.7946ZM47.2041 36.362H47.5041V36.062H47.2041V36.362ZM47.2041 38.7715H46.9041V39.0715H47.2041V38.7715ZM50.8184 38.7715H51.1184V38.4715H50.8184V38.7715ZM50.8184 41.1811V41.4811H51.1184V41.1811H50.8184ZM44.1583 41.1811L44.1579 41.4811H44.1583V41.1811ZM42.4308 42.5466L42.7227 42.6157L42.7227 42.6157L42.4308 42.5466ZM43.3644 44.5409L43.4986 44.2726L43.4984 44.2725L43.3644 44.5409ZM49.711 47.7131L49.5769 47.9814L49.5769 47.9815L49.711 47.7131ZM51.929 50.5642L52.2221 50.5003L52.2221 50.5002L51.929 50.5642ZM51.0991 54.08L51.3327 54.2683L51.3327 54.2682L51.0991 54.08ZM47.8403 55.6381L47.8405 55.3381H47.8403V55.6381ZM47.2041 55.6381V55.3381H46.9041V55.6381H47.2041ZM47.2041 58.0476V58.3476H47.5041V58.0476H47.2041ZM44.7945 58.0476H44.4945V58.3476H44.7945V58.0476ZM44.7945 55.6381H45.0945V55.3381H44.7945V55.6381ZM41.1803 55.6381H40.8803V55.9381H41.1803V55.6381ZM41.1803 53.2285V52.9285H40.8803V53.2285H41.1803ZM47.8403 53.2285L47.8407 52.9285H47.8403V53.2285ZM49.5679 51.863L49.2759 51.7939L49.2759 51.7939L49.5679 51.863ZM48.6342 49.8687L48.5001 50.1371L48.5003 50.1371L48.6342 49.8687ZM42.2877 46.6965L42.4218 46.4282L42.4217 46.4282L42.2877 46.6965ZM40.0697 43.8455L39.7765 43.9093L39.7766 43.9094L40.0697 43.8455ZM40.8995 40.3296L40.666 40.1413L40.6659 40.1414L40.8995 40.3296ZM44.1583 38.7715L44.1582 39.0715H44.1583V38.7715ZM19.847 27.0763L19.6349 26.8642L19.4228 27.0763L19.6349 27.2885L19.847 27.0763ZM31.8947 15.0287L32.1068 14.8166L31.8947 14.6045L31.6825 14.8166L31.8947 15.0287ZM21.5509 28.7802L21.3388 28.9924L21.5509 29.2045L21.763 28.9924L21.5509 28.7802ZM33.5985 16.7326L33.8107 16.9447L34.0228 16.7326L33.8107 16.5205L33.5985 16.7326ZM23.2551 15.7348L23.4672 15.5226L23.2551 15.7348ZM18.1436 15.7348L17.9314 15.5227V15.5227L18.1436 15.7348ZM18.1436 20.8463L17.9315 21.0584L18.1436 20.8463ZM21.8121 17.8295L21.5349 17.9441L21.535 17.9444L21.8121 17.8295ZM21.5513 19.1424L21.3391 18.9303L21.3391 18.9303L21.5513 19.1424ZM20.2384 19.4033L20.3533 19.1261L20.353 19.126L20.2384 19.4033ZM30.1911 28.0748L30.4032 27.8626V27.8626L30.1911 28.0748ZM30.1911 22.9633L30.4032 23.1754H30.4032L30.1911 22.9633ZM35.3026 28.0748L35.0904 27.8627H35.0904L35.3026 28.0748ZM33.2078 26.6318L33.0932 26.3546L33.0929 26.3547L33.2078 26.6318ZM31.6341 25.0581L31.9112 25.173L31.9114 25.1727L31.6341 25.0581ZM31.895 26.371L31.6828 26.5831L31.895 26.371ZM33.4093 40.7L24.0929 33.7123L23.7328 34.1923L33.0493 41.18L33.4093 40.7ZM34.4214 40.7486C34.1054 40.9405 33.7047 40.9211 33.4091 40.6998L33.0495 41.1801C33.5413 41.5483 34.2077 41.5805 34.7329 41.2614L34.4214 40.7486ZM34.8443 39.8277C34.9045 40.1921 34.7372 40.5568 34.4214 40.7486L34.7329 41.2614C35.2583 40.9423 35.5363 40.3357 35.4362 39.7299L34.8443 39.8277ZM33.8741 34.0017L34.8443 39.8281L35.4362 39.7295L34.4659 33.9031L33.8741 34.0017ZM37.5664 33.6524H34.17V34.2524H37.5664V33.6524ZM41.6119 31.974C40.5386 33.0467 39.0835 33.6504 37.566 33.6524L37.5669 34.2524C39.2431 34.2501 40.8505 33.5834 42.0361 32.3983L41.6119 31.974ZM43.2903 27.9282C43.2882 29.4457 42.6846 30.9008 41.6118 31.9741L42.0362 32.3982C43.2213 31.2126 43.8879 29.6053 43.8903 27.929L43.2903 27.9282ZM43.2903 15.881V27.9286H43.8903V15.881H43.2903ZM41.6118 11.8355C42.6846 12.9088 43.2882 14.3639 43.2903 15.8814L43.8903 15.8806C43.888 14.2043 43.2212 12.597 42.0362 11.4113L41.6118 11.8355ZM37.566 10.1572C39.0835 10.1593 40.5386 10.7628 41.6119 11.8356L42.0361 11.4112C40.8505 10.2262 39.2431 9.55949 37.5669 9.55718L37.566 10.1572ZM15.8807 10.1572H37.5664V9.55718H15.8807V10.1572ZM11.8353 11.8356C12.9085 10.7628 14.3636 10.1592 15.8811 10.1572L15.8803 9.55718C14.2041 9.55944 12.5967 10.2262 11.4111 11.4112L11.8353 11.8356ZM10.1569 15.8814C10.159 14.3639 10.7626 12.9088 11.8354 11.8355L11.411 11.4113C10.2259 12.597 9.55925 14.2043 9.55693 15.8806L10.1569 15.8814ZM10.1569 27.9286V15.881H9.55693V27.9286H10.1569ZM11.8354 31.9741C10.7626 30.9008 10.159 29.4457 10.1569 27.9282L9.55693 27.929C9.55919 29.6053 10.226 31.2126 11.411 32.3982L11.8354 31.9741ZM15.8812 33.6524C14.3636 33.6503 12.9086 33.0468 11.8353 31.974L11.4111 32.3983C12.5967 33.5834 14.2041 34.2501 15.8803 34.2524L15.8812 33.6524ZM23.9128 33.6523L15.8807 33.6524L15.8807 34.2524L23.9129 34.2523L23.9128 33.6523ZM11.9665 15.8809V27.9285H12.5665V15.8809H11.9665ZM13.1128 13.113C12.3788 13.8469 11.9665 14.843 11.9665 15.8809H12.5665C12.5665 15.002 12.9157 14.1586 13.537 13.5373L13.1128 13.113ZM15.8807 11.9667C14.8428 11.9667 13.8468 12.3792 13.1128 13.113L13.537 13.5373C14.1585 12.916 15.0019 12.5667 15.8807 12.5667V11.9667ZM37.5664 11.9667H15.8807V12.5667H37.5664V11.9667ZM40.3343 13.1131C39.6004 12.3791 38.6043 11.9667 37.5664 11.9667V12.5667C38.4453 12.5667 39.2887 12.9159 39.91 13.5373L40.3343 13.1131ZM41.4806 15.8809C41.4806 14.8431 41.0681 13.847 40.3343 13.1131L39.91 13.5373C40.5313 14.1587 40.8806 15.0022 40.8806 15.8809H41.4806ZM41.4806 27.9285V15.8809H40.8806V27.9285H41.4806ZM40.3342 30.6964C41.0682 29.9626 41.4806 28.9665 41.4806 27.9285H40.8806C40.8806 28.8074 40.5314 29.6509 39.91 30.2721L40.3342 30.6964ZM37.5664 31.8428C38.6042 31.8428 39.6003 31.4302 40.3342 30.6964L39.91 30.2721C39.2886 30.8934 38.4451 31.2428 37.5664 31.2428V31.8428ZM32.7473 31.8428H37.5664V31.2428H32.7473V31.8428ZM32.0577 32.1626C32.2293 31.9599 32.4817 31.8428 32.7473 31.8428V31.2428C32.3052 31.2428 31.8853 31.4376 31.5997 31.7749L32.0577 32.1626ZM31.8552 32.8957C31.8116 32.6336 31.8855 32.3655 32.0574 32.1628L31.6 31.7746C31.3137 32.112 31.1908 32.5581 31.2633 32.9942L31.8552 32.8957ZM32.5614 37.156L31.8552 32.8958L31.2633 32.994L31.9695 37.2541L32.5614 37.156ZM24.8569 32.0236L32.0854 37.4451L32.4454 36.9651L25.2169 31.5436L24.8569 32.0236ZM24.314 31.8427C24.5099 31.8427 24.7001 31.9061 24.8569 32.0237L25.2169 31.5436C24.9563 31.3482 24.6398 31.2427 24.314 31.2427V31.8427ZM15.8807 31.8427H24.314V31.2427H15.8807V31.8427ZM13.1128 30.6963C13.8466 31.4303 14.8427 31.8427 15.8807 31.8427V31.2427C15.0018 31.2427 14.1583 30.8935 13.5371 30.2721L13.1128 30.6963ZM11.9665 27.9285C11.9665 28.9663 12.379 29.9624 13.1128 30.6963L13.5371 30.2721C12.9158 29.6507 12.5665 28.8072 12.5665 27.9285H11.9665ZM64.9755 46.0001V61.41H65.5755V46.0001H64.9755ZM61.5577 35.1644C63.7763 38.3433 64.9687 42.1242 64.9755 46.0006L65.5755 45.9995C65.5684 42.0007 64.3384 38.1004 62.0498 34.821L61.5577 35.1644ZM52.5651 28.2198C56.201 29.5626 59.3393 31.986 61.5578 35.1644L62.0498 34.821C59.7612 31.5421 56.5237 29.0421 52.773 27.657L52.5651 28.2198ZM56.4648 18.6604L52.3949 27.8166L52.9432 28.0603L57.0131 18.9041L56.4648 18.6604ZM56.7384 19.0822H56.7389V18.4822H56.7384V19.0822ZM56.4504 17.8961C56.5677 18.1367 56.5729 18.4162 56.4643 18.6604L57.0125 18.9041C57.1933 18.4975 57.1845 18.0326 56.9898 17.6332L56.4504 17.8961ZM55.8564 17.4157C56.1155 17.4803 56.333 17.6564 56.4507 17.8966L56.9895 17.6327C56.7942 17.234 56.433 16.9411 56.0015 16.8335L55.8564 17.4157ZM53.2599 16.7648L55.856 17.4156L56.0019 16.8336L53.4058 16.1828L53.2599 16.7648ZM48.366 17.3037C49.8812 16.5472 51.6168 16.3562 53.2605 16.765L53.4053 16.1827C51.623 15.7395 49.741 15.9465 48.098 16.7669L48.366 17.3037ZM45.9998 17.8608C46.8205 17.8597 47.6303 17.6687 48.3653 17.3041L48.0986 16.7666C47.446 17.0904 46.7272 17.2598 45.999 17.2608L45.9998 17.8608ZM46.2994 19.9703V17.5608H45.6994V19.9703H46.2994ZM49.1738 18.9198C48.1874 19.4112 47.1009 19.6677 45.9987 19.6703L46.0001 20.2703C47.1945 20.2675 48.3721 19.9895 49.4414 19.4568L49.1738 18.9198ZM52.8185 18.5185C51.5943 18.2141 50.3019 18.3566 49.1736 18.9199L49.4416 19.4567C50.4421 18.9572 51.5882 18.8308 52.6736 19.1008L52.8185 18.5185ZM54.0238 18.8209L52.819 18.5187L52.673 19.1006L53.8778 19.4029L54.0238 18.8209ZM50.6106 27.3574L54.2249 19.2339L53.6767 18.99L50.0624 27.1135L50.6106 27.3574ZM50.6365 27.236V27.2355H50.0365V27.236H50.6365ZM45.9984 27.024C47.4357 27.0287 48.8684 27.1981 50.2677 27.528L50.4054 26.944C48.9617 26.6037 47.4835 26.4289 46.0004 26.424L45.9984 27.024ZM46.2994 29.1335V26.724H45.6994V29.1335H46.2994ZM58.1327 33.8668C54.9146 30.6486 50.5508 28.8384 45.9997 28.8335L45.9991 29.4335C50.3913 29.4382 54.6027 31.1853 57.7085 34.2911L58.1327 33.8668ZM63.166 45.9998C63.1611 41.4487 61.3509 37.085 58.1327 33.8668L57.7085 34.2911C60.8143 37.3969 62.5613 41.6083 62.566 46.0005L63.166 45.9998ZM63.166 60.9392V46.0002H62.566V60.9392H63.166ZM54.1736 62.9637C56.8153 61.5147 59.8382 60.9122 62.8337 61.2374L62.8984 60.6409C59.7808 60.3025 56.6346 60.9295 53.885 62.4376L54.1736 62.9637ZM53.8679 63.1302L54.1728 62.964L53.8857 62.4372L53.5808 62.6034L53.8679 63.1302ZM44.7946 63.1668H53.7243V62.5668H44.7946V63.1668ZM41.2051 64.9406C42.06 63.823 43.3871 63.1668 44.7946 63.1668V62.5668C43.2001 62.5668 41.6969 63.3101 40.7285 64.5761L41.2051 64.9406ZM40.434 68.8701C40.0648 67.5113 40.3502 66.0588 41.2051 64.9406L40.7285 64.5761C39.7601 65.8427 39.4367 67.4881 39.8549 69.0274L40.434 68.8701ZM30.2969 64.7638L40.0194 69.2214L40.2695 68.676L30.547 64.2184L30.2969 64.7638ZM29.097 64.4394C29.5126 64.4892 29.9187 64.5988 30.302 64.7661L30.542 64.2161C30.1044 64.0252 29.6414 63.9003 29.1685 63.8436L29.097 64.4394ZM28.8327 45.9999V64.1415H29.4327V45.9999H28.8327ZM29.4458 41.423C29.0364 42.9142 28.83 44.454 28.8327 46.0004L29.4327 45.9993C29.4301 44.507 29.6293 43.021 30.0244 41.5819L29.4458 41.423ZM27.3321 41.1483L29.6551 41.7916L29.8152 41.2133L27.4923 40.5701L27.3321 41.1483ZM27.0232 45.9994C27.0206 44.2898 27.2488 42.5874 27.7015 40.9386L27.1229 40.7798C26.6559 42.4806 26.4205 44.2367 26.4232 46.0003L27.0232 45.9994ZM27.0232 64.4582V45.9999H26.4232V64.4582H27.0232ZM24.5515 67.0654C24.9709 66.0133 25.7949 65.1737 26.8395 64.7348L26.607 64.1816C25.4142 64.6829 24.4731 65.6418 23.9941 66.8432L24.5515 67.0654ZM24.4646 70.0425C24.1373 69.0723 24.168 68.0166 24.5511 67.0665L23.9946 66.8421C23.558 67.925 23.523 69.1283 23.896 70.2342L24.4646 70.0425ZM26.3346 72.359C25.4549 71.8347 24.7914 71.0132 24.4646 70.0426L23.896 70.234C24.2685 71.3406 25.0248 72.2769 26.0275 72.8744L26.3346 72.359ZM40.2032 80.681L26.3354 72.3595L26.0267 72.8739L39.8945 81.1955L40.2032 80.681ZM44.3862 81.843C42.9121 81.842 41.4665 81.44 40.2034 80.6811L39.8944 81.1954C41.2506 82.0102 42.8028 82.4419 44.3858 82.443L44.3862 81.843ZM82.1412 81.843H44.386V82.443H82.1412V81.843ZM81.8412 79.7335V82.143H82.4412V79.7335H81.8412ZM71.2983 80.0335H82.1412V79.4335H71.2983V80.0335ZM70.9983 66.4811V79.7335H71.5983V66.4811H70.9983ZM82.1412 66.1811H71.2983V66.7811H82.1412V66.1811ZM81.8412 64.0716V66.4811H82.4412V64.0716H81.8412ZM70.5044 64.3716H82.1412V63.7716H70.5044V64.3716ZM65.1931 61.6991C67.0559 62.224 68.7977 63.1107 70.319 64.3074L70.6899 63.8358C69.1069 62.5906 67.2944 61.6679 65.3559 61.1216L65.1931 61.6991ZM65.1759 61.127L65.1749 61.1274L65.3741 61.6933L65.3752 61.693L65.1759 61.127ZM27.2668 70.8117L41.1347 79.1369L41.4435 78.6225L27.5757 70.2973L27.2668 70.8117ZM26.1807 69.4665C26.3708 70.0308 26.7566 70.5084 27.2679 70.8124L27.5746 70.2966C27.1866 70.066 26.8937 69.7035 26.7493 69.2749L26.1807 69.4665ZM26.2326 67.7377C26.0094 68.2893 25.9911 68.9025 26.1806 69.4663L26.7493 69.2751C26.6054 68.8471 26.6193 68.3815 26.7888 67.9627L26.2326 67.7377ZM27.1383 66.6134C26.7312 66.8895 26.4153 67.2813 26.2322 67.7387L26.7892 67.9617C26.9277 67.6156 27.1669 67.319 27.4751 67.1099L27.1383 66.6134ZM28.5193 66.1884C28.0274 66.1896 27.5464 66.3371 27.1385 66.6133L27.4749 67.1101C27.7834 66.9011 28.1478 66.7893 28.5208 66.7884L28.5193 66.1884ZM29.545 66.4137C29.2235 66.2661 28.874 66.1896 28.5211 66.1884L28.519 66.7884C28.7868 66.7893 29.0515 66.8473 29.2947 66.959L29.545 66.4137ZM42.0092 72.1228L29.5448 66.4136L29.2949 66.9591L41.7593 72.6683L42.0092 72.1228ZM42.3855 72.2052C42.2552 72.2052 42.1272 72.1773 42.0102 72.1232L41.7584 72.6678C41.9554 72.7589 42.1695 72.8052 42.3855 72.8052V72.2052ZM54.4331 72.2052H42.3855V72.8052H54.4331V72.2052ZM55.3379 71.3005C55.3379 71.8001 54.9328 72.2052 54.4331 72.2052V72.8052C55.2641 72.8052 55.9379 72.1315 55.9379 71.3005H55.3379ZM54.4331 70.3957C54.9328 70.3957 55.3379 70.8009 55.3379 71.3005H55.9379C55.9379 70.4695 55.2641 69.7957 54.4331 69.7957V70.3957ZM44.795 70.3957H54.4331V69.7957H44.795V70.3957ZM42.4484 69.0409C42.9323 69.8792 43.8268 70.3957 44.795 70.3957V69.7957C44.0411 69.7957 43.3448 69.3936 42.9681 68.741L42.4484 69.0409ZM42.4484 66.3315C41.9646 67.1697 41.9646 68.2027 42.4484 69.0409L42.9681 68.741C42.5914 68.0883 42.5914 67.284 42.9681 66.6314L42.4484 66.3315ZM44.795 64.9767C43.8268 64.9767 42.9323 65.4932 42.4484 66.3315L42.9681 66.6314C43.3448 65.9788 44.0412 65.5767 44.795 65.5767V64.9767ZM54.0319 64.9767H44.795V65.5767H54.0319V64.9767ZM54.4656 64.8663C54.3326 64.9387 54.1835 64.9767 54.0319 64.9767V65.5767C54.2837 65.5767 54.5315 65.5136 54.7524 65.3934L54.4656 64.8663ZM55.0386 64.5535L54.4653 64.8665L54.7528 65.3932L55.3261 65.0801L55.0386 64.5535ZM54.8824 64.8163V64.8168H55.4824V64.8163H54.8824ZM62.2142 62.9956C59.7213 62.8061 57.2277 63.3481 55.0377 64.5535L55.327 65.0791C57.415 63.9299 59.7922 63.4132 62.1687 63.5938L62.2142 62.9956ZM69.0729 65.618C67.0899 64.0959 64.7066 63.1844 62.2141 62.9956L62.1688 63.5939C64.5449 63.7739 66.8171 64.6428 68.7075 66.0939L69.0729 65.618ZM69.1902 79.7334V65.856H68.5902V79.7334H69.1902ZM44.3874 80.0334H68.8902V79.4334H44.3874V80.0334ZM41.1346 79.1318C42.117 79.7212 43.2411 80.0329 44.3873 80.0334L44.3876 79.4334C43.3501 79.4329 42.3325 79.1508 41.4433 78.6173L41.1346 79.1318ZM41.5889 78.8695L41.5887 78.8643L40.9891 78.8847L40.9893 78.8899L41.5889 78.8695ZM76.1183 74.6143H73.7088V75.2143H76.1183V74.6143ZM76.4183 77.3238V74.9143H75.8183V77.3238H76.4183ZM73.7088 77.6238H76.1183V77.0238H73.7088V77.6238ZM73.4088 74.9143V77.3238H74.0088V74.9143H73.4088ZM44.4946 36.362V38.7715H45.0946V36.362H44.4946ZM47.2041 36.062H44.7946V36.662H47.2041V36.062ZM47.5041 38.7715V36.362H46.9041V38.7715H47.5041ZM50.8184 38.4715H47.2041V39.0715H50.8184V38.4715ZM51.1184 41.1811V38.7715H50.5184V41.1811H51.1184ZM44.1583 41.4811H50.8184V40.8811H44.1583V41.4811ZM42.7227 42.6157C42.88 41.9502 43.4744 41.4802 44.1579 41.4811L44.1587 40.8811C43.1964 40.8798 42.3601 41.5414 42.1388 42.4776L42.7227 42.6157ZM43.4984 44.2725C42.8867 43.9673 42.5654 43.281 42.7227 42.6157L42.1388 42.4776C41.9175 43.4139 42.3695 44.3798 43.2305 44.8094L43.4984 44.2725ZM49.8451 47.4447L43.4986 44.2726L43.2303 44.8093L49.5769 47.9814L49.8451 47.4447ZM52.2221 50.5002C51.9328 49.1745 51.0589 48.051 49.8451 47.4447L49.5769 47.9815C50.6283 48.5066 51.3853 49.4798 51.6359 50.6281L52.2221 50.5002ZM51.3327 54.2682C52.1841 53.2116 52.5109 51.8259 52.2221 50.5003L51.6359 50.628C51.886 51.7764 51.6029 52.9766 50.8655 53.8918L51.3327 54.2682ZM47.8402 55.9381C49.1971 55.9386 50.4808 55.3248 51.3327 54.2683L50.8656 53.8917C50.1277 54.8069 49.0157 55.3386 47.8405 55.3381L47.8402 55.9381ZM47.2041 55.9381H47.8403V55.3381H47.2041V55.9381ZM47.5041 58.0476V55.6381H46.9041V58.0476H47.5041ZM44.7945 58.3476H47.2041V57.7476H44.7945V58.3476ZM44.4945 55.6381V58.0476H45.0945V55.6381H44.4945ZM41.1803 55.9381H44.7945V55.3381H41.1803V55.9381ZM40.8803 53.2285V55.6381H41.4803V53.2285H40.8803ZM47.8403 52.9285H41.1803V53.5285H47.8403V52.9285ZM49.2759 51.7939C49.1186 52.4594 48.5242 52.9294 47.8407 52.9285L47.8399 53.5285C48.8023 53.5298 49.6385 52.8682 49.8598 51.932L49.2759 51.7939ZM48.5003 50.1371C49.1119 50.4423 49.4332 51.1286 49.2759 51.7939L49.8598 51.932C50.0812 50.9957 49.6291 50.0298 48.7681 49.6003L48.5003 50.1371ZM42.1535 46.9649L48.5001 50.1371L48.7683 49.6004L42.4218 46.4282L42.1535 46.9649ZM39.7766 43.9094C40.0659 45.2351 40.9397 46.3586 42.1536 46.9649L42.4217 46.4282C41.3703 45.903 40.6134 44.9299 40.3628 43.7815L39.7766 43.9094ZM40.6659 40.1414C39.8146 41.198 39.4877 42.5837 39.7765 43.9093L40.3628 43.7816C40.1126 42.6333 40.3958 41.433 41.1331 40.5178L40.6659 40.1414ZM44.1584 38.4715C42.8015 38.471 41.5178 39.0849 40.666 40.1413L41.1331 40.5179C41.871 39.6027 42.9829 39.071 44.1582 39.0715L44.1584 38.4715ZM44.7946 38.4715H44.1583V39.0715H44.7946V38.4715ZM20.0592 27.2885L32.1068 15.2409L31.6825 14.8166L19.6349 26.8642L20.0592 27.2885ZM21.763 28.5681L20.0592 26.8642L19.6349 27.2885L21.3388 28.9924L21.763 28.5681ZM33.3864 16.5205L21.3388 28.5681L21.763 28.9924L33.8107 16.9447L33.3864 16.5205ZM31.6825 15.2409L33.3864 16.9447L33.8107 16.5205L32.1068 14.8166L31.6825 15.2409ZM23.0429 20.6342C22.4217 21.2555 21.5783 21.6048 20.6993 21.6048V22.2048C21.7373 22.2048 22.7334 21.7924 23.4672 21.0584L23.0429 20.6342ZM24.0136 18.2905C24.0136 19.1693 23.6642 20.0128 23.0429 20.6342L23.4672 21.0584C24.201 20.3245 24.6136 19.3284 24.6136 18.2905H24.0136ZM23.043 15.9469C23.6643 16.5682 24.0136 17.4117 24.0136 18.2905H24.6136C24.6136 17.2527 24.2012 16.2565 23.4672 15.5226L23.043 15.9469ZM20.6993 14.9763C21.5781 14.9763 22.4216 15.3256 23.043 15.9469L23.4672 15.5226C22.7333 14.7888 21.7372 14.3763 20.6993 14.3763V14.9763ZM18.3557 15.9469C18.977 15.3255 19.8206 14.9763 20.6993 14.9763V14.3763C19.6615 14.3763 18.6653 14.7887 17.9314 15.5227L18.3557 15.9469ZM17.3851 18.2905C17.3851 17.4118 17.7344 16.5683 18.3557 15.9469L17.9314 15.5227C17.1976 16.2566 16.7851 17.2527 16.7851 18.2905H17.3851ZM18.3557 20.6341C17.7343 20.0129 17.3851 19.1693 17.3851 18.2905H16.7851C16.7851 19.3284 17.1975 20.3246 17.9315 21.0584L18.3557 20.6341ZM20.6993 21.6048C19.8206 21.6048 18.9771 21.2554 18.3557 20.6341L17.9315 21.0584C18.6654 21.7922 19.6615 22.2048 20.6993 22.2048V21.6048ZM22.0894 17.7149C21.8569 17.1525 21.3079 16.7857 20.6993 16.7857V17.3857C21.0653 17.3857 21.3952 17.6063 21.5349 17.9441L22.0894 17.7149ZM21.7634 19.3545C22.194 18.9239 22.3223 18.2769 22.0893 17.7146L21.535 17.9444C21.6752 18.2825 21.598 18.6714 21.3391 18.9303L21.7634 19.3545ZM20.1235 19.6804C20.6857 19.9135 21.3328 19.7852 21.7634 19.3545L21.3391 18.9303C21.0803 19.1892 20.6914 19.2663 20.3533 19.1261L20.1235 19.6804ZM19.1946 18.2905C19.1946 18.8991 19.5613 19.448 20.1238 19.6805L20.353 19.126C20.0151 18.9863 19.7946 18.6564 19.7946 18.2905H19.1946ZM20.6993 16.7857C19.8684 16.7857 19.1946 17.4595 19.1946 18.2905H19.7946C19.7946 17.7909 20.1997 17.3857 20.6993 17.3857V16.7857ZM28.8326 25.519C28.8326 26.557 29.245 27.5531 29.979 28.2869L30.4032 27.8626C29.7818 27.2414 29.4326 26.3979 29.4326 25.519H28.8326ZM29.9789 22.7512C29.2451 23.4851 28.8326 24.4812 28.8326 25.519H29.4326C29.4326 24.6403 29.7819 23.7968 30.4032 23.1754L29.9789 22.7512ZM32.7468 21.6048C31.709 21.6048 30.7128 22.0172 29.9789 22.7512L30.4032 23.1754C31.0245 22.554 31.868 22.2048 32.7468 22.2048V21.6048ZM35.5147 22.7511C34.7807 22.0173 33.7847 21.6048 32.7468 21.6048V22.2048C33.6256 22.2048 34.469 22.5541 35.0905 23.1754L35.5147 22.7511ZM36.661 25.519C36.661 24.4812 36.2487 23.485 35.5147 22.7511L35.0905 23.1754C35.7118 23.7967 36.061 24.6402 36.061 25.519H36.661ZM35.5147 28.2869C36.2485 27.5529 36.661 26.5569 36.661 25.519H36.061C36.061 26.3978 35.7117 27.2412 35.0904 27.8627L35.5147 28.2869ZM32.7468 29.4332C33.7846 29.4332 34.7809 29.0209 35.5147 28.2869L35.0904 27.8627C34.4692 28.484 33.6256 28.8332 32.7468 28.8332V29.4332ZM29.979 28.2869C30.7129 29.0207 31.709 29.4332 32.7468 29.4332V28.8332C31.8681 28.8332 31.0246 28.4839 30.4032 27.8626L29.979 28.2869ZM33.6517 25.519C33.6517 25.885 33.4311 26.2149 33.0932 26.3546L33.3224 26.9091C33.8849 26.6766 34.2517 26.1276 34.2517 25.519H33.6517ZM33.3867 24.8792C33.5563 25.0488 33.6517 25.2791 33.6517 25.519H34.2517C34.2517 25.12 34.0931 24.7371 33.811 24.455L33.3867 24.8792ZM32.7469 24.6143C32.9868 24.6143 33.2171 24.7096 33.3867 24.8792L33.811 24.455C33.5288 24.1728 33.1459 24.0143 32.7469 24.0143V24.6143ZM31.9114 25.1727C32.051 24.8348 32.3809 24.6143 32.7469 24.6143V24.0143C32.1383 24.0143 31.5894 24.381 31.3569 24.9435L31.9114 25.1727ZM32.1071 26.1588C31.8482 25.9 31.7711 25.5111 31.9112 25.173L31.357 24.9432C31.1239 25.5054 31.2522 26.1525 31.6828 26.5831L32.1071 26.1588ZM33.0929 26.3547C32.7548 26.4949 32.366 26.4177 32.1071 26.1588L31.6828 26.5831C32.1135 27.0137 32.7605 27.142 33.3227 26.9089L33.0929 26.3547Z" fill="#26343C" mask="url(#path-1-inside-1_2659_21600)"/>
<defs>
<linearGradient id="paint0_linear_2659_21600" x1="30.1593" y1="23.8762" x2="36.4021" y2="28.969" gradientUnits="userSpaceOnUse">
<stop stop-color="#C743F7"/>
<stop offset="1" stop-color="#C743F7"/>
</linearGradient>
</defs>
</svg>
