<svg width="90" height="90" viewBox="0 0 90 90" fill="none" xmlns="http://www.w3.org/2000/svg">
<path fill-rule="evenodd" clip-rule="evenodd" d="M9.64258 12.8572V77.1429H79.9388V12.8572H9.64258ZM78.3281 14.4669V21.1207H11.252V14.4669H78.3281ZM11.252 75.6408V22.7309H78.3281V75.6408H11.252ZM66.8458 17.0425H68.4555V18.6522H66.8458V17.0425ZM72.5325 17.0425H70.9228V18.6522H72.5325V17.0425ZM62.7676 17.0425H64.3773V18.6522H62.7676V17.0425ZM57.7224 17.0425H16.4037V18.6522H57.7224V17.0425ZM59.1188 59.6496L57.08 56.6448C57.7238 55.4643 58.2605 54.1764 58.5826 52.8888L62.1241 52.245V46.5571L58.5826 45.9134C58.2604 44.6253 57.7242 43.3377 56.9729 42.1573L59.0122 39.1521L54.9335 35.0729L51.9283 37.1122C50.7478 36.4684 49.4598 35.9317 48.1722 35.6097L47.5285 32.0681H41.8406L41.1968 35.6097C39.9087 35.9318 38.6212 36.468 37.4408 37.2194L34.4355 35.18L30.3573 39.2582L32.3967 42.2635C31.7529 43.444 31.2162 44.7319 30.8941 46.0195L27.3516 46.6638V52.3516L30.8931 52.9954C31.2152 54.2835 31.7515 55.571 32.5028 56.7515L30.4635 59.7567L34.5421 63.8354L37.5474 61.7961C38.7279 62.5474 40.0159 62.9766 41.3034 63.2986L41.9472 66.8402H47.6351L48.2789 63.2986C49.5669 62.9765 50.8545 62.4403 52.0349 61.6889L55.0402 63.7283L59.1188 59.6496ZM52.1429 59.7571L51.7137 60.0793C50.4257 60.9376 49.0306 61.4743 47.5279 61.7965L46.9912 61.904L46.3474 65.2304H43.3422L42.6984 61.9035L42.1617 61.796C40.6591 61.4738 39.2639 60.9376 37.9758 60.0788L37.5467 59.7566L34.7565 61.689L32.6102 59.5426L34.542 56.7525L34.1129 56.3228C33.2545 55.0348 32.7178 53.6397 32.3956 52.137L32.2881 51.6003L28.9612 51.0636V48.0583L32.2881 47.4145L32.3956 46.8778C32.7178 45.3753 33.254 43.9801 34.1129 42.692L34.435 42.2628L32.3956 39.3661L34.542 37.2197L37.3321 39.1516L37.7613 38.8294C39.0493 37.9711 40.4444 37.4344 41.9471 37.1122L42.4838 37.0047L43.0205 33.6778H46.0258L46.6696 37.0047L47.2063 37.1122C48.7089 37.4344 50.1041 37.9706 51.3921 38.8294L51.8213 39.1516L54.6114 37.2197L56.7578 39.3661L54.8259 42.1562L55.1481 42.5854C56.0064 43.8734 56.5431 45.2685 56.8653 46.7712L56.9728 47.3079L60.2997 47.8446V50.8499L56.9728 51.4937L57.0798 52.0299C56.7577 53.5325 56.2215 54.9277 55.3626 56.2157L55.0405 56.6449L56.9724 59.435L54.826 61.5814L52.1429 59.7571ZM37.1173 49.4537C37.1173 45.1609 40.5512 41.7265 44.737 41.7265C48.9228 41.7265 52.3567 45.1609 52.3567 49.3462C52.3567 53.639 48.9228 57.0734 44.737 57.0734C40.5517 57.0734 37.1173 53.6395 37.1173 49.4537ZM38.6195 49.4541C38.6195 52.781 41.4101 55.4641 44.737 55.4641C48.0639 55.4641 50.8546 52.6735 50.6395 49.3466C50.6395 46.0197 47.9564 43.3366 44.6295 43.3366C41.3026 43.3366 38.6195 46.1272 38.6195 49.4541ZM21.9858 29.5995H35.0794V27.9898H20.3763V39.0439H21.9865L21.9858 29.5995ZM20.3758 59.7568H21.986L21.9852 69.3083H35.0788V70.918H20.3758V59.7568ZM67.4891 69.3087H54.3955V70.9184H69.0985V59.7572H67.4883L67.4891 69.3087ZM67.4902 29.5995H54.3966L54.3974 27.9898H69.1004V39.0439H67.4902V29.5995Z" fill="url(#paint0_linear_2659_21568)"/>
<defs>
<linearGradient id="paint0_linear_2659_21568" x1="14.2344" y1="19.7449" x2="74.3875" y2="77.1429" gradientUnits="userSpaceOnUse">
<stop stop-color="#2BBCA5"/>
<stop offset="1" stop-color="#2BBCA5"/>
</linearGradient>
</defs>
</svg>
