<svg width="120" height="120" viewBox="0 0 120 120" fill="none" xmlns="http://www.w3.org/2000/svg">
<path fill-rule="evenodd" clip-rule="evenodd" d="M13.3659 85.997H50.9703V94.1849H43.8582C37.3672 94.1849 32.0858 99.4656 32.0858 105.957C32.0858 106.612 32.6169 107.143 33.2715 107.143H86.0721H86.0735C86.7282 107.143 87.2592 106.613 87.2592 105.957C87.2592 99.4662 81.9785 94.1849 75.4869 94.1849H68.371V85.997H105.976H105.976C109.211 85.997 111.842 83.3655 111.842 80.1311V71.0205C111.842 71.0038 111.843 70.9869 111.843 70.9699C111.843 70.953 111.842 70.9361 111.842 70.9194V18.723C111.842 15.4886 109.21 12.8571 105.976 12.8571H13.3659C10.1315 12.8571 7.5 15.4886 7.5 18.723V80.1311C7.5 83.3655 10.1315 85.997 13.3659 85.997ZM65.9996 94.1849H53.3417V85.997H65.9996V94.1849ZM67.2346 83.6259H105.976C107.902 83.6259 109.47 82.0583 109.47 80.1315L109.47 72.1557H9.87151V80.1315C9.87151 82.0583 11.4392 83.6259 13.3659 83.6259H52.1067L52.1136 83.6257L52.1368 83.6251L52.156 83.6249C52.1725 83.6249 52.1889 83.6253 52.2053 83.6259H67.136C67.1523 83.6253 67.1688 83.6249 67.1853 83.6249C67.2018 83.6249 67.2182 83.6253 67.2346 83.6259ZM109.47 69.7842L109.471 18.7234C109.471 16.7967 107.903 15.2291 105.976 15.2291H13.3659C11.4391 15.2291 9.87151 16.7967 9.87151 18.7234V69.7842H109.47ZM34.5312 104.771H84.8125C84.2281 100.145 80.2678 96.5561 75.486 96.5561H43.8572C39.0746 96.5561 35.1153 100.145 34.5308 104.771H34.5312ZM35.4552 40.87C35.5577 40.8971 35.661 40.9107 35.7626 40.9107C36.286 40.9107 36.7654 40.5609 36.9077 40.0315L41.6548 22.3164C41.8242 21.6837 41.449 21.0333 40.8163 20.8639C40.1837 20.6945 39.5333 21.0697 39.3639 21.7023L34.6167 39.4175C34.4474 40.0502 34.8225 40.7006 35.4552 40.87ZM98.2971 23.1948H64.1112C63.4565 23.1948 62.9255 22.6638 62.9255 22.0091C62.9255 21.3545 63.4565 20.8234 64.1112 20.8234H98.2962C98.9509 20.8234 99.4819 21.3544 99.4819 22.0091C99.4819 22.6638 98.9517 23.1948 98.2971 23.1948ZM64.1112 31.3947H98.2971C98.9517 31.3947 99.4819 30.8637 99.4819 30.209C99.4819 29.5543 98.9509 29.0233 98.2962 29.0233H64.1112C63.4565 29.0233 62.9255 29.5543 62.9255 30.209C62.9255 30.8637 63.4565 31.3947 64.1112 31.3947ZM82.833 64.1899H79.5799C78.9252 64.1899 78.3942 63.6589 78.3942 63.0042V61.169C77.3491 60.9013 76.3404 60.4838 75.4113 59.9324L74.1129 61.2308C73.6505 61.6941 72.8993 61.6941 72.436 61.2308L70.1358 58.9315C69.9131 58.7087 69.7886 58.4072 69.7886 58.093C69.7886 57.778 69.9131 57.4773 70.1358 57.2546L71.4342 55.9562C70.8828 55.0271 70.4653 54.0184 70.1977 52.9733H68.3624C67.7077 52.9733 67.1767 52.4423 67.1767 51.7876V48.5345C67.1767 47.8798 67.7077 47.3488 68.3624 47.3488H70.1977C70.4653 46.3037 70.8829 45.295 71.4342 44.3659L70.1358 43.0675C69.9131 42.8448 69.7886 42.5433 69.7886 42.2291C69.7886 41.914 69.9131 41.6134 70.1358 41.3906L72.436 39.0904C72.8984 38.6272 73.6497 38.6272 74.1129 39.0904L75.4113 40.3888C76.3412 39.8374 77.3491 39.4199 78.3942 39.1523V37.317C78.3942 36.6623 78.9252 36.1313 79.5799 36.1313H82.833C83.4877 36.1313 84.0187 36.6623 84.0187 37.317V39.1523C85.0638 39.4199 86.0725 39.8375 87.0016 40.3888L88.3 39.0904C88.7624 38.6272 89.5136 38.6272 89.9769 39.0904L92.2771 41.3906C92.4998 41.6134 92.6243 41.9149 92.6243 42.2291C92.6243 42.5441 92.4998 42.8448 92.2771 43.0675L90.9787 44.3659C91.5292 45.295 91.9476 46.3037 92.2152 47.3488H94.0505C94.7052 47.3488 95.2362 47.8798 95.2362 48.5345V51.7876C95.2362 52.4423 94.7052 52.9733 94.0505 52.9733H92.2152C91.9476 54.0184 91.5301 55.0271 90.9787 55.9562L92.2771 57.2546C92.4998 57.4773 92.6243 57.7788 92.6243 58.093C92.6243 58.4081 92.4998 58.7087 92.2771 58.9315L89.9769 61.2308C89.5145 61.6941 88.7632 61.6941 88.3 61.2308L87.0016 59.9324C86.0717 60.483 85.0639 60.9013 84.0187 61.169V63.0042C84.0187 63.6598 83.4877 64.1899 82.833 64.1899ZM80.7656 61.8184H81.6473V60.205C81.6473 59.6232 82.0699 59.1269 82.645 59.0346C84.0153 58.8144 85.3365 58.2673 86.4646 57.4517C86.9372 57.1112 87.5859 57.1629 87.9975 57.5745L89.1392 58.7153L89.7625 58.092L88.6217 56.9512C88.2101 56.5396 88.1584 55.89 88.4989 55.4182C89.3145 54.2901 89.8616 52.9689 90.0818 51.5986C90.1741 51.0236 90.6704 50.6009 91.2523 50.6009H92.8656V49.7193H91.2523C90.6704 49.7193 90.1741 49.2967 90.0818 48.7216C89.8616 47.3513 89.3145 46.0301 88.4989 44.902C88.1576 44.4302 88.2101 43.7806 88.6217 43.369L89.7625 42.2282L89.1392 41.6049L87.9975 42.7457C87.5859 43.1573 86.9372 43.209 86.4646 42.8685C85.3356 42.0529 84.0152 41.5058 82.645 41.2856C82.0699 41.1933 81.6473 40.697 81.6473 40.1152V38.5018H80.7656V40.1152C80.7656 40.6978 80.343 41.1933 79.7679 41.2856C78.3976 41.5058 77.0764 42.0529 75.9483 42.8685C75.4766 43.2098 74.827 43.1573 74.4154 42.7457L73.2737 41.6049L72.6504 42.2282L73.7912 43.369C74.2028 43.7806 74.2545 44.4302 73.914 44.902C73.0984 46.0301 72.5513 47.3513 72.3311 48.7216C72.2388 49.2966 71.7425 49.7193 71.1607 49.7193H69.5473V50.6009H71.1607C71.7425 50.6009 72.2388 51.0235 72.3311 51.5986C72.5513 52.9689 73.0984 54.2901 73.914 55.4182C74.2553 55.89 74.2028 56.5396 73.7912 56.9512L72.6504 58.092L73.2737 58.7153L74.4154 57.5745C74.8261 57.1629 75.4757 57.1104 75.9483 57.4517C77.0764 58.2673 78.3977 58.8144 79.7679 59.0346C80.343 59.1269 80.7656 59.6232 80.7656 60.205V61.8184ZM81.2069 57.1196C77.3687 57.1196 74.2461 53.9971 74.2461 50.1588C74.2461 46.3206 77.3687 43.198 81.2069 43.198C85.0452 43.198 88.1677 46.3206 88.1677 50.1588C88.1677 53.9971 85.0443 57.1196 81.2069 57.1196ZM81.2069 45.5693C78.6763 45.5693 76.6174 47.6282 76.6174 50.1588C76.6174 52.6895 78.6763 54.7484 81.2069 54.7484C83.7375 54.7484 85.7964 52.6895 85.7964 50.1588C85.7964 47.6282 83.7375 45.5693 81.2069 45.5693ZM31.0849 36.8323C31.3008 36.9991 31.5557 37.0796 31.8081 37.0796L31.8082 37.0792C32.163 37.0792 32.5145 36.92 32.7482 36.6159C33.1488 36.0967 33.0523 35.3523 32.534 34.9525L27.234 30.8645L32.534 26.7765C33.0523 26.3759 33.148 25.6314 32.7482 25.1131C32.3476 24.5948 31.6032 24.4991 31.0849 24.8989L24.5677 29.9263C24.2763 30.1516 24.1061 30.498 24.1061 30.8656C24.1061 31.2331 24.2763 31.5804 24.5677 31.8048L31.0849 36.8323ZM44.4632 37.0795C44.1084 37.0795 43.7569 36.9212 43.524 36.618C43.1242 36.0996 43.2199 35.3552 43.7383 34.9546L49.0383 30.8666L43.7383 26.7786C43.2199 26.3788 43.1234 25.6344 43.524 25.1152C43.9237 24.596 44.6682 24.5003 45.1874 24.9009L51.7046 29.9284C51.9959 30.1528 52.1661 30.5 52.1661 30.8676C52.1661 31.2352 51.9959 31.5816 51.7046 31.8069L45.1874 36.8343C44.9705 36.9995 44.7156 37.0799 44.4632 37.0799L44.4632 37.0795ZM55.2282 47.7901H21.0432C20.3886 47.7901 19.8575 47.2591 19.8575 46.6044C19.8575 45.9497 20.3885 45.4187 21.0432 45.4187H55.2282C55.8829 45.4187 56.4139 45.9497 56.4139 46.6044C56.4139 47.2591 55.8838 47.7901 55.2282 47.7901ZM21.0432 55.9901H55.2282C55.8838 55.9901 56.4139 55.459 56.4139 54.8044C56.4139 54.1497 55.8829 53.6186 55.2282 53.6186H21.0432C20.3885 53.6186 19.8575 54.1497 19.8575 54.8044C19.8575 55.459 20.3886 55.9901 21.0432 55.9901ZM55.2282 64.1899H21.0432C20.3886 64.1899 19.8575 63.6589 19.8575 63.0042C19.8575 62.3495 20.3885 61.8185 21.0432 61.8185H55.2282C55.8829 61.8185 56.4139 62.3495 56.4139 63.0042C56.4139 63.6597 55.8838 64.1899 55.2282 64.1899Z" fill="url(#paint0_linear_2659_21733)"/>
<defs>
<linearGradient id="paint0_linear_2659_21733" x1="10.7143" y1="14.4643" x2="87.3214" y2="107.143" gradientUnits="userSpaceOnUse">
<stop stop-color="#52ADD7"/>
<stop offset="1" stop-color="#52ADD7"/>
</linearGradient>
</defs>
</svg>
