<svg width="120" height="120" viewBox="0 0 120 120" fill="none" xmlns="http://www.w3.org/2000/svg">
<path fill-rule="evenodd" clip-rule="evenodd" d="M108.999 86.2617H105.448L105.448 111.557H11.915V42.2536H17.9418C15.9698 38.8442 14.9213 35.0051 14.9213 31.0006C14.9213 18.5618 25.0406 8.4425 37.4794 8.4425C41.5643 8.4425 45.5292 9.54976 49.0124 11.6268C52.384 9.61778 56.3071 8.4425 60.5086 8.4425C72.9464 8.4425 83.0667 18.5618 83.0667 31.0006C83.0667 35.0042 82.0191 38.8423 80.0462 42.2536H105.448L105.449 65.4931H109L108.999 86.2617ZM79.151 83.5488H106.287L106.287 68.207H79.1481L75.0905 75.8471L79.151 83.5488ZM76.8405 42.2516C79.1333 38.9341 80.355 35.0618 80.355 30.9986C80.355 20.056 71.4525 11.1535 60.5107 11.1535C49.5681 11.1535 40.6656 20.056 40.6656 30.9986C40.6656 35.0608 41.8882 38.9331 44.181 42.2516H49.0325C46.1113 39.2662 44.407 35.2428 44.407 30.9986C44.407 22.1189 51.6308 14.8942 60.5107 14.8942C69.3907 14.8942 76.6145 22.1189 76.6145 30.9986C76.6145 35.2425 74.9103 39.2662 71.989 42.2516H76.8405ZM65.2638 36.8041L66.1287 35.0308L68.5768 35.0309L67.1734 37.8867C66.4714 39.3232 65.5279 39.9856 63.8823 39.9856H62.2481V42.2528H70.0103C73.3081 39.4634 75.2583 35.3547 75.2583 30.9998C75.2583 22.8684 68.6421 16.2522 60.5107 16.2522C52.3793 16.2522 45.7631 22.8677 45.7631 30.9998C45.7631 35.3544 47.7134 39.4631 51.0111 42.2528H59.9816V39.9856H58.3474C56.7019 39.9856 55.7584 39.3232 55.0563 37.8867L53.037 33.7761C52.6641 33.0248 52.4446 32.3179 52.4446 31.4558C52.4446 30.4831 52.6197 29.8869 53.0587 29.0031L55.0781 24.9152C55.8247 23.3898 56.7681 22.7937 58.4581 22.7937H59.9826V19.7685H62.2479V22.7937H63.7724C65.4624 22.7937 66.4068 23.3898 67.1524 24.9152L68.445 27.5317H66.016L65.2212 25.9316C64.8152 25.114 64.6525 25.0099 63.7724 25.0052V25.0099H58.4573V25.0052C57.5764 25.0099 57.4145 25.114 57.0086 25.9316L55.099 29.7762C54.8133 30.3733 54.6382 30.7708 54.6382 31.4559C54.6382 32.0527 54.8222 32.4234 55.0712 32.9252L55.099 32.9812L56.9641 36.8041C57.3777 37.6576 57.6048 37.7646 58.4564 37.774V37.7703H63.7715V37.774C64.6231 37.7646 64.8493 37.6576 65.2638 36.8041ZM22.73 30.9996C22.73 35.3542 24.6813 39.4619 27.9799 42.2526L35.8123 42.2528V39.9855H34.1781C32.5325 39.9855 31.589 39.3231 30.8869 37.8867L28.8676 33.776C28.4948 33.0247 28.2752 32.3178 28.2752 31.4558C28.2752 30.483 28.4503 29.8868 28.8894 29.003L30.9087 24.9151C31.6553 23.3898 32.5987 22.7936 34.2887 22.7936L34.3219 22.7946H35.8132V19.7694H38.0785V22.7946H39.5178C40.3098 20.7742 41.3847 18.8987 42.6953 17.2096C41.0367 16.5794 39.2898 16.252 37.4786 16.252C29.3462 16.252 22.73 22.8675 22.73 30.9996ZM38.7826 25.0096H34.3219L34.2898 25.0088V25.0041C33.4088 25.0088 33.247 25.1129 32.841 25.9305L30.9315 29.7751C30.6457 30.3722 30.4706 30.7697 30.4706 31.4547C30.4706 32.0516 30.6546 32.4223 30.9037 32.9241L30.9315 32.9801L32.7966 36.803C33.2101 37.6565 33.4372 37.7635 34.2888 37.7729V37.7691H38.9898C38.3095 35.6013 37.9499 33.3284 37.9499 30.9986C37.9499 28.9224 38.2546 26.9201 38.7826 25.0096ZM39.7128 39.9852H38.0786L38.0778 42.2515H40.9704C40.5418 41.5106 40.15 40.7536 39.8113 39.9738C39.7963 39.9747 39.7826 39.977 39.7688 39.9793L39.7688 39.9793C39.7512 39.9822 39.7335 39.9852 39.7128 39.9852ZM37.4788 11.1532C26.5362 11.1532 17.6337 20.0557 17.6337 30.9984L17.6339 30.9982C17.6339 35.0633 18.8566 38.9344 21.1494 42.2502H26.0008C23.0786 39.2648 21.3734 35.2404 21.3734 30.9972C21.3734 22.1175 28.5991 14.8928 37.4788 14.8928C39.6108 14.8928 41.6585 15.3215 43.5946 16.1211C44.485 15.1105 45.4578 14.1765 46.5138 13.3382C43.729 11.9112 40.646 11.1532 37.4788 11.1532ZM14.6284 104.644V108.844L102.732 108.842V86.2585H98.5849V87.6136C98.5849 87.9883 98.2811 88.2921 97.9064 88.2921C97.5317 88.2921 97.2279 87.9883 97.2279 87.6136V86.2585H77.5097L72.0185 75.84L77.5126 65.4906H97.2282V64.1337C97.2282 63.7589 97.5319 63.4552 97.9067 63.4552C98.2814 63.4552 98.5851 63.7589 98.5851 64.1337V65.4906H102.733V44.9642H77.5561C77.5551 44.9642 77.5542 44.9652 77.5533 44.9652C77.5523 44.9652 77.5504 44.9642 77.5495 44.9642H14.6288V49.1619H17.145C17.5197 49.1619 17.8235 49.4656 17.8235 49.8403C17.8235 50.2151 17.5197 50.5188 17.145 50.5188H14.6288V62.5288L30.3113 62.5298L32.2852 57.1805H43.1852C43.4473 55.7678 44.1192 54.4165 45.2093 53.3264C46.6012 51.9345 48.4522 51.168 50.4195 51.168C52.3877 51.168 54.2387 51.9345 55.6297 53.3264C57.0217 54.7184 57.7891 56.5684 57.7891 58.5366C57.7891 60.5049 57.0217 62.3549 55.6297 63.7468C54.2387 65.1388 52.3877 65.9053 50.4195 65.9053C48.4522 65.9053 46.6012 65.1388 45.2093 63.7478C44.1192 62.6577 43.4473 61.3064 43.1852 59.8937H34.1766L32.2027 65.2429H14.6286V79.0557H30.31L32.284 73.7065H43.2097C43.4879 72.3382 44.1503 71.0333 45.2091 69.9744C46.6011 68.5825 48.452 67.816 50.4193 67.816C52.3876 67.816 54.2385 68.5825 55.6295 69.9744C57.0215 71.3664 57.7889 73.2164 57.7889 75.1846C57.7889 77.1539 57.0215 79.0039 55.6295 80.3958C54.2386 81.7868 52.3876 82.5543 50.4193 82.5543C48.4521 82.5543 46.6011 81.7878 45.2091 80.3958C44.0878 79.2745 43.4188 77.8769 43.1728 76.4206L34.1765 76.4196L32.2026 81.7689H14.6285V95.5824H30.31L32.2839 90.2332H43.2455C43.5388 88.9113 44.1823 87.6509 45.209 86.6242C46.6009 85.2322 48.4519 84.4658 50.4192 84.4658C52.3874 84.4658 54.2384 85.2322 55.6294 86.6242C57.0213 88.0152 57.7888 89.8662 57.7888 91.8344C57.7888 93.8026 57.0213 95.6526 55.6294 97.0446C54.2384 98.4356 52.3874 99.2031 50.4192 99.2031C48.4519 99.2031 46.6009 98.4366 45.209 97.0446C44.0564 95.892 43.3884 94.4471 43.1603 92.9473H34.1764L32.2025 98.2965H14.6284V103.287H17.1446C17.5193 103.287 17.823 103.591 17.823 103.966C17.823 104.34 17.5193 104.644 17.1446 104.644H14.6284ZM50.42 87.1798C49.1775 87.1798 48.008 87.6643 47.1279 88.5434C45.313 90.3583 45.313 93.3117 47.1279 95.1266C48.8891 96.8848 51.954 96.8848 53.7122 95.1266C54.5922 94.2475 55.0767 93.0789 55.0767 91.8355C55.0767 90.5921 54.5922 89.4234 53.7122 88.5443C52.8321 87.6643 51.6644 87.1798 50.42 87.1798ZM50.42 70.5311C49.1775 70.5311 48.008 71.0146 47.1279 71.8946C45.313 73.7095 45.313 76.663 47.1279 78.4789C48.8891 80.237 51.954 80.237 53.7122 78.4789C54.5922 77.5988 55.0767 76.4311 55.0767 75.1868C55.0767 73.9433 54.5922 72.7747 53.7122 71.8946C52.8321 71.0156 51.6644 70.5311 50.42 70.5311ZM50.42 53.8823C49.1775 53.8823 48.008 54.3659 47.1279 55.2459C45.313 57.0601 45.313 60.0142 47.1279 61.8301C48.8891 63.5892 51.954 63.5864 53.7122 61.8301C54.5922 60.95 55.0767 59.7814 55.0767 58.538C55.0767 57.2946 54.5922 56.1259 53.7122 55.2459C52.8321 54.3668 51.6644 53.8823 50.42 53.8823ZM91.5084 79.6609C90.4978 80.6715 89.1551 81.228 87.7253 81.228C86.2965 81.228 84.9528 80.6725 83.9412 79.6609C82.9306 78.6503 82.3742 77.3076 82.3742 75.8778C82.3742 74.449 82.9306 73.1053 83.9412 72.0946C85.9632 70.0734 89.4872 70.0734 91.5084 72.0946C92.52 73.1053 93.0774 74.448 93.0774 75.8778C93.0774 77.3066 92.5191 78.6503 91.5084 79.6609ZM87.7253 71.8836C86.657 71.8836 85.6549 72.299 84.9007 73.0532C84.1456 73.8073 83.7312 74.8104 83.7312 75.8777C83.7312 76.9451 84.1456 77.9481 84.9007 78.7023C86.409 80.2116 89.0425 80.2116 90.5499 78.7023C91.305 77.9472 91.7214 76.9451 91.7214 75.8777C91.7214 74.8104 91.305 73.8073 90.5499 73.0532C89.7958 72.299 88.7927 71.8836 87.7253 71.8836ZM97.9092 91.4847C97.5345 91.4847 97.2307 91.7884 97.2307 92.1632V96.7091C97.2307 97.0839 97.5345 97.3876 97.9092 97.3876C98.2839 97.3876 98.5877 97.0839 98.5877 96.7091V92.1632C98.5877 91.7884 98.2839 91.4847 97.9092 91.4847ZM97.2309 101.255C97.2309 100.88 97.5347 100.576 97.9094 100.576L97.9094 100.576C98.2841 100.576 98.5878 100.879 98.5878 101.255V103.968C98.5878 104.342 98.2841 104.646 97.9094 104.646H95.1965C94.8217 104.646 94.518 104.342 94.518 103.968C94.518 103.593 94.8217 103.289 95.1965 103.289H97.2309V101.255ZM27.5518 103.289H22.3491C21.9743 103.289 21.6706 103.593 21.6706 103.968C21.6706 104.342 21.9743 104.646 22.3491 104.646H27.5518C27.9265 104.646 28.2302 104.342 28.2302 103.968C28.2302 103.593 27.9274 103.289 27.5518 103.289ZM32.7579 103.289H37.9613C38.336 103.289 38.6398 103.593 38.6398 103.968C38.6398 104.342 38.336 104.646 37.9613 104.646H32.7579C32.3832 104.646 32.0794 104.342 32.0794 103.968C32.0794 103.593 32.3832 103.289 32.7579 103.289ZM48.3657 103.289H43.163C42.7883 103.289 42.4845 103.593 42.4845 103.968C42.4845 104.342 42.7883 104.646 43.163 104.646H48.3657C48.7404 104.646 49.0442 104.342 49.0442 103.968C49.0442 103.593 48.7404 103.289 48.3657 103.289ZM84.7892 103.289H89.9927C90.3674 103.289 90.6702 103.593 90.6711 103.968C90.6711 104.342 90.3674 104.646 89.9927 104.646H84.7892C84.4145 104.646 84.1108 104.342 84.1108 103.968C84.1108 103.593 84.4145 103.289 84.7892 103.289ZM58.772 103.289H53.5686C53.1939 103.289 52.8901 103.593 52.8901 103.968C52.8901 104.342 53.1939 104.646 53.5686 104.646H58.772C59.1468 104.646 59.4505 104.342 59.4505 103.968C59.4505 103.593 59.1468 103.289 58.772 103.289ZM63.9758 103.289H69.1793C69.554 103.289 69.8577 103.593 69.8577 103.968C69.8577 104.342 69.554 104.646 69.1793 104.646H63.9758C63.6011 104.646 63.2974 104.342 63.2974 103.968C63.2974 103.593 63.6011 103.289 63.9758 103.289ZM79.5886 103.289H74.3852C74.0105 103.289 73.7067 103.593 73.7067 103.968C73.7067 104.342 74.0105 104.646 74.3852 104.646H79.5886C79.9634 104.646 80.2671 104.342 80.2671 103.968C80.2662 103.593 79.9634 103.289 79.5886 103.289ZM58.772 49.1666C59.1468 49.1666 59.4505 49.4704 59.4505 49.8451C59.4505 50.2198 59.1468 50.5236 58.772 50.5236H53.5686C53.1939 50.5236 52.8901 50.2198 52.8901 49.8451C52.8901 49.4704 53.1939 49.1666 53.5686 49.1666H58.772ZM37.9581 49.1644H32.7547C32.38 49.1644 32.0762 49.4681 32.0762 49.8428C32.0762 50.2176 32.38 50.5213 32.7547 50.5213H37.9581C38.3328 50.5213 38.6366 50.2176 38.6366 49.8428C38.6366 49.4681 38.3338 49.1644 37.9581 49.1644ZM22.348 49.1644H27.5514C27.9271 49.1644 28.2299 49.4681 28.2299 49.8428C28.2299 50.2176 27.9262 50.5213 27.5514 50.5213H22.348C21.9733 50.5213 21.6695 50.2176 21.6695 49.8428C21.6695 49.4681 21.9733 49.1644 22.348 49.1644ZM74.3825 50.5233H79.586C79.9607 50.5233 80.2644 50.2196 80.2644 49.8448C80.2644 49.4701 79.9607 49.1664 79.586 49.1664H74.3825C74.0078 49.1664 73.7041 49.4701 73.7041 49.8448C73.7041 50.2196 74.0078 50.5233 74.3825 50.5233ZM69.1785 50.5233H63.9758C63.6011 50.5233 63.2974 50.2196 63.2974 49.8448C63.2974 49.4701 63.6011 49.1664 63.9758 49.1664H69.1785C69.5533 49.1664 69.857 49.4701 69.857 49.8448C69.857 50.2196 69.5533 50.5233 69.1785 50.5233ZM84.7892 50.5233H89.9919C90.3667 50.5233 90.6704 50.2196 90.6704 49.8448C90.6704 49.4701 90.3667 49.1664 89.9919 49.1664H84.7892C84.4145 49.1664 84.1108 49.4701 84.1108 49.8448C84.1117 50.2196 84.4145 50.5233 84.7892 50.5233ZM43.1619 49.1644H48.3653C48.7401 49.1644 49.0438 49.4681 49.0438 49.8428C49.0438 50.2176 48.7401 50.5213 48.3653 50.5213H43.1619C42.7872 50.5213 42.4834 50.2176 42.4834 49.8428C42.4834 49.4681 42.7872 49.1644 43.1619 49.1644ZM95.1964 50.5234H97.2309V52.5579C97.2309 52.9326 97.5346 53.2364 97.9094 53.2364C98.2841 53.2364 98.5878 52.9326 98.5878 52.5579V49.845C98.5878 49.4703 98.2841 49.1665 97.9094 49.1665H95.1965C94.8217 49.1665 94.518 49.4703 94.518 49.845C94.518 50.2197 94.8217 50.5235 95.1965 50.5235L95.1964 50.5234ZM97.2307 56.4174C97.2307 56.0427 97.5345 55.7389 97.9092 55.7389C98.2839 55.7389 98.5877 56.0417 98.5877 56.4174V60.2773C98.5877 60.652 98.2839 60.9558 97.9092 60.9558C97.5345 60.9558 97.2307 60.652 97.2307 60.2773V56.4174Z" fill="url(#paint0_linear_2659_21699)"/>
<defs>
<linearGradient id="paint0_linear_2659_21699" x1="11.915" y1="11.9578" x2="102.141" y2="111.557" gradientUnits="userSpaceOnUse">
<stop stop-color="#C743F7"/>
<stop offset="1" stop-color="#C743F7"/>
</linearGradient>
</defs>
</svg>
