<svg width="120" height="120" viewBox="0 0 120 120" fill="none" xmlns="http://www.w3.org/2000/svg">
<path fill-rule="evenodd" clip-rule="evenodd" d="M12.8569 17.1429V102.857H106.585V17.1429H12.8569ZM104.438 19.2891V28.1609H15.0029V19.2891H104.438ZM15.0029 100.854V30.3078H104.438V100.854H15.0029ZM89.1276 22.7233H91.2739V24.8696H89.1276V22.7233ZM96.7101 22.7233H94.5638V24.8696H96.7101V22.7233ZM83.6901 22.7233H85.8364V24.8696H83.6901V22.7233ZM76.9633 22.7233H21.8717V24.8696H76.9633V22.7233ZM78.8251 79.5328L76.1067 75.5264C76.965 73.9524 77.6807 72.2351 78.1101 70.5184L82.8321 69.66V62.0762L78.1101 61.2178C77.6806 59.5004 76.9656 57.7836 75.9638 56.2097L78.6829 52.2027L73.2447 46.7638L69.2377 49.4829C67.6637 48.6246 65.9464 47.9089 64.2296 47.4795L63.3713 42.7575H55.7874L54.9291 47.4795C53.2117 47.909 51.4949 48.624 49.921 49.6258L45.914 46.9067L40.4764 52.3442L43.1955 56.3513C42.3372 57.9253 41.6215 59.6426 41.1921 61.3593L36.4688 62.2183V69.8022L41.1908 70.6605C41.6203 72.3779 42.3353 74.0947 43.3371 75.6686L40.6179 79.6756L46.0562 85.1138L50.0632 82.3947C51.6372 83.3965 53.3545 83.9687 55.0712 84.3981L55.9296 89.1202H63.5134L64.3718 84.3981C66.0892 83.9686 67.806 83.2537 69.3799 82.2519L73.3869 84.971L78.8251 79.5328ZM69.5239 79.6762L68.9516 80.1057C67.2342 81.2501 65.3741 81.9657 63.3706 82.3953L62.6549 82.5387L61.7966 86.9738H57.7895L56.9312 82.538L56.2155 82.3946C54.2121 81.9651 52.3519 81.2501 50.6345 80.105L50.0622 79.6755L46.3421 82.2519L43.4803 79.3901L46.056 75.67L45.4838 75.0971C44.3393 73.3797 43.6237 71.5196 43.1942 69.516L43.0508 68.8004L38.6149 68.0848V64.0777L43.0508 63.2194L43.1942 62.5037C43.6237 60.5003 44.3387 58.6401 45.4838 56.9227L45.9133 56.3504L43.1942 52.4881L46.056 49.6263L49.7761 52.2021L50.3484 51.7726C52.0658 50.6281 53.9259 49.9125 55.9295 49.483L56.6451 49.3396L57.3607 44.9037H61.3677L62.2261 49.3396L62.9417 49.483C64.9452 49.9125 66.8054 50.6274 68.5228 51.7726L69.0951 52.2021L72.8152 49.6263L75.677 52.4881L73.1012 56.2082L73.5307 56.7805C74.6752 58.4979 75.3908 60.358 75.8203 62.3616L75.9637 63.0772L80.3996 63.7928V67.7998L75.9637 68.6582L76.1065 69.3732C75.677 71.3766 74.962 73.2369 73.8169 74.9543L73.3874 75.5265L75.9631 79.2467L73.1013 82.1085L69.5239 79.6762ZM49.4896 65.9383C49.4896 60.2145 54.0681 55.6353 59.6492 55.6353C65.2303 55.6353 69.8088 60.2145 69.8088 65.795C69.8088 71.5187 65.2303 76.0979 59.6492 76.0979C54.0688 76.0979 49.4896 71.5194 49.4896 65.9383ZM51.4925 65.9388C51.4925 70.3747 55.2133 73.9521 59.6492 73.9521C64.0851 73.9521 67.806 70.2313 67.5192 65.7954C67.5192 61.3596 63.9417 57.7821 59.5059 57.7821C55.07 57.7821 51.4925 61.5029 51.4925 65.9388ZM29.3146 39.466H46.7727V37.3197H27.1686V52.0586H29.3155L29.3146 39.466ZM27.168 79.6757H29.3149L29.3139 92.4111H46.772V94.5574H27.168V79.6757ZM89.9855 92.4117H72.5273V94.5579H92.1314V79.6763H89.9844L89.9855 92.4117ZM89.9868 39.466H72.5286L72.5296 37.3197H92.1337V52.0586H89.9868V39.466Z" fill="url(#paint0_linear_2659_21568)"/>
<defs>
<linearGradient id="paint0_linear_2659_21568" x1="18.9794" y1="26.3266" x2="99.1835" y2="102.857" gradientUnits="userSpaceOnUse">
<stop stop-color="#2BBCA5"/>
<stop offset="1" stop-color="#2BBCA5"/>
</linearGradient>
</defs>
</svg>
