<svg width="91" height="91" viewBox="0 0 91 91" fill="none" xmlns="http://www.w3.org/2000/svg">
<path d="M6.81494 45.7517C6.81494 61.0209 15.6975 74.2346 28.5441 80.4744L10.1918 30.0421C7.98949 34.8137 6.81494 40.0992 6.81494 45.7517Z" fill="#21759B"/>
<path d="M71.4158 43.7696C71.4158 38.998 69.7274 35.6946 68.2592 33.1253C66.2772 29.9686 64.4419 27.2525 64.4419 24.0959C64.4419 20.5722 67.1581 17.2688 70.902 17.2688C71.0488 17.2688 71.269 17.2688 71.4158 17.2688C64.5888 10.9556 55.4126 7.13831 45.4289 7.13831C31.9216 7.13831 20.1026 14.0388 13.2021 24.5363C14.0831 24.5363 14.964 24.6098 15.6981 24.6098C19.7356 24.6098 25.9754 24.0959 25.9754 24.0959C28.0309 23.9491 28.3245 27.0323 26.1956 27.2525C26.1956 27.2525 24.1402 27.4727 21.7911 27.6195L35.8123 69.3895L44.2544 44.0633L38.2348 27.6195C36.1793 27.4727 34.1973 27.2525 34.1973 27.2525C32.1418 27.1057 32.362 23.9491 34.4175 24.0959C34.4175 24.0959 40.8041 24.6098 44.548 24.6098C48.5855 24.6098 54.8253 24.0959 54.8253 24.0959C56.8808 23.9491 57.1744 27.0323 55.0455 27.2525C55.0455 27.2525 52.9167 27.4727 50.641 27.6195L64.5888 69.0959L68.4061 56.2492C70.1679 50.8903 71.4158 47.0731 71.4158 43.7696Z" fill="#21759B"/>
<path d="M46.0894 49.1285L34.4907 82.7501C37.941 83.7778 41.6114 84.2917 45.3553 84.2917C49.8333 84.2917 54.1645 83.4842 58.202 82.0894C58.1286 81.9426 57.9818 81.7223 57.9083 81.5755L46.0894 49.1285Z" fill="#21759B"/>
<path d="M79.2703 27.1791C79.4171 28.427 79.5639 29.7484 79.5639 31.1432C79.5639 35.0339 78.8298 39.4385 76.6275 44.9442L64.8086 79.0062C76.2605 72.3259 83.9685 59.9197 83.9685 45.6783C83.9685 38.998 82.28 32.6848 79.2703 27.1791Z" fill="#21759B"/>
<path d="M45.4287 0.751709C20.6163 0.751709 0.428711 20.9393 0.428711 45.7517C0.428711 70.5641 20.6163 90.7517 45.4287 90.7517C70.2411 90.7517 90.4287 70.5641 90.4287 45.7517C90.3553 20.9393 70.1677 0.751709 45.4287 0.751709ZM45.4287 88.6228C21.7175 88.6228 2.48418 69.3896 2.48418 45.7517C2.48418 22.0405 21.7175 2.80717 45.4287 2.80717C69.0666 2.80717 88.3732 22.0405 88.3732 45.7517C88.2998 69.3896 69.0666 88.6228 45.4287 88.6228Z" fill="#21759B"/>
</svg>
