<svg width="119" height="71" viewBox="0 0 119 71" fill="none" xmlns="http://www.w3.org/2000/svg">
<path d="M11.5238 0.666626H107.786C113.878 0.666626 118.809 5.57029 118.809 11.6283V48.1667C118.809 54.2243 113.878 59.1284 107.786 59.1284H73.265L78.0033 70.6666L57.1645 59.1284H11.5732C5.48098 59.1284 0.548688 54.2248 0.548688 48.1667V11.6283C0.500645 5.61852 5.43155 0.666626 11.5243 0.666626H11.5238Z" fill="#9B5C8F"/>
<path d="M7.2827 10.6577C7.95577 9.74957 8.96514 9.27138 10.3113 9.17583C12.7629 8.98473 14.1571 10.1318 14.4938 12.6178C15.9841 22.6089 17.6185 31.0698 19.349 38.0016L29.8769 18.0677C30.8387 16.2509 32.0403 15.295 33.4825 15.1994C35.5982 15.0561 36.8963 16.3942 37.4248 19.2147C38.6263 25.5727 40.1647 30.9743 41.9917 35.5633C43.2417 23.421 45.357 14.6734 48.3376 9.27138C49.0587 7.93326 50.1161 7.26397 51.5103 7.16797C52.6162 7.07242 53.626 7.40683 54.5388 8.12435C55.4526 8.84096 55.933 9.74957 56.0291 10.8488C56.0772 11.7097 55.933 12.4263 55.5487 13.1433C53.6736 16.5853 52.1353 22.3696 50.8857 30.4001C49.6837 38.1927 49.2508 44.2636 49.5396 48.6137C49.6357 49.8085 49.4435 50.86 48.9626 51.7686C48.3856 52.8205 47.5204 53.3938 46.4149 53.4893C45.1649 53.5849 43.8668 53.0116 42.6172 51.7208C38.1464 47.1796 34.5884 40.3916 31.9931 31.3565C28.868 37.4751 26.5605 42.0642 25.0707 45.1235C22.2343 50.5256 19.8308 53.2983 17.8116 53.4416C16.5135 53.5371 15.4076 52.4374 14.4462 50.1434C11.9946 43.8805 9.35041 31.7864 6.51401 13.8604C6.32183 12.6178 6.61009 11.5181 7.28316 10.6577H7.2827ZM110.594 18.1627C108.863 15.1512 106.316 13.3344 102.903 12.6174C101.989 12.4263 101.124 12.3307 100.307 12.3307C95.6916 12.3307 91.9419 14.7208 89.0095 19.5013C86.5098 23.5644 85.2598 28.0583 85.2598 32.9817C85.2598 36.6625 86.0289 39.817 87.5672 42.4468C89.2982 45.4584 91.8459 47.2747 95.2588 47.9922C96.1721 48.1833 97.0373 48.2788 97.855 48.2788C102.518 48.2788 106.267 45.8888 109.152 41.1082C111.652 36.997 112.902 32.5035 112.902 27.5801C112.95 23.8515 112.133 20.7443 110.594 18.1627ZM104.537 31.4043C103.864 34.5591 102.662 36.9014 100.883 38.4793C99.4894 39.7223 98.1913 40.2478 96.9897 40.009C95.8358 39.7701 94.874 38.7659 94.1533 36.9019C93.5763 35.42 93.2881 33.9381 93.2881 32.5517C93.2881 31.3565 93.3842 30.1617 93.6244 29.062C94.0572 27.1023 94.8744 25.19 96.1721 23.3733C97.7589 21.031 99.4413 20.0751 101.172 20.4095C102.326 20.6483 103.288 21.6525 104.008 23.517C104.585 24.9989 104.873 26.4808 104.873 27.8672C104.873 29.1097 104.777 30.305 104.537 31.4043ZM80.5003 18.1627C78.7693 15.1512 76.1736 13.3344 72.8087 12.6174C71.8954 12.4263 71.0302 12.3307 70.2125 12.3307C65.5976 12.3307 61.8479 14.7208 58.9154 19.5013C56.4158 23.5644 55.1657 28.0583 55.1657 32.9817C55.1657 36.6625 55.9349 39.817 57.4732 42.4468C59.2041 45.4584 61.7518 47.2747 65.1647 47.9922C66.078 48.1833 66.9433 48.2788 67.7609 48.2788C72.4239 48.2788 76.1731 45.8888 79.058 41.1082C81.5577 36.997 82.8077 32.5035 82.8077 27.5801C82.8077 23.8515 82.0386 20.7443 80.5003 18.1627ZM74.3951 31.4043C73.722 34.5591 72.52 36.9014 70.741 38.4793C69.3473 39.7223 68.0492 40.2478 66.8476 40.009C65.6937 39.7701 64.7319 38.7659 64.0112 36.9019C63.4343 35.42 63.146 33.9381 63.146 32.5517C63.146 31.3565 63.2421 30.1617 63.4823 29.062C63.9151 27.1023 64.7323 25.19 66.03 23.3733C67.6168 21.031 69.2992 20.0751 71.0297 20.4095C72.1837 20.6483 73.1455 21.6525 73.8661 23.517C74.4431 24.9989 74.7314 26.4808 74.7314 27.8672C74.7794 29.1097 74.6353 30.305 74.3951 31.4043Z" fill="white"/>
</svg>
