<svg width="161" height="55" viewBox="0 0 161 55" fill="none" xmlns="http://www.w3.org/2000/svg">
<path d="M12.8796 29.4851C12.3405 29.1569 11.783 28.8638 11.2095 28.6083C10.7233 28.3878 10.1816 28.1834 9.57911 27.9897C8.97662 27.7988 8.38734 27.702 7.81391 27.702C7.34619 27.702 6.97359 27.7746 6.69613 27.9225C6.41866 28.0677 6.27861 28.3151 6.27861 28.6621C6.27861 28.9176 6.36053 29.1274 6.52172 29.2941C6.68292 29.4582 6.9181 29.6088 7.22199 29.7459C7.52852 29.8831 7.90111 30.0149 8.33977 30.144C8.78107 30.2731 9.27786 30.4264 9.83543 30.6092C10.7154 30.8836 11.5108 31.1848 12.2216 31.5156C12.9325 31.8437 13.5376 32.2337 14.0397 32.6801C14.5417 33.1293 14.9302 33.6725 15.1997 34.3126C15.4693 34.9527 15.604 35.73 15.604 36.6444C15.604 37.8143 15.3926 38.7986 14.9698 39.592C14.547 40.3881 13.9895 41.0228 13.2998 41.4988C12.6074 41.9749 11.8252 42.3164 10.9559 42.5289C10.0838 42.7387 9.20916 42.8435 8.3292 42.8435C7.62893 42.8435 6.91017 42.7897 6.17291 42.6795C5.43565 42.5692 4.70367 42.4159 3.97698 42.2142C3.25029 42.0125 2.54738 41.7758 1.87354 41.5015C1.1997 41.2272 0.576068 40.9152 0 40.5683L2.26463 35.8779C2.89355 36.2813 3.54889 36.6363 4.2333 36.9483C4.80937 37.2226 5.45943 37.47 6.18876 37.6879C6.91546 37.9084 7.658 38.016 8.41376 38.016C8.98983 38.016 9.38885 37.938 9.61346 37.782C9.83807 37.626 9.94906 37.4216 9.94906 37.1661C9.94906 36.8918 9.83543 36.6578 9.61346 36.4669C9.38885 36.2759 9.07967 36.1065 8.6833 35.9586C8.28692 35.8133 7.83505 35.6654 7.3224 35.5202C6.80976 35.3749 6.2654 35.2001 5.69197 34.9984C4.84637 34.7053 4.11968 34.3906 3.50926 34.0517C2.89884 33.7129 2.39412 33.331 2.00038 32.9007C1.60401 32.4703 1.31333 31.9809 1.12571 31.4322C0.938091 30.8836 0.84296 30.2516 0.84296 29.5388C0.84296 28.4604 1.03586 27.5083 1.42167 26.6853C1.80748 25.8624 2.33334 25.1766 2.99925 24.6279C3.66517 24.0793 4.42356 23.6624 5.2771 23.38C6.13063 23.0976 7.03437 22.9551 7.98567 22.9551C8.68594 22.9551 9.37035 23.0223 10.0336 23.1622C10.6995 23.2993 11.3417 23.4741 11.96 23.6839C12.581 23.8937 13.1597 24.1223 13.6988 24.3697C14.2379 24.6172 14.7241 24.8511 15.1548 25.069L12.8796 29.4851Z" fill="#52ADD7"/>
<path d="M34.8479 23.1193V42.5962H29.5919V34.969H23.1759V42.5962H17.9199V23.1193H23.1759V30.3055H29.5919V23.1193H34.8479Z" fill="#52ADD7"/>
<path d="M38.1377 42.5962V23.1193H43.3937V30.526L49.2151 23.1193H55.1449L48.1898 31.8438L55.6285 42.5962H49.5903L44.847 35.4369L43.391 36.9726V42.5962H38.1377Z" fill="#52ADD7"/>
<path d="M63.3653 42.8706C62.1259 42.8706 61.0214 42.6743 60.0489 42.2816C59.0791 41.8889 58.2652 41.3538 57.6099 40.676C56.9545 39.9983 56.4551 39.221 56.1142 38.3443C55.7733 37.4675 55.6016 36.5423 55.6016 35.5741C55.6016 34.5306 55.768 33.5436 56.101 32.6104C56.434 31.6771 56.9281 30.8649 57.5834 30.1683C58.2388 29.4745 59.0474 28.9204 60.0093 28.509C60.9711 28.0975 62.0889 27.8931 63.3653 27.8931C64.6231 27.8931 65.7382 28.0975 66.708 28.509C67.6778 28.9204 68.4917 29.4691 69.1471 30.1549C69.8024 30.8407 70.2966 31.6368 70.6295 32.5404C70.9625 33.4468 71.129 34.3908 71.129 35.3805C71.129 35.6548 71.1158 35.9345 71.0893 36.2169C71.0629 36.4993 71.0312 36.7521 70.9942 36.97H61.0478C61.1006 37.7391 61.3807 38.2905 61.8828 38.6293C62.3849 38.9682 62.9345 39.1377 63.5265 39.1377C64.084 39.1377 64.6099 39.0086 65.104 38.7531C65.5982 38.4976 65.9259 38.1399 66.0871 37.6827L70.4261 38.944C69.85 40.0951 68.9647 41.0391 67.7703 41.7706C66.5759 42.5048 65.1067 42.8706 63.3653 42.8706ZM65.6273 33.8448C65.5374 33.1509 65.2864 32.6023 64.8715 32.1989C64.4593 31.7955 63.9281 31.5964 63.2807 31.5964C62.6333 31.5964 62.1048 31.7981 61.6899 32.1989C61.275 32.6023 61.024 33.1509 60.9342 33.8448H65.6273Z" fill="#52ADD7"/>
<path d="M79.7783 42.8706C78.539 42.8706 77.4344 42.6743 76.462 42.2816C75.4922 41.8889 74.6783 41.3538 74.023 40.676C73.3676 39.9983 72.8682 39.221 72.5273 38.3443C72.1864 37.4675 72.0146 36.5423 72.0146 35.5741C72.0146 34.5306 72.1811 33.5436 72.5141 32.6104C72.847 31.6771 73.3412 30.8649 73.9965 30.1683C74.6519 29.4745 75.4605 28.9204 76.4224 28.509C77.3842 28.0975 78.502 27.8931 79.7783 27.8931C81.0362 27.8931 82.1513 28.0975 83.1211 28.509C84.0909 28.9204 84.9048 29.4691 85.5602 30.1549C86.2155 30.8407 86.7097 31.6368 87.0426 32.5404C87.3756 33.4468 87.542 34.3908 87.542 35.3805C87.542 35.6548 87.5288 35.9345 87.5024 36.2169C87.476 36.4993 87.4443 36.7521 87.4073 36.97H77.4609C77.5137 37.7391 77.7938 38.2905 78.2959 38.6293C78.798 38.9682 79.3476 39.1377 79.9395 39.1377C80.4971 39.1377 81.023 39.0086 81.5171 38.7531C82.0113 38.4976 82.3389 38.1399 82.5001 37.6827L86.8391 38.944C86.2631 40.0951 85.3778 41.0391 84.1834 41.7706C82.9916 42.5048 81.5224 42.8706 79.7783 42.8706ZM82.043 33.8448C81.9531 33.1509 81.7021 32.6023 81.2872 32.1989C80.8724 31.7955 80.3438 31.5964 79.6964 31.5964C79.049 31.5964 78.5205 31.7981 78.1056 32.1989C77.6908 32.6023 77.4397 33.1509 77.3499 33.8448H82.043Z" fill="#52ADD7"/>
<path d="M98.7521 42.8707C97.7268 42.8707 96.8389 42.6663 96.0831 42.2548C95.3274 41.8434 94.7434 41.2436 94.3312 40.4583V53.0799H89.21V28.1675H93.6573V30.3352C94.1594 29.5499 94.7804 28.9448 95.5176 28.5252C96.2549 28.1057 97.1613 27.8932 98.2394 27.8932C99.1722 27.8932 100.044 28.0815 100.853 28.4553C101.661 28.8291 102.354 29.3482 102.927 30.0044C103.501 30.6633 103.955 31.4486 104.288 32.3631C104.621 33.2775 104.788 34.2645 104.788 35.3268C104.788 36.4053 104.634 37.4085 104.33 38.3309C104.024 39.2534 103.604 40.0549 103.065 40.7326C102.526 41.4104 101.886 41.9348 101.151 42.3086C100.414 42.6825 99.6135 42.8707 98.7521 42.8707ZM96.9737 38.4815C97.3515 38.4815 97.6977 38.3982 98.0122 38.2341C98.3266 38.0701 98.5962 37.8415 98.8208 37.5483C99.0454 37.2552 99.2251 36.9163 99.3599 36.5344C99.4946 36.1525 99.5633 35.7383 99.5633 35.2999C99.5633 34.3855 99.307 33.654 98.7944 33.1053C98.2817 32.5567 97.6026 32.2824 96.7596 32.2824C95.8057 32.2824 94.9971 32.7772 94.3338 33.7643V36.2601C94.5848 36.9002 94.9548 37.43 95.4384 37.8522C95.9219 38.2718 96.4346 38.4815 96.9737 38.4815Z" fill="#52ADD7"/>
<path d="M113.631 42.8707C112.392 42.8707 111.287 42.6744 110.315 42.2817C109.345 41.8891 108.531 41.3539 107.875 40.6761C107.22 39.9984 106.721 39.2211 106.38 38.3444C106.039 37.4676 105.867 36.5425 105.867 35.5743C105.867 34.5308 106.034 33.5437 106.367 32.6105C106.7 31.6772 107.194 30.865 107.849 30.1685C108.504 29.4746 109.313 28.9206 110.275 28.5091C111.237 28.0976 112.355 27.8932 113.631 27.8932C114.889 27.8932 116.004 28.0976 116.974 28.5091C117.943 28.9206 118.757 29.4692 119.413 30.155C120.068 30.8408 120.562 31.6369 120.895 32.5406C121.228 33.4469 121.395 34.3909 121.395 35.3806C121.395 35.6549 121.381 35.9346 121.355 36.217C121.329 36.4994 121.297 36.7522 121.26 36.9701H111.313C111.366 37.7393 111.646 38.2906 112.148 38.6295C112.651 38.9683 113.2 39.1378 113.792 39.1378C114.35 39.1378 114.876 39.0087 115.37 38.7532C115.864 38.4977 116.191 38.14 116.353 37.6828L120.692 38.9441C120.116 40.0952 119.23 41.0392 118.036 41.7707C116.844 42.505 115.375 42.8707 113.631 42.8707ZM115.896 33.8449C115.806 33.1511 115.555 32.6024 115.14 32.199C114.725 31.7956 114.196 31.5966 113.549 31.5966C112.902 31.5966 112.373 31.7983 111.958 32.199C111.543 32.6024 111.292 33.1511 111.202 33.8449H115.896Z" fill="#52ADD7"/>
<path d="M132.689 32.6105C131.7 32.6105 130.802 32.7207 129.993 32.9386C129.185 33.1591 128.582 33.5249 128.189 34.0359V42.5937H123.067V28.1648H127.758V30.9081C128.26 29.9399 128.886 29.1922 129.631 28.6731C130.377 28.1514 131.18 27.8905 132.044 27.8905C132.385 27.8905 132.602 27.9013 132.691 27.9174V32.6105H132.689Z" fill="#52ADD7"/>
<path d="M0.791144 51.4688C0.740936 52.0282 1.11617 52.5392 1.76359 52.5392C2.38194 52.5392 2.70697 52.0793 2.70697 51.5898C2.70697 50.9202 2.17582 50.7292 1.66582 50.549C1.1056 50.3581 0.259999 50.0595 0.259999 49.0187C0.259999 48.1581 0.841353 47.4777 1.8138 47.4777C2.69904 47.4777 3.30682 48.1285 3.29889 48.9676H2.5722C2.58277 48.4781 2.24717 48.1473 1.7953 48.1473C1.28529 48.1473 0.989333 48.497 0.989333 48.9569C0.989333 49.5862 1.53897 49.7879 2.04105 49.9466C2.68054 50.1563 3.4363 50.4361 3.4363 51.4661C3.4363 52.4666 2.80738 53.2062 1.70545 53.2062C0.585028 53.2062 0.0644531 52.3751 0.0644531 51.4661H0.791144V51.4688Z" fill="white"/>
<path d="M4.83124 50.6082C4.91844 51.6974 5.74555 52.5392 6.87655 52.5392C7.72215 52.5392 8.41977 52.0497 8.75537 51.2994H9.51377C9.0804 52.48 8.09739 53.2116 6.87919 53.2116C5.29632 53.2116 4.07812 51.9906 4.07812 50.35C4.07812 48.9999 5.05057 47.4777 6.87919 47.4777C8.91392 47.4777 9.65118 49.1989 9.64061 50.6082H4.83124ZM8.85315 49.9385C8.64703 48.8278 7.812 48.1473 6.87655 48.1473C5.84332 48.1473 5.00829 48.8977 4.83124 49.9385H8.85315Z" fill="white"/>
<path d="M10.6709 45.6758H11.3976V53.0798H10.6709V45.6758Z" fill="white"/>
<path d="M12.9796 48.2765H12.1445V47.6068H12.9796V47.4965C12.9796 46.4261 13.6878 45.6758 14.8954 45.6758H15.0434V46.3455H14.8954C14.6787 46.3455 13.7063 46.3643 13.7063 47.4965V47.6068H15.0434V48.2765H13.7063V53.0798H12.9796V48.2765Z" fill="white"/>
<path d="M18.0117 45.6758H18.7384V48.3975C19.0819 47.8865 19.6421 47.4777 20.4772 47.4777C21.6954 47.4777 22.8264 48.2469 22.8264 50.1994V53.0798H22.0997V50.1994C22.0997 49.7987 22.0706 48.1474 20.39 48.1474C19.6421 48.1474 18.7384 48.5374 18.7384 50.0784V53.0798H18.0117V45.6758Z" fill="white"/>
<path d="M29.426 50.3473C29.426 51.9771 28.1972 53.2089 26.6144 53.2089C25.0315 53.2089 23.8027 51.9771 23.8027 50.3473C23.8027 48.7175 25.0209 47.475 26.6144 47.475C28.2078 47.475 29.426 48.7175 29.426 50.3473ZM24.5294 50.3473C24.5294 51.5871 25.4041 52.5392 26.6144 52.5392C27.8246 52.5392 28.6993 51.5898 28.6993 50.3473C28.6993 49.1075 27.8246 48.1473 26.6144 48.1473C25.4041 48.1473 24.5294 49.1075 24.5294 50.3473Z" fill="white"/>
<path d="M30.7706 51.4688C30.7204 52.0282 31.0957 52.5392 31.7431 52.5392C32.3614 52.5392 32.6865 52.0793 32.6865 51.5898C32.6865 50.9202 32.1553 50.7292 31.6453 50.549C31.0851 50.3581 30.2395 50.0595 30.2395 49.0187C30.2395 48.1581 30.8182 47.4777 31.7933 47.4777C32.6785 47.4777 33.2863 48.1285 33.2784 48.9676H32.5517C32.5623 48.4781 32.2267 48.1473 31.7748 48.1473C31.2621 48.1473 30.9688 48.497 30.9688 48.9569C30.9688 49.5862 31.5185 49.7879 32.0205 49.9466C32.66 50.1563 33.4158 50.4361 33.4158 51.4661C33.4158 52.4666 32.7869 53.2062 31.6849 53.2062C30.5645 53.2062 30.0439 52.3751 30.0439 51.4661H30.7706V51.4688Z" fill="white"/>
<path d="M34.8792 48.2765H33.7588V47.6068H34.8792V45.6758H35.6059V47.6068H36.8532V48.2765H35.6059V53.0798H34.8792V48.2765Z" fill="white"/>
<path d="M38.1425 50.6082C38.2297 51.6974 39.0568 52.5392 40.1878 52.5392C41.0334 52.5392 41.731 52.0497 42.0666 51.2994H42.8224C42.389 52.48 41.406 53.2116 40.1878 53.2116C38.6049 53.2116 37.3867 51.9906 37.3867 50.35C37.3867 48.9999 38.3592 47.4777 40.1878 47.4777C42.2225 47.4777 42.9598 49.1989 42.9492 50.6082H38.1425ZM42.1617 49.9385C41.9556 48.8278 41.1206 48.1473 40.1851 48.1473C39.1519 48.1473 38.3169 48.8977 38.1398 49.9385H42.1617Z" fill="white"/>
<path d="M49.4763 53.0798H48.7893V52.0794H48.7681C48.2872 52.8001 47.5394 53.2089 46.6647 53.2089C45.0633 53.2089 43.7949 51.9879 43.7949 50.307C43.7949 49.0268 44.7383 47.475 46.6462 47.475C47.0875 47.475 48.0811 47.5449 48.7311 48.5562H48.7496V45.6758H49.4763V53.0798ZM44.5216 50.3689C44.5216 51.6302 45.5152 52.5392 46.6647 52.5392C47.8538 52.5392 48.7893 51.5979 48.7893 50.3769C48.7893 49.1156 47.8855 48.1447 46.6462 48.1447C45.4756 48.1474 44.5216 49.0968 44.5216 50.3689Z" fill="white"/>
<path d="M53.0029 45.6758H53.7296V51.0197L56.2664 47.6068H57.1305L55.0456 50.3474L57.2679 53.0798H56.3351L54.5858 50.9175L53.7296 52.039V53.0798H53.0029V45.6758V45.6758Z" fill="white"/>
<path d="M58.4875 50.6082C58.5773 51.6974 59.4018 52.5392 60.5328 52.5392C61.3784 52.5392 62.076 52.0497 62.4116 51.2994H63.17C62.7367 52.48 61.7536 53.2116 60.5354 53.2116C58.9526 53.2116 57.7344 51.9906 57.7344 50.35C57.7344 48.9999 58.7068 47.4777 60.5354 47.4777C62.5702 47.4777 63.3074 49.1989 63.2969 50.6082H58.4875ZM62.5094 49.9385C62.3033 48.8278 61.4682 48.1473 60.5328 48.1473C59.4996 48.1473 58.6645 48.8977 58.4875 49.9385H62.5094Z" fill="white"/>
<path d="M64.8771 50.6082C64.967 51.6974 65.7914 52.5392 66.9224 52.5392C67.768 52.5392 68.4657 52.0497 68.8013 51.2994H69.5597C69.1263 52.48 68.1433 53.2116 66.9251 53.2116C65.3422 53.2116 64.124 51.9906 64.124 50.35C64.124 48.9999 65.0965 47.4777 66.9251 47.4777C68.9598 47.4777 69.6971 49.1989 69.6865 50.6082H64.8771ZM68.899 49.9385C68.6929 48.8278 67.8579 48.1473 66.9224 48.1473C65.8892 48.1473 65.0542 48.8977 64.8771 49.9385H68.899Z" fill="white"/>
<path d="M70.7178 47.6068H71.4048V48.5481H71.4233C72.0919 47.5987 73.0353 47.4777 73.5268 47.4777C75.4135 47.4777 76.3886 48.9784 76.3886 50.3688C76.3886 51.9986 75.1598 53.2089 73.5083 53.2089C72.2002 53.2089 71.6506 52.3778 71.463 52.0578H71.4445V55H70.7178V47.6068ZM71.4048 50.3796C71.4048 51.5898 72.2795 52.5419 73.5083 52.5419C74.6974 52.5419 75.6619 51.6006 75.6619 50.3607C75.6619 49.1209 74.7291 48.15 73.5294 48.15C72.2795 48.1473 71.4048 49.1478 71.4048 50.3796Z" fill="white"/>
<path d="M77.9709 50.6082C78.0581 51.6974 78.8852 52.5392 80.0162 52.5392C80.8618 52.5392 81.5594 52.0497 81.895 51.2994H82.6534C82.2201 52.48 81.237 53.2116 80.0188 53.2116C78.436 53.2116 77.2178 51.9906 77.2178 50.35C77.2178 48.9999 78.1902 47.4777 80.0188 47.4777C82.0536 47.4777 82.7908 49.1989 82.7803 50.6082H77.9709ZM81.9902 49.9385C81.784 48.8278 80.949 48.1473 80.0136 48.1473C78.9803 48.1473 78.1453 48.8977 77.9683 49.9385H81.9902Z" fill="white"/>
<path d="M83.8083 47.6067H84.4954V48.3974H84.5139C84.8098 47.8084 85.3991 47.4669 86.0571 47.4884V48.228C85.37 48.2683 84.5324 48.7282 84.5324 49.839V53.0797H83.8057V47.6067H83.8083Z" fill="white"/>
<path d="M156.099 18.6603C154.492 13.9618 151.181 10.1804 146.779 8.01544C142.376 5.85044 137.411 5.55729 132.792 7.19516C128.173 8.83303 124.46 12.2002 122.333 16.6808C121.009 19.4671 120.404 22.4739 120.515 25.478H121.308C121.194 22.5922 121.775 19.7038 123.046 17.0305C125.081 12.7435 128.635 9.52153 133.054 7.95627C134.94 7.2866 136.885 6.9558 138.825 6.9558C141.428 6.9558 144.02 7.55554 146.433 8.74159C150.645 10.8125 153.811 14.4298 155.348 18.9265C158.525 28.2078 153.689 38.3874 144.57 41.6174C140.875 42.9272 136.946 42.946 133.297 41.7061L133.046 42.4726C134.914 43.1073 136.851 43.4274 138.796 43.4274C140.823 43.4274 142.857 43.0805 144.829 42.3812C154.363 39.0006 159.418 28.3611 156.099 18.6603Z" fill="#52ADD7" stroke="#52ADD7" stroke-width="2" stroke-miterlimit="10"/>
<path d="M157.674 18.101C155.919 12.9723 152.31 8.84933 147.505 6.48531C142.704 4.12129 137.284 3.80393 132.245 5.58972C123.792 8.58577 118.57 16.8155 118.853 25.4755H119.117C118.834 16.9257 123.987 8.80092 132.332 5.84253C137.303 4.08094 142.651 4.39561 147.392 6.72736C152.13 9.05911 155.695 13.1309 157.425 18.1898C160.998 28.6356 155.557 40.09 145.294 43.7288C141.008 45.2483 136.55 45.1649 132.549 43.796L132.475 44.0515C134.504 44.7454 136.647 45.1138 138.827 45.1138C141.002 45.1138 143.211 44.7508 145.378 43.9816C155.779 40.297 161.294 28.6867 157.674 18.101Z" fill="#52ADD7"/>
<path d="M132.193 5.83153C132.029 5.83153 131.876 5.72665 131.818 5.5599L130.1 0.536011C130.029 0.326234 130.137 0.0949406 130.343 0.0223255C130.549 -0.0502895 130.777 0.0599773 130.848 0.269754L132.566 5.29364C132.637 5.50342 132.529 5.73471 132.322 5.80733C132.28 5.82616 132.235 5.83153 132.193 5.83153Z" fill="#52ADD7"/>
<path d="M137.374 20.7122C137.318 20.7122 137.268 20.6773 137.249 20.6208L133.502 9.66396C133.479 9.59404 133.516 9.51604 133.584 9.49184C133.653 9.46763 133.727 9.50529 133.753 9.57521L137.5 20.532C137.524 20.6019 137.487 20.6799 137.419 20.7041C137.403 20.7095 137.387 20.7122 137.374 20.7122Z" fill="#52ADD7"/>
<path d="M154.691 12.5094C154.575 12.5094 154.459 12.4556 154.38 12.3561C154.245 12.1813 154.274 11.9285 154.446 11.7887L158.462 8.55326C158.634 8.41341 158.882 8.44568 159.02 8.6205C159.155 8.79531 159.126 9.04812 158.954 9.18797L154.937 12.4234C154.866 12.4799 154.779 12.5094 154.691 12.5094Z" fill="#52ADD7"/>
<path d="M142.298 22.2235C142.258 22.2235 142.221 22.2047 142.195 22.1724C142.15 22.1132 142.161 22.0299 142.216 21.9842L151.158 14.7818C151.217 14.7361 151.298 14.7469 151.343 14.8033C151.388 14.8625 151.378 14.9459 151.322 14.9916L142.38 22.1939C142.356 22.2128 142.327 22.2235 142.298 22.2235Z" fill="#52ADD7"/>
<path d="M159.611 39.9715C159.529 39.9715 159.449 39.9473 159.378 39.8935L155.126 36.7522C154.949 36.6205 154.91 36.3703 155.039 36.1875C155.169 36.0073 155.414 35.9669 155.594 36.0987L159.846 39.24C160.023 39.3718 160.063 39.6219 159.933 39.8048C159.854 39.915 159.732 39.9715 159.611 39.9715Z" fill="#52ADD7"/>
<path d="M151.848 33.9659C151.821 33.9659 151.792 33.9578 151.771 33.939L142.53 27.1105C142.472 27.0675 142.459 26.9841 142.501 26.9222C142.544 26.8631 142.628 26.8496 142.686 26.8927L151.927 33.7212C151.985 33.7642 151.999 33.8476 151.956 33.9094C151.93 33.9471 151.888 33.9659 151.848 33.9659Z" fill="#52ADD7"/>
<path d="M131.297 49.8469C131.257 49.8469 131.22 49.8415 131.18 49.8281C130.972 49.7635 130.853 49.5376 130.919 49.3252L132.443 44.2663C132.507 44.0538 132.729 43.9328 132.938 44C133.146 44.0646 133.265 44.2905 133.199 44.503L131.674 49.5618C131.622 49.7366 131.466 49.8469 131.297 49.8469Z" fill="#52ADD7"/>
<path d="M134.108 40.2457C134.095 40.2457 134.082 40.243 134.068 40.2403C134 40.2188 133.96 40.1435 133.981 40.0735L137.324 28.9823C137.345 28.9123 137.419 28.8693 137.488 28.8935C137.557 28.915 137.596 28.9903 137.575 29.0603L134.232 40.1515C134.216 40.208 134.166 40.2457 134.108 40.2457Z" fill="#52ADD7"/>
<path d="M113.441 25.4297C113.225 25.4297 113.045 25.2495 113.045 25.029C113.045 24.8057 113.219 24.6255 113.439 24.6229L118.689 24.5879H118.692C118.909 24.5879 119.088 24.7681 119.088 24.9886C119.088 25.2118 118.914 25.392 118.695 25.3947L113.441 25.4297C113.441 25.4297 113.444 25.4297 113.441 25.4297Z" fill="#52ADD7"/>
<path d="M123.033 25.0986C122.962 25.0986 122.901 25.0395 122.901 24.9642C122.901 24.8889 122.96 24.8297 123.033 24.8297L134.518 24.7571C134.589 24.7571 134.65 24.8162 134.65 24.8916C134.65 24.9669 134.592 25.026 134.518 25.026L123.033 25.0986C123.036 25.0986 123.036 25.0986 123.033 25.0986Z" fill="#52ADD7"/>
<path d="M139.118 27.5137C138.751 27.5137 138.386 27.4357 138.04 27.277C137.403 26.9839 136.914 26.4567 136.666 25.7898C136.418 25.1228 136.441 24.3993 136.729 23.7485C137.017 23.1003 137.535 22.6028 138.191 22.35C138.846 22.0972 139.557 22.1214 140.196 22.4145C140.833 22.7077 141.322 23.2348 141.57 23.9018C141.819 24.5688 141.795 25.2922 141.507 25.9431C141.219 26.5912 140.701 27.0888 140.046 27.3416C139.744 27.4572 139.433 27.5137 139.118 27.5137ZM139.121 22.9847C138.901 22.9847 138.685 23.025 138.473 23.1057C137.53 23.4688 137.054 24.5446 137.411 25.5047C137.583 25.97 137.924 26.3384 138.368 26.5428C138.812 26.7472 139.308 26.7633 139.766 26.5885C140.223 26.4137 140.585 26.0668 140.786 25.615C140.986 25.1631 141.002 24.6575 140.831 24.1922C140.659 23.727 140.318 23.3585 139.874 23.1541C139.631 23.0411 139.377 22.9847 139.121 22.9847Z" fill="#52ADD7"/>
</svg>
