<svg width="631" height="500" viewBox="0 0 631 500" fill="none" xmlns="http://www.w3.org/2000/svg">
<path opacity="0.5" d="M217.709 265.938L55.6792 360.314" stroke="url(#paint0_linear_5409_6102)" stroke-width="1.4" stroke-miterlimit="10" stroke-linecap="round" stroke-linejoin="round"/>
<path opacity="0.5" d="M407.637 473.874L569.429 380.452C575.151 377.115 575.151 368.893 569.429 365.557L562.99 361.863L491.931 320.872" stroke="url(#paint1_linear_5409_6102)" stroke-width="1.4" stroke-miterlimit="10" stroke-linecap="round" stroke-linejoin="round"/>
<path opacity="0.5" d="M208.17 382.478L46.3791 289.056C40.6562 285.719 40.6562 277.497 46.3791 274.161L52.8174 270.467L73.6821 258.431" stroke="url(#paint2_linear_5409_6102)" stroke-width="1.4" stroke-miterlimit="10" stroke-linecap="round" stroke-linejoin="round"/>
<path opacity="0.5" d="M404.18 307.764L475.239 348.755L481.677 352.449C487.4 355.786 487.4 364.008 481.677 367.344L364.954 434.67L356.727 439.437L261.584 494.37C252.403 499.613 241.077 499.613 231.896 494.37L45.3057 386.648" stroke="url(#paint3_linear_5409_6102)" stroke-width="1.4" stroke-miterlimit="10" stroke-linecap="round" stroke-linejoin="round"/>
<path opacity="0.5" d="M404.18 280L475.239 320.991L481.677 324.685C487.4 328.022 487.4 336.244 481.677 339.58L364.954 406.906L356.727 411.673L261.584 466.606C252.403 471.849 241.077 471.849 231.896 466.606L45.3057 358.884" stroke="url(#paint4_linear_5409_6102)" stroke-width="1.4" stroke-miterlimit="10" stroke-linecap="round" stroke-linejoin="round"/>
<path d="M0 380.571L110.762 316.582L138.78 332.788L28.0184 396.777L0 380.571Z" fill="url(#paint5_linear_5409_6102)"/>
<path d="M28.0184 355.786L0 339.58L28.0184 323.374L56.156 339.58L28.0184 355.786Z" fill="url(#paint6_linear_5409_6102)"/>
<path d="M28.0186 355.786V396.777L56.1562 380.571V339.58L28.0186 355.786Z" fill="url(#paint7_linear_5409_6102)"/>
<path d="M28.0184 355.786L0 339.58V380.571L28.0184 396.777V355.786Z" fill="url(#paint8_linear_5409_6102)"/>
<path opacity="0.09" d="M28.0184 396.777L0 380.571L28.0184 364.365L56.156 380.571L28.0184 396.777Z" fill="url(#paint9_linear_5409_6102)"/>
<path d="M58.6592 251.52L169.421 187.65L197.44 203.856L86.6776 267.726L58.6592 251.52Z" fill="url(#paint10_linear_5409_6102)"/>
<path d="M86.6776 158.336L58.6592 142.13L86.6776 125.925L114.815 142.13L86.6776 158.336Z" fill="url(#paint11_linear_5409_6102)"/>
<path d="M86.6777 158.336V267.726L114.815 251.52V142.13L86.6777 158.336Z" fill="url(#paint12_linear_5409_6102)"/>
<path d="M86.6776 158.336L58.6592 142.13V251.52L86.6776 267.726V158.336Z" fill="url(#paint13_linear_5409_6102)"/>
<path opacity="0.07" d="M86.6776 267.726L58.6592 251.52L86.6776 235.314L114.815 251.52L86.6776 267.726Z" fill="url(#paint14_linear_5409_6102)"/>
<g opacity="0.54">
<path d="M118.75 352.688L431.721 172.04C435.06 170.133 439.114 170.133 442.452 172.04L582.067 252.593C586.24 254.976 586.24 260.934 582.067 263.317L273.03 441.82C270.407 443.369 267.069 443.369 264.446 441.82L118.75 357.812C116.842 356.62 116.842 353.76 118.75 352.688Z" fill="url(#paint15_linear_5409_6102)"/>
</g>
<path d="M427.906 299.542L538.668 235.672L566.806 251.878L456.044 315.748L427.906 299.542Z" fill="url(#paint16_linear_5409_6102)"/>
<path d="M456.044 246.396L427.906 230.19L456.044 213.984L484.062 230.19L456.044 246.396Z" fill="url(#paint17_linear_5409_6102)"/>
<path d="M456.044 246.396V315.748L484.062 299.542V230.19L456.044 246.396Z" fill="url(#paint18_linear_5409_6102)"/>
<path d="M456.044 246.396L427.906 230.19V299.542L456.044 315.748V246.396Z" fill="url(#paint19_linear_5409_6102)"/>
<path opacity="0.29" d="M456.044 315.748L427.906 299.542L456.044 283.336L484.062 299.542L456.044 315.748Z" fill="url(#paint20_linear_5409_6102)"/>
<path d="M403.822 116.63L264.207 36.0775C263.253 35.2433 261.823 35.005 260.63 35.72L254.907 39.0565C252.761 40.3672 251.45 42.6313 251.45 45.1337V226.139C251.45 228.88 250.735 231.62 249.423 234.003C248.112 236.506 245.965 238.651 243.462 240.2L85.9625 331C84.1741 331.954 83.1011 333.86 83.1011 335.886V344.585C83.1011 345.657 83.8164 346.61 84.7703 346.849V346.968L224.266 427.282C224.266 427.282 226.054 425.971 226.174 423.112L226.531 423.231L398.576 317.178L401.199 134.862C405.849 128.427 403.822 116.63 403.822 116.63Z" fill="url(#paint21_linear_5409_6102)"/>
<path d="M395.596 319.203L226.412 423.469L226.174 423.35C226.054 426.21 224.266 427.52 224.266 427.52L84.7703 347.206V347.087C83.8164 346.729 83.1011 345.895 83.1011 344.823V336.124C83.1011 334.098 84.1741 332.311 85.9625 331.239L243.462 240.319C245.846 238.889 247.754 236.982 249.065 234.718L395.596 319.203Z" fill="url(#paint22_linear_5409_6102)"/>
<path d="M403.822 116.63L264.207 36.0775C263.253 35.2433 261.822 35.005 260.63 35.72L254.907 39.0565C253.953 39.6523 253.119 40.4864 252.522 41.4397L403.583 128.785C404.895 122.946 403.822 116.63 403.822 116.63Z" fill="url(#paint23_linear_5409_6102)"/>
<path d="M83.1011 335.886V344.585C83.1011 345.657 83.8164 346.61 84.7703 346.849V346.968L224.266 427.282C224.266 427.282 226.054 425.971 226.174 423.111L226.531 423.231L234.758 418.226L83.6972 333.383C83.3395 334.098 83.1011 334.933 83.1011 335.886Z" fill="url(#paint24_linear_5409_6102)"/>
<path d="M400.961 116.749C403.107 115.558 405.73 117.107 405.73 119.49V309.313C405.73 318.608 400.723 327.306 392.615 331.954L227.009 427.521C225.339 428.474 223.312 427.282 223.312 425.376V416.796C223.312 414.77 224.386 412.983 226.174 411.91L383.673 320.991C386.296 319.442 388.323 317.297 389.634 314.794C390.946 312.411 391.661 309.79 391.661 306.93V126.163C391.661 123.661 392.973 121.397 395.119 120.086L400.961 116.749Z" fill="url(#paint25_linear_5409_6102)"/>
<g opacity="0.32">
<path d="M202.09 379.26L336.578 301.687C338.486 300.614 340.751 300.614 342.659 301.687L363.762 313.841C365.55 314.914 365.55 317.416 363.762 318.369L229.274 395.943C227.366 397.015 225.101 397.015 223.193 395.943L202.09 383.788C200.302 382.716 200.302 380.214 202.09 379.26ZM111.239 328.975L245.608 251.401C247.515 250.328 249.781 250.328 251.688 251.401L272.792 263.555C274.58 264.628 274.58 267.13 272.792 268.083L138.423 345.657C136.515 346.729 134.25 346.729 132.342 345.657L111.239 333.622C109.45 332.549 109.45 330.047 111.239 328.975Z" stroke="#F29DE3" stroke-width="1.4" stroke-miterlimit="10" stroke-linecap="round" stroke-linejoin="round"/>
</g>
<path d="M200.898 378.545L335.267 300.972C337.175 299.899 339.44 299.899 341.348 300.972L362.451 313.126C364.239 314.199 364.239 316.701 362.451 317.654L228.082 395.228C226.174 396.3 223.909 396.3 222.001 395.228L200.898 383.074C199.11 382.001 199.11 379.499 200.898 378.545ZM109.928 328.26L244.297 250.686C246.204 249.614 248.47 249.614 250.377 250.686L271.481 262.84C273.269 263.913 273.269 266.415 271.481 267.368L137.111 344.942C135.204 346.015 132.939 346.015 131.031 344.942L109.928 332.788C108.258 331.834 108.258 329.332 109.928 328.26Z" stroke="#3D68DC" stroke-width="1.4" stroke-miterlimit="10" stroke-linecap="round" stroke-linejoin="round"/>
<path d="M350.647 282.74C349.574 282.74 348.382 282.383 347.428 281.906L292.941 250.448C290.318 248.899 288.411 246.515 287.457 243.655C286.98 242.464 286.742 241.153 286.742 239.723V155.715C286.742 151.783 289.961 148.565 293.895 148.565C295.088 148.565 296.399 148.923 297.472 149.518L351.244 180.5C354.94 182.645 357.205 186.577 357.205 190.867V276.306C357.205 278.093 356.49 279.761 355.178 280.953C353.867 282.144 352.317 282.74 350.647 282.74Z" fill="url(#paint26_linear_5409_6102)"/>
<path d="M350.647 249.375C349.574 249.375 348.382 249.018 347.428 248.541L292.941 217.083C290.318 215.534 288.411 213.15 287.457 210.291C286.98 209.099 286.742 207.788 286.742 206.358V122.35C286.742 118.418 289.961 115.2 293.895 115.2C295.088 115.2 296.399 115.558 297.472 116.153L351.244 147.135C354.94 149.28 357.205 153.212 357.205 157.502V242.821C357.205 244.609 356.49 246.277 355.178 247.469C353.867 248.779 352.317 249.375 350.647 249.375Z" fill="url(#paint27_linear_5409_6102)"/>
<path d="M347.905 250.924C346.832 250.924 345.64 250.567 344.686 250.09L290.08 218.513C287.457 216.963 285.549 214.58 284.595 211.72C284.118 210.529 283.88 209.218 283.88 207.788V123.78C283.88 119.847 287.099 116.63 291.034 116.63C292.226 116.63 293.537 116.988 294.61 117.583L348.382 148.565C352.078 150.71 354.343 154.642 354.343 158.932V244.37C354.343 246.158 353.628 247.826 352.316 249.018C351.124 250.209 349.574 250.924 347.905 250.924Z" fill="url(#paint28_linear_5409_6102)"/>
<path d="M351.601 173.827V244.37C351.601 247.23 348.501 249.018 345.997 247.588L291.51 216.129C289.484 214.938 287.934 213.15 287.218 210.886L351.601 173.827Z" fill="url(#paint29_linear_5409_6102)"/>
<path d="M293.299 119.967C290.438 118.298 286.742 120.443 286.742 123.78V207.788C286.742 208.86 286.861 209.933 287.219 210.886L301.287 202.783V124.614L293.299 119.967Z" fill="url(#paint30_linear_5409_6102)"/>
<path d="M351.601 158.932C351.601 155.715 349.813 152.617 346.951 150.948L301.287 124.614V202.783L351.601 173.827V158.932Z" fill="url(#paint31_linear_5409_6102)"/>
<path d="M335.385 241.391L291.51 216.129C291.51 216.129 291.391 216.129 291.391 216.01C303.194 214.699 315.832 216.606 325.013 221.849C334.193 227.211 337.651 234.599 335.385 241.391Z" fill="url(#paint32_linear_5409_6102)"/>
<path d="M335.385 241.391V244.609L292.941 220.181L291.391 219.347L291.51 216.129L335.385 241.391Z" fill="url(#paint33_linear_5409_6102)"/>
<path d="M335.982 245.085V285.004L292.941 259.861V220.181L335.982 245.085Z" fill="url(#paint34_linear_5409_6102)"/>
<path d="M381 333.175L419.51 355.458C422.73 357.365 424.637 360.701 424.637 364.395V401.812" stroke="url(#paint35_linear_5409_6102)" stroke-width="1.4" stroke-miterlimit="10" stroke-linecap="round" stroke-linejoin="round"/>
<path d="M389.584 328.766L428.095 351.05C431.314 352.956 433.222 356.293 433.222 359.987V397.403" stroke="url(#paint36_linear_5409_6102)" stroke-width="1.4" stroke-miterlimit="10" stroke-linecap="round" stroke-linejoin="round"/>
<path d="M397.931 324L436.441 346.283C439.66 348.19 441.568 351.526 441.568 355.22V392.637" stroke="url(#paint37_linear_5409_6102)" stroke-width="1.4" stroke-miterlimit="10" stroke-linecap="round" stroke-linejoin="round"/>
<path d="M335.386 284.647C334.194 288.817 330.736 292.869 325.132 296.086C310.587 304.547 287.099 304.547 272.434 296.086C257.888 287.626 257.769 274.041 272.315 265.581C278.038 262.245 285.31 260.219 292.822 259.504V259.861L335.386 284.647Z" fill="url(#paint38_linear_5409_6102)"/>
<path d="M333.24 2.23573C327.398 -1.10077 320.841 -0.504964 315.952 2.71238L306.414 8.4321L314.641 14.7476V58.5988L343.136 75.0429L348.382 96.611L358.159 90.7722V45.4911C358.159 27.7361 348.74 11.1728 333.24 2.23573Z" fill="url(#paint39_linear_5409_6102)"/>
<path d="M349 101V53.6045C349 34.8958 339.431 17.6837 323.88 8.32938C312.756 1.71896 299 9.9508 299 23.2964V70.8166L349 101Z" fill="url(#paint40_linear_5409_6102)"/>
<path d="M327.875 42.3928C327.636 44.1802 326.921 45.6102 325.609 46.3251C324.059 47.1592 322.032 46.9209 320.006 45.7293C317.979 44.5377 315.952 42.512 314.521 39.8904C312.971 37.2689 312.256 34.5282 312.256 32.145C312.256 29.8809 313.09 27.9744 314.64 27.1402C315.952 26.4253 317.502 26.4253 319.171 27.1402C319.529 27.2594 319.886 27.4977 320.244 27.6169C322.271 28.8085 324.298 30.8342 325.729 33.4558C326.921 35.4815 327.636 35.0048 327.875 36.9114C327.994 37.5072 327.994 40.6054 327.994 41.2012C327.994 41.6778 327.875 42.0353 327.875 42.3928Z" fill="url(#paint41_linear_5409_6102)"/>
<path d="M327.875 37.9839C327.636 39.7713 326.921 41.2012 325.609 41.9162C324.059 42.7503 322.032 42.512 320.006 41.3204C317.979 40.1288 315.952 38.103 314.521 35.4815C312.971 32.86 312.256 30.1193 312.256 27.736C312.256 25.472 313.09 23.5654 314.64 22.7313C315.952 22.0163 317.502 22.0163 319.171 22.7313C319.529 22.8505 319.886 23.0888 320.244 23.2079C322.271 24.3995 324.298 26.4253 325.729 29.0468C327.278 31.6683 327.994 34.409 327.994 36.7923C327.994 37.1497 327.875 37.6264 327.875 37.9839Z" fill="url(#paint42_linear_5409_6102)"/>
<path d="M325.609 39.0564C325.371 40.8438 324.656 42.2737 323.344 42.9887C321.794 43.8228 319.767 43.5845 317.74 42.3929C315.714 41.2013 313.687 39.1755 312.256 36.554C310.706 33.9325 309.991 31.1918 309.991 28.8086C309.991 26.5445 310.825 24.6379 312.375 23.8038C313.687 23.0888 315.237 23.0888 316.906 23.8038C317.264 23.923 317.621 24.1613 317.979 24.2804C320.006 25.4721 322.033 27.4978 323.463 30.1193C325.013 32.7409 325.729 35.4816 325.729 37.8648C325.729 38.3414 325.729 38.6989 325.609 39.0564Z" fill="url(#paint43_linear_5409_6102)"/>
<g opacity="0.33">
<path d="M351.601 151.663L272.315 194.8L285.311 202.545L351.601 164.056V151.663Z" fill="url(#paint44_linear_5409_6102)"/>
<path d="M285.31 202.545L305.817 214.819L351.6 185.743V164.056L285.31 202.545Z" fill="url(#paint45_linear_5409_6102)"/>
<path d="M305.818 214.819L328.709 228.522L351.601 212.793V185.744L305.818 214.819Z" fill="url(#paint46_linear_5409_6102)"/>
</g>
<path d="M325.013 200.4C310.467 191.94 286.86 191.94 272.315 200.4C257.769 208.861 257.888 222.445 272.434 230.905C286.98 239.366 310.587 239.366 325.132 230.905C339.678 222.445 339.559 208.861 325.013 200.4Z" fill="url(#paint47_linear_5409_6102)"/>
<path d="M325.013 194.8C310.467 186.339 286.86 186.339 272.315 194.8C257.769 203.26 257.888 216.844 272.434 225.305C286.98 233.765 310.587 233.765 325.132 225.305C339.678 216.844 339.559 203.141 325.013 194.8Z" fill="url(#paint48_linear_5409_6102)"/>
<path d="M298.902 230.429C289.126 230.429 280.064 228.284 273.149 224.232C266.472 220.419 262.776 215.295 262.776 209.933C262.776 204.69 266.353 199.566 273.03 195.753C279.826 191.821 289.006 189.556 298.783 189.556C308.56 189.556 317.621 191.701 324.536 195.753C331.213 199.566 334.909 204.69 334.909 210.052C334.909 215.295 331.332 220.419 324.655 224.232C317.74 228.165 308.679 230.429 298.902 230.429Z" fill="url(#paint49_linear_5409_6102)"/>
<path d="M315.595 202.903L308.56 198.851L294.372 202.783L288.292 200.758L286.503 202.545L290.438 203.856L279.23 206.954L300.214 219.108L305.341 218.155L290.676 209.695L299.976 207.192L306.176 209.218L307.964 207.431L304.03 206.12L315.595 202.903Z" fill="url(#paint50_linear_5409_6102)"/>
<mask id="mask0_5409_6102" style="mask-type:luminance" maskUnits="userSpaceOnUse" x="286" y="119" width="66" height="130">
<path d="M346.951 151.068L293.18 120.086C290.318 118.418 286.622 120.562 286.622 123.899V207.907C286.622 208.98 286.741 210.052 287.099 211.005C287.814 213.15 289.364 215.057 291.391 216.249L345.878 247.707C348.382 249.137 351.482 247.35 351.482 244.49V173.946V159.051C351.601 155.715 349.812 152.617 346.951 151.068Z" fill="white"/>
</mask>
<g mask="url(#mask0_5409_6102)">
<path d="M402.988 161.435C388.442 152.974 364.835 152.974 350.289 161.435C335.744 169.895 335.863 183.479 350.409 191.94C364.954 200.4 388.561 200.4 403.107 191.94C417.653 183.479 417.533 169.776 402.988 161.435Z" fill="url(#paint51_linear_5409_6102)"/>
<path d="M402.988 155.715C388.442 147.254 364.835 147.254 350.289 155.715C335.744 164.175 335.863 177.76 350.409 186.22C364.954 194.68 388.561 194.68 403.107 186.22C417.653 177.879 417.533 164.175 402.988 155.715Z" fill="url(#paint52_linear_5409_6102)"/>
<path d="M376.877 191.344C367.101 191.344 358.039 189.199 351.124 185.148C344.448 181.334 340.751 176.211 340.751 170.848C340.751 165.605 344.328 160.481 351.005 156.668C357.801 152.736 366.981 150.472 376.639 150.472C386.415 150.472 395.477 152.617 402.392 156.668C409.069 160.481 412.765 165.605 412.765 170.967C412.765 176.211 409.188 181.334 402.511 185.148C395.715 189.199 386.535 191.344 376.877 191.344Z" fill="url(#paint53_linear_5409_6102)"/>
</g>
<path d="M238.931 225.185C222.955 216.01 209.959 223.398 209.84 241.749C209.84 260.1 222.716 282.502 238.693 291.796C254.669 300.972 267.665 293.584 267.784 275.233C267.784 256.763 254.908 234.361 238.931 225.185Z" fill="url(#paint54_linear_5409_6102)"/>
<path d="M234.043 227.33C218.066 218.155 205.071 225.543 204.951 243.894C204.832 262.245 217.828 284.647 233.804 293.941C249.781 303.117 262.777 295.729 262.896 277.378C263.015 258.908 250.019 236.625 234.043 227.33Z" fill="url(#paint55_linear_5409_6102)"/>
<path d="M246.92 296.682C243.105 296.682 238.932 295.371 234.52 292.869C218.902 283.813 206.144 261.887 206.264 243.894C206.264 231.978 211.986 224.59 221.167 224.59C224.982 224.59 229.274 225.9 233.567 228.403C249.185 237.459 261.943 259.385 261.823 277.378C261.704 289.294 255.981 296.682 246.92 296.682Z" fill="url(#paint56_linear_5409_6102)"/>
<path d="M227.962 266.058V260.219L231.897 262.483C232.851 263.079 233.685 263.794 234.162 264.628C234.639 265.462 234.997 266.296 234.997 267.249C234.997 269.156 233.924 269.513 231.897 268.322L227.962 266.058ZM227.962 255.691V250.09L231.539 252.116C233.447 253.188 234.401 254.737 234.401 256.644C234.401 258.551 233.447 258.908 231.539 257.836L227.962 255.691ZM234.758 245.443L232.016 243.894V247.349L229.036 245.562V242.106L226.413 240.557V244.013L222.597 241.749L222.478 267.964L226.293 270.228V273.207L228.916 274.756V271.777L231.897 273.565V276.544L234.639 278.093V274.995C236.308 275.71 237.62 275.948 238.574 275.471C239.885 274.995 240.481 273.565 240.601 271.301C240.601 269.752 240.243 268.203 239.408 266.534C238.574 264.866 237.501 263.555 236.07 262.364C237.262 262.721 238.216 262.602 238.931 262.006C239.647 261.41 240.004 260.219 240.004 258.67C240.004 256.525 239.408 254.499 238.097 252.592C237.262 251.282 236.07 250.09 234.639 249.018L234.758 245.443Z" fill="url(#paint57_linear_5409_6102)"/>
<path d="M216.994 325.042C202.448 316.582 178.841 316.582 164.295 325.042C149.749 333.503 149.869 347.087 164.414 355.547C178.96 364.008 202.567 364.008 217.113 355.547C231.659 347.087 231.539 333.503 216.994 325.042Z" fill="url(#paint58_linear_5409_6102)"/>
<path d="M216.994 317.893C202.448 309.432 178.841 309.432 164.295 317.893C149.749 326.353 149.869 339.937 164.414 348.398C178.96 356.858 202.567 356.858 217.113 348.398C231.659 339.937 231.539 326.353 216.994 317.893Z" fill="url(#paint59_linear_5409_6102)"/>
<path d="M216.994 312.292C202.448 303.832 178.841 303.832 164.295 312.292C149.749 320.752 149.869 334.337 164.414 342.797C178.96 351.258 202.567 351.258 217.113 342.797C231.659 334.337 231.539 320.633 216.994 312.292Z" fill="url(#paint60_linear_5409_6102)"/>
<path d="M190.882 347.921C181.106 347.921 172.044 345.776 165.129 341.725C158.452 337.912 154.756 332.788 154.756 327.425C154.756 322.182 158.333 317.058 165.01 313.245C171.806 309.313 180.986 307.049 190.763 307.049C200.54 307.049 209.601 309.194 216.516 313.245C223.193 317.058 226.889 322.182 226.889 327.545C226.889 332.788 223.312 337.912 216.635 341.725C209.72 345.657 200.659 347.921 190.882 347.921Z" fill="url(#paint61_linear_5409_6102)"/>
<path d="M174.19 317.058L196.009 321.467L191.955 327.425L181.583 329.69L174.19 317.058Z" fill="url(#paint62_linear_5409_6102)"/>
<path d="M182.656 331.358L194.459 328.855L198.871 321.944L207.336 336.243L182.656 331.358Z" fill="url(#paint63_linear_5409_6102)"/>
<path opacity="0.35" d="M249.185 317.178L220.928 301.091C218.544 299.661 218.544 296.205 220.928 294.775C223.193 293.465 226.055 293.465 228.32 294.775L256.577 310.862C258.962 312.292 258.962 315.748 256.577 317.178C254.312 318.369 251.569 318.369 249.185 317.178Z" fill="url(#paint64_linear_5409_6102)"/>
<path opacity="0.5" d="M263.253 63.2461C262.538 62.7695 261.584 63.3653 261.584 64.1994V85.8867C261.584 86.7208 262.061 87.5549 262.776 88.0316L266.353 90.1765C267.188 90.6531 268.261 90.0573 268.261 89.104V67.5359C268.261 66.7018 267.784 65.9868 267.068 65.5102L263.253 63.2461Z" fill="#F29DE3"/>
<path d="M262.657 62.2928C261.942 61.8161 260.988 62.4119 260.988 63.2461V84.9333C260.988 85.7674 261.465 86.6016 262.18 87.0782L266.234 89.4614C266.83 89.8189 267.665 89.3423 267.665 88.6273V66.4634C267.665 65.6293 267.188 64.9143 266.472 64.4377L262.657 62.2928Z" fill="url(#paint65_linear_5409_6102)"/>
<path d="M422.303 449.208L533.065 385.338L561.083 401.544L450.321 465.414L422.303 449.208Z" fill="url(#paint66_linear_5409_6102)"/>
<path d="M450.321 396.062L422.303 379.856L450.321 363.65L478.459 379.856L450.321 396.062Z" fill="url(#paint67_linear_5409_6102)"/>
<path d="M450.321 396.062V465.414L478.459 449.208V379.856L450.321 396.062Z" fill="url(#paint68_linear_5409_6102)"/>
<path d="M450.321 396.062L422.303 379.856V449.208L450.321 465.414V396.062Z" fill="url(#paint69_linear_5409_6102)"/>
<path opacity="0.29" d="M450.321 465.414L422.303 449.208L450.321 433.002L478.459 449.208L450.321 465.414Z" fill="url(#paint70_linear_5409_6102)"/>
<path d="M387.965 469.108L498.727 405.118L526.746 421.324L415.984 485.313L387.965 469.108Z" fill="url(#paint71_linear_5409_6102)"/>
<path d="M415.984 375.805L387.965 359.599L415.984 343.512L444.002 359.599L415.984 375.805Z" fill="url(#paint72_linear_5409_6102)"/>
<path d="M415.983 375.805V485.313L444.001 469.108V359.599L415.983 375.805Z" fill="url(#paint73_linear_5409_6102)"/>
<path d="M415.984 375.805L387.965 359.599V469.108L415.984 485.313V375.805Z" fill="url(#paint74_linear_5409_6102)"/>
<path opacity="0.29" d="M415.984 485.313L387.965 469.108L415.984 452.902L444.002 469.108L415.984 485.313Z" fill="url(#paint75_linear_5409_6102)"/>
<path d="M216.755 159.885V207.669C216.755 209.695 214.49 211.005 212.701 209.933L155.353 176.687C153.684 175.734 152.611 173.946 152.611 171.921V123.899C152.611 121.992 154.757 120.801 156.307 121.754L213.894 155C215.682 156.191 216.755 157.979 216.755 159.885Z" fill="url(#paint76_linear_5409_6102)"/>
<path d="M214.609 160.6V208.384C214.609 210.41 212.343 211.72 210.555 210.648L153.207 177.402C151.537 176.449 150.464 174.661 150.464 172.636V124.852C150.464 122.946 152.61 121.754 154.16 122.707L211.747 155.953C213.655 156.906 214.609 158.694 214.609 160.6Z" fill="url(#paint77_linear_5409_6102)"/>
<path opacity="0.82" d="M203.044 170.014L175.502 154.047" stroke="#333D5E" stroke-width="1.4" stroke-miterlimit="10" stroke-linecap="round" stroke-linejoin="round"/>
<path opacity="0.82" d="M203.044 179.189L175.502 163.341" stroke="#333D5E" stroke-width="1.4" stroke-miterlimit="10" stroke-linecap="round" stroke-linejoin="round"/>
<path opacity="0.82" d="M192.313 182.288L175.502 172.516" stroke="#333D5E" stroke-width="1.4" stroke-miterlimit="10" stroke-linecap="round" stroke-linejoin="round"/>
<path d="M161.791 161.077V157.145L164.414 158.575C165.129 158.932 165.606 159.409 165.964 160.005C166.321 160.6 166.441 161.077 166.441 161.792C166.441 163.103 165.725 163.341 164.414 162.507L161.791 161.077ZM161.791 154.285V150.591L164.175 151.902C165.487 152.617 166.083 153.57 166.083 154.881C166.083 156.072 165.487 156.311 164.175 155.596L161.791 154.285ZM166.202 147.493L164.414 146.42V148.684L162.387 147.493V145.229L160.599 144.156V146.42L158.095 144.99V162.269L160.599 163.699V165.724L162.387 166.797V164.771L164.414 165.963V167.988L166.202 169.061V167.035C167.275 167.512 168.11 167.631 168.825 167.393C169.66 167.035 170.137 166.082 170.137 164.652C170.137 163.699 169.898 162.626 169.302 161.554C168.706 160.481 167.991 159.528 167.156 158.813C167.991 159.051 168.587 158.932 169.064 158.575C169.541 158.098 169.779 157.383 169.779 156.43C169.779 155 169.421 153.689 168.587 152.378C167.991 151.544 167.156 150.71 166.321 149.995L166.202 147.493Z" fill="url(#paint78_linear_5409_6102)"/>
<path d="M216.755 97.9218V145.705C216.755 147.731 214.49 149.042 212.701 147.969L155.353 114.723C153.684 113.77 152.611 111.983 152.611 109.957V61.9352C152.611 60.0287 154.757 58.8371 156.307 59.7903L213.894 93.0362C215.682 94.1087 216.755 95.8961 216.755 97.9218Z" fill="url(#paint79_linear_5409_6102)"/>
<path d="M214.609 98.6368V146.42C214.609 148.446 212.343 149.757 210.555 148.684L153.207 115.438C151.537 114.485 150.464 112.698 150.464 110.672V62.6502C150.464 60.7436 152.61 59.552 154.16 60.5053L211.747 93.7512C213.655 94.8236 214.609 96.611 214.609 98.6368Z" fill="url(#paint80_linear_5409_6102)"/>
<path d="M166.322 89.4613L162.149 87.0781L160.003 92.917L157.141 92.202L157.499 94.1086L159.287 94.5853L157.618 99.2325L169.898 106.382L170.971 104.595L162.387 99.59L163.818 95.7769L166.679 96.4918L166.322 94.5853L164.414 94.1086L166.322 89.4613Z" fill="url(#paint81_linear_5409_6102)"/>
<path opacity="0.5" d="M203.044 107.931L175.502 92.0829" stroke="#001132" stroke-width="1.4" stroke-miterlimit="10" stroke-linecap="round" stroke-linejoin="round"/>
<path opacity="0.5" d="M203.044 117.226L175.502 101.258" stroke="#001132" stroke-width="1.4" stroke-miterlimit="10" stroke-linecap="round" stroke-linejoin="round"/>
<path opacity="0.5" d="M192.313 120.205L175.502 110.553" stroke="#001132" stroke-width="1.4" stroke-miterlimit="10" stroke-linecap="round" stroke-linejoin="round"/>
<path d="M127.334 213.389L184.921 246.635C186.59 247.588 187.663 249.375 187.663 251.401V310.266C187.663 310.624 187.306 310.981 187.067 310.981C186.829 310.981 185.04 311.935 184.921 311.696L180.629 299.661L126.38 268.322C124.711 267.368 123.638 265.581 123.638 263.555V215.534C123.638 213.627 125.665 212.435 127.334 213.389Z" fill="url(#paint82_linear_5409_6102)"/>
<path d="M125.188 214.223L182.775 247.469C184.444 248.422 185.517 250.209 185.517 252.235V311.1C185.517 311.815 184.563 312.054 184.206 311.458L178.483 300.495L124.234 269.037C122.565 268.083 121.492 266.296 121.492 264.27V216.248C121.492 214.461 123.638 213.269 125.188 214.223Z" fill="url(#paint83_linear_5409_6102)"/>
<path d="M135.084 234.48L130.315 242.821L135.084 247.945L139.734 248.184L135.084 234.48Z" fill="url(#paint84_linear_5409_6102)"/>
<path d="M140.33 250.09L134.965 249.733L129.719 243.894L134.965 259.504L140.33 250.09Z" fill="url(#paint85_linear_5409_6102)"/>
<path opacity="0.5" d="M173.952 261.53L146.41 245.562" stroke="#001132" stroke-width="1.4" stroke-miterlimit="10" stroke-linecap="round" stroke-linejoin="round"/>
<path opacity="0.5" d="M173.952 270.705L146.41 254.857" stroke="#001132" stroke-width="1.4" stroke-miterlimit="10" stroke-linecap="round" stroke-linejoin="round"/>
<path opacity="0.5" d="M163.221 273.803L146.41 264.032" stroke="#001132" stroke-width="1.4" stroke-miterlimit="10" stroke-linecap="round" stroke-linejoin="round"/>
<path d="M630.473 312.411L584.809 285.719L506.715 330.762C497.892 331 489.189 333.145 482.393 337.077C467.847 345.538 467.966 359.122 482.512 367.583C497.058 376.043 520.665 376.043 535.21 367.583C536.164 366.987 537.118 366.391 537.953 365.795L630.473 312.411Z" fill="url(#paint86_linear_5409_6102)"/>
<path d="M535.091 337.077C520.546 328.617 496.939 328.617 482.393 337.077C467.847 345.538 467.966 359.122 482.512 367.583C497.058 376.043 520.665 376.043 535.21 367.583C549.756 359.122 549.637 345.538 535.091 337.077Z" fill="url(#paint87_linear_5409_6102)"/>
<path d="M535.091 331.477C520.546 323.016 496.939 323.016 482.393 331.477C467.847 339.937 467.966 353.522 482.512 361.982C497.058 370.442 520.665 370.442 535.21 361.982C549.756 353.522 549.637 339.818 535.091 331.477Z" fill="url(#paint88_linear_5409_6102)"/>
<path d="M535.091 329.689C520.546 321.229 496.939 321.229 482.393 329.689C467.847 338.15 467.966 351.734 482.512 360.195C497.058 368.655 520.665 368.655 535.21 360.195C549.756 351.734 549.637 338.031 535.091 329.689Z" fill="url(#paint89_linear_5409_6102)"/>
<path d="M535.091 323.97C520.546 315.509 496.939 315.509 482.393 323.97C467.847 332.43 467.966 346.015 482.512 354.475C497.058 362.935 520.665 362.935 535.21 354.475C549.756 346.015 549.637 332.43 535.091 323.97Z" fill="url(#paint90_linear_5409_6102)"/>
<path d="M535.091 321.467C520.546 313.007 496.939 313.007 482.393 321.467C467.847 329.928 467.966 343.512 482.512 351.973C497.058 360.433 520.665 360.433 535.21 351.973C549.756 343.512 549.637 329.928 535.091 321.467Z" fill="url(#paint91_linear_5409_6102)"/>
<path d="M535.091 315.867C520.546 307.406 496.939 307.406 482.393 315.867C467.847 324.327 467.966 337.912 482.512 346.372C497.058 354.832 520.665 354.832 535.21 346.372C549.756 337.912 549.637 324.208 535.091 315.867Z" fill="url(#paint92_linear_5409_6102)"/>
<path d="M535.091 312.769C520.546 304.308 496.939 304.308 482.393 312.769C467.847 321.229 467.966 334.813 482.512 343.274C497.058 351.734 520.665 351.734 535.21 343.274C549.756 334.813 549.637 321.11 535.091 312.769Z" fill="url(#paint93_linear_5409_6102)"/>
<path d="M535.091 307.049C520.546 298.589 496.939 298.589 482.393 307.049C467.847 315.509 467.966 329.094 482.512 337.554C497.058 346.014 520.665 346.014 535.21 337.554C549.756 329.094 549.637 315.509 535.091 307.049Z" fill="url(#paint94_linear_5409_6102)"/>
<path d="M508.981 342.678C499.204 342.678 490.143 340.533 483.228 336.482C476.551 332.668 472.855 327.545 472.855 322.182C472.855 316.939 476.432 311.815 483.109 308.002C489.905 304.07 499.085 301.806 508.742 301.806C518.519 301.806 527.58 303.951 534.495 308.002C541.172 311.815 544.868 316.939 544.868 322.302C544.868 327.545 541.291 332.668 534.615 336.482C527.819 340.533 518.638 342.678 508.981 342.678Z" fill="url(#paint95_linear_5409_6102)"/>
<path d="M492.289 310.981L513.988 315.39L510.054 321.348L499.681 323.612L492.289 310.981Z" fill="url(#paint96_linear_5409_6102)"/>
<path d="M500.635 325.28L512.558 322.778L516.969 315.867L525.315 330.166L500.635 325.28Z" fill="url(#paint97_linear_5409_6102)"/>
<path d="M330.617 463.15C316.071 454.689 292.464 454.689 277.918 463.15C263.372 471.61 263.492 485.194 278.037 493.655C292.583 502.115 316.19 502.115 330.736 493.655C345.282 485.194 345.162 471.491 330.617 463.15Z" fill="url(#paint98_linear_5409_6102)"/>
<path d="M330.617 456C316.071 447.539 292.464 447.539 277.918 456C263.372 464.46 263.492 478.045 278.037 486.505C292.583 494.965 316.19 494.965 330.736 486.505C345.282 478.045 345.162 464.341 330.617 456Z" fill="url(#paint99_linear_5409_6102)"/>
<path d="M330.617 450.28C316.071 441.82 292.464 441.82 277.918 450.28C263.372 458.741 263.492 472.325 278.037 480.785C292.583 489.246 316.19 489.246 330.736 480.785C345.282 472.325 345.162 458.741 330.617 450.28Z" fill="url(#paint100_linear_5409_6102)"/>
<path d="M304.506 485.909C294.73 485.909 285.668 483.764 278.753 479.713C272.076 475.9 268.38 470.776 268.38 465.414C268.38 460.17 271.957 455.047 278.634 451.233C285.43 447.301 294.61 445.037 304.387 445.037C314.164 445.037 323.225 447.182 330.14 451.233C336.817 455.047 340.513 460.171 340.513 465.533C340.513 470.776 336.936 475.9 330.259 479.713C323.344 483.764 314.283 485.909 304.506 485.909Z" fill="url(#paint101_linear_5409_6102)"/>
<path d="M287.814 455.166L309.633 459.456L305.579 465.533L295.206 467.678L287.814 455.166Z" fill="url(#paint102_linear_5409_6102)"/>
<path d="M296.279 469.465L308.083 466.963L312.494 460.051L320.84 474.351L296.279 469.465Z" fill="url(#paint103_linear_5409_6102)"/>
<g opacity="0.4">
<path d="M444.002 394.99L415.983 423.112V432.287L444.002 404.165V394.99Z" fill="url(#paint104_linear_5409_6102)"/>
<path d="M444.121 375.805L415.983 403.927V419.418L444.121 391.296V375.805Z" fill="url(#paint105_linear_5409_6102)"/>
</g>
<g opacity="0.4">
<path d="M484.062 240.438L455.924 268.56V277.735L484.062 249.614V240.438Z" fill="url(#paint106_linear_5409_6102)"/>
<path d="M484.062 255.095L455.924 283.217V314.914L484.062 286.792V255.095Z" fill="url(#paint107_linear_5409_6102)"/>
</g>
<g opacity="0.4">
<path d="M114.696 173.827L86.6777 201.83V211.005L114.696 183.003V173.827Z" fill="url(#paint108_linear_5409_6102)"/>
<path d="M114.815 188.484L86.6777 216.487V248.184L114.815 220.181V188.484Z" fill="url(#paint109_linear_5409_6102)"/>
</g>
<g opacity="0.4">
<path d="M56.1562 354.237L28.0186 382.239V391.415L56.1562 363.412V354.237Z" fill="url(#paint110_linear_5409_6102)"/>
</g>
<path d="M302.956 375.328V383.908L305.221 382.597V374.375L302.956 375.328Z" fill="url(#paint111_linear_5409_6102)"/>
<path d="M311.66 370.8V378.903L313.806 377.592V369.728L311.66 370.8Z" fill="url(#paint112_linear_5409_6102)"/>
<path d="M319.886 366.272V374.136L322.152 372.826V365.199L319.886 366.272Z" fill="url(#paint113_linear_5409_6102)"/>
<path d="M304.387 375.328L342.897 397.611C346.116 399.518 348.024 402.854 348.024 406.548V443.965" stroke="url(#paint114_linear_5409_6102)" stroke-width="1.4" stroke-miterlimit="10" stroke-linecap="round" stroke-linejoin="round"/>
<path d="M312.971 370.919L351.482 393.202C354.701 395.109 356.608 398.445 356.608 402.139V439.556" stroke="url(#paint115_linear_5409_6102)" stroke-width="1.4" stroke-miterlimit="10" stroke-linecap="round" stroke-linejoin="round"/>
<path d="M321.317 366.153L359.828 388.436C363.047 390.342 364.955 393.679 364.955 397.373V434.789" stroke="url(#paint116_linear_5409_6102)" stroke-width="1.4" stroke-miterlimit="10" stroke-linecap="round" stroke-linejoin="round"/>
<defs>
<linearGradient id="paint0_linear_5409_6102" x1="54.841" y1="313.12" x2="218.571" y2="313.12" gradientUnits="userSpaceOnUse">
<stop stop-color="#006CED"/>
<stop offset="0.33" stop-color="#4C95EC"/>
<stop offset="0.975" stop-color="#DCE4EB"/>
</linearGradient>
<linearGradient id="paint1_linear_5409_6102" x1="440.598" y1="376.439" x2="514.611" y2="443.156" gradientUnits="userSpaceOnUse">
<stop offset="0.025" stop-color="white"/>
<stop offset="1" stop-color="white"/>
</linearGradient>
<linearGradient id="paint2_linear_5409_6102" x1="145.537" y1="311.734" x2="101.148" y2="351.746" gradientUnits="userSpaceOnUse">
<stop offset="0.025" stop-color="white"/>
<stop offset="1" stop-color="white"/>
</linearGradient>
<linearGradient id="paint3_linear_5409_6102" x1="151.075" y1="268.229" x2="383.743" y2="477.958" gradientUnits="userSpaceOnUse">
<stop stop-color="#FAFAFA"/>
<stop offset="0.33" stop-color="white"/>
<stop offset="0.975" stop-color="white"/>
</linearGradient>
<linearGradient id="paint4_linear_5409_6102" x1="151.075" y1="240.465" x2="383.743" y2="450.194" gradientUnits="userSpaceOnUse">
<stop stop-color="white"/>
<stop offset="0.975" stop-color="white"/>
</linearGradient>
<linearGradient id="paint5_linear_5409_6102" x1="24.1185" y1="407.512" x2="102.621" y2="319.29" gradientUnits="userSpaceOnUse">
<stop offset="0.025" stop-color="#4591D7"/>
<stop offset="0.786" stop-color="#36BB91" stop-opacity="0.219"/>
<stop offset="1" stop-color="white" stop-opacity="0"/>
</linearGradient>
<linearGradient id="paint6_linear_5409_6102" x1="130.524" y1="429.271" x2="7.98208" y2="321.875" gradientUnits="userSpaceOnUse">
<stop offset="0.025" stop-color="#0043C6"/>
<stop offset="0.582" stop-color="#90ADE6"/>
<stop offset="1" stop-color="white"/>
</linearGradient>
<linearGradient id="paint7_linear_5409_6102" x1="44.2716" y1="324.853" x2="40.6952" y2="395.213" gradientUnits="userSpaceOnUse">
<stop offset="0.025" stop-color="#0068D1"/>
<stop offset="1" stop-color="#36BB91"/>
</linearGradient>
<linearGradient id="paint8_linear_5409_6102" x1="-17.8173" y1="412.454" x2="132.416" y2="203.084" gradientUnits="userSpaceOnUse">
<stop offset="0.025" stop-color="#DCE4EB"/>
<stop offset="0.67" stop-color="#4C95EC"/>
<stop offset="1" stop-color="#006CED"/>
</linearGradient>
<linearGradient id="paint9_linear_5409_6102" x1="-0.0214609" y1="380.554" x2="56.0988" y2="380.554" gradientUnits="userSpaceOnUse">
<stop offset="0.025" stop-color="#0043C6"/>
<stop offset="0.582" stop-color="#90ADE6"/>
<stop offset="1" stop-color="white"/>
</linearGradient>
<linearGradient id="paint10_linear_5409_6102" x1="63.5105" y1="300.129" x2="186.929" y2="161.429" gradientUnits="userSpaceOnUse">
<stop offset="0.025" stop-color="#4591D7"/>
<stop offset="0.786" stop-color="#D6E6F6" stop-opacity="0.219"/>
<stop offset="1" stop-color="white" stop-opacity="0"/>
</linearGradient>
<linearGradient id="paint11_linear_5409_6102" x1="189.19" y1="231.807" x2="66.6483" y2="124.411" gradientUnits="userSpaceOnUse">
<stop offset="0.025" stop-color="#0043C6"/>
<stop offset="0.582" stop-color="#90ADE6"/>
<stop offset="1" stop-color="white"/>
</linearGradient>
<linearGradient id="paint12_linear_5409_6102" x1="-45.9828" y1="32.008" x2="133.775" y2="244.081" gradientUnits="userSpaceOnUse">
<stop offset="0.025" stop-color="#00264D"/>
<stop offset="1" stop-color="#E093E4"/>
</linearGradient>
<linearGradient id="paint13_linear_5409_6102" x1="72.4788" y1="206.239" x2="99.8926" y2="20.1984" gradientUnits="userSpaceOnUse">
<stop offset="0.025" stop-color="#DCE4EB"/>
<stop offset="0.67" stop-color="#4C95EC"/>
<stop offset="1" stop-color="#006CED"/>
</linearGradient>
<linearGradient id="paint14_linear_5409_6102" x1="58.6449" y1="251.534" x2="114.765" y2="251.534" gradientUnits="userSpaceOnUse">
<stop offset="0.025" stop-color="#0043C6"/>
<stop offset="0.582" stop-color="#90ADE6"/>
<stop offset="1" stop-color="white"/>
</linearGradient>
<linearGradient id="paint15_linear_5409_6102" x1="311.375" y1="371.186" x2="486.031" y2="90.0617" gradientUnits="userSpaceOnUse">
<stop offset="0.025" stop-color="#4591D7" stop-opacity="0.33"/>
<stop offset="0.768" stop-color="#D6E6F6" stop-opacity="0.06"/>
<stop offset="0.977" stop-color="white" stop-opacity="0"/>
</linearGradient>
<linearGradient id="paint16_linear_5409_6102" x1="432.796" y1="348.145" x2="556.216" y2="209.445" gradientUnits="userSpaceOnUse">
<stop offset="0.025" stop-color="#36BB91"/>
<stop offset="0.734375" stop-color="#36BB91" stop-opacity="0.17"/>
<stop offset="1" stop-color="#36BB91" stop-opacity="0"/>
</linearGradient>
<linearGradient id="paint17_linear_5409_6102" x1="558.476" y1="319.927" x2="435.934" y2="212.531" gradientUnits="userSpaceOnUse">
<stop offset="0.025" stop-color="#0043C6"/>
<stop offset="0.582" stop-color="#90ADE6"/>
<stop offset="1" stop-color="white"/>
</linearGradient>
<linearGradient id="paint18_linear_5409_6102" x1="444.19" y1="185.202" x2="479.505" y2="305.337" gradientUnits="userSpaceOnUse">
<stop offset="0.025" stop-color="#0068D1"/>
<stop offset="1" stop-color="#36BB91"/>
</linearGradient>
<linearGradient id="paint19_linear_5409_6102" x1="436.695" y1="308.678" x2="455.059" y2="184.044" gradientUnits="userSpaceOnUse">
<stop offset="0.025" stop-color="#DCE4EB"/>
<stop offset="0.67" stop-color="#4C95EC"/>
<stop offset="1" stop-color="#006CED"/>
</linearGradient>
<linearGradient id="paint20_linear_5409_6102" x1="427.931" y1="299.55" x2="484.05" y2="299.55" gradientUnits="userSpaceOnUse">
<stop offset="0.025" stop-color="#0043C6"/>
<stop offset="0.582" stop-color="#90ADE6"/>
<stop offset="1" stop-color="white"/>
</linearGradient>
<linearGradient id="paint21_linear_5409_6102" x1="427" y1="320" x2="217.069" y2="191.887" gradientUnits="userSpaceOnUse">
<stop stop-color="#144AB3"/>
<stop offset="0.739583" stop-color="#5582DB"/>
<stop offset="1" stop-color="#92B5FB"/>
</linearGradient>
<linearGradient id="paint22_linear_5409_6102" x1="101" y1="331" x2="500.098" y2="323.087" gradientUnits="userSpaceOnUse">
<stop stop-color="#D6E4FF"/>
<stop offset="1" stop-color="#145CE8"/>
</linearGradient>
<linearGradient id="paint23_linear_5409_6102" x1="327.91" y1="85.5566" x2="338.062" y2="67.7813" gradientUnits="userSpaceOnUse">
<stop stop-color="#D38ED7"/>
<stop offset="0.303" stop-color="#9082D5"/>
<stop offset="0.975" stop-color="#0068D1"/>
</linearGradient>
<linearGradient id="paint24_linear_5409_6102" x1="159.86" y1="374.727" x2="148.683" y2="393.962" gradientUnits="userSpaceOnUse">
<stop stop-color="#D38ED7"/>
<stop offset="0.303" stop-color="#9082D5"/>
<stop offset="0.975" stop-color="#0068D1"/>
</linearGradient>
<linearGradient id="paint25_linear_5409_6102" x1="291.028" y1="260.455" x2="478.241" y2="354.988" gradientUnits="userSpaceOnUse">
<stop offset="0.025" stop-color="#003294"/>
<stop offset="0.494792" stop-color="#275DC5"/>
<stop offset="0.984375" stop-color="#BCDFFF"/>
</linearGradient>
<linearGradient id="paint26_linear_5409_6102" x1="319.96" y1="220.492" x2="306.102" y2="252.696" gradientUnits="userSpaceOnUse">
<stop offset="0.025" stop-color="#4591D7"/>
<stop offset="0.786" stop-color="#D6E6F6" stop-opacity="0.219"/>
<stop offset="1" stop-color="white" stop-opacity="0"/>
</linearGradient>
<linearGradient id="paint27_linear_5409_6102" x1="368.573" y1="287.217" x2="309.564" y2="153.928" gradientUnits="userSpaceOnUse">
<stop offset="0.025" stop-color="#0043C6"/>
<stop offset="0.156" stop-color="#0446C7"/>
<stop offset="0.279" stop-color="#0F4EC9"/>
<stop offset="0.4" stop-color="#225CCE"/>
<stop offset="0.519" stop-color="#3D70D4"/>
<stop offset="0.637" stop-color="#608ADB"/>
<stop offset="0.753" stop-color="#8AA9E5"/>
<stop offset="0.87" stop-color="#BDCEF0"/>
<stop offset="0.983" stop-color="#F6F8FD"/>
<stop offset="1" stop-color="white"/>
</linearGradient>
<linearGradient id="paint28_linear_5409_6102" x1="350.167" y1="233.012" x2="506.8" y2="483.382" gradientUnits="userSpaceOnUse">
<stop offset="0.025" stop-color="#DCE4EB"/>
<stop offset="0.67" stop-color="#4C95EC"/>
<stop offset="1" stop-color="#006CED"/>
</linearGradient>
<linearGradient id="paint29_linear_5409_6102" x1="367.205" y1="167.859" x2="308.779" y2="241.827" gradientUnits="userSpaceOnUse">
<stop offset="0.025" stop-color="#0043C6"/>
<stop offset="0.582" stop-color="#90ADE6"/>
<stop offset="1" stop-color="white"/>
</linearGradient>
<linearGradient id="paint30_linear_5409_6102" x1="294.001" y1="109.818" x2="294.001" y2="222.513" gradientUnits="userSpaceOnUse">
<stop offset="0.025" stop-color="#0043C6"/>
<stop offset="0.582" stop-color="#90ADE6"/>
<stop offset="1" stop-color="white"/>
</linearGradient>
<linearGradient id="paint31_linear_5409_6102" x1="327.22" y1="180.835" x2="400.543" y2="298.038" gradientUnits="userSpaceOnUse">
<stop offset="0.025" stop-color="#0043C6"/>
<stop offset="0.156" stop-color="#0446C7"/>
<stop offset="0.279" stop-color="#0F4EC9"/>
<stop offset="0.4" stop-color="#225CCE"/>
<stop offset="0.519" stop-color="#3D70D4"/>
<stop offset="0.637" stop-color="#608ADB"/>
<stop offset="0.753" stop-color="#8AA9E5"/>
<stop offset="0.87" stop-color="#BDCEF0"/>
<stop offset="0.983" stop-color="#F6F8FD"/>
<stop offset="1" stop-color="white"/>
</linearGradient>
<linearGradient id="paint32_linear_5409_6102" x1="312.922" y1="229.585" x2="323.074" y2="210.54" gradientUnits="userSpaceOnUse">
<stop offset="0.025" stop-color="#0068D1" stop-opacity="0.4"/>
<stop offset="0.697" stop-color="#9082D5" stop-opacity="0.124"/>
<stop offset="1" stop-color="#D38ED7" stop-opacity="0"/>
</linearGradient>
<linearGradient id="paint33_linear_5409_6102" x1="312.812" y1="231.351" x2="323.52" y2="214.447" gradientUnits="userSpaceOnUse">
<stop offset="0.025" stop-color="#0068D1" stop-opacity="0.4"/>
<stop offset="0.697" stop-color="#9082D5" stop-opacity="0.124"/>
<stop offset="1" stop-color="#D38ED7" stop-opacity="0"/>
</linearGradient>
<linearGradient id="paint34_linear_5409_6102" x1="323.994" y1="236.273" x2="300.913" y2="275.794" gradientUnits="userSpaceOnUse">
<stop offset="0.025" stop-color="#0068D1" stop-opacity="0.4"/>
<stop offset="0.697" stop-color="#9082D5" stop-opacity="0.124"/>
<stop offset="1" stop-color="#D38ED7" stop-opacity="0"/>
</linearGradient>
<linearGradient id="paint35_linear_5409_6102" x1="380.146" y1="367.54" x2="425.522" y2="367.54" gradientUnits="userSpaceOnUse">
<stop stop-color="#006CED"/>
<stop offset="0.336" stop-color="#4C95EC"/>
<stop offset="0.992" stop-color="#DCE4EB"/>
</linearGradient>
<linearGradient id="paint36_linear_5409_6102" x1="388.8" y1="363.041" x2="434.175" y2="363.041" gradientUnits="userSpaceOnUse">
<stop stop-color="#006CED"/>
<stop offset="0.336" stop-color="#4C95EC"/>
<stop offset="0.992" stop-color="#DCE4EB"/>
</linearGradient>
<linearGradient id="paint37_linear_5409_6102" x1="397.056" y1="358.277" x2="442.431" y2="358.277" gradientUnits="userSpaceOnUse">
<stop stop-color="#006CED"/>
<stop offset="0.336" stop-color="#4C95EC"/>
<stop offset="0.992" stop-color="#DCE4EB"/>
</linearGradient>
<linearGradient id="paint38_linear_5409_6102" x1="309.216" y1="262.423" x2="287.562" y2="300.753" gradientUnits="userSpaceOnUse">
<stop offset="0.025" stop-color="#0068D1" stop-opacity="0.4"/>
<stop offset="0.697" stop-color="#9082D5" stop-opacity="0.124"/>
<stop offset="1" stop-color="#D38ED7" stop-opacity="0"/>
</linearGradient>
<linearGradient id="paint39_linear_5409_6102" x1="380.504" y1="104.721" x2="301.81" y2="-3.84146" gradientUnits="userSpaceOnUse">
<stop offset="0.025" stop-color="#0043C6"/>
<stop offset="0.156" stop-color="#0446C7"/>
<stop offset="0.279" stop-color="#0F4EC9"/>
<stop offset="0.4" stop-color="#225CCE"/>
<stop offset="0.519" stop-color="#3D70D4"/>
<stop offset="0.637" stop-color="#608ADB"/>
<stop offset="0.753" stop-color="#8AA9E5"/>
<stop offset="0.87" stop-color="#BDCEF0"/>
<stop offset="0.983" stop-color="#F6F8FD"/>
<stop offset="1" stop-color="white"/>
</linearGradient>
<linearGradient id="paint40_linear_5409_6102" x1="384" y1="136" x2="288.411" y2="72.3781" gradientUnits="userSpaceOnUse">
<stop stop-color="#3563BD"/>
<stop offset="1" stop-color="#8DB2F9"/>
</linearGradient>
<linearGradient id="paint41_linear_5409_6102" x1="320.626" y1="31.8638" x2="318.39" y2="52.8828" gradientUnits="userSpaceOnUse">
<stop offset="0.025" stop-color="#4591D7"/>
<stop offset="0.786" stop-color="#D6E6F6" stop-opacity="0.219"/>
<stop offset="1" stop-color="white" stop-opacity="0"/>
</linearGradient>
<linearGradient id="paint42_linear_5409_6102" x1="335.336" y1="44.0992" x2="302.686" y2="18.7409" gradientUnits="userSpaceOnUse">
<stop offset="0.025" stop-color="#0043C6"/>
<stop offset="0.582" stop-color="#90ADE6"/>
<stop offset="1" stop-color="white"/>
</linearGradient>
<linearGradient id="paint43_linear_5409_6102" x1="309.933" y1="22.7659" x2="330.948" y2="50.9503" gradientUnits="userSpaceOnUse">
<stop offset="0.025" stop-color="white"/>
<stop offset="1" stop-color="#83B8F6"/>
</linearGradient>
<linearGradient id="paint44_linear_5409_6102" x1="297.882" y1="192.208" x2="347.793" y2="146.738" gradientUnits="userSpaceOnUse">
<stop offset="0.025" stop-color="white"/>
<stop offset="0.202" stop-color="#FBFDFF" stop-opacity="0.819"/>
<stop offset="0.377" stop-color="#EFF6FE" stop-opacity="0.639"/>
<stop offset="0.551" stop-color="#DBEBFC" stop-opacity="0.46"/>
<stop offset="0.726" stop-color="#BFDBFA" stop-opacity="0.281"/>
<stop offset="0.898" stop-color="#9CC6F8" stop-opacity="0.105"/>
<stop offset="1" stop-color="#83B8F6" stop-opacity="0"/>
</linearGradient>
<linearGradient id="paint45_linear_5409_6102" x1="309.197" y1="202.574" x2="351.896" y2="163.673" gradientUnits="userSpaceOnUse">
<stop offset="0.025" stop-color="white"/>
<stop offset="1" stop-color="#83B8F6" stop-opacity="0"/>
</linearGradient>
<linearGradient id="paint46_linear_5409_6102" x1="324.998" y1="217.208" x2="355.446" y2="189.468" gradientUnits="userSpaceOnUse">
<stop offset="0.025" stop-color="white"/>
<stop offset="1" stop-color="#83B8F6" stop-opacity="0"/>
</linearGradient>
<linearGradient id="paint47_linear_5409_6102" x1="275.577" y1="259.482" x2="303.741" y2="206.252" gradientUnits="userSpaceOnUse">
<stop offset="0.025" stop-color="#0068D1"/>
<stop offset="0.697" stop-color="#9082D5"/>
<stop offset="1" stop-color="#D38ED7"/>
</linearGradient>
<linearGradient id="paint48_linear_5409_6102" x1="298.157" y1="210.926" x2="323.195" y2="174.242" gradientUnits="userSpaceOnUse">
<stop stop-color="#83B8F6"/>
<stop offset="0.975" stop-color="white"/>
</linearGradient>
<linearGradient id="paint49_linear_5409_6102" x1="298.184" y1="210.886" x2="322.137" y2="175.792" gradientUnits="userSpaceOnUse">
<stop offset="0.025" stop-color="white"/>
<stop offset="1" stop-color="#83B8F6"/>
</linearGradient>
<linearGradient id="paint50_linear_5409_6102" x1="292.628" y1="171.753" x2="303.355" y2="244.201" gradientUnits="userSpaceOnUse">
<stop offset="0.025" stop-color="#0043C6"/>
<stop offset="0.582" stop-color="#90ADE6"/>
<stop offset="1" stop-color="white"/>
</linearGradient>
<linearGradient id="paint51_linear_5409_6102" x1="352.091" y1="198.505" x2="369.98" y2="182.621" gradientUnits="userSpaceOnUse">
<stop offset="0.025" stop-color="#0068D1"/>
<stop offset="0.697917" stop-color="#0061C2"/>
<stop offset="0.9999" stop-color="#001132"/>
<stop offset="1" stop-color="#0059B3"/>
</linearGradient>
<linearGradient id="paint52_linear_5409_6102" x1="379.808" y1="127.667" x2="373.55" y2="215.318" gradientUnits="userSpaceOnUse">
<stop offset="0.025" stop-color="#215FDA"/>
<stop offset="0.0251" stop-color="#001132"/>
<stop offset="0.582" stop-color="#90ADE6"/>
<stop offset="1" stop-color="white"/>
</linearGradient>
<linearGradient id="paint53_linear_5409_6102" x1="379.146" y1="136.923" x2="373.233" y2="219.762" gradientUnits="userSpaceOnUse">
<stop offset="0.025" stop-color="#272C9A"/>
<stop offset="0.582" stop-color="#90ADE6"/>
<stop offset="1" stop-color="white"/>
</linearGradient>
<linearGradient id="paint54_linear_5409_6102" x1="252.602" y1="289.811" x2="232.039" y2="242.996" gradientUnits="userSpaceOnUse">
<stop offset="0.025" stop-color="#0068D1"/>
<stop offset="0.697" stop-color="#9082D5"/>
<stop offset="1" stop-color="#D38ED7"/>
</linearGradient>
<linearGradient id="paint55_linear_5409_6102" x1="234.669" y1="252.209" x2="229.901" y2="308.855" gradientUnits="userSpaceOnUse">
<stop stop-color="#83B8F6"/>
<stop offset="0.975" stop-color="white"/>
</linearGradient>
<linearGradient id="paint56_linear_5409_6102" x1="234.647" y1="252.489" x2="230.037" y2="307.265" gradientUnits="userSpaceOnUse">
<stop offset="0.025" stop-color="white"/>
<stop offset="1" stop-color="#83B8F6"/>
</linearGradient>
<linearGradient id="paint57_linear_5409_6102" x1="203.43" y1="212.644" x2="263.338" y2="317.764" gradientUnits="userSpaceOnUse">
<stop offset="0.025" stop-color="#001132"/>
<stop offset="1" stop-color="#90ADE6"/>
</linearGradient>
<linearGradient id="paint58_linear_5409_6102" x1="223.366" y1="368.122" x2="147.931" y2="303.684" gradientUnits="userSpaceOnUse">
<stop offset="0.025" stop-color="#0068D1" stop-opacity="0.4"/>
<stop offset="0.697" stop-color="#9082D5" stop-opacity="0.124"/>
<stop offset="1" stop-color="#D38ED7" stop-opacity="0"/>
</linearGradient>
<linearGradient id="paint59_linear_5409_6102" x1="210.442" y1="353.242" x2="181.523" y2="323.711" gradientUnits="userSpaceOnUse">
<stop offset="0.025" stop-color="#0068D1"/>
<stop offset="0.697" stop-color="#9082D5"/>
<stop offset="1" stop-color="#D38ED7"/>
</linearGradient>
<linearGradient id="paint60_linear_5409_6102" x1="182.126" y1="318.739" x2="220.884" y2="358.113" gradientUnits="userSpaceOnUse">
<stop stop-color="#83B8F6"/>
<stop offset="0.975" stop-color="white"/>
</linearGradient>
<linearGradient id="paint61_linear_5409_6102" x1="182.462" y1="319.081" x2="219.705" y2="356.916" gradientUnits="userSpaceOnUse">
<stop offset="0.025" stop-color="white"/>
<stop offset="1" stop-color="#83B8F6"/>
</linearGradient>
<linearGradient id="paint62_linear_5409_6102" x1="178.723" y1="274.171" x2="196.006" y2="396.409" gradientUnits="userSpaceOnUse">
<stop offset="0.025" stop-color="#001132"/>
<stop offset="0.582" stop-color="#90ADE6"/>
<stop offset="1" stop-color="white"/>
</linearGradient>
<linearGradient id="paint63_linear_5409_6102" x1="186.354" y1="273.093" x2="203.638" y2="395.329" gradientUnits="userSpaceOnUse">
<stop offset="0.025" stop-color="#001132"/>
<stop offset="0.828125" stop-color="#90ADE6"/>
<stop offset="1" stop-color="white"/>
</linearGradient>
<linearGradient id="paint64_linear_5409_6102" x1="273.121" y1="299.898" x2="198.176" y2="313.105" gradientUnits="userSpaceOnUse">
<stop offset="0.025" stop-color="#0068D1" stop-opacity="0.4"/>
<stop offset="0.697" stop-color="#9082D5" stop-opacity="0.124"/>
<stop offset="1" stop-color="#D38ED7" stop-opacity="0"/>
</linearGradient>
<linearGradient id="paint65_linear_5409_6102" x1="240.443" y1="149.129" x2="277.318" y2="36.2285" gradientUnits="userSpaceOnUse">
<stop offset="0.025" stop-color="#0068D1"/>
<stop offset="0.484375" stop-color="#52ADD7"/>
<stop offset="1" stop-color="white"/>
</linearGradient>
<linearGradient id="paint66_linear_5409_6102" x1="427.166" y1="497.835" x2="550.585" y2="359.134" gradientUnits="userSpaceOnUse">
<stop offset="0.025" stop-color="#4591D7"/>
<stop offset="0.536458" stop-color="#D6E6F6" stop-opacity="0.3"/>
<stop offset="1" stop-color="white" stop-opacity="0"/>
</linearGradient>
<linearGradient id="paint67_linear_5409_6102" x1="552.846" y1="469.617" x2="430.304" y2="362.221" gradientUnits="userSpaceOnUse">
<stop offset="0.025" stop-color="#0043C6"/>
<stop offset="0.582" stop-color="#90ADE6"/>
<stop offset="1" stop-color="white"/>
</linearGradient>
<linearGradient id="paint68_linear_5409_6102" x1="438.561" y1="334.891" x2="473.874" y2="455.026" gradientUnits="userSpaceOnUse">
<stop offset="0.025" stop-color="#0068D1"/>
<stop offset="1" stop-color="#36BB91"/>
</linearGradient>
<linearGradient id="paint69_linear_5409_6102" x1="431.064" y1="458.368" x2="449.43" y2="333.733" gradientUnits="userSpaceOnUse">
<stop offset="0.025" stop-color="#DCE4EB"/>
<stop offset="0.67" stop-color="#4C95EC"/>
<stop offset="1" stop-color="#006CED"/>
</linearGradient>
<linearGradient id="paint70_linear_5409_6102" x1="422.302" y1="449.24" x2="478.421" y2="449.24" gradientUnits="userSpaceOnUse">
<stop offset="0.025" stop-color="#0043C6"/>
<stop offset="0.582" stop-color="#90ADE6"/>
<stop offset="1" stop-color="white"/>
</linearGradient>
<linearGradient id="paint71_linear_5409_6102" x1="392.793" y1="517.688" x2="516.213" y2="378.987" gradientUnits="userSpaceOnUse">
<stop offset="0.025" stop-color="#4591D7"/>
<stop offset="0.604167" stop-color="#D6E6F6" stop-opacity="0.31"/>
<stop offset="1" stop-color="white" stop-opacity="0"/>
</linearGradient>
<linearGradient id="paint72_linear_5409_6102" x1="518.474" y1="449.366" x2="395.932" y2="341.969" gradientUnits="userSpaceOnUse">
<stop offset="0.025" stop-color="#0043C6"/>
<stop offset="0.582" stop-color="#90ADE6"/>
<stop offset="1" stop-color="white"/>
</linearGradient>
<linearGradient id="paint73_linear_5409_6102" x1="390.783" y1="289.146" x2="444.422" y2="471.62" gradientUnits="userSpaceOnUse">
<stop offset="0.025" stop-color="#004286"/>
<stop offset="1" stop-color="#E492E8"/>
</linearGradient>
<linearGradient id="paint74_linear_5409_6102" x1="394.097" y1="475.759" x2="421.51" y2="289.719" gradientUnits="userSpaceOnUse">
<stop offset="0.025" stop-color="#DCE4EB"/>
<stop offset="0.67" stop-color="#4C95EC"/>
<stop offset="1" stop-color="#006CED"/>
</linearGradient>
<linearGradient id="paint75_linear_5409_6102" x1="387.928" y1="469.093" x2="444.047" y2="469.093" gradientUnits="userSpaceOnUse">
<stop offset="0.025" stop-color="#0043C6"/>
<stop offset="0.582" stop-color="#90ADE6"/>
<stop offset="1" stop-color="white"/>
</linearGradient>
<linearGradient id="paint76_linear_5409_6102" x1="193.694" y1="186.231" x2="115.463" y2="9.55327" gradientUnits="userSpaceOnUse">
<stop stop-color="#333D5E"/>
<stop offset="0.255208" stop-color="#36BB91"/>
<stop offset="1" stop-color="#333D5E"/>
</linearGradient>
<linearGradient id="paint77_linear_5409_6102" x1="247.967" y1="237.556" x2="177.611" y2="161.194" gradientUnits="userSpaceOnUse">
<stop stop-color="#52ADD7"/>
<stop offset="1" stop-color="#86D0F2"/>
</linearGradient>
<linearGradient id="paint78_linear_5409_6102" x1="202.896" y1="218.101" x2="154.608" y2="143.17" gradientUnits="userSpaceOnUse">
<stop stop-color="#001132"/>
</linearGradient>
<linearGradient id="paint79_linear_5409_6102" x1="158.342" y1="21.4897" x2="189.631" y2="119.436" gradientUnits="userSpaceOnUse">
<stop offset="0.025" stop-color="white"/>
<stop offset="1" stop-color="#36BB91"/>
</linearGradient>
<linearGradient id="paint80_linear_5409_6102" x1="169.196" y1="70.1228" x2="287.208" y2="374.263" gradientUnits="userSpaceOnUse">
<stop offset="0.025" stop-color="white"/>
<stop offset="1" stop-color="#36BB91"/>
</linearGradient>
<linearGradient id="paint81_linear_5409_6102" x1="153.193" y1="74.6675" x2="170.984" y2="113.507" gradientUnits="userSpaceOnUse">
<stop offset="0.025" stop-color="#001132"/>
</linearGradient>
<linearGradient id="paint82_linear_5409_6102" x1="119.17" y1="201" x2="165.891" y2="273.471" gradientUnits="userSpaceOnUse">
<stop offset="0.025" stop-color="white"/>
<stop offset="1" stop-color="#83B8F6"/>
</linearGradient>
<linearGradient id="paint83_linear_5409_6102" x1="153.661" y1="258.356" x2="293.446" y2="411.331" gradientUnits="userSpaceOnUse">
<stop offset="0.025" stop-color="white"/>
<stop offset="1" stop-color="#83B8F6"/>
</linearGradient>
<linearGradient id="paint84_linear_5409_6102" x1="124.04" y1="225.101" x2="156.461" y2="275.931" gradientUnits="userSpaceOnUse">
<stop offset="0.025" stop-color="#001132"/>
<stop offset="0.582" stop-color="#90ADE6"/>
<stop offset="1" stop-color="white"/>
</linearGradient>
<linearGradient id="paint85_linear_5409_6102" x1="120.249" y1="227.519" x2="152.669" y2="278.349" gradientUnits="userSpaceOnUse">
<stop offset="0.025" stop-color="#001132"/>
<stop offset="0.582" stop-color="#90ADE6"/>
<stop offset="1" stop-color="white"/>
</linearGradient>
<linearGradient id="paint86_linear_5409_6102" x1="492.154" y1="381.746" x2="607.067" y2="279.034" gradientUnits="userSpaceOnUse">
<stop offset="0.025" stop-color="#4591D7"/>
<stop offset="0.505208" stop-color="#36BB91" stop-opacity="0.219"/>
<stop offset="1" stop-color="white" stop-opacity="0"/>
</linearGradient>
<linearGradient id="paint87_linear_5409_6102" x1="486.563" y1="352.797" x2="554.575" y2="351.454" gradientUnits="userSpaceOnUse">
<stop stop-color="#36BB91"/>
<stop offset="0.975" stop-color="#0068D1"/>
</linearGradient>
<linearGradient id="paint88_linear_5409_6102" x1="508.192" y1="347.612" x2="533.23" y2="310.929" gradientUnits="userSpaceOnUse">
<stop offset="0.025" stop-color="white"/>
<stop offset="1" stop-color="#83B8F6"/>
</linearGradient>
<linearGradient id="paint89_linear_5409_6102" x1="486.416" y1="345.323" x2="554.427" y2="343.98" gradientUnits="userSpaceOnUse">
<stop stop-color="#36BB91"/>
<stop offset="0.975" stop-color="#0068D1"/>
</linearGradient>
<linearGradient id="paint90_linear_5409_6102" x1="508.192" y1="340.135" x2="533.23" y2="303.452" gradientUnits="userSpaceOnUse">
<stop offset="0.025" stop-color="white"/>
<stop offset="1" stop-color="#83B8F6"/>
</linearGradient>
<linearGradient id="paint91_linear_5409_6102" x1="486.255" y1="337.182" x2="554.267" y2="335.839" gradientUnits="userSpaceOnUse">
<stop stop-color="#36BB91"/>
<stop offset="0.975" stop-color="#0068D1"/>
</linearGradient>
<linearGradient id="paint92_linear_5409_6102" x1="508.192" y1="331.992" x2="533.23" y2="295.308" gradientUnits="userSpaceOnUse">
<stop offset="0.025" stop-color="white"/>
<stop offset="1" stop-color="#83B8F6"/>
</linearGradient>
<linearGradient id="paint93_linear_5409_6102" x1="486.082" y1="328.418" x2="554.094" y2="327.075" gradientUnits="userSpaceOnUse">
<stop stop-color="#36BB91"/>
<stop offset="0.975" stop-color="#0068D1"/>
</linearGradient>
<linearGradient id="paint94_linear_5409_6102" x1="558.077" y1="337.4" x2="465.599" y2="309.029" gradientUnits="userSpaceOnUse">
<stop stop-color="#36BB91"/>
<stop offset="0.975" stop-color="white"/>
</linearGradient>
<linearGradient id="paint95_linear_5409_6102" x1="505.631" y1="319.732" x2="565.355" y2="367.998" gradientUnits="userSpaceOnUse">
<stop offset="0.025" stop-color="white"/>
<stop offset="1" stop-color="#83B8F6"/>
</linearGradient>
<linearGradient id="paint96_linear_5409_6102" x1="496.783" y1="268.093" x2="514.066" y2="390.331" gradientUnits="userSpaceOnUse">
<stop offset="0.025" stop-color="#0043C6"/>
<stop offset="1" stop-color="#36BB91"/>
</linearGradient>
<linearGradient id="paint97_linear_5409_6102" x1="504.415" y1="267.013" x2="521.697" y2="389.251" gradientUnits="userSpaceOnUse">
<stop offset="0.025" stop-color="#0043C6"/>
<stop offset="1" stop-color="#36BB91"/>
</linearGradient>
<linearGradient id="paint98_linear_5409_6102" x1="336.975" y1="506.186" x2="261.54" y2="441.747" gradientUnits="userSpaceOnUse">
<stop offset="0.025" stop-color="#0068D1" stop-opacity="0.4"/>
<stop offset="0.697" stop-color="#9082D5" stop-opacity="0.124"/>
<stop offset="1" stop-color="#D38ED7" stop-opacity="0"/>
</linearGradient>
<linearGradient id="paint99_linear_5409_6102" x1="356.597" y1="443.35" x2="277.865" y2="485.424" gradientUnits="userSpaceOnUse">
<stop offset="0.025" stop-color="#0068D1"/>
<stop offset="0.697" stop-color="#9082D5"/>
<stop offset="1" stop-color="#D38ED7"/>
</linearGradient>
<linearGradient id="paint100_linear_5409_6102" x1="349.431" y1="444.278" x2="272.417" y2="480.698" gradientUnits="userSpaceOnUse">
<stop stop-color="#83B8F6"/>
<stop offset="0.975" stop-color="white"/>
</linearGradient>
<linearGradient id="paint101_linear_5409_6102" x1="299.172" y1="462.207" x2="364.178" y2="504.225" gradientUnits="userSpaceOnUse">
<stop offset="0.025" stop-color="white"/>
<stop offset="1" stop-color="#83B8F6"/>
</linearGradient>
<linearGradient id="paint102_linear_5409_6102" x1="292.333" y1="412.235" x2="309.615" y2="534.472" gradientUnits="userSpaceOnUse">
<stop offset="0.025" stop-color="#0043C6"/>
<stop offset="0.582" stop-color="#90ADE6"/>
<stop offset="1" stop-color="white"/>
</linearGradient>
<linearGradient id="paint103_linear_5409_6102" x1="299.965" y1="411.155" x2="317.247" y2="533.393" gradientUnits="userSpaceOnUse">
<stop offset="0.025" stop-color="#0043C6"/>
<stop offset="0.582" stop-color="#90ADE6"/>
<stop offset="1" stop-color="white"/>
</linearGradient>
<linearGradient id="paint104_linear_5409_6102" x1="417.337" y1="370.106" x2="434.762" y2="430.013" gradientUnits="userSpaceOnUse">
<stop offset="0.025" stop-color="white"/>
<stop offset="1" stop-color="#83B8F6" stop-opacity="0"/>
</linearGradient>
<linearGradient id="paint105_linear_5409_6102" x1="414.572" y1="344.596" x2="435.809" y2="417.607" gradientUnits="userSpaceOnUse">
<stop offset="0.025" stop-color="white"/>
<stop offset="1" stop-color="#83B8F6" stop-opacity="0"/>
</linearGradient>
<linearGradient id="paint106_linear_5409_6102" x1="457.338" y1="215.585" x2="474.765" y2="275.492" gradientUnits="userSpaceOnUse">
<stop offset="0.025" stop-color="white"/>
<stop offset="1" stop-color="#83B8F6" stop-opacity="0"/>
</linearGradient>
<linearGradient id="paint107_linear_5409_6102" x1="447.513" y1="207.697" x2="478.46" y2="314.086" gradientUnits="userSpaceOnUse">
<stop offset="0.025" stop-color="white"/>
<stop offset="1" stop-color="#83B8F6" stop-opacity="0"/>
</linearGradient>
<linearGradient id="paint108_linear_5409_6102" x1="88.0381" y1="148.923" x2="105.463" y2="208.83" gradientUnits="userSpaceOnUse">
<stop offset="0.025" stop-color="white"/>
<stop offset="1" stop-color="#83B8F6" stop-opacity="0"/>
</linearGradient>
<linearGradient id="paint109_linear_5409_6102" x1="78.2126" y1="141.035" x2="109.158" y2="247.424" gradientUnits="userSpaceOnUse">
<stop offset="0.025" stop-color="white"/>
<stop offset="1" stop-color="#83B8F6" stop-opacity="0"/>
</linearGradient>
<linearGradient id="paint110_linear_5409_6102" x1="29.3873" y1="329.307" x2="46.8135" y2="389.214" gradientUnits="userSpaceOnUse">
<stop offset="0.025" stop-color="white"/>
<stop offset="1" stop-color="#83B8F6" stop-opacity="0"/>
</linearGradient>
<linearGradient id="paint111_linear_5409_6102" x1="303.757" y1="376.788" x2="304.977" y2="386.321" gradientUnits="userSpaceOnUse">
<stop offset="0.025" stop-color="#0068D1" stop-opacity="0.4"/>
<stop offset="0.697" stop-color="#9082D5" stop-opacity="0.124"/>
<stop offset="1" stop-color="#D38ED7" stop-opacity="0"/>
</linearGradient>
<linearGradient id="paint112_linear_5409_6102" x1="312.454" y1="372.117" x2="313.616" y2="381.206" gradientUnits="userSpaceOnUse">
<stop offset="0.025" stop-color="#0068D1" stop-opacity="0.4"/>
<stop offset="0.697" stop-color="#9082D5" stop-opacity="0.124"/>
<stop offset="1" stop-color="#D38ED7" stop-opacity="0"/>
</linearGradient>
<linearGradient id="paint113_linear_5409_6102" x1="320.736" y1="367.498" x2="321.869" y2="376.351" gradientUnits="userSpaceOnUse">
<stop offset="0.025" stop-color="#0068D1" stop-opacity="0.4"/>
<stop offset="0.697" stop-color="#9082D5" stop-opacity="0.124"/>
<stop offset="1" stop-color="#D38ED7" stop-opacity="0"/>
</linearGradient>
<linearGradient id="paint114_linear_5409_6102" x1="303.533" y1="409.693" x2="348.909" y2="409.693" gradientUnits="userSpaceOnUse">
<stop stop-color="#006CED"/>
<stop offset="0.336" stop-color="#4C95EC"/>
<stop offset="0.992" stop-color="#DCE4EB"/>
</linearGradient>
<linearGradient id="paint115_linear_5409_6102" x1="312.187" y1="405.193" x2="357.562" y2="405.193" gradientUnits="userSpaceOnUse">
<stop stop-color="#006CED"/>
<stop offset="0.336" stop-color="#4C95EC"/>
<stop offset="0.992" stop-color="#DCE4EB"/>
</linearGradient>
<linearGradient id="paint116_linear_5409_6102" x1="320.442" y1="400.429" x2="365.818" y2="400.429" gradientUnits="userSpaceOnUse">
<stop stop-color="#006CED"/>
<stop offset="0.336" stop-color="#4C95EC"/>
<stop offset="0.992" stop-color="#DCE4EB"/>
</linearGradient>
</defs>
</svg>
